<svg xmlns="http://www.w3.org/2000/svg" style="transform:scale(.8)" viewBox="0 0 59.621 91"><path fill="#9f9f9f" fill-rule="evenodd" d="M28.966,11.414V8.269A6.288,6.288,0,0,1,35.257,2h3.107a6.273,6.273,0,0,1,6.291,6.269v3.144h6.29a3.128,3.128,0,0,1,3.124,3.135v3.144a3.12,3.12,0,0,1-3.124,3.135H22.676a3.128,3.128,0,0,1-3.124-3.135V14.548a3.12,3.12,0,0,1,3.124-3.135Zm28.241,3.138h3.146a6.271,6.271,0,0,1,6.268,6.287V86.713A6.263,6.263,0,0,1,60.353,93H13.268A6.271,6.271,0,0,1,7,86.713V20.839a6.263,6.263,0,0,1,6.268-6.287h3.146q0,.008,0,.015v3.107A6.282,6.282,0,0,0,22.7,23.966H50.922a6.28,6.28,0,0,0,6.285-6.291V14.567q0-.008,0-.015Zm-20.4-3.138a1.569,1.569,0,1,0-1.569-1.569,1.569,1.569,0,0,0,1.569,1.569ZM32.9,70.047,57.306,45.64l-2.219-2.219L32.9,65.609,21.155,53.865l-2.219,2.219L32.9,70.047Z" transform="translate(-7 -2)"/></svg>