<svg xmlns="http://www.w3.org/2000/svg" width="200.345" height="36.625" viewBox="0 0 200.345 36.625"><defs><style>.a{fill:#9f9f9f}</style></defs><path class="a" d="M.534.632V-1.893A5.373,5.373,0,0,0-3.76-3.7c-2.105,0-3.831,1.137-3.831,3.073S-5.865,2.4-3.76,2.4A5.347,5.347,0,0,0,.534.632m0,4.883V3.368A8.3,8.3,0,0,1-5.907,6.02c-3.242,0-7.03-2.189-7.03-6.735,0-4.8,3.789-6.567,7.03-6.567A8.3,8.3,0,0,1,.534-4.8V-7.367c0-2.062-1.768-3.41-4.462-3.41a8.548,8.548,0,0,0-5.852,2.4l-2.1-3.746A13.124,13.124,0,0,1-3-15.323c4.672,0,8.924,1.852,8.924,7.7V5.515Z" transform="translate(35.344 8.04) translate(12.938 15.323)"/><path class="a" d="M.6.422c0-3.494-2.1-5.893-5.178-5.893A5.924,5.924,0,0,0-9.168-3.156V4A6.026,6.026,0,0,0-4.579,6.358C-1.506,6.358.6,3.958.6.422M-9.168,8V18.356h-5.347V-9.723h5.347v2.568A7.854,7.854,0,0,1-2.9-10.228c5.22,0,9.008,3.872,9.008,10.65S2.324,11.115-2.9,11.115A7.825,7.825,0,0,1-9.168,8" transform="translate(57.358 8.041) translate(14.514 10.228)"/><path class="a" d="M.6.422c0-3.494-2.1-5.893-5.178-5.893A5.924,5.924,0,0,0-9.168-3.156V4A6.026,6.026,0,0,0-4.579,6.358C-1.506,6.358.6,3.958.6.422M-9.168,8V18.356h-5.347V-9.723h5.347v2.568A7.854,7.854,0,0,1-2.9-10.228c5.22,0,9.008,3.872,9.008,10.65S2.324,11.115-2.9,11.115A7.825,7.825,0,0,1-9.168,8" transform="translate(79.793 8.041) translate(14.514 10.228)"/><path class="a" d="M104.028,89.681h5.346v28.078h-5.346Z" transform="translate(-1.799 -88.882)"/><path class="a" d="M112.253,97.459H117.6v20.332h-5.346Zm-.505-5.389a3.179,3.179,0,0,1,6.357,0,3.179,3.179,0,1,1-6.357,0" transform="translate(-1.481 -88.913)"/><path class="a" d="M.133.824V-9.742H-3.235v-4.672H.133v-5.557H5.48v5.557H9.605v4.672H5.48V-.607c0,1.305.673,2.273,1.852,2.273a2.692,2.692,0,0,0,1.852-.631l1.137,4.084a6.6,6.6,0,0,1-4.463,1.3C2.112,6.423.133,4.486.133.824" transform="translate(117.043 2.989) translate(3.235 19.972)"/><path class="a" d="M.632.422c0-3.158-1.852-5.893-5.22-5.893-3.325,0-5.178,2.736-5.178,5.893,0,3.2,1.852,5.936,5.178,5.936C-1.22,6.358.632,3.621.632.422m-15.955,0A10.3,10.3,0,0,1-4.588-10.228,10.309,10.309,0,0,1,6.189.422,10.342,10.342,0,0,1-4.588,11.115,10.331,10.331,0,0,1-15.323.422" transform="translate(130.134 8.041) translate(15.323 10.228)"/><path class="a" d="M.632.422c0-3.158-1.852-5.893-5.22-5.893-3.326,0-5.178,2.736-5.178,5.893,0,3.2,1.852,5.936,5.178,5.936C-1.22,6.358.632,3.621.632.422m-15.955,0A10.3,10.3,0,0,1-4.588-10.228,10.309,10.309,0,0,1,6.189.422,10.342,10.342,0,0,1-4.588,11.115,10.331,10.331,0,0,1-15.323.422" transform="translate(152.233 8.041) translate(15.323 10.228)"/><path class="a" d="M174.527,89.681h5.346v28.078h-5.346Z" transform="translate(1.108 -88.882)"/><path class="a" d="M0,.72,2.316-3.152a11.523,11.523,0,0,0,7.03,2.82c2.316,0,3.41-.884,3.41-2.147,0-3.325-12.04-.589-12.04-8.588,0-3.41,2.947-6.4,8.335-6.4a12.951,12.951,0,0,1,8.167,2.778L15.071-10.9a8.764,8.764,0,0,0-6.02-2.358c-1.936,0-3.2.842-3.2,1.979,0,2.989,12.082.463,12.082,8.672,0,3.747-3.2,6.483-8.841,6.483A13.688,13.688,0,0,1,0,.72" transform="translate(182.412 8.041) translate(0 17.465)"/><path class="a" d="M22.815,111.763c-.473-.324-.993-.658-1.432-.94,0,0,0-.006.006-.012a40.374,40.374,0,0,0-6.735-3.5l.047-.021a55.828,55.828,0,0,0,8.176-4.462,24.642,24.642,0,0,1,.376,4.3,24.7,24.7,0,0,1-.438,4.635m6.409-13.72V93.414c-1.722,1.526-3.468,2.972-5.164,4.26a17.169,17.169,0,0,0-6.523-5.808,20.261,20.261,0,0,1,4.408,7.367A68.811,68.811,0,0,1,5.849,107.3c6.2,2.552,11.255,4.682,15.985,8.025a20.1,20.1,0,0,1-4.3,7.065,17.165,17.165,0,0,0,6.351-5.555c2.427,1.84,4.462,3.584,5.336,4.387v-4.643c-.539-.444-1.171-.957-1.87-1.5l-.009.006c-.55-.43-1.14-.884-1.761-1.346A17.024,17.024,0,0,0,25.7,100.81c1.233-.929,2.426-1.868,3.521-2.767" transform="translate(-5.849 -88.791)"/></svg>
