<svg xmlns="http://www.w3.org/2000/svg" xmlns:ev="http://www.w3.org/2001/xml-events" xmlns:xlink="http://www.w3.org/1999/xlink" width="89.206" height="96.033" viewBox="0 0 89.206 96.033"><defs><pattern id="img1" width="200" height="200" x="190" y="-70" patternUnits="userSpaceOnUse"><image width="400" height="290" xlink:href="https://www.gitpod.io/galaxy-big.jpg"/></pattern></defs><g data-name="Gruppe 305"><path fill="url(#img1)" d="M168.351,48.966a.735.735,0,0,0-.516-.481l-5.647-1.437,2.3-2.831a.735.735,0,1,0-1.142-.926l-2.3,2.834-2.6-5.243a.735.735,0,0,0-1.23-.135l-3.987,4.934a.736.736,0,0,0-.087.787l2.883,5.849L130.1,84.276a.735.735,0,0,0,.57,1.2h0a.735.735,0,0,1-.571-1.2l3.366-4.151a6.106,6.106,0,0,0-9.242,5.229,6.1,6.1,0,1,0,10.4-4.326l.929-1.145a7.564,7.564,0,1,1-1.157-.908l4.329-5.337a14.453,14.453,0,1,0,1.15.917l.926-1.142a15.881,15.881,0,1,1-1.149-.919l4.564-5.628a23.209,23.209,0,1,0,1.146.922l.926-1.142a24.555,24.555,0,1,1-1.146-.922l5.389-6.645a33.148,33.148,0,1,0-20.5,59.425c.339,0,.678,0,1.016-.005h.079c.143,0,.285-.01.428-.015s.315-.01.472-.018l.071,0a33.073,33.073,0,0,0,5.627-.783l.159-.037q.351-.082.7-.171l.044-.011A33.14,33.14,0,0,0,151.679,60l5.485-6.763,6.3,1.6a.735.735,0,0,0,.753-.249l4-4.935A.734.734,0,0,0,168.351,48.966Zm-8.328-1.586-2.983,3.677h0l2.983-3.676-2.388-4.817h0Zm3.352,5.924h0l2.983-3.677-5.19-1.321h0l5.191,1.321Z" data-name="andy-holmes-rCbdp8VCYhQ-unsplash" transform="translate(9 6) matrix(1, 0, 0, 1, -9, -6) translate(-88.18 -34.47)"/></g></svg>