<svg xmlns="http://www.w3.org/2000/svg" viewBox="0 0 1182.52 806.08"><defs><style>.cls-1{fill:#e6e6e6;stroke:#fff;stroke-linecap:round;stroke-linejoin:round;stroke-width:6px}.cls-3{fill:#666}</style></defs><g id="Ebene_4" data-name="Ebene 4"><path class="cls-1" d="M675.69,544.17s-4,7.89-14.16,18.58c-13.9,14.6-39.35,34.42-82,46.56h403V544.17Z"/><path class="cls-1" d="M579.5,544.17H412.63c-1.23-1.14-2.46-2.3-3.67-3.46s-2.42-2.35-3.61-3.54a244.94,244.94,0,0,1-71.74-160h65.27A181.25,181.25,0,0,0,509,529.94a178.63,178.63,0,0,0,34.44,10.65A181.86,181.86,0,0,0,579.5,544.17Z"/><path class="cls-1" d="M472.57,216.75a183.11,183.11,0,0,0-43.4,45.12A180.6,180.6,0,0,0,401.92,327,181.86,181.86,0,0,0,398.35,363q0,7.11.53,14.11H333.61q-.41-7-.4-14.11a247.61,247.61,0,0,1,4.86-49,247.09,247.09,0,0,1,88-143.71Z"/><path class="cls-1" d="M715.23,157.43l-45.82,48.26a181.22,181.22,0,0,0-19.4-9.61,178.94,178.94,0,0,0-34.45-10.65,183.4,183.4,0,0,0-72.12,0A178.84,178.84,0,0,0,509,196.08a181,181,0,0,0-30.64,16.59c-1.95,1.32-3.89,2.68-5.79,4.08l-46.46-46.46q7.71-6.15,15.85-11.65a246.25,246.25,0,0,1,273.27-1.21Z"/><path class="cls-1" d="M825.8,363c0,1.69,0,3.38-.06,5.06l-65.17.42c.06-1.82.09-3.65.09-5.48A182.6,182.6,0,0,0,757.09,327a180.6,180.6,0,0,0-27.25-65.08,183.14,183.14,0,0,0-49.19-49.2c-3.66-2.46-7.41-4.8-11.24-7l45.82-48.26,1.81,1.21a246.55,246.55,0,0,1,89.39,108.49A243.8,243.8,0,0,1,820.93,314,246.87,246.87,0,0,1,825.8,363Z"/><path class="cls-1" d="M825.74,368.07a245.54,245.54,0,0,1-72.08,169.1l-1.17,1.16-2.44,2.38c-1.22,1.17-2.44,2.32-3.68,3.46,0,0-6.9,7.89-24.56,18.58L675.65,516.6c1.69-1.05,3.35-2.14,5-3.25a181.49,181.49,0,0,0,65.79-79.84,179.33,179.33,0,0,0,14.13-65Z"/><path class="cls-1" d="M469.16,544.17v65.14l91.12.09c77.48-1.33,148-37.58,161.53-46.65L675.65,516.6C605.5,557.86,577.57,544.55,469.16,544.17Z"/><path class="cls-1" d="M469.22,544.17c1.19.38,0,65.14,0,65.14H171.79V544.17S468,543.79,469.22,544.17Z"/><polygon points="979.01 606.18 979.01 546.99 1008.6 576.59 979.01 606.18" fill="#e6e6e6"/><path class="cls-3" d="M812.37,577.51a3.31,3.31,0,0,1-1.26,2.74,5.4,5.4,0,0,1-3.48,1,8.12,8.12,0,0,1-3.64-.77V578a15,15,0,0,0,2.2.82,6.4,6.4,0,0,0,1.65.23,2.29,2.29,0,0,0,1.37-.34,1.18,1.18,0,0,0,.48-1,1.13,1.13,0,0,0-.21-.67,2.17,2.17,0,0,0-.62-.57,15.81,15.81,0,0,0-1.66-.87,7.79,7.79,0,0,1-1.77-1.06,4.16,4.16,0,0,1-.94-1.19,3.44,3.44,0,0,1-.35-1.58,3.31,3.31,0,0,1,1.15-2.68,4.84,4.84,0,0,1,3.2-1,7.46,7.46,0,0,1,1.91.24,12.77,12.77,0,0,1,1.9.67l-.88,2.12a12.52,12.52,0,0,0-1.7-.59,5.5,5.5,0,0,0-1.32-.17,1.73,1.73,0,0,0-1.18.36,1.26,1.26,0,0,0-.25,1.57,1.88,1.88,0,0,0,.53.52,14.93,14.93,0,0,0,1.73.9,7,7,0,0,1,2.47,1.73A3.4,3.4,0,0,1,812.37,577.51Z"/><path class="cls-3" d="M818.62,579.12a5.69,5.69,0,0,0,1.69-.31v2a6,6,0,0,1-2.46.44,3,3,0,0,1-2.34-.81,3.52,3.52,0,0,1-.74-2.44v-4.73h-1.28v-1.14l1.48-.89.77-2.08h1.71v2.09h2.76v2h-2.76V578a1.09,1.09,0,0,0,.32.85A1.29,1.29,0,0,0,818.62,579.12Z"/><path class="cls-3" d="M828.54,581.08l-.52-1.34H828a3.88,3.88,0,0,1-1.39,1.18,4.35,4.35,0,0,1-1.87.33,3,3,0,0,1-2.23-.8,3.13,3.13,0,0,1-.81-2.31,2.57,2.57,0,0,1,1.09-2.3A6.36,6.36,0,0,1,826,575l1.71,0v-.43a1.34,1.34,0,0,0-1.53-1.49,6.86,6.86,0,0,0-2.77.71l-.89-1.81a8,8,0,0,1,3.76-.89,4.69,4.69,0,0,1,3,.86,3.18,3.18,0,0,1,1.06,2.62v6.55Zm-.79-4.55-1,0A3.36,3.36,0,0,0,825,577a1.33,1.33,0,0,0-.57,1.18c0,.76.43,1.13,1.3,1.13a2,2,0,0,0,1.49-.53,1.9,1.9,0,0,0,.56-1.43Z"/><path class="cls-3" d="M838.65,571.07a3.88,3.88,0,0,1,.91.08l-.2,2.51a3,3,0,0,0-.79-.09,2.82,2.82,0,0,0-2,.66,2.39,2.39,0,0,0-.72,1.85v5h-2.68v-9.83h2l.39,1.66h.14a3.61,3.61,0,0,1,1.23-1.34A3.09,3.09,0,0,1,838.65,571.07Z"/><path class="cls-3" d="M845.48,579.12a5.69,5.69,0,0,0,1.69-.31v2a6,6,0,0,1-2.46.44,3,3,0,0,1-2.34-.81,3.52,3.52,0,0,1-.74-2.44v-4.73h-1.28v-1.14l1.48-.89.77-2.08h1.71v2.09h2.76v2h-2.76V578a1.09,1.09,0,0,0,.32.85A1.29,1.29,0,0,0,845.48,579.12Z"/><path class="cls-3" d="M859.5,570.31a2.78,2.78,0,0,0-2.38,1.16,5.38,5.38,0,0,0-.84,3.22c0,2.86,1.07,4.3,3.22,4.3a10.25,10.25,0,0,0,3.28-.68v2.29a9.06,9.06,0,0,1-3.53.65,5.37,5.37,0,0,1-4.29-1.7,7.19,7.19,0,0,1-1.49-4.88,8.09,8.09,0,0,1,.73-3.51,5.35,5.35,0,0,1,2.1-2.31,6.16,6.16,0,0,1,3.2-.81,8.69,8.69,0,0,1,3.76.91l-.88,2.21c-.48-.22-1-.42-1.45-.59A4.28,4.28,0,0,0,859.5,570.31Z"/><path class="cls-3" d="M874.23,576.15A5.28,5.28,0,0,1,873,579.9a4.61,4.61,0,0,1-3.53,1.35,4.94,4.94,0,0,1-2.49-.61,4.23,4.23,0,0,1-1.67-1.78,6.11,6.11,0,0,1-.58-2.71A5.25,5.25,0,0,1,866,572.4a4.62,4.62,0,0,1,3.53-1.33,5,5,0,0,1,2.5.61,4.12,4.12,0,0,1,1.66,1.77A5.9,5.9,0,0,1,874.23,576.15Zm-6.79,0a4.08,4.08,0,0,0,.48,2.2,2,2,0,0,0,3.1,0,4.22,4.22,0,0,0,.47-2.21A4,4,0,0,0,871,574a2,2,0,0,0-3.1,0A4.1,4.1,0,0,0,867.44,576.15Z"/><path class="cls-3" d="M879.56,581.25a3.17,3.17,0,0,1-2.72-1.34,7.55,7.55,0,0,1,0-7.49,3.29,3.29,0,0,1,2.78-1.35,3.21,3.21,0,0,1,2.83,1.44h.09a10.58,10.58,0,0,1-.21-2V567.4H885v13.68h-2l-.52-1.28h-.12A3,3,0,0,1,879.56,581.25Zm.94-2.13a1.79,1.79,0,0,0,1.5-.6,3.46,3.46,0,0,0,.53-2v-.29a4,4,0,0,0-.49-2.27,1.82,1.82,0,0,0-1.59-.68,1.57,1.57,0,0,0-1.39.76,4.07,4.07,0,0,0-.49,2.21,3.76,3.76,0,0,0,.5,2.17A1.62,1.62,0,0,0,880.5,579.12Z"/><path class="cls-3" d="M887.72,568.71c0-.87.49-1.31,1.46-1.31s1.46.44,1.46,1.31a1.28,1.28,0,0,1-.36,1,1.52,1.52,0,0,1-1.1.35C888.21,570,887.72,569.59,887.72,568.71Zm2.8,12.37h-2.68v-9.83h2.68Z"/><path class="cls-3" d="M902.4,581.08h-2.68v-5.74a2.74,2.74,0,0,0-.38-1.59,1.36,1.36,0,0,0-1.2-.54,1.83,1.83,0,0,0-1.63.75,4.76,4.76,0,0,0-.5,2.5v4.62h-2.68v-9.83h2l.36,1.26h.15a2.93,2.93,0,0,1,1.23-1.08,4.27,4.27,0,0,1,1.79-.36,3.43,3.43,0,0,1,2.6.93,3.71,3.71,0,0,1,.89,2.67Z"/><path class="cls-3" d="M913.71,571.25v1.37l-1.54.39a2.62,2.62,0,0,1,.43,1.48,3,3,0,0,1-1.11,2.46,4.75,4.75,0,0,1-3.06.89l-.48,0-.4,0a.89.89,0,0,0-.41.7c0,.39.49.58,1.47.58h1.67a3.85,3.85,0,0,1,2.47.69,2.49,2.49,0,0,1,.85,2,3,3,0,0,1-1.44,2.67,7.42,7.42,0,0,1-4.13.95,5.79,5.79,0,0,1-3.14-.71,2.28,2.28,0,0,1-1.08-2,2.11,2.11,0,0,1,.55-1.49,3.13,3.13,0,0,1,1.63-.85,1.74,1.74,0,0,1-.72-.58,1.31,1.31,0,0,1-.31-.84,1.41,1.41,0,0,1,.32-.94,3.79,3.79,0,0,1,.94-.73,2.66,2.66,0,0,1-1.22-1.08,3.27,3.27,0,0,1-.45-1.74,3,3,0,0,1,1-2.48,4.5,4.5,0,0,1,3-.88,7.61,7.61,0,0,1,1,.07l.72.11Zm-7.58,11.22a1,1,0,0,0,.53.87,2.93,2.93,0,0,0,1.49.31,5.37,5.37,0,0,0,2.26-.39,1.22,1.22,0,0,0,.82-1.08.78.78,0,0,0-.49-.77,4,4,0,0,0-1.49-.21h-1.39a2.13,2.13,0,0,0-1.24.35A1.07,1.07,0,0,0,906.13,582.47Zm1-8a2,2,0,0,0,.37,1.27,1.57,1.57,0,0,0,2.22,0,2.12,2.12,0,0,0,.35-1.27c0-1.18-.49-1.78-1.46-1.78S907.1,573.29,907.1,574.47Z"/><path class="cls-3" d="M212.94,570a2.77,2.77,0,0,0-2.38,1.16,5.31,5.31,0,0,0-.85,3.22q0,4.3,3.23,4.3a10.3,10.3,0,0,0,3.28-.68v2.29a9.15,9.15,0,0,1-3.54.66,5.39,5.39,0,0,1-4.28-1.7,7.19,7.19,0,0,1-1.49-4.89,8,8,0,0,1,.73-3.51,5.33,5.33,0,0,1,2.09-2.31,6.29,6.29,0,0,1,3.21-.8,8.67,8.67,0,0,1,3.76.9l-.88,2.22a13.86,13.86,0,0,0-1.45-.6A4.28,4.28,0,0,0,212.94,570Z"/><path class="cls-3" d="M227.81,580.76h-2.68V575c0-1.42-.53-2.13-1.58-2.13a1.82,1.82,0,0,0-1.63.77,4.72,4.72,0,0,0-.5,2.48v4.62h-2.68V567.08h2.68v2.79q0,.33-.06,1.53l-.06.79h.14a3.1,3.1,0,0,1,2.85-1.44,3.46,3.46,0,0,1,2.62.93,3.69,3.69,0,0,1,.9,2.67Z"/><path class="cls-3" d="M239.5,575.83a5.24,5.24,0,0,1-1.27,3.75,4.54,4.54,0,0,1-3.52,1.36,5,5,0,0,1-2.5-.62,4.2,4.2,0,0,1-1.66-1.78,6.11,6.11,0,0,1-.58-2.71,5.22,5.22,0,0,1,1.26-3.74,4.61,4.61,0,0,1,3.53-1.34,4.86,4.86,0,0,1,2.5.62,4.1,4.1,0,0,1,1.66,1.76A5.9,5.9,0,0,1,239.5,575.83Zm-6.79,0a4.05,4.05,0,0,0,.48,2.21,2,2,0,0,0,3.1,0,4.2,4.2,0,0,0,.47-2.21,4,4,0,0,0-.48-2.19,2,2,0,0,0-3.1,0A4,4,0,0,0,232.71,575.83Z"/><path class="cls-3" d="M250.64,575.83a5.28,5.28,0,0,1-1.26,3.75,4.58,4.58,0,0,1-3.53,1.36,5,5,0,0,1-2.49-.62,4.14,4.14,0,0,1-1.66-1.78,6,6,0,0,1-.58-2.71,5.26,5.26,0,0,1,1.25-3.74,4.64,4.64,0,0,1,3.54-1.34,4.85,4.85,0,0,1,2.49.62,4,4,0,0,1,1.66,1.76A5.9,5.9,0,0,1,250.64,575.83Zm-6.79,0a4.14,4.14,0,0,0,.48,2.21,1.73,1.73,0,0,0,1.56.74,1.67,1.67,0,0,0,1.54-.74,4.2,4.2,0,0,0,.47-2.21,4.14,4.14,0,0,0-.47-2.19,1.74,1.74,0,0,0-1.56-.73,1.71,1.71,0,0,0-1.55.73A4.1,4.1,0,0,0,243.85,575.83Z"/><path class="cls-3" d="M259.71,577.84a2.72,2.72,0,0,1-1,2.31,5.22,5.22,0,0,1-3.14.79,9.65,9.65,0,0,1-1.83-.15,7.71,7.71,0,0,1-1.41-.42v-2.22a10,10,0,0,0,1.68.59,6.83,6.83,0,0,0,1.65.24c1,0,1.46-.28,1.46-.85a.73.73,0,0,0-.19-.51,3.16,3.16,0,0,0-.67-.45c-.32-.17-.74-.36-1.27-.58a8.06,8.06,0,0,1-1.66-.88,2.43,2.43,0,0,1-.78-.93,3.1,3.1,0,0,1-.24-1.29,2.32,2.32,0,0,1,1-2,4.89,4.89,0,0,1,2.87-.72,8.26,8.26,0,0,1,3.46.77l-.81,1.94a13.48,13.48,0,0,0-1.38-.52,4.17,4.17,0,0,0-1.31-.2c-.79,0-1.19.21-1.19.64a.74.74,0,0,0,.39.62,9.39,9.39,0,0,0,1.67.78,7.77,7.77,0,0,1,1.69.87,2.51,2.51,0,0,1,.79.94A2.85,2.85,0,0,1,259.71,577.84Z"/><path class="cls-3" d="M266.25,580.94a5.11,5.11,0,0,1-3.71-1.31,5,5,0,0,1-1.33-3.71,5.47,5.47,0,0,1,1.23-3.82,4.41,4.41,0,0,1,3.42-1.35,4.32,4.32,0,0,1,3.24,1.19,4.49,4.49,0,0,1,1.16,3.27v1.31h-6.34a2.59,2.59,0,0,0,.68,1.78,2.37,2.37,0,0,0,1.78.64,7.59,7.59,0,0,0,1.68-.18,9.17,9.17,0,0,0,1.65-.59v2.07a5.86,5.86,0,0,1-1.51.52A9,9,0,0,1,266.25,580.94Zm-.37-8.28a1.7,1.7,0,0,0-1.34.54,2.47,2.47,0,0,0-.55,1.53h3.76a2.24,2.24,0,0,0-.52-1.53A1.76,1.76,0,0,0,265.88,572.66Z"/><path class="cls-3" d="M286.2,571.92a3.93,3.93,0,0,1-1.29,3.17,5.57,5.57,0,0,1-3.69,1.1h-1.17v4.57h-2.72V567.91h4.1a5.47,5.47,0,0,1,3.56,1A3.67,3.67,0,0,1,286.2,571.92Zm-6.15,2h.9a3,3,0,0,0,1.88-.5,1.71,1.71,0,0,0,.62-1.44,1.79,1.79,0,0,0-.52-1.42,2.47,2.47,0,0,0-1.64-.46h-1.24Z"/><path class="cls-3" d="M293.9,570.75a4.51,4.51,0,0,1,.91.08l-.2,2.51a3,3,0,0,0-.79-.09,2.82,2.82,0,0,0-2,.66,2.39,2.39,0,0,0-.72,1.85v5h-2.68v-9.83h2l.4,1.66H291a3.68,3.68,0,0,1,1.23-1.34A3.09,3.09,0,0,1,293.9,570.75Z"/><path class="cls-3" d="M305.52,575.83a5.28,5.28,0,0,1-1.26,3.75,4.58,4.58,0,0,1-3.53,1.36,5,5,0,0,1-2.49-.62,4.14,4.14,0,0,1-1.66-1.78,6,6,0,0,1-.58-2.71,5.22,5.22,0,0,1,1.25-3.74,4.64,4.64,0,0,1,3.54-1.34,4.85,4.85,0,0,1,2.49.62,4,4,0,0,1,1.66,1.76A5.9,5.9,0,0,1,305.52,575.83Zm-6.79,0a4.14,4.14,0,0,0,.48,2.21,1.73,1.73,0,0,0,1.56.74,1.67,1.67,0,0,0,1.54-.74,4.2,4.2,0,0,0,.47-2.21,4.14,4.14,0,0,0-.47-2.19,1.74,1.74,0,0,0-1.56-.73,1.71,1.71,0,0,0-1.55.73A4.1,4.1,0,0,0,298.73,575.83Z"/><path class="cls-3" d="M307,585.08a6.51,6.51,0,0,1-1.77-.21v-2.11a4.84,4.84,0,0,0,1.26.16,1.19,1.19,0,0,0,1-.38,1.75,1.75,0,0,0,.31-1.11v-10.5h2.68v10.89a3.14,3.14,0,0,1-.91,2.42A3.62,3.62,0,0,1,307,585.08Zm.67-16.69c0-.87.49-1.31,1.46-1.31s1.46.44,1.46,1.31a1.31,1.31,0,0,1-.36,1,1.56,1.56,0,0,1-1.1.34C308.11,569.71,307.62,569.27,307.62,568.39Z"/><path class="cls-3" d="M317.68,580.94a5.09,5.09,0,0,1-3.71-1.31,5,5,0,0,1-1.34-3.71,5.42,5.42,0,0,1,1.24-3.82,5,5,0,0,1,6.66-.16,4.49,4.49,0,0,1,1.16,3.27v1.31h-6.34a2.55,2.55,0,0,0,.68,1.78,2.36,2.36,0,0,0,1.77.64,7.59,7.59,0,0,0,1.68-.18,8.66,8.66,0,0,0,1.65-.59v2.07a5.92,5.92,0,0,1-1.5.52A9,9,0,0,1,317.68,580.94Zm-.38-8.28a1.72,1.72,0,0,0-1.34.54,2.53,2.53,0,0,0-.55,1.53h3.76a2.19,2.19,0,0,0-.52-1.53A1.74,1.74,0,0,0,317.3,572.66Z"/><path class="cls-3" d="M327.86,580.94q-4.59,0-4.59-5a5.34,5.34,0,0,1,1.25-3.83,4.67,4.67,0,0,1,3.57-1.32,6.75,6.75,0,0,1,3.06.67l-.79,2.07a10.45,10.45,0,0,0-1.18-.41,3.7,3.7,0,0,0-1.09-.17c-1.39,0-2.09,1-2.09,3s.7,2.89,2.09,2.89a4.73,4.73,0,0,0,1.44-.21,5,5,0,0,0,1.31-.65v2.3a4.54,4.54,0,0,1-1.31.57A7.67,7.67,0,0,1,327.86,580.94Z"/><path class="cls-3" d="M337.26,578.8a5.69,5.69,0,0,0,1.69-.31v2a6,6,0,0,1-2.46.45,3,3,0,0,1-2.35-.82,3.52,3.52,0,0,1-.73-2.44V573h-1.28v-1.14l1.47-.89.78-2.08h1.71v2.09h2.75v2h-2.75v4.73a1.06,1.06,0,0,0,.32.85A1.29,1.29,0,0,0,337.26,578.8Z"/><path class="cls-3" d="M376.64,435.78l-5,2c-.37-.9-.55-1.35-.9-2.26l12.6-4.93c.56,1.44.85,2.16,1.45,3.59a6.64,6.64,0,0,1,.67,4,3.54,3.54,0,0,1-2.17,2.4,3.68,3.68,0,0,1-4.41-1.05c-1.55,2.44-2.3,3.69-3.77,6.21-.46-1-.69-1.5-1.14-2.5,1.4-2.18,2.11-3.25,3.56-5.36C377.17,437.07,377,436.64,376.64,435.78Zm1.7-.7.62,1.5a3.68,3.68,0,0,0,1.45,1.93,2,2,0,0,0,1.85,0,1.81,1.81,0,0,0,1.2-1.36,4.4,4.4,0,0,0-.45-2.33c-.23-.55-.35-.83-.57-1.38Z"/><path class="cls-3" d="M379.48,454.53c.41-.37.61-.56,1-.92l-.06-.11a3.28,3.28,0,0,1-1.64-.72,5.1,5.1,0,0,1-1.32-1.67A4.22,4.22,0,0,1,377,448a3.63,3.63,0,0,1,2.1-2.11l6-2.88c.39.82.59,1.22,1,2l-5.66,2.8a2.6,2.6,0,0,0-1.35,1.25,2.1,2.1,0,0,0,.21,1.72,2.64,2.64,0,0,0,1.73,1.55,4.19,4.19,0,0,0,2.74-.67l4.51-2.39c.42.79.63,1.19,1.06,2l-9,4.91C380,455.52,379.83,455.19,379.48,454.53Z"/><path class="cls-3" d="M387.12,467.5c-.52-.79-.77-1.2-1.28-2l5.33-3.35a2.64,2.64,0,0,0,1.23-1.36,1.92,1.92,0,0,0-.33-1.64,2.57,2.57,0,0,0-1.78-1.38,4.46,4.46,0,0,0-2.69.81l-4.39,2.59c-.48-.81-.72-1.22-1.19-2.05L390.9,454c.35.61.52.91.88,1.52l-1,.95.06.1a3.1,3.1,0,0,1,1.66.59,4.6,4.6,0,0,1,1.35,1.45c1.32,2.14,1,3.87-1.13,5.23Z"/><path class="cls-3" d="M395.18,479,393.73,477l9.34-6.94c-1-1.3-1.45-2-2.38-3.28l1.55-1.1c2.36,3.35,3.6,5,6.16,8.18l-1.48,1.19c-1-1.27-1.51-1.9-2.5-3.19Z"/><path class="cls-3" d="M402.13,487.77a5.46,5.46,0,0,1-1.56-4,5,5,0,0,1,2-3.55,5.69,5.69,0,0,1,3.88-1.49,4.62,4.62,0,0,1,3.38,1.77,4.52,4.52,0,0,1,1.26,3.29,4.64,4.64,0,0,1-1.68,3.19l-.87.79c-2-2.14-2.91-3.23-4.77-5.45a3.17,3.17,0,0,0-1.2,2.13,3.09,3.09,0,0,0,.89,2.27,8.59,8.59,0,0,0,3,2.23l-1.31,1.19a7.72,7.72,0,0,1-1.57-.95A11.27,11.27,0,0,1,402.13,487.77Zm6.5-6.19a2.33,2.33,0,0,0-1.63-.88,3.07,3.07,0,0,0-2,.63c1.25,1.5,1.89,2.24,3.19,3.71a2.81,2.81,0,0,0,1-1.76A2.29,2.29,0,0,0,408.63,481.58Z"/><path class="cls-3" d="M414.3,496.15a2.6,2.6,0,0,1-2.46.81,5.92,5.92,0,0,1-3-1.86,8.44,8.44,0,0,1-2-3l1.38-1.28a8.8,8.8,0,0,0,1.9,3.2c1,1,1.81,1.27,2.39.7a1,1,0,0,0,.29-.63,2.92,2.92,0,0,0-.17-.93c-.13-.39-.33-.9-.61-1.53a6.78,6.78,0,0,1-.76-2.78,2.41,2.41,0,0,1,.85-1.69,2.31,2.31,0,0,1,2.24-.59,5.4,5.4,0,0,1,2.58,1.63,9.15,9.15,0,0,1,2,3l-1.67.66a8.71,8.71,0,0,0-1.56-2.54c-.84-.85-1.48-1.06-2-.61a1,1,0,0,0-.26.9,10.21,10.21,0,0,0,.79,2.12,10.86,10.86,0,0,1,.74,2,2.74,2.74,0,0,1,0,1.31A2.54,2.54,0,0,1,414.3,496.15Z"/><path class="cls-3" d="M418.23,501.69a6.09,6.09,0,0,0,1.46,1l-1.09,1.22a4.4,4.4,0,0,1-.94-.48,7.44,7.44,0,0,1-1-.79c-1.67-1.52-1.74-3.09-.24-4.67l3.79-4-1.05-1,.66-.69,1.67.49,2-1.05,1,.93L423,494.28c.89.82,1.33,1.22,2.23,2l-1.09,1.23c-.91-.81-1.36-1.21-2.26-2l-3.71,4a1.43,1.43,0,0,0-.47,1.14A1.61,1.61,0,0,0,418.23,501.69Z"/><path class="cls-3" d="M713.45,520.7a4,4,0,0,0-1.53,3.07,5.58,5.58,0,0,0,1.48,3.62,5.45,5.45,0,0,0,3.28,2.16,4.19,4.19,0,0,0,3.38-1.19,9.36,9.36,0,0,0,1.27-1.33c.36-.47.73-1,1.08-1.55l1.26,1.42a11.87,11.87,0,0,1-2.61,3.09,6.6,6.6,0,0,1-5,1.87,7,7,0,0,1-4.6-2.9,8,8,0,0,1-1.68-3.39,5.83,5.83,0,0,1,.28-3.36,7.42,7.42,0,0,1,2.19-3,9.6,9.6,0,0,1,3.56-2c.25.77.37,1.16.61,1.93a14.28,14.28,0,0,0-1.52.58A6.1,6.1,0,0,0,713.45,520.7Z"/><path class="cls-3" d="M733.32,518.32l-1.71,1.7-4.41-4.48a2.58,2.58,0,0,0-1.6-.91,2,2,0,0,0-1.55.7,2.7,2.7,0,0,0-1,2.07,4.4,4.4,0,0,0,1.38,2.47l3.48,3.7c-.7.66-1.06,1-1.77,1.64l-9.72-10.6c.66-.61,1-.91,1.64-1.53l2.5,2.67a15.43,15.43,0,0,1,1.2,1.45l.11-.1a3.16,3.16,0,0,1,.16-1.74,4.42,4.42,0,0,1,1.12-1.63c1.87-1.82,3.66-1.87,5.43-.11Z"/><path class="cls-3" d="M739.16,512.47a5.6,5.6,0,0,1-3.82,2,5,5,0,0,1-3.77-1.6,5.69,5.69,0,0,1-1.92-3.69,4.79,4.79,0,0,1,1.43-3.62,4.33,4.33,0,0,1,6.53-.34l.88.78c-1.94,2.2-2.93,3.28-5,5.41a3.14,3.14,0,0,0,2.26.94,3.21,3.21,0,0,0,2.17-1.16,9.15,9.15,0,0,0,1.12-1.48,9.86,9.86,0,0,0,.79-1.75l1.32,1.18a6.9,6.9,0,0,1-.78,1.67A11,11,0,0,1,739.16,512.47Zm-6.87-5.75a2.42,2.42,0,0,0-.72,1.73,3.08,3.08,0,0,0,.85,1.9c1.37-1.45,2-2.18,3.37-3.65a2.71,2.71,0,0,0-1.86-.81A2.28,2.28,0,0,0,732.29,506.72Z"/><path class="cls-3" d="M746.8,503.7a5.06,5.06,0,0,1-3.52,2.09,5.31,5.31,0,0,1-3.8-1.54,5.61,5.61,0,0,1-2.14-3.61,5.18,5.18,0,0,1,1.4-3.82,7.62,7.62,0,0,1,2.38-2l.94,1.63a7.55,7.55,0,0,0-1.93,1.52c-1.19,1.44-.9,2.91.89,4.43a4,4,0,0,0,2.44,1.12,2.56,2.56,0,0,0,2-1.07,6.25,6.25,0,0,0,1.32-2.77l1.48,1.18a4.73,4.73,0,0,1-.47,1.37A8.49,8.49,0,0,1,746.8,503.7Z"/><path class="cls-3" d="M747.38,494c-.17-.79-.26-1.19-.44-2-.26-1.84-.4-2.76-.71-4.57.62-.85.92-1.27,1.53-2.13.44,2.42.64,3.64,1,6.1,3-.11,4.48-.19,7.49-.41-.64.92-1,1.37-1.63,2.27-2.29.11-3.44.15-5.72.2,0,.64,0,1,0,1.61l2.78,2.13-1.44,1.87-11.34-8.86c.54-.69.81-1,1.34-1.74l5.59,4.26,1.49,1.29Z"/><path class="cls-3" d="M758.43,478.53a5.27,5.27,0,0,1,2.56,3.26,5.14,5.14,0,0,1-1,4,5.71,5.71,0,0,1-2.08,1.94,4.42,4.42,0,0,1-2.58.46,6,6,0,0,1-2.67-1.09,5.42,5.42,0,0,1-2.42-3.33,5.05,5.05,0,0,1,1-3.89,4.93,4.93,0,0,1,3.2-2.3A5.43,5.43,0,0,1,758.43,478.53Zm-4.36,6.64c1.95,1.34,3.47,1.22,4.51-.36s.55-3-1.43-4.27-3.44-1.13-4.45.39a2.41,2.41,0,0,0-.41,2.24A4.42,4.42,0,0,0,754.07,485.17Z"/><path class="cls-3" d="M768.2,472.13l-1.33-.37a1.09,1.09,0,0,1-.06.11,3.23,3.23,0,0,1,.28,1.77,4.9,4.9,0,0,1-.7,2,4.23,4.23,0,0,1-2.34,2.13,3.6,3.6,0,0,1-2.91-.61l-5.7-3.49,1.18-1.95L762,475a2.66,2.66,0,0,0,1.78.46,2.07,2.07,0,0,0,1.34-1.11,2.66,2.66,0,0,0,.37-2.3,4.18,4.18,0,0,0-2-1.95L759,467.55c.45-.79.67-1.19,1.11-2l9,4.94C768.75,471.15,768.57,471.48,768.2,472.13Z"/><path class="cls-3" d="M771.23,463.11a5.89,5.89,0,0,0,.55-1.66l1.47.73a6,6,0,0,1-.22,1,6.73,6.73,0,0,1-.49,1.2c-1,2-2.51,2.49-4.43,1.47l-4.87-2.57-.69,1.29-.85-.46c0-.7,0-1.05,0-1.75l-1.56-1.68.64-1.23,2,1c.55-1.08.82-1.62,1.36-2.7l1.48.73c-.55,1.09-.82,1.64-1.38,2.73l4.87,2.5a1.44,1.44,0,0,0,1.22.15A1.56,1.56,0,0,0,771.23,463.11Z"/><path class="cls-3" d="M764.45,449.59c.68-1.5,1-2.25,1.66-3.77a8.25,8.25,0,0,1,2.34-3.52,2.83,2.83,0,0,1,2.86-.25,3,3,0,0,1,1.6,1.32,3,3,0,0,1,.22,2.1l.09,0a3.84,3.84,0,0,1,1.81-1.67,3.11,3.11,0,0,1,2.25.12,3.37,3.37,0,0,1,2.15,2.33,6.18,6.18,0,0,1-.52,4c-.83,2-1.25,2.95-2.13,4.9Zm7.68.89,3.93,1.71c.41-.93.61-1.4,1-2.34a3.88,3.88,0,0,0,.39-2.3,1.9,1.9,0,0,0-1.27-1.34,1.78,1.78,0,0,0-1.74.12,4.41,4.41,0,0,0-1.36,2C772.7,449.17,772.52,449.6,772.13,450.48Zm-1.64-.72c.36-.82.54-1.24.89-2.06a4,4,0,0,0,.42-2.14,1.66,1.66,0,0,0-1.13-1.18,1.5,1.5,0,0,0-1.55.13,4.88,4.88,0,0,0-1.27,1.93l-.78,1.82Z"/><path class="cls-3" d="M774,434a5.93,5.93,0,0,1,.45-1l1.85.86a5,5,0,0,0-.44.93,3.08,3.08,0,0,0,.06,2.39,3,3,0,0,0,1.78,1.56l5,1.83c-.32.9-.49,1.34-.83,2.23l-9.56-3.61.62-1.67,1.79.34,0-.11a4.12,4.12,0,0,1-.89-1.8A3.44,3.44,0,0,1,774,434Z"/><path class="cls-3" d="M787,427.58l-1.5.05,0,.08a4.37,4.37,0,0,1,.74,1.93,5.37,5.37,0,0,1-.3,2.12,3.76,3.76,0,0,1-1.57,2.2,2.86,2.86,0,0,1-2.48.15,2.64,2.64,0,0,1-1.86-1.95,7.84,7.84,0,0,1,.32-3.91c.2-.73.3-1.09.49-1.82l-.52-.16a2,2,0,0,0-1.55.05,2,2,0,0,0-.9,1.29,5.78,5.78,0,0,0-.25,1.58,13.37,13.37,0,0,0,.07,1.56L776,431a8.47,8.47,0,0,1-.05-2,10,10,0,0,1,.37-1.94,4.93,4.93,0,0,1,1.7-2.71,3.28,3.28,0,0,1,2.86-.27l6.63,1.9C787.29,426.6,787.19,426.93,787,427.58Zm-2.45,3a3,3,0,0,0,0-2.17,2.28,2.28,0,0,0-1.55-1.28l-.85-.25c-.14.54-.21.82-.36,1.36a5.33,5.33,0,0,0-.22,2.45,1.52,1.52,0,0,0,1.1,1.14,1.3,1.3,0,0,0,1.15-.09A2,2,0,0,0,784.55,430.54Z"/><path class="cls-3" d="M790.73,413.09c-.21.94-.31,1.41-.53,2.35L784.07,414a2.62,2.62,0,0,0-1.83.09,2,2,0,0,0-.94,1.42,2.67,2.67,0,0,0,.27,2.27,4.35,4.35,0,0,0,2.48,1.34l4.93,1.27c-.24.93-.36,1.39-.61,2.31l-9.87-2.66.45-1.72,1.38,0,0-.11a3.2,3.2,0,0,1-.75-1.62,4.79,4.79,0,0,1,.08-2c.61-2.5,2.09-3.5,4.53-3Z"/><path class="cls-3" d="M792.47,405.37a5.09,5.09,0,0,1-2.06,3.58,5.31,5.31,0,0,1-4.08.5,5.52,5.52,0,0,1-3.61-2.12,5.2,5.2,0,0,1-.64-4,7.69,7.69,0,0,1,1.12-2.93l1.61,1a7.48,7.48,0,0,0-.95,2.29c-.34,1.85.63,3,2.94,3.45a4,4,0,0,0,2.67-.21,2.6,2.6,0,0,0,1.24-1.93,6.39,6.39,0,0,0-.19-3.1l1.87.32a4.94,4.94,0,0,1,.25,1.44A8.59,8.59,0,0,1,792.47,405.37Z"/><path class="cls-3" d="M794.56,389.67c-.11,1-.16,1.46-.28,2.42l-6.24-.74a2.66,2.66,0,0,0-1.82.3,2.1,2.1,0,0,0-.78,1.53,2.69,2.69,0,0,0,.53,2.24,4.27,4.27,0,0,0,2.62,1.07l5,.72c-.13,1-.2,1.44-.35,2.39L779,397.4c.13-.89.2-1.34.33-2.23l3.62.52a15.9,15.9,0,0,1,1.84.38l0-.14a3.25,3.25,0,0,1-1-1.46,4.66,4.66,0,0,1-.15-2c.34-2.6,1.7-3.77,4.19-3.51Z"/><path class="cls-3" d="M715.42,203a3.25,3.25,0,0,1-2.86,1.14,6.27,6.27,0,0,1-3.45-1.7,9.73,9.73,0,0,1-2.52-3l1.31-1.57a12.39,12.39,0,0,0,1.14,1.84,9.11,9.11,0,0,0,1.38,1.49,3.31,3.31,0,0,0,1.84,1,1.52,1.52,0,0,0,1.35-.54,1.6,1.6,0,0,0,.38-1.34,9,9,0,0,0-1.09-2.57,6.94,6.94,0,0,1-1-3.07,3.29,3.29,0,0,1,.82-2.25,3,3,0,0,1,2.67-1.15,5.88,5.88,0,0,1,3.3,1.58,11,11,0,0,1,2.61,3.43l-1.75.8a9.6,9.6,0,0,0-2.12-2.87,2.89,2.89,0,0,0-1.64-.81,1.43,1.43,0,0,0-1.24.52,1.63,1.63,0,0,0-.39.83,2.56,2.56,0,0,0,.15,1,14.57,14.57,0,0,0,.92,1.93,10.28,10.28,0,0,1,1,2.39,3.17,3.17,0,0,1,0,1.59A3.22,3.22,0,0,1,715.42,203Z"/><path class="cls-3" d="M718.74,208.89a6.26,6.26,0,0,0,1.35,1L719,211a4.92,4.92,0,0,1-.87-.48,7.28,7.28,0,0,1-.94-.76c-1.53-1.47-1.59-3-.15-4.51l3.65-3.94-1.1-1c.26-.27.38-.41.64-.69l1.71.52,2-1c.43.39.64.59,1.06,1l-1.52,1.61c.91.86,1.36,1.29,2.26,2.17l-1.12,1.15c-.89-.87-1.34-1.3-2.25-2.16l-3.67,3.87a1.47,1.47,0,0,0-.48,1.11A1.56,1.56,0,0,0,718.74,208.89Z"/><path class="cls-3" d="M725.5,217.91c.3-.45.45-.67.74-1.12l-.08-.09a3.17,3.17,0,0,1-1.7-.21,4.63,4.63,0,0,1-1.65-1.14,4.06,4.06,0,0,1-1.35-2.66,3.58,3.58,0,0,1,1.26-2.6l4.59-4.63,1.66,1.67-4.38,4.32a2.54,2.54,0,0,0-.87,1.56,2,2,0,0,0,.67,1.51,2.57,2.57,0,0,0,2,.95,4.18,4.18,0,0,0,2.4-1.35l3.61-3.41c.65.68,1,1,1.6,1.71l-7.32,6.77Z"/><path class="cls-3" d="M731,224.29a3.76,3.76,0,0,1-1-3.18,5.88,5.88,0,0,1,2.08-3.37,5.8,5.8,0,0,1,3.61-1.7,4,4,0,0,1,3.15,1.51,3.83,3.83,0,0,1,1,3.43l.07.09a14.23,14.23,0,0,1,1.19-1.22l2.78-2.34c.61.72.92,1.09,1.52,1.82l-10.82,8.93-1.11-1.33.75-1.14-.07-.08A3.67,3.67,0,0,1,731,224.29Zm1.68-.66a2.58,2.58,0,0,0,1.87,1.05,3.81,3.81,0,0,0,2.24-1l.23-.2a4.21,4.21,0,0,0,1.62-2.23,2.58,2.58,0,0,0-.76-2.1,2.17,2.17,0,0,0-1.91-.82,4.36,4.36,0,0,0-2.37,1.22,4.31,4.31,0,0,0-1.48,2.14A2.16,2.16,0,0,0,732.71,223.63Z"/><path class="cls-3" d="M743.36,223.2c.64.78,1,1.17,1.58,2-1.21,2.11-1.83,3.15-3.08,5.22a9.84,9.84,0,0,1-1.4,1.91l0,.06a8.79,8.79,0,0,1,1.14-.49c.47-.16,2.73-.91,6.84-2.11l1.5,2c-4.75,1.18-7.1,1.82-11.76,3.17-2.13.62-3.76.22-4.91-1.23a6.54,6.54,0,0,1-.77-1.19l1.31-1.06a5.29,5.29,0,0,0,.62.95,2.32,2.32,0,0,0,2.78.65l1-.28C740.35,229,741.37,227.07,743.36,223.2Z"/><path class="cls-3" d="M751.55,242.14l-4.37,2.94c-.5-.75-.75-1.12-1.26-1.86l10.85-7.48c.94,1.36,1.4,2,2.31,3.41a7.11,7.11,0,0,1,1.47,4,3.3,3.3,0,0,1-1.72,2.68c-1.39.87-2.87.71-4.44-.45-1.1,2.61-1.66,3.9-2.83,6.45l-1.36-2.17c1.07-2.24,1.59-3.37,2.61-5.65C752.31,243.27,752.06,242.89,751.55,242.14Zm1.48-1,.9,1.34a4,4,0,0,0,1.75,1.66,2,2,0,0,0,1.79-.29,1.71,1.71,0,0,0,.92-1.54,4.64,4.64,0,0,0-.92-2.28c-.34-.52-.52-.78-.87-1.3Z"/><path class="cls-3" d="M756.52,260.25c-1.52-2.71-2.3-4.05-3.91-6.71l11.26-6.85c1.71,2.82,2.54,4.24,4.15,7.12l-1.59.89c-1.13-2-1.71-3-2.9-5l-3.09,1.84c1.1,1.84,1.64,2.77,2.69,4.64l-1.57.88c-1-1.85-1.58-2.77-2.67-4.6l-3.55,2.11c1.13,1.92,1.69,2.88,2.78,4.82Z"/><path class="cls-3" d="M761.87,270.41c1.07-1.14,1.6-1.71,2.66-2.87-1-1.9-1.44-2.85-2.45-4.74l-3.86.53c-.45-.83-.68-1.24-1.14-2.07,5.63-.77,8.47-1.09,14.17-1.61.48.92.71,1.38,1.18,2.3-3.73,4.35-5.63,6.47-9.52,10.61C762.5,271.69,762.29,271.27,761.87,270.41Zm4-4.24c1-1.11,1.56-1.68,2.6-2.81.17-.2.44-.49.82-.88s.66-.67.85-.84a21.35,21.35,0,0,1-2.51.43c-1.46.17-2.19.26-3.64.46C764.8,264,765.18,264.71,765.92,266.17Z"/><path class="cls-3" d="M774.38,281.89A6.46,6.46,0,0,1,769,282a8.11,8.11,0,0,1-3.75-4.33c-.63-1.4-.95-2.1-1.6-3.49l11.94-5.59c.76,1.63,1.14,2.45,1.87,4.09a7.68,7.68,0,0,1,.58,5.63A6,6,0,0,1,774.38,281.89Zm-1-2.23c2.91-1.22,3.75-3.33,2.44-6.29-.34-.74-.5-1.12-.84-1.86l-8.71,4c.27.58.4.88.67,1.47C768.3,280,770.41,280.91,773.38,279.66Z"/><path class="cls-3" d="M771.34,292.73c3.6-3,5.39-4.53,8.9-7.66l0-.07q-2.24,1-4.24,1.79l-6,2.28c-.29-.76-.44-1.15-.74-1.91l12.28-4.8c.49,1.25.73,1.88,1.2,3.14-3.36,3-5.06,4.45-8.5,7.31l0,.06c4.49.1,6.74.19,11.24.44.43,1.28.64,1.93,1,3.21l-12.56,4c-.27-.82-.4-1.24-.67-2.06l6.19-2c.63-.21,1.44-.46,2.45-.75s1.63-.46,1.85-.51l0-.07c-4.71-.28-7.07-.38-11.76-.49Z"/><path class="cls-3" d="M777.15,311.5c-.79-3-1.21-4.53-2.1-7.52l12.62-3.78c1,3.17,1.4,4.77,2.23,8l-1.76.46c-.59-2.27-.9-3.39-1.54-5.64l-3.45,1c.6,2.07.88,3.11,1.43,5.2l-1.75.46c-.54-2.07-.82-3.1-1.41-5.16l-4,1.15c.62,2.15.91,3.23,1.48,5.4Z"/><path class="cls-3" d="M778.84,313.57a1.3,1.3,0,0,1,1.06.11,1.4,1.4,0,0,1,.59.94,1.41,1.41,0,0,1-.1,1.11,1.36,1.36,0,0,1-.89.58,1.38,1.38,0,0,1-1.07-.12,1.42,1.42,0,0,1-.61-.93,1.26,1.26,0,0,1,1-1.69Z"/><path class="cls-3" d="M780.76,328l-.4-2.2,6-1.14a2.6,2.6,0,0,0,1.59-.78,1.81,1.81,0,0,0,.27-1.56,2.32,2.32,0,0,0-1.17-1.76,4.33,4.33,0,0,0-2.73-.06l-4.86,1c-.18-.88-.27-1.31-.47-2.18l9.74-2.15c.16.71.24,1.07.39,1.78l-1.22.59,0,.12a2.82,2.82,0,0,1,1.34,1.07,4.44,4.44,0,0,1,.76,1.79c.32,1.66,0,2.86-.93,3.58l0,.16a3.18,3.18,0,0,1,1.37,1.14,4.49,4.49,0,0,1,.75,1.93,3.83,3.83,0,0,1-.45,3,3.69,3.69,0,0,1-2.58,1.29l-6.44.94c-.13-.88-.19-1.32-.33-2.21l6.07-1a2.56,2.56,0,0,0,1.62-.74,1.82,1.82,0,0,0,.31-1.55,2.35,2.35,0,0,0-1.09-1.82,3.7,3.7,0,0,0-2.44-.2Z"/><path class="cls-3" d="M782.63,342.26a5.42,5.42,0,0,1,.89-4,5,5,0,0,1,3.52-1.88,5.28,5.28,0,0,1,4,.81,4.77,4.77,0,0,1,1.83,3.5,4.7,4.7,0,0,1-.83,3.56,4.3,4.3,0,0,1-3.17,1.56l-1.14.11c-.26-2.87-.41-4.3-.77-7.15a3.15,3.15,0,0,0-2.11,1.11,3.05,3.05,0,0,0-.52,2.3,9,9,0,0,0,.35,1.73,9.32,9.32,0,0,0,.72,1.68l-1.71.16a7.23,7.23,0,0,1-.69-1.6A12.55,12.55,0,0,1,782.63,342.26Zm8.63-1.39a2.5,2.5,0,0,0-.84-1.69,2.89,2.89,0,0,0-1.95-.56c.24,1.95.35,2.93.55,4.9a2.6,2.6,0,0,0,1.79-.84A2.35,2.35,0,0,0,791.26,340.87Z"/><path class="cls-3" d="M518.1,161.72l-3.45-14.36,2.53-.6c1.32,5.76,2,8.64,3.31,14.4Z"/><path class="cls-3" d="M533.87,158.47l-2.37.42c-.5-2.7-.75-4-1.24-6.76a3,3,0,0,0-.88-1.8,2.16,2.16,0,0,0-1.82-.3,2.79,2.79,0,0,0-2.1,1.32,4.7,4.7,0,0,0-.12,3.06c.45,2.19.67,3.28,1.11,5.46l-2.35.49c-.94-4.37-1.41-6.56-2.34-10.93l1.92-.4c.26.54.39.82.64,1.36l.13,0a3.32,3.32,0,0,1,1.24-1.51,5.21,5.21,0,0,1,2.06-.84c2.78-.53,4.41.58,4.88,3.27C533.13,154.16,533.37,155.6,533.87,158.47Z"/><path class="cls-3" d="M544.27,153.69a2.94,2.94,0,0,1-.88,2.65,6,6,0,0,1-3.29,1.34,8.33,8.33,0,0,1-3.69-.12c-.14-.81-.2-1.21-.33-2a9.46,9.46,0,0,0,3.83.33c1.47-.22,2.15-.75,2-1.63a1,1,0,0,0-.34-.66,2.84,2.84,0,0,0-.9-.47,12.17,12.17,0,0,0-1.67-.45,7.79,7.79,0,0,1-2.9-1.07,2.71,2.71,0,0,1-1-1.8,2.49,2.49,0,0,1,.84-2.4,6,6,0,0,1,3.17-1.27,9.44,9.44,0,0,1,4,.25l-.57,1.88a8.51,8.51,0,0,0-3.25-.3c-1.3.19-1.9.64-1.79,1.35a1.06,1.06,0,0,0,.64.8,11.73,11.73,0,0,0,2.34.67,9.63,9.63,0,0,1,2.19.69,2.87,2.87,0,0,1,1.09.89A3,3,0,0,1,544.27,153.69Z"/><path class="cls-3" d="M551.25,154.36a5.71,5.71,0,0,0,1.74-.44c.06.72.1,1.07.16,1.78a4.85,4.85,0,0,1-1,.39,6.59,6.59,0,0,1-1.28.24c-2.26.23-3.52-.8-3.8-3.16s-.42-3.59-.69-6l-1.59.19c0-.42-.08-.63-.13-1l1.61-1.06c.23-1,.34-1.47.58-2.45l1.55-.17c.11,1,.16,1.48.27,2.47l3.33-.34c.07.72.1,1.08.17,1.8-1.32.12-2,.19-3.31.33.25,2.38.38,3.57.63,6a1.64,1.64,0,0,0,.57,1.21A1.62,1.62,0,0,0,551.25,154.36Z"/><path class="cls-3" d="M562.45,155.21l-.57-1.53h-.08a4.7,4.7,0,0,1-1.56,1.49,5.29,5.29,0,0,1-2.09.51,3.64,3.64,0,0,1-2.65-.68,3.36,3.36,0,0,1-1.16-2.43,2.91,2.91,0,0,1,1.09-2.71,7.7,7.7,0,0,1,4-1.26l2-.18c0-.24,0-.36,0-.6a1.85,1.85,0,0,0-2.27-2,5.74,5.74,0,0,0-1.7.37,13.38,13.38,0,0,0-1.53.72c-.37-.66-.56-1-.94-1.63a9.11,9.11,0,0,1,2-.89,10.29,10.29,0,0,1,2.13-.4,5.25,5.25,0,0,1,3.44.73,3.55,3.55,0,0,1,1.28,2.86c.15,3,.22,4.51.37,7.52Zm-3.67-1.39a3,3,0,0,0,2.06-.86,2.6,2.6,0,0,0,.67-2.07c0-.39,0-.58-.06-1l-1.47.15a5.11,5.11,0,0,0-2.46.74,1.65,1.65,0,0,0-.66,1.58,1.49,1.49,0,0,0,.54,1.12A1.93,1.93,0,0,0,558.78,153.82Z"/><path class="cls-3" d="M569.89,154.9l-2.39.08c-.23-6.29-.34-9.44-.57-15.72l2.55-.08C569.64,145.47,569.72,148.62,569.89,154.9Z"/><path class="cls-3" d="M575.71,154.82l-2.4,0-.2-15.73,2.55,0Z"/><path class="cls-3" d="M589.94,155.18l-2.43-.12c.22-5.07.34-7.62.56-12.69-1.84-.08-2.76-.11-4.6-.16l0-2.07c4.75.12,7.12.24,11.85.58l-.15,2.06c-1.84-.13-2.75-.19-4.59-.28C590.35,147.57,590.22,150.11,589.94,155.18Z"/><path class="cls-3" d="M607,151a6.09,6.09,0,0,1-1.92,4.08,5.22,5.22,0,0,1-4.1,1.11,5.55,5.55,0,0,1-2.72-1,4.79,4.79,0,0,1-1.7-2.18,6.83,6.83,0,0,1-.42-3.12,5.86,5.86,0,0,1,1.78-4.11,5.37,5.37,0,0,1,4.26-1.15,5.27,5.27,0,0,1,3.85,2A5.84,5.84,0,0,1,607,151Zm-8.35-.86c-.22,2.57.63,3.93,2.56,4.13s3-1,3.28-3.56-.57-3.92-2.55-4.11a2.56,2.56,0,0,0-2.34.77A4.86,4.86,0,0,0,598.61,150.17Z"/><path class="cls-3" d="M619.88,152.92a6.07,6.07,0,0,1-2.13,4,5.25,5.25,0,0,1-4.15.9,5.68,5.68,0,0,1-2.67-1.1,4.8,4.8,0,0,1-1.59-2.27,7,7,0,0,1-.27-3.13,5.85,5.85,0,0,1,2-4,5.34,5.34,0,0,1,4.31-.93,5.23,5.23,0,0,1,3.75,2.18A5.78,5.78,0,0,1,619.88,152.92Zm-8.3-1.29c-.36,2.56.43,4,2.35,4.25s3.05-.82,3.46-3.37-.37-3.95-2.34-4.25a2.58,2.58,0,0,0-2.39.66A4.86,4.86,0,0,0,611.58,151.63Z"/><path class="cls-3" d="M624,159.38l-2.36-.44c1.14-6.19,1.7-9.28,2.84-15.47l2.51.47C625.81,150.12,625.21,153.21,624,159.38Z"/><path class="cls-3" d="M635.56,158.63a2.94,2.94,0,0,1-1.77,2.16,6,6,0,0,1-3.57.08,8.37,8.37,0,0,1-3.42-1.42c.16-.8.25-1.2.41-2a9.3,9.3,0,0,0,3.48,1.67c1.45.33,2.28.07,2.48-.79a1.06,1.06,0,0,0-.09-.75,2.86,2.86,0,0,0-.67-.75,14.86,14.86,0,0,0-1.41-1,7.6,7.6,0,0,1-2.33-2,2.71,2.71,0,0,1-.31-2,2.5,2.5,0,0,1,1.65-1.94,6,6,0,0,1,3.42-.07,9.66,9.66,0,0,1,3.67,1.67l-1.21,1.55a8.79,8.79,0,0,0-2.95-1.44c-1.28-.29-2-.08-2.15.62a1.06,1.06,0,0,0,.31,1,12.22,12.22,0,0,0,2,1.46,10.47,10.47,0,0,1,1.82,1.42,3.11,3.11,0,0,1,.7,1.22A3,3,0,0,1,635.56,158.63Z"/><path class="cls-3" d="M368.93,321.36l5.53,1.28c-.21.92-.31,1.38-.51,2.3l-13.88-3c.37-1.71.57-2.56,1-4.26a7.35,7.35,0,0,1,2.08-4,3.55,3.55,0,0,1,3.37-.57c1.71.46,2.66,1.73,2.91,3.78,2.85-1,4.28-1.48,7.14-2.38-.29,1-.43,1.55-.7,2.59-2.54.75-3.81,1.15-6.35,2C369.26,320,369.15,320.43,368.93,321.36Zm-1.87-.43c.15-.66.23-1,.39-1.65a4.22,4.22,0,0,0,0-2.56,2.18,2.18,0,0,0-1.54-1.19,1.88,1.88,0,0,0-1.89.39,4.94,4.94,0,0,0-1.12,2.36c-.15.64-.23,1-.37,1.61Z"/><path class="cls-3" d="M379.31,305.37l-1.44-.13s0,.06,0,.11a3.34,3.34,0,0,1,.69,1.67,4.78,4.78,0,0,1-.2,2.06,4.11,4.11,0,0,1-1.78,2.55,4,4,0,0,1-3.1.12l-6.75-1.94c.27-.94.41-1.42.69-2.36l6.35,1.91a2.82,2.82,0,0,0,1.92,0,2,2,0,0,0,1.06-1.36,2.65,2.65,0,0,0-.16-2.32,4.63,4.63,0,0,0-2.52-1.56L369,302.49c.3-.93.46-1.4.77-2.32l10.17,3.48C379.65,304.34,379.54,304.68,379.31,305.37Z"/><path class="cls-3" d="M384.45,291.67c-.36.85-.53,1.28-.88,2.14l-6.12-2.49a2.75,2.75,0,0,0-1.92-.2,2.05,2.05,0,0,0-1.19,1.33,2.73,2.73,0,0,0,0,2.39,4.59,4.59,0,0,0,2.44,1.67l5,1.88c-.33.86-.49,1.29-.8,2.16l-10.1-3.66c.26-.71.39-1.07.66-1.79l1.43.18,0-.12a3.22,3.22,0,0,1-.59-1.79,5,5,0,0,1,.38-2.12c1-2.55,2.76-3.31,5.18-2.29Z"/><path class="cls-3" d="M375.15,277.68c.78-1.65,1.18-2.47,2-4.1a8.9,8.9,0,0,1,2.86-3.69,2.92,2.92,0,0,1,3,0,3.24,3.24,0,0,1,1.51,1.58,3.13,3.13,0,0,1,0,2.2l.08.05a3.81,3.81,0,0,1,2.06-1.51,3.26,3.26,0,0,1,2.33.42,3.66,3.66,0,0,1,2,2.62,6,6,0,0,1-.77,3.83c-.94,1.85-1.39,2.78-2.28,4.65Zm6.36.31c.41-.84.62-1.26,1.05-2.1a4.24,4.24,0,0,0,.6-2.21,1.72,1.72,0,0,0-1.06-1.35,1.52,1.52,0,0,0-1.64,0,5,5,0,0,0-1.52,2c-.38.77-.58,1.15-1,1.93Zm1.69.83,4,2c.44-.9.67-1.35,1.12-2.25a3.78,3.78,0,0,0,.53-2.25,2.05,2.05,0,0,0-1.21-1.49,1.83,1.83,0,0,0-1.82-.07,4.24,4.24,0,0,0-1.57,1.89C383.85,277.5,383.63,277.94,383.2,278.82Z"/><path class="cls-3" d="M397.82,265.63l-1.37-.46-.06.1a3.43,3.43,0,0,1,.29,1.79A4.73,4.73,0,0,1,396,269a3.49,3.49,0,0,1-5.36,1.48l-6.13-3.43c.48-.86.73-1.29,1.22-2.14l5.74,3.31a2.85,2.85,0,0,0,1.86.48,2,2,0,0,0,1.35-1.08,2.61,2.61,0,0,0,.36-2.29,4.66,4.66,0,0,0-2.1-2.09l-4.56-2.79c.51-.84.76-1.25,1.28-2.08l9.1,5.71Z"/><path class="cls-3" d="M389.08,254a1.21,1.21,0,0,1-.59-.82,1.5,1.5,0,0,1,.3-1,1.43,1.43,0,0,1,.84-.67,1.22,1.22,0,0,1,1,.22,1.2,1.2,0,0,1,.56.82,1.38,1.38,0,0,1-.28,1,1.45,1.45,0,0,1-.84.68A1.21,1.21,0,0,1,389.08,254Zm12.74,5.38c-.52.76-.77,1.15-1.27,1.92l-9-5.87,1.34-2Z"/><path class="cls-3" d="M405,254.78c-.54.75-.81,1.13-1.33,1.89L391.26,248l1.44-2Z"/><path class="cls-3" d="M409.31,249.3a3.88,3.88,0,0,1-3.08,1.66,6.53,6.53,0,0,1-4-1.5,6.25,6.25,0,0,1-2.6-3.41,4.07,4.07,0,0,1,.87-3.57,4,4,0,0,1,3.35-1.75l.08-.1a12.62,12.62,0,0,1-1.54-1l-3.06-2.44c.63-.79.94-1.18,1.58-2,4.68,3.84,7,5.74,11.7,9.57l-1.14,1.41-1.35-.56-.07.08A3.82,3.82,0,0,1,409.31,249.3Zm-1.08-1.62a2.63,2.63,0,0,0,.68-2.15,4.16,4.16,0,0,0-1.59-2.13l-.25-.2a4.61,4.61,0,0,0-2.69-1.25,2.63,2.63,0,0,0-2,1.2,2.24,2.24,0,0,0-.42,2.15,4.74,4.74,0,0,0,1.81,2.22,4.85,4.85,0,0,0,2.57,1.13A2.22,2.22,0,0,0,408.23,247.68Z"/><path class="cls-3" d="M545,572.35a4,4,0,0,0-3.18,1.1,5.39,5.39,0,0,0-1.46,3.5,5.11,5.11,0,0,0,.77,3.69,4,4,0,0,0,3.14,1.44A8.86,8.86,0,0,0,546,582c.58-.08,1.19-.19,1.82-.34,0,.73-.07,1.1-.11,1.83a11.66,11.66,0,0,1-3.92.37,6.34,6.34,0,0,1-4.75-2.07,6.6,6.6,0,0,1-1.18-5.08,7.77,7.77,0,0,1,1.17-3.48,5.73,5.73,0,0,1,2.51-2.14,7.41,7.41,0,0,1,3.55-.58,9.28,9.28,0,0,1,3.84,1c-.36.7-.55,1-.92,1.74a11.93,11.93,0,0,0-1.45-.62A5.76,5.76,0,0,0,545,572.35Z"/><path class="cls-3" d="M553,584.08l-2.34-.06c.25-5.55.38-8.32.63-13.87l2.2.06C553.25,575.76,553.16,578.53,553,584.08Z"/><path class="cls-3" d="M566,579.06a5,5,0,0,1-1.29,3.81,5.18,5.18,0,0,1-3.83,1.43,5.61,5.61,0,0,1-2.73-.61,4.23,4.23,0,0,1-1.78-1.8,5.53,5.53,0,0,1-.57-2.72,5.22,5.22,0,0,1,1.41-3.73,5.12,5.12,0,0,1,3.72-1.36,4.92,4.92,0,0,1,3.64,1.31A5.12,5.12,0,0,1,566,579.06Zm-7.84.13c0,2.27.89,3.42,2.76,3.4s2.75-1.19,2.72-3.46-.94-3.35-2.75-3.33a2.43,2.43,0,0,0-2.06.88A4.26,4.26,0,0,0,558.13,579.19Z"/><path class="cls-3" d="M578.44,583.28l-2.34.19c-.17-2.42-.25-3.63-.42-6a2.49,2.49,0,0,0-.61-1.67,2,2,0,0,0-1.6-.45,2.7,2.7,0,0,0-2.05.91,4.16,4.16,0,0,0-.53,2.66c.09,2,.13,3,.23,4.91l-2.34.11c-.15-3.94-.22-5.91-.36-9.84l1.75-.09.37,1.28h.12a3.07,3.07,0,0,1,1.3-1.16,4.91,4.91,0,0,1,1.91-.51c2.52-.17,3.87.91,4.06,3.31C578.14,579.44,578.24,580.72,578.44,583.28Z"/><path class="cls-3" d="M586.48,582.64a5.48,5.48,0,0,1-4.12-.89,4.72,4.72,0,0,1-1.77-3.53,5.37,5.37,0,0,1,.94-3.91,4.71,4.71,0,0,1,3.37-1.76,4.58,4.58,0,0,1,3.41.78,4.29,4.29,0,0,1,1.64,3.06c.06.45.1.68.16,1.13-2.85.38-4.28.56-7.14.86a3,3,0,0,0,1.08,2.1,3.16,3.16,0,0,0,2.35.51,8.84,8.84,0,0,0,3.47-1.16c.09.67.14,1,.23,1.68a7.14,7.14,0,0,1-1.65.74A10.89,10.89,0,0,1,586.48,582.64Zm-1.4-8.51a2.38,2.38,0,0,0-1.64.82,2.91,2.91,0,0,0-.58,1.92c1.93-.21,2.9-.32,4.83-.56a2.68,2.68,0,0,0-.86-1.76A2.3,2.3,0,0,0,585.08,574.13Z"/><path class="cls-3" d="M600.21,575.15c.37,2.05.56,3.07.94,5.12l-2.34.41-2.23-12.83c1.52-.26,2.29-.4,3.81-.68a6.76,6.76,0,0,1,4,.16,3.37,3.37,0,0,1,1.87,2.52c.34,1.58-.3,2.9-2,3.94,2,1.94,3.07,2.9,5.19,4.8-1.06.23-1.59.35-2.65.56-1.8-1.75-2.68-2.63-4.42-4.42Zm-.32-1.73,1.57-.29a3.79,3.79,0,0,0,2.18-1,1.91,1.91,0,0,0,.37-1.75,1.76,1.76,0,0,0-1.07-1.4,4.57,4.57,0,0,0-2.36,0l-1.47.27C599.42,570.91,599.58,571.74,599.89,573.42Z"/><path class="cls-3" d="M616.07,577.25a5.6,5.6,0,0,1-4.22-.37,4.75,4.75,0,0,1-2.24-3.28,5.32,5.32,0,0,1,.41-4,5.32,5.32,0,0,1,6.61-1.83,4.43,4.43,0,0,1,2,2.83l.3,1.1c-2.78.74-4.18,1.09-7,1.74a3,3,0,0,0,1.36,1.95,3.2,3.2,0,0,0,2.4.21,9.51,9.51,0,0,0,1.71-.6,10.09,10.09,0,0,0,1.59-1l.45,1.64a7.18,7.18,0,0,1-1.54.93A10.54,10.54,0,0,1,616.07,577.25ZM613.52,569a2.36,2.36,0,0,0-1.52,1,3,3,0,0,0-.32,2c1.9-.44,2.84-.67,4.73-1.16a2.67,2.67,0,0,0-1.09-1.63A2.28,2.28,0,0,0,613.52,569Z"/><path class="cls-3" d="M628.16,573.91a4,4,0,0,1-3.5-.36l-.14,0q.5,1.15.57,1.41l1.17,3.87-2.3.65-4-13.68,1.74-.49c.1.16.33.55.69,1.18l.11,0a3.57,3.57,0,0,1,2.57-2.32,3.87,3.87,0,0,1,3.36.35,5.76,5.76,0,0,1,2.26,3.22,5.52,5.52,0,0,1,.11,3.93A3.94,3.94,0,0,1,628.16,573.91Zm-3.1-7.94a2.41,2.41,0,0,0-1.66,1.26,3.49,3.49,0,0,0,.07,2.4c0,.12.06.18.09.3a4.27,4.27,0,0,0,1.36,2.32,2.48,2.48,0,0,0,2.22.19,2.14,2.14,0,0,0,1.51-1.4,5.26,5.26,0,0,0-1.56-4.8A2.17,2.17,0,0,0,625.06,566Z"/><path class="cls-3" d="M642.27,563.66a4.93,4.93,0,0,1,.12,4,5.1,5.1,0,0,1-3.13,2.59,5.76,5.76,0,0,1-2.8.33,4.38,4.38,0,0,1-2.32-1.11,5.61,5.61,0,0,1-1.5-2.35,5.1,5.1,0,0,1,0-4,5.78,5.78,0,0,1,7-2.46A5.23,5.23,0,0,1,642.27,563.66Zm-7.39,2.69c.78,2.14,2,2.91,3.81,2.28s2.2-2,1.37-4.14-2.08-2.83-3.79-2.22a2.38,2.38,0,0,0-1.64,1.51A4.21,4.21,0,0,0,634.88,566.35Z"/></g></svg>
