<svg xmlns="http://www.w3.org/2000/svg" width="58" height="89" viewBox="0 0 58 89"><defs><style>.a{fill:#9f9f9f;}</style></defs><path class="a" d="M48.334,89H9.667A9.678,9.678,0,0,1,0,79.333v-43.5A29.026,29.026,0,0,1,20.443,8.118a1.588,1.588,0,0,1-.014-.218,7.59,7.59,0,0,1,.645-3.075,7.863,7.863,0,0,1,1.759-2.511A8.208,8.208,0,0,1,25.441.621a8.525,8.525,0,0,1,6.388,0,8.231,8.231,0,0,1,2.609,1.693A7.863,7.863,0,0,1,36.2,4.825,7.584,7.584,0,0,1,36.842,7.9v.007A28.974,28.974,0,0,1,58,35.835v43.5A9.678,9.678,0,0,1,48.334,89ZM2.55,69.565h0c-.023.039,0,6.07,0,6.326.063,3.734.76,6.249,2.192,7.915,1.559,1.813,4.022,2.711,7.752,2.827H45.452c.176.007.362.01.569.01,3.074,0,5.464-.888,7.1-2.639,1.746-1.865,2.55-4.67,2.324-8.113v-.5c0-1.587,0-5.8,0-5.826a.069.069,0,0,0-.052-.018.893.893,0,0,0-.369.175c-2.154,2.22-5.652,3.941-10.4,5.117a62.674,62.674,0,0,1-14.757,1.611,71.9,71.9,0,0,1-16.4-1.81c-5.122-1.242-8.821-2.983-10.7-5.035a2.291,2.291,0,0,0-.231-.041Zm8.117-13.791a1,1,0,0,0-1,1v.374a1,1,0,0,0,1,1H46.125a1,1,0,0,0,1-1v-.374a1,1,0,0,0-1-1Zm8.458-33.226a1,1,0,0,0-1,1v9.867a1,1,0,0,0,1,1h19.75a1,1,0,0,0,1-1V23.548a1,1,0,0,0-1-1ZM28.634,1.756a6.474,6.474,0,0,0-4.514,1.8,6.024,6.024,0,0,0-1.863,4.067A29.267,29.267,0,0,1,35,7.457a6.04,6.04,0,0,0-1.853-3.9A6.473,6.473,0,0,0,28.634,1.756Z" transform="translate(0 0)"/></svg>