<svg xmlns="http://www.w3.org/2000/svg" width="58" height="89" viewBox="0 0 58 89"><g data-name="Gruppe 895" transform="translate(.249 .243)"><path data-name="Ausschluss 8" d="M48.334,89H9.667A9.678,9.678,0,0,1,0,79.333v-43.5A29.026,29.026,0,0,1,20.443,8.118a1.588,1.588,0,0,1-.014-.218,7.59,7.59,0,0,1,.645-3.075,7.863,7.863,0,0,1,1.759-2.511A8.208,8.208,0,0,1,25.441.621a8.525,8.525,0,0,1,6.388,0,8.231,8.231,0,0,1,2.609,1.693A7.863,7.863,0,0,1,36.2,4.825,7.584,7.584,0,0,1,36.842,7.9v.007A28.974,28.974,0,0,1,58,35.835v43.5A9.678,9.678,0,0,1,48.334,89ZM2.55,69.565h0c-.023.039,0,6.07,0,6.326.063,3.734.76,6.249,2.192,7.915,1.559,1.813,4.022,2.711,7.752,2.827H45.452c.176.007.362.01.569.01,3.074,0,5.464-.888,7.1-2.639,1.746-1.865,2.55-4.67,2.324-8.113v-.5c0-1.587,0-5.8,0-5.826a.069.069,0,0,0-.052-.018.893.893,0,0,0-.369.175c-2.154,2.22-5.652,3.941-10.4,5.117a62.674,62.674,0,0,1-14.757,1.611,71.9,71.9,0,0,1-16.4-1.81c-5.122-1.242-8.821-2.983-10.7-5.035a2.291,2.291,0,0,0-.231-.041Zm8.117-13.791a1,1,0,0,0-1,1v.374a1,1,0,0,0,1,1H46.125a1,1,0,0,0,1-1v-.374a1,1,0,0,0-1-1Zm8.458-33.226a1,1,0,0,0-1,1v9.867a1,1,0,0,0,1,1h19.75a1,1,0,0,0,1-1V23.548a1,1,0,0,0-1-1ZM28.634,1.756a6.474,6.474,0,0,0-4.514,1.8,6.024,6.024,0,0,0-1.863,4.067A29.267,29.267,0,0,1,35,7.457a6.04,6.04,0,0,0-1.853-3.9A6.473,6.473,0,0,0,28.634,1.756Z" transform="translate(-.249 -.243)" fill="#9f9f9f"/><g fill="#9f9f9f" stroke-linecap="round"><path d="M 34.75711441040039 21.62173843383789 L 2.837312698364258 21.62173843383789 C 1.686362624168396 21.62173843383789 0.7500026226043701 20.4984188079834 0.7500026226043701 19.1176700592041 L 0.7500026226043701 3.254069328308105 C 0.7500026226043701 1.873319268226624 1.686362624168396 0.7499992251396179 2.837312698364258 0.7499992251396179 L 3.793852567672729 0.7499992251396179 L 3.793852567672729 4.151209354400635 L 3.793852567672729 4.901209354400635 L 4.543852806091309 4.901209354400635 L 6.079172611236572 4.901209354400635 L 6.829172611236572 4.901209354400635 L 6.829172611236572 4.151209354400635 L 6.829172611236572 0.7499992251396179 L 34.75711441040039 0.7499992251396179 C 35.90806198120117 0.7499992251396179 36.84442138671875 1.873319268226624 36.84442138671875 3.254069328308105 L 36.84442138671875 19.1176700592041 C 36.84442138671875 20.4984188079834 35.90806198120117 21.62173843383789 34.75711441040039 21.62173843383789 Z" transform="translate(9.117 60.664)"/><path d="M 2.837310791015625 1.5 C 2.112411499023438 1.5 1.500003814697266 2.303268432617188 1.500003814697266 3.254068374633789 L 1.500003814697266 19.11766815185547 C 1.500003814697266 20.0684700012207 2.112411499023438 20.87173843383789 2.837310791015625 20.87173843383789 L 34.75711059570312 20.87173843383789 C 35.48201370239258 20.87173843383789 36.09442138671875 20.0684700012207 36.09442138671875 19.11766815185547 L 36.09442138671875 3.254068374633789 C 36.09442138671875 2.303268432617188 35.48201370239258 1.5 34.75711059570312 1.5 L 7.579172134399414 1.5 L 7.579172134399414 4.151208877563477 L 7.579172134399414 5.651208877563477 L 6.079172134399414 5.651208877563477 L 4.543853759765625 5.651208877563477 L 3.043853759765625 5.651208877563477 L 3.043853759765625 4.151208877563477 L 3.043853759765625 1.5 L 2.837310791015625 1.5 M 2.837310791015625 0 L 4.543853759765625 0 L 4.543853759765625 4.151208877563477 L 6.079172134399414 4.151208877563477 L 6.079172134399414 0 L 34.75711059570312 0 C 36.32412338256836 0 37.59442138671875 1.456899642944336 37.59442138671875 3.254068374633789 L 37.59442138671875 19.11766815185547 C 37.59442138671875 20.91483879089355 36.32412338256836 22.37173843383789 34.75711059570312 22.37173843383789 L 2.837310791015625 22.37173843383789 C 1.270313262939453 22.37173843383789 3.814697265625e-06 20.91483879089355 3.814697265625e-06 19.11766815185547 L 3.814697265625e-06 3.254068374633789 C 3.814697265625e-06 1.456899642944336 1.270313262939453 0 2.837310791015625 0 Z" fill="#fff" transform="translate(9.117 60.664)"/></g><rect data-name="Rechteck 933" width="11" height="7" rx="1" transform="translate(30.751 71.757)" fill="#fff"/></g></svg>
