<svg xmlns="http://www.w3.org/2000/svg" width="32.287" height="26.961" viewBox="0 0 32.287 26.961"><defs><linearGradient id="a" x1="1.086" x2=".469" y1=".138" y2=".788" gradientUnits="objectBoundingBox"><stop offset=".18" stop-color="#0052cc"/><stop offset="1" stop-color="#2684ff"/></linearGradient></defs><path fill="#2684ff" d="M1.022,6.26a1.07,1.07,0,0,0-.8.333.913.913,0,0,0-.238.781L4.379,32.13a1.38,1.38,0,0,0,1.376,1.09H26.822a1.016,1.016,0,0,0,1.034-.807L32.248,7.379A.914.914,0,0,0,32.01,6.6a1.07,1.07,0,0,0-.8-.333ZM19.513,24.152H12.789l-1.821-8.833H21.143Z" transform="translate(0.026 -6.26)"/><path fill="url(#a)" d="M35.4,25.12H25.693l-1.629,8.833H17.34L9.4,42.7a1.466,1.466,0,0,0,.905.317H31.378a1.016,1.016,0,0,0,1.034-.807Z" transform="translate(-4.525 -16.061)"/></svg>