<svg xmlns="http://www.w3.org/2000/svg" width="81.041" height="72.008" viewBox="0 0 81.041 72.008"><g data-name="Gruppe 166" transform="translate(1 1)"><path data-name="Pfad 267" d="M667.725,835.6v29.83a2.672,2.672,0,0,1-2.649,2.649H599.1a2.663,2.663,0,0,1-2.649-2.649V836.04" transform="translate(-592.568 -798.071)" fill="none" stroke="#26a4dd" stroke-linecap="round" stroke-linejoin="round" stroke-width="2"/><path data-name="Pfad 268" d="M606.939,830.9v-7.593a4.348,4.348,0,0,1,4.335-4.337h15.264a4.377,4.377,0,0,1,4.337,4.337V830.9" transform="translate(-579.386 -818.969)" fill="none" stroke="#26a4dd" stroke-linecap="round" stroke-linejoin="round" stroke-width="2"/><path data-name="Pfad 269" d="M626.944,855.689c-11.111-.553-22.257-2.821-32.215-7.65l.043-21.07a2.658,2.658,0,0,1,2.651-2.649h73.653a2.658,2.658,0,0,1,2.649,2.649l.045,20.519c-10.024,5.285-21.419,7.623-32.664,8.2" transform="translate(-594.729 -812.245)" fill="none" stroke="#26a4dd" stroke-linecap="round" stroke-linejoin="round" stroke-width="2"/><path data-name="Pfad 270" d="M610.951,836.54h9.518a1.474,1.474,0,0,1,1.469,1.469v6.528a1.474,1.474,0,0,1-1.469,1.469h-9.518a1.474,1.474,0,0,1-1.469-1.469v-6.528a1.474,1.474,0,0,1,1.469-1.469Z" transform="translate(-576.191 -796.89)" fill="none" stroke="#26a4dd" stroke-linecap="round" stroke-linejoin="round" stroke-width="2"/></g></svg>
