<svg xmlns="http://www.w3.org/2000/svg" xmlns:xlink="http://www.w3.org/1999/xlink" width="53.469" height="41.13" viewBox="0 0 53.469 41.13">
          <defs>
    <pattern id="img1" patternUnits="userSpaceOnUse" preserveAspectRatio="xMidYMin slice" width="82.373" height="102.373" viewBox="130 0 52.373 82.373">
        <image xlink:href="https://user-images.githubusercontent.com/46004116/70911894-9fd2c500-2034-11ea-98ae-828306d5a181.jpg" y="-20" width="370" height="100" />
    </pattern>
  </defs>
    <path fill="url(#img1)" d="M97.15,102.555H88.474l-5.193-5.244s-.026-.026-.039-.026l-.026-.026h0A4.2,4.2,0,0,0,80.223,96h-10.8a4.251,4.251,0,0,0-3.162,1.4v.013l-5.077,5.141H52.319A4.268,4.268,0,0,0,48,106.822V132.8a4.323,4.323,0,0,0,4.319,4.331H97.15a4.331,4.331,0,0,0,4.319-4.331V106.822A4.276,4.276,0,0,0,97.15,102.555ZM74.734,130.639a11.9,11.9,0,1,1,11.876-11.9A11.912,11.912,0,0,1,74.734,130.639ZM96.34,109.431a1.812,1.812,0,1,1,1.8-1.812A1.807,1.807,0,0,1,96.34,109.431Z" transform="translate(-48 -96)"/><path class="a" d="M195.171,202.9a9,9,0,1,0,8.971,9A8.977,8.977,0,0,0,195.171,202.9Z" transform="translate(-168.437 -189.16)"/></svg>
