<svg xmlns="http://www.w3.org/2000/svg" width="43.411" height="43.411" viewBox="0 0 43.411 43.411">
  <g id="_474-chrome" data-name="474-chrome" transform="translate(-33 -30)">
    <path id="Pfad_1671" data-name="Pfad 1671" d="M41.949,49.937,35.737,39.171a21.709,21.709,0,0,1,35.646,2.47H53.67c-.318-.029-.637-.039-.965-.039a11.116,11.116,0,0,0-10.756,8.335Zm18.522-5.161H72.916a21.718,21.718,0,0,1-19.96,29.635l8.875-15.377a11,11,0,0,0,1.987-6.328A11.124,11.124,0,0,0,60.472,44.776Zm-15.647,7.93A7.882,7.882,0,1,1,52.706,60.6,7.89,7.89,0,0,1,44.824,52.706ZM55.677,63.414,49.464,74.18A21.715,21.715,0,0,1,33.788,42.065l8.866,15.348a11.127,11.127,0,0,0,10.062,6.4,10.757,10.757,0,0,0,2.962-.4Z" transform="translate(2 -1)" fill="#fff"/>
  </g>
</svg>
