<svg xmlns="http://www.w3.org/2000/svg" xmlns:xlink="http://www.w3.org/1999/xlink" width="434" height="376.222" viewBox="0 0 434 376.222">
    <defs>
        <pattern id="pattern" patternUnits="userSpaceOnUse" preserveAspectRatio="xMidYMin slice" width="434" height="396.222" viewBox="120 30 434 376">
            <image xlink:href="https://www.gitpod.io/galaxy.jpg" width="600" height="450" />
        </pattern>
    </defs>
    <g id="Page-1" transform="translate(6 1)">
        <g id="icon-129-cloud-download" transform="translate(3 5)">
            <g transform="matrix(1, 0, 0, 1, -9, -6)">
                <path id="cloud-download-2" data-name="cloud-download" d="M218.7,266.926H341.972a77.061,77.061,0,0,0,29-148.443h0A84.8,84.8,0,0,0,250.964,59.741,107.866,107.866,0,0,0,49.222,112.852q0,3.193.183,6.341h0A77.044,77.044,0,0,0,80.028,266.926H203.3v65.481s-47.761-50.08-50.074-50.074-11.671,9.563-11.556,11.556S211,363.222,211,363.222s69.323-67.191,69.333-69.333-9.415-11.634-11.555-11.556-1.837,1.837-50.074,50.074V266.926ZM203.3,159.074V266.926H218.7s1.347-106.245,0-107.852-13.914-1.718-15.407,0Z" transform="translate(6 1)" fill-rule="evenodd" fill="url(#pattern)" />
            </g>
        </g>
    </g>
</svg>
