<svg xmlns="http://www.w3.org/2000/svg" xmlns:xlink="http://www.w3.org/1999/xlink" width="667.186" height="361" viewBox="0 0 667.186 361">
  <defs>
    <filter id="Ellipse_507" x="0" y="51" width="137" height="137" filterUnits="userSpaceOnUse">
      <feOffset dy="3" input="SourceAlpha"/>
      <feGaussianBlur stdDeviation="3" result="blur"/>
      <feFlood flood-opacity="0.161"/>
      <feComposite operator="in" in2="blur"/>
      <feComposite in="SourceGraphic"/>
    </filter>
    <filter id="Ellipse_508" x="0" y="175" width="137" height="137" filterUnits="userSpaceOnUse">
      <feOffset dy="3" input="SourceAlpha"/>
      <feGaussianBlur stdDeviation="3" result="blur-2"/>
      <feFlood flood-opacity="0.161"/>
      <feComposite operator="in" in2="blur-2"/>
      <feComposite in="SourceGraphic"/>
    </filter>
    <filter id="Ellipse_509" x="141" y="0" width="137" height="137" filterUnits="userSpaceOnUse">
      <feOffset dy="3" input="SourceAlpha"/>
      <feGaussianBlur stdDeviation="3" result="blur-3"/>
      <feFlood flood-opacity="0.161"/>
      <feComposite operator="in" in2="blur-3"/>
      <feComposite in="SourceGraphic"/>
    </filter>
    <filter id="Ellipse_510" x="141" y="224" width="137" height="137" filterUnits="userSpaceOnUse">
      <feOffset dy="3" input="SourceAlpha"/>
      <feGaussianBlur stdDeviation="3" result="blur-4"/>
      <feFlood flood-opacity="0.161"/>
      <feComposite operator="in" in2="blur-4"/>
      <feComposite in="SourceGraphic"/>
    </filter>
    <filter id="cloud-download" x="281.075" y="51" width="386.111" height="249.773" filterUnits="userSpaceOnUse">
      <feOffset dy="3" input="SourceAlpha"/>
      <feGaussianBlur stdDeviation="3" result="blur-5"/>
      <feFlood flood-opacity="0.161"/>
      <feComposite operator="in" in2="blur-5"/>
      <feComposite in="SourceGraphic"/>
    </filter>
  </defs>
  <g id="Gruppe_1248" data-name="Gruppe 1248" transform="translate(-1089 -5784)">
    <line id="Linie_202" data-name="Linie 202" x2="220" transform="translate(1217.5 6003.5)" fill="none" stroke="#9f9f9f" stroke-width="3" stroke-dasharray="3 5"/>
    <line id="Linie_203" data-name="Linie 203" x2="121" transform="translate(1345.5 6063.5)" fill="none" stroke="#9f9f9f" stroke-width="3" stroke-dasharray="3 5"/>
    <line id="Linie_204" data-name="Linie 204" x2="293" transform="translate(1211.5 5920.5)" fill="none" stroke="#9f9f9f" stroke-width="3" stroke-dasharray="3 5"/>
    <line id="Linie_205" data-name="Linie 205" x2="193" transform="translate(1345.5 5861.5)" fill="none" stroke="#9f9f9f" stroke-width="3" stroke-dasharray="3 5"/>
    <g transform="matrix(1, 0, 0, 1, 1089, 5784)" filter="url(#Ellipse_507)">
      <g id="Ellipse_507-2" data-name="Ellipse 507" transform="translate(9 57)" fill="#e6e6e6" stroke="#e6e6e6" stroke-width="3">
        <circle cx="59.5" cy="59.5" r="59.5" stroke="none"/>
        <circle cx="59.5" cy="59.5" r="58" fill="none"/>
      </g>
    </g>
    <g transform="matrix(1, 0, 0, 1, 1089, 5784)" filter="url(#Ellipse_508)">
      <g id="Ellipse_508-2" data-name="Ellipse 508" transform="translate(9 181)" fill="#e6e6e6" stroke="#e6e6e6" stroke-width="3">
        <circle cx="59.5" cy="59.5" r="59.5" stroke="none"/>
        <circle cx="59.5" cy="59.5" r="58" fill="none"/>
      </g>
    </g>
    <g transform="matrix(1, 0, 0, 1, 1089, 5784)" filter="url(#Ellipse_509)">
      <g id="Ellipse_509-2" data-name="Ellipse 509" transform="translate(150 6)" fill="#e6e6e6" stroke="#e6e6e6" stroke-width="3">
        <circle cx="59.5" cy="59.5" r="59.5" stroke="none"/>
        <circle cx="59.5" cy="59.5" r="58" fill="none"/>
      </g>
    </g>
    <path id="Pfad_1709" data-name="Pfad 1709" d="M12.456,0l-2.9-4.14A4.028,4.028,0,0,0,12.24-8.118c0-2.79-2.052-4.482-5.364-4.482H1.692V0h2.34V-3.672H6.876a4.386,4.386,0,0,0,.486-.018L9.936,0ZM9.882-8.118c0,1.584-1.062,2.52-3.114,2.52H4.032V-10.62H6.768C8.82-10.62,9.882-9.7,9.882-8.118ZM21.69-9.612v4.86c0,1.926-1.062,2.9-2.628,2.9-1.422,0-2.25-.828-2.25-2.574V-9.612h-2.25v5.49c0,2.9,1.674,4.248,4.14,4.248a3.927,3.927,0,0,0,3.1-1.35V0H23.94V-9.612ZM32.346-9.72a4.179,4.179,0,0,0-3.312,1.35V-9.612H26.892V0h2.25V-4.86c0-1.926,1.08-2.9,2.682-2.9,1.44,0,2.286.828,2.286,2.538V0h2.25V-5.508C36.36-8.406,34.65-9.72,32.346-9.72Z" transform="translate(1139 5907)" fill="#707070"/>
    <path id="Pfad_1710" data-name="Pfad 1710" d="M-14.724,0h2.34V-10.62h4.176V-12.6H-18.9v1.98h4.176ZM1.386-4.752A4.687,4.687,0,0,0-3.474-9.72,4.78,4.78,0,0,0-8.442-4.806c0,2.862,2.088,4.932,5.31,4.932A4.872,4.872,0,0,0,.738-1.44L-.468-2.826a3.445,3.445,0,0,1-2.61,1.044,2.909,2.909,0,0,1-3.114-2.3H1.35C1.368-4.3,1.386-4.572,1.386-4.752ZM-3.474-7.92A2.617,2.617,0,0,1-.756-5.58H-6.21A2.657,2.657,0,0,1-3.474-7.92ZM6.516.126c2.7,0,4.356-1.17,4.356-2.97,0-3.762-5.94-2.034-5.94-3.978,0-.63.648-1.08,2.016-1.08a5.261,5.261,0,0,1,2.754.72l.864-1.71a7.65,7.65,0,0,0-3.6-.828c-2.592,0-4.23,1.188-4.23,3.006,0,3.834,5.94,2.106,5.94,3.942,0,.666-.594,1.062-2.016,1.062a6.467,6.467,0,0,1-3.348-.954L2.448-.954A7.637,7.637,0,0,0,6.516.126Zm11.448-2.25a2.023,2.023,0,0,1-1.26.4c-.864,0-1.332-.5-1.332-1.44V-7.74h2.574v-1.8H15.372v-2.2h-2.25v2.2H11.538v1.8h1.584v4.626c0,2.124,1.206,3.24,3.312,3.24a3.536,3.536,0,0,0,2.16-.648Z" transform="translate(1158 6031)" fill="#707070"/>
    <path id="Pfad_1708" data-name="Pfad 1708" d="M10.62-6.552a3.021,3.021,0,0,0,1.62-2.772c0-2-1.62-3.276-4.644-3.276h-5.9V0H7.956c3.24,0,4.932-1.26,4.932-3.42A3.1,3.1,0,0,0,10.62-6.552ZM7.344-10.764c1.62,0,2.538.576,2.538,1.746,0,1.152-.918,1.728-2.538,1.728H4.032v-3.474Zm.468,8.928H4.032V-5.472h3.78c1.764,0,2.718.558,2.718,1.818S9.576-1.836,7.812-1.836ZM22.23-9.612v4.86c0,1.926-1.062,2.9-2.628,2.9-1.422,0-2.25-.828-2.25-2.574V-9.612H15.1v5.49c0,2.9,1.674,4.248,4.14,4.248a3.927,3.927,0,0,0,3.1-1.35V0H24.48V-9.612ZM28.566-11.2a1.381,1.381,0,0,0,1.44-1.4,1.34,1.34,0,0,0-1.44-1.3,1.371,1.371,0,0,0-1.44,1.35A1.371,1.371,0,0,0,28.566-11.2ZM27.432,0h2.25V-9.612h-2.25Zm5.2,0h2.25V-13.356h-2.25ZM45-13.356v4.932a3.936,3.936,0,0,0-3.1-1.3,4.663,4.663,0,0,0-4.86,4.914A4.678,4.678,0,0,0,41.9.126,3.963,3.963,0,0,0,45.09-1.242V0h2.16V-13.356ZM42.174-1.8a2.809,2.809,0,0,1-2.862-3.006,2.809,2.809,0,0,1,2.862-3.006,2.809,2.809,0,0,1,2.862,3.006A2.809,2.809,0,0,1,42.174-1.8Z" transform="translate(1274 5856)" fill="#707070"/>
    <g transform="matrix(1, 0, 0, 1, 1089, 5784)" filter="url(#Ellipse_510)">
      <g id="Ellipse_510-2" data-name="Ellipse 510" transform="translate(150 230)" fill="#e6e6e6" stroke="#e6e6e6" stroke-width="3">
        <circle cx="59.5" cy="59.5" r="59.5" stroke="none"/>
        <circle cx="59.5" cy="59.5" r="58" fill="none"/>
      </g>
    </g>
    <path id="Pfad_1711" data-name="Pfad 1711" d="M1.692,0H7.2c4.086,0,6.876-2.52,6.876-6.3s-2.79-6.3-6.876-6.3H1.692Zm2.34-1.98v-8.64h3.06c2.808,0,4.626,1.71,4.626,4.32S9.9-1.98,7.092-1.98ZM25.38-4.752A4.687,4.687,0,0,0,20.52-9.72a4.78,4.78,0,0,0-4.968,4.914c0,2.862,2.088,4.932,5.31,4.932a4.872,4.872,0,0,0,3.87-1.566L23.526-2.826a3.445,3.445,0,0,1-2.61,1.044,2.909,2.909,0,0,1-3.114-2.3h7.542C25.362-4.3,25.38-4.572,25.38-4.752ZM20.52-7.92a2.617,2.617,0,0,1,2.718,2.34H17.784A2.657,2.657,0,0,1,20.52-7.92Zm12.348-1.8A4,4,0,0,0,29.79-8.442v-4.914H27.54V0h2.142V-1.242A3.963,3.963,0,0,0,32.868.126a4.682,4.682,0,0,0,4.878-4.932A4.667,4.667,0,0,0,32.868-9.72ZM32.616-1.8a2.809,2.809,0,0,1-2.862-3.006,2.809,2.809,0,0,1,2.862-3.006A2.8,2.8,0,0,1,35.46-4.806,2.8,2.8,0,0,1,32.616-1.8ZM46.944-9.612v4.86c0,1.926-1.062,2.9-2.628,2.9-1.422,0-2.25-.828-2.25-2.574V-9.612h-2.25v5.49c0,2.9,1.674,4.248,4.14,4.248a3.927,3.927,0,0,0,3.1-1.35V0h2.142V-9.612Zm12.6,0v1.278a4.162,4.162,0,0,0-3.33-1.386,4.563,4.563,0,0,0-4.86,4.626,4.592,4.592,0,0,0,4.86,4.662A4.231,4.231,0,0,0,59.436-1.71v.5c0,1.944-.936,2.916-3.06,2.916A5.806,5.806,0,0,1,52.83.558L51.822,2.25A7.64,7.64,0,0,0,56.5,3.618c3.366,0,5.184-1.584,5.184-5.076V-9.612ZM56.556-2.34a2.725,2.725,0,0,1-2.934-2.754,2.708,2.708,0,0,1,2.934-2.718,2.7,2.7,0,0,1,2.916,2.718A2.72,2.72,0,0,1,56.556-2.34Z" transform="translate(1267 6080)" fill="#707070"/>
    <g id="Page-1" transform="translate(1507.075 5838)">
      <g id="icon-129-cloud-download" transform="translate(-128 3)">
        <g transform="matrix(1, 0, 0, 1, -290.08, -57)" filter="url(#cloud-download)">
          <path id="cloud-download-2" data-name="cloud-download" d="M193.872,236.773H302.95a68.189,68.189,0,0,0,25.663-131.354h0a75.038,75.038,0,0,0-106.194-51.98,95.448,95.448,0,0,0-178.518,47q0,2.825.162,5.611h0a68.175,68.175,0,0,0,27.1,130.727H193.872Zm-13.634,0h0Z" transform="translate(287.08 52)" fill="#fff" fill-rule="evenodd"/>
        </g>
      </g>
    </g>
    <g id="Kubernetes_logo" transform="translate(1504 5921)">
      <path id="path10349" d="M97.941,23.075a7.945,7.945,0,0,0-3.928-4.541L56.579.614A6.867,6.867,0,0,0,53.51,0a12.954,12.954,0,0,0-3.068.245L13.007,18.288a6.6,6.6,0,0,0-3.682,4.541L.12,63.21A7.743,7.743,0,0,0,1.47,69.1l25.9,32.034a8.936,8.936,0,0,0,5.646,2.577h41.24a6.116,6.116,0,0,0,5.646-2.577L105.8,69.1a8.382,8.382,0,0,0,1.473-5.891L97.941,23.075Z" transform="translate(0 0)" fill="#326de6"/>
      <path id="path10351" d="M89.793,59.185h0c-.123,0-.245,0-.245-.123s-.245-.123-.491-.123a5.976,5.976,0,0,0-1.473-.123,1.557,1.557,0,0,1-.736-.123h-.123a24.8,24.8,0,0,1-4.173-.736,1.483,1.483,0,0,1-.859-.859h0l-.982-.245a32.01,32.01,0,0,0-.491-10.8,33.25,33.25,0,0,0-4.3-10.064l.736-.736h0v-.123a1.713,1.713,0,0,1,.368-1.1,21.981,21.981,0,0,1,3.437-2.455h0L81.2,31.2c.491-.245.859-.491,1.35-.736.123-.123.245-.123.368-.245s0-.123,0-.245h0a2.4,2.4,0,0,0,.491-3.437,2.344,2.344,0,0,0-1.718-.859,2.933,2.933,0,0,0-1.718.614h0l-.123.123c-.123.123-.245.245-.368.245a7.94,7.94,0,0,0-.982,1.1c-.123.245-.368.368-.491.491h0a16.139,16.139,0,0,1-3.068,2.7,1.745,1.745,0,0,1-.736.245.738.738,0,0,1-.491-.123h-.123l-.982.614c-.982-.982-2.087-1.964-3.068-2.946a31.449,31.449,0,0,0-15.956-6.382l-.123-.982h0v.123a1.686,1.686,0,0,1-.614-.982,24.521,24.521,0,0,1,.245-4.173v-.123c0-.245.123-.491.123-.736.123-.491.123-.982.245-1.473v-.736h0A2.428,2.428,0,0,0,51.377,10.7a2.462,2.462,0,0,0-2.087.859,2.423,2.423,0,0,0-.736,1.718h0V13.9a6.16,6.16,0,0,0,.245,1.473,1.557,1.557,0,0,1,.123.736v.123a23.129,23.129,0,0,1,.245,4.173,1.687,1.687,0,0,1-.614.982v.245h0l-.123.982c-1.35.123-2.7.368-4.173.614a29.259,29.259,0,0,0-15.1,8.592l-.736-.491H28.3c-.123,0-.245.123-.491.123a1.744,1.744,0,0,1-.736-.245,22.631,22.631,0,0,1-3.068-2.823h0c-.123-.245-.368-.368-.491-.491-.368-.368-.614-.736-.982-1.1-.123-.123-.245-.123-.368-.245l-.123-.123h0a2.933,2.933,0,0,0-1.718-.614,1.857,1.857,0,0,0-1.718.859A2.64,2.64,0,0,0,19.1,30.1h0a.12.12,0,0,1,.123.123s.245.245.368.245a13.389,13.389,0,0,0,1.35.736l.736.368h0a17.425,17.425,0,0,1,3.437,2.455,1.237,1.237,0,0,1,.368,1.1v-.123h0l.736.736c-.123.245-.245.368-.368.614a29.145,29.145,0,0,0-4.3,20.129l-.982.245h0a.12.12,0,0,1-.123.123,1.934,1.934,0,0,1-.859.859,22.8,22.8,0,0,1-4.173.736h0a1.557,1.557,0,0,0-.736.123c-.491,0-.982.123-1.473.123-.123,0-.245.123-.491.123-.123,0-.123,0-.245.123h0a2.4,2.4,0,0,0-1.964,2.823h0a2.279,2.279,0,0,0,2.455,1.718,1.106,1.106,0,0,0,.614-.123h0c.123,0,.123,0,.123-.123s.368,0,.491,0c.491-.123.982-.368,1.35-.491a1.744,1.744,0,0,1,.736-.245H16.4a21.879,21.879,0,0,1,4.05-1.1h.123a1.394,1.394,0,0,1,.982.368.12.12,0,0,1,.123.123h0l1.1-.123a29.624,29.624,0,0,0,10.064,14.36,19.468,19.468,0,0,0,3.314,2.209l-.614.859h0a.12.12,0,0,0,.123.123,1.452,1.452,0,0,1,.123,1.227A20.139,20.139,0,0,1,33.825,84.1v.123a2.155,2.155,0,0,1-.491.614c-.245.245-.491.736-.859,1.227-.123.123-.123.245-.245.368a.12.12,0,0,1-.123.123h0a2.527,2.527,0,0,0,.982,3.314,2.275,2.275,0,0,0,.859.245,2.75,2.75,0,0,0,2.332-1.473h0a.12.12,0,0,1,.123-.123c0-.123.123-.245.245-.368.123-.491.368-.859.491-1.35l.245-.736h0a20.772,20.772,0,0,1,1.6-3.8,1.909,1.909,0,0,1,.982-.736c.123,0,.123,0,.123-.123h0l.491-.982a28.891,28.891,0,0,0,10.678,1.964,24.576,24.576,0,0,0,6.628-.859,36.671,36.671,0,0,0,3.928-1.1l.491.859h0c.123,0,.123,0,.123.123a1.909,1.909,0,0,1,.982.736,20.772,20.772,0,0,1,1.6,3.8v.123l.245.736a4.4,4.4,0,0,0,.491,1.35c.123.123.123.245.245.368a.12.12,0,0,0,.123.123h0a2.75,2.75,0,0,0,2.332,1.473,2.888,2.888,0,0,0,.982-.245,2.054,2.054,0,0,0,1.1-1.35,3.158,3.158,0,0,0-.123-1.841h0a.12.12,0,0,0-.123-.123c0-.123-.123-.245-.245-.368a4.408,4.408,0,0,0-.859-1.227,2.155,2.155,0,0,0-.491-.614V84.1a14.5,14.5,0,0,1-1.964-3.559,1.452,1.452,0,0,1,.123-1.227.12.12,0,0,1,.123-.123h0L66.6,78.21A30.338,30.338,0,0,0,79.852,61.517l.982.123h0a.12.12,0,0,0,.123-.123,1.394,1.394,0,0,1,.982-.368h.123a20.635,20.635,0,0,1,3.928,1.1h.123a1.744,1.744,0,0,0,.736.245,6.578,6.578,0,0,0,1.35.614c.123,0,.245.123.491.123.123,0,.123,0,.245.123h0a1.107,1.107,0,0,0,.614.123A2.669,2.669,0,0,0,92,61.763a2.894,2.894,0,0,0-2.209-2.577Zm-35.471-3.8-3.314,1.6-3.314-1.6-.859-3.559,2.332-2.946h3.682l2.332,2.946ZM74.328,47.4a23.5,23.5,0,0,1,.491,7.732l-11.66-3.314h0a2.007,2.007,0,0,1-1.473-2.455,1.978,1.978,0,0,1,.491-.859l9.205-8.346A24.971,24.971,0,0,1,74.328,47.4ZM67.7,35.62,57.636,42.739a2.087,2.087,0,0,1-2.7-.491,1.114,1.114,0,0,1-.368-.859l-.736-12.4A23.1,23.1,0,0,1,67.7,35.62ZM45.485,29.36l2.455-.491-.614,12.274h0a2.045,2.045,0,0,1-2.087,1.964,2.889,2.889,0,0,1-.982-.245L34.071,35.62a24.373,24.373,0,0,1,11.415-6.26Zm-14.974,10.8,9.083,8.1h0a1.973,1.973,0,0,1,.245,2.823,1.382,1.382,0,0,1-.982.614L26.952,55.135a25.836,25.836,0,0,1,3.559-14.974ZM28.425,60.9l12.151-2.087a2.01,2.01,0,0,1,2.087,1.6,1.452,1.452,0,0,1-.123,1.227h0L37.876,72.932A24.145,24.145,0,0,1,28.425,60.9ZM56.286,76.123a24.837,24.837,0,0,1-5.278.614,27.509,27.509,0,0,1-7.732-1.227L49.29,64.586a1.9,1.9,0,0,1,2.455-.491,6.148,6.148,0,0,1,.982.859h0l5.891,10.678A19.942,19.942,0,0,0,56.286,76.123ZM71.26,65.445A23.436,23.436,0,0,1,63.9,72.809L59.109,61.272a2,2,0,0,1,1.1-2.332,3.584,3.584,0,0,1,1.1-.245l12.274,2.087A18.43,18.43,0,0,1,71.26,65.445Z" transform="translate(2.379 2.429)" fill="#fff"/>
    </g>
  </g>
</svg>
