<svg xmlns="http://www.w3.org/2000/svg" width="164.249" height="141.437" viewBox="0 0 164.249 141.437"><defs><style>.a{fill:#9f9f9f;fill-rule:evenodd}</style></defs><g><g><path d="M88.166,108.416h48.67a30.426,30.426,0,0,0,11.451-58.609h0A33.482,33.482,0,0,0,100.9,26.613,42.589,42.589,0,0,0,21.25,47.583q0,1.261.072,2.5h0a30.419,30.419,0,0,0,12.091,58.329h48.67V134.27S63.225,114.5,62.312,114.5s-4.608,3.776-4.562,4.562,27.375,27.375,27.375,27.375S112.5,119.908,112.5,119.062s-3.718-4.593-4.562-4.562-.725.725-19.771,19.771V108.416ZM82.083,65.833v42.583h6.083s.532-41.949,0-42.583-5.494-.678-6.083,0Z" class="a" transform="translate(128 -3) translate(-128 3) translate(-3 -5)"/></g></g></svg>