<svg xmlns="http://www.w3.org/2000/svg" id="Layer_1" x="0" y="0" version="1.1" viewBox="0 0 237.4 104.4" xml:space="preserve" style="transform:scale(.7)"><style>.st0{fill:#4a4a4f}.st1{fill:#e84610}</style><path d="M41 35.8c-1.5-2.8-3.3-4.8-5.6-6.2-2.3-1.4-5-2.1-8.1-2.1-4.1 0-7.6 1.5-10.4 4.5-2.8 3-4.2 6.8-4.2 11.3 0 4.5 1.4 8.2 4.3 11.2 2.9 3 6.4 4.4 10.8 4.4 3.3 0 6.1-.7 8.3-2.1 2.2-1.4 3.9-3.6 4.9-6.4H54c-1.6 6.5-4.7 11.5-9.3 15.2-4.6 3.7-10.2 5.5-16.9 5.5-3.9 0-7.5-.7-10.8-2.1s-6.3-3.4-9-6.2c-2.5-2.6-4.4-5.5-5.8-9C.7 50.5 0 47 0 43.5c0-3.7.6-7.2 1.9-10.4 1.3-3.2 3.2-6.1 5.7-8.7 2.8-2.9 5.8-5.1 9.3-6.6 3.4-1.5 7.2-2.3 11.1-2.3 6.4 0 12 1.8 16.8 5.5 4.7 3.7 7.8 8.6 9.3 14.8L41 35.8 41 35.8zM163.3 21.3V0h12.1v69.8h-12.1v-4.3c-2.4 1.9-5 3.3-7.6 4.3-2.7.9-5.6 1.4-8.7 1.4-3.3 0-6.4-.5-9.4-1.6-2.9-1.1-5.6-2.6-7.9-4.6-3.2-2.8-5.6-6-7.3-9.8-1.7-3.8-2.6-7.7-2.6-11.9 0-3.9.8-7.6 2.4-11.2 1.6-3.6 3.8-6.7 6.7-9.3 2.4-2.3 5.1-4 8.2-5.2 3.1-1.2 6.4-1.8 9.9-1.8 3.4 0 6.4.4 9 1.3C158.5 18 161 19.4 163.3 21.3M162.8 43.6c0-4.5-1.4-8.3-4.3-11.3-2.9-3-6.4-4.5-10.7-4.5-4.2 0-7.8 1.5-10.8 4.6-3 3.1-4.5 6.7-4.5 11 0 4.4 1.5 8.1 4.5 11.1 3 3 6.8 4.4 11.4 4.4 4 0 7.4-1.5 10.2-4.5C161.3 51.6 162.8 47.9 162.8 43.6M195.1 47.3c.4 3.8 1.9 6.8 4.5 9 2.6 2.2 6 3.3 10.1 3.3 2.8 0 5.2-.6 7.4-1.7 2.2-1.2 3.9-2.8 5.2-4.8h13.2c-2.2 5.7-5.6 10.2-10 13.4-4.5 3.2-9.6 4.8-15.5 4.8-3.9 0-7.5-.7-10.8-2.1s-6.3-3.4-8.9-6.2c-2.5-2.6-4.4-5.6-5.8-9-1.4-3.4-2.1-6.9-2.1-10.4 0-3.7.6-7.1 1.9-10.4 1.3-3.2 3.1-6.2 5.6-8.7 2.7-2.8 5.7-5 9.1-6.6 3.4-1.5 6.9-2.3 10.5-2.3 4.6 0 8.8 1 12.8 3.1 4 2.1 7.3 5 10.1 8.8 1.7 2.3 2.9 4.8 3.8 7.6.8 2.8 1.2 6 1.2 9.7 0 .3 0 .7 0 1.3 0 .6 0 1 0 1.3L195.1 47.3 195.1 47.3zM224.1 37.6c-1-3.5-2.8-6.2-5.3-8-2.5-1.8-5.6-2.8-9.4-2.8-3.2 0-6.2 1-8.8 3-2.6 2-4.3 4.6-5.2 7.8L224.1 37.6 224.1 37.6z" class="st0"/><path d="M59.4 43.2c0-3.7.7-7.2 2-10.6 1.4-3.3 3.3-6.3 5.9-8.9 2.6-2.7 5.6-4.7 9-6.1 3.3-1.4 6.8-2.1 10.4-2.1 3.8 0 7.3.6 10.5 1.9s6.2 3.1 8.9 5.7c2.8 2.7 4.9 5.7 6.4 9.2 1.5 3.5 2.3 7 2.3 10.7 0 4-.6 7.7-2 11-1.3 3.3-3.3 6.3-5.9 9-2.6 2.7-5.6 4.8-9 6.2s-7 2.1-10.9 2.1c-4 0-7.6-.7-10.8-2.1-3.3-1.4-6.2-3.5-8.9-6.3-2.6-2.8-4.5-5.8-5.8-9.1C60 50.3 59.4 46.9 59.4 43.2M72 43.1c0 4.9 1.3 8.8 4 11.6C78.7 57.6 82.4 59 87 59c4.5 0 8.1-1.5 10.8-4.4 2.7-2.9 4-6.8 4-11.8 0-4.4-1.4-8.1-4.2-10.9s-6.4-4.3-10.6-4.3c-4.4 0-8 1.4-10.8 4.3C73.4 34.8 72 38.5 72 43.1M119.7 83.8v-2.6h2.6v2.6H119.7zM119.8 104.2V88.3h2.3v15.9H119.8zM138.8 104.2v-9.8c0-2.8-1.5-4.2-3.9-4.2s-3.9 1.4-3.9 4.2v9.8h-2.3V88.3h2.3v1.7c1.1-1.3 2.7-1.9 4.5-1.9 1.7 0 3.1.5 4.1 1.5 1.1 1.1 1.6 2.6 1.6 4.4v10.2L138.8 104.2 138.8 104.2zM152.4 104.4c-2.7 0-4.8-.6-6.5-2.3l1.6-1.6c1.3 1.3 3 1.8 4.9 1.8 2.6 0 4.2-.9 4.2-2.8 0-1.4-.8-2.2-2.6-2.3l-2.6-.2c-3.1-.3-4.8-1.6-4.8-4.3 0-2.9 2.4-4.6 5.8-4.6 2.3 0 4.3.6 5.7 1.7l-1.5 1.5c-1.1-.9-2.6-1.3-4.2-1.3-2.3 0-3.6 1-3.6 2.6 0 1.4.8 2.2 2.8 2.3l2.6.2c2.8.3 4.7 1.3 4.7 4.3C158.9 102.6 156.3 104.4 152.4 104.4zM168.2 104.2c-2.7 0-4.1-1.9-4.1-4.3v-9.8h-2v-1.8h2v-5h2.3v5h3.4v1.8h-3.4v9.7c0 1.4.7 2.3 2.2 2.3h1.2v2L168.2 104.2 168.2 104.2zM175 83.8v-2.6h2.6v2.6H175zM175.1 104.2V88.3h2.3v15.9H175.1zM188.4 104.2c-2.7 0-4.1-1.9-4.1-4.3v-9.8h-2v-1.8h2v-5h2.3v5h3.4v1.8h-3.4v9.7c0 1.4.7 2.3 2.2 2.3h1.2v2L188.4 104.2 188.4 104.2zM205.3 104.2v-1.8c-1.1 1.3-2.7 2-4.5 2-1.7 0-3.1-.5-4.1-1.5-1.1-1.1-1.6-2.6-1.6-4.5V88.3h2.3v9.8c0 2.8 1.5 4.2 3.9 4.2 2.4 0 4-1.4 4-4.2v-9.8h2.3v15.9L205.3 104.2 205.3 104.2zM218.5 104.2c-2.7 0-4.1-1.9-4.1-4.3v-9.8h-2v-1.8h2v-5h2.3v5h3.4v1.8h-3.4v9.7c0 1.4.7 2.3 2.2 2.3h1.2v2L218.5 104.2 218.5 104.2zM226.6 96.9c0 3.5 1.6 5.5 4.7 5.5 1.8 0 2.9-.6 4.2-1.8l1.6 1.4c-1.6 1.6-3.1 2.5-5.8 2.5-4.2 0-6.9-2.5-6.9-8.1 0-5.1 2.5-8.1 6.5-8.1 4.1 0 6.5 3 6.5 7.7v1.1L226.6 96.9 226.6 96.9zM234.5 92.5c-.6-1.4-2-2.4-3.7-2.4s-3.1.9-3.7 2.4c-.4.9-.4 1.4-.5 2.6h8.4C234.9 93.9 234.9 93.4 234.5 92.5z" class="st1"/></svg>