<svg xmlns="http://www.w3.org/2000/svg" width="92.63" height="94.716" viewBox="0 0 92.63 94.716"><defs><style>.a{fill:#9f9f9f;}</style></defs><g transform="translate(0 0)"><g transform="translate(0 21.809)"><path class="a" d="M63.323,412.712H50.815a5.652,5.652,0,0,0-5.661,5.63v7.3H68.918v-7.369A5.587,5.587,0,0,0,63.323,412.712Z" transform="translate(-45.154 -352.74)"/><path class="a" d="M225.664,145.257a5.587,5.587,0,0,0-5.6-5.565H207.561a5.653,5.653,0,0,0-5.663,5.63v7.3h23.766Z" transform="translate(-167.467 -139.692)"/><path class="a" d="M384.151,329.093a8,8,0,1,0-8.051-8A8.034,8.034,0,0,0,384.151,329.093Z" transform="translate(-303.404 -274.998)"/><path class="a" d="M376.82,412.712H364.313a5.653,5.653,0,0,0-5.663,5.63v7.3h23.767v-7.369A5.587,5.587,0,0,0,376.82,412.712Z" transform="translate(-289.787 -352.74)"/><path class="a" d="M209.015,264.769l-16.8-12.543V229.273a1.029,1.029,0,1,0-2.058,0v22.952l-16.8,12.543a1.029,1.029,0,1,0,1.231,1.65l16.6-12.392,16.6,12.392a1.029,1.029,0,0,0,1.232-1.65Z" transform="translate(-144.868 -208.793)"/></g><path class="a" d="M69.3,329.093a8,8,0,1,0-8.05-8A8.034,8.034,0,0,0,69.3,329.093Z" transform="translate(-57.716 -253.189)"/><path class="a" d="M225.321,56.412a8,8,0,1,0-8.051-8A8.034,8.034,0,0,0,225.321,56.412Z" transform="translate(-179.463 -40.406)"/></g></svg>