<svg xmlns="http://www.w3.org/2000/svg" xmlns:xlink="http://www.w3.org/1999/xlink" width="680" height="420" viewBox="0 0 680 420">
<style>
@font-face {
  font-family: 'Montserrat';
  font-style: normal;
  font-weight: 400;
  font-display: swap;
  src: local('Montserrat'), url(https://fonts.gstatic.com/s/montserrat/v14/JTUSjIg1_i6t8kCHKm459WlhyyTh89Y.woff2) format('woff2');
}
@font-face {
  font-family: 'Montserrat';
  font-style: normal;
  font-weight: 600;
  font-display: swap;
  src: local('Montserrat-Bold'), url(https://fonts.gstatic.com/s/montserrat/v14/JTURjIg1_i6t8kCHKm45_bZF3gnD_vx3rCs.woff2) format('woff2');
}
</style>
    <defs>
        <pattern id="pattern" patternUnits="userSpaceOnUse" preserveAspectRatio="xMidYMin slice" y="40" x="100" width="400" height="320" viewBox="0 0 930 620">
            <image xlink:href="https://www.gitpod.io/galaxy-big.jpg" width="430" height="400"/>
        </pattern>
        <pattern id="pattern-2" patternUnits="userSpaceOnUse" preserveAspectRatio="xMidYMin slice" y="100" x="100" width="400" height="320" viewBox="0 0 930 620">
            <image xlink:href="https://www.gitpod.io/galaxy-big.jpg" width="430" height="400"/>
        </pattern>
    </defs>
    <g id="Gruppe_696" data-name="Gruppe 696" transform="translate(-883.208 -4960.185)">
        <g id="Komponente_110" data-name="Komponente 110" transform="translate(1267.5 4972.704)">
            <g id="Gruppe_36" data-name="Gruppe 36" transform="translate(11 8)">
                <g id="Gruppe_34" data-name="Gruppe 34" transform="translate(0 0)">
                    <g transform="matrix(1, 0, 0, 1, -395.29, -20.52)">
                        <g id="Rechteck_7-4" data-name="Rechteck 7" transform="translate(395.29 20.52)" fill="#fff" stroke="#e6e6e6" stroke-linecap="round" stroke-width="2">
                            <rect width="136.238" height="92.711" rx="2" stroke="none" />
                            <rect x="-1" y="-1" width="138.238" height="94.711" rx="3" fill="none" />
                        </g>
                    </g>
                    <g transform="matrix(1, 0, 0, 1, -395.29, -20.52)">
                        <path id="Pfad_33-4" data-name="Pfad 33" d="M4755.884,2378.406l1.575,4.7,3.86,11.52h-18.565s4.259-12.327,5.789-16.222" transform="translate(-4288.94 -2264.74)" fill="#fff" stroke="#e6e6e6" stroke-linecap="round" stroke-width="2" />
                    </g>
                    <g transform="matrix(1, 0, 0, 1, -395.29, -20.52)">
                        <path id="Pfad_79-4" data-name="Pfad 79" d="M0,.508H31.2" transform="translate(447.18 129.38)" fill="none" stroke="#e6e6e6" stroke-linecap="round" stroke-width="2" />
                    </g>
                </g>
            </g>
            <g id="Schnittmenge_56" data-name="Schnittmenge 56" transform="translate(16.86 13.067)" fill="none" stroke-linejoin="round">
                <path d="M0,71.9V0H124.466V71.9Z" stroke="none" />
                <path d="M 124.4657440185547 71.89708709716797 L 124.4657440185547 -1.905961426018621e-06 L -7.17995362720103e-07 -1.905961426018621e-06 L -7.17995362720103e-07 71.89708709716797 L 124.4657440185547 71.89708709716797 M 124.4657440185547 73.89708709716797 L -7.17995362720103e-07 73.89708709716797 C -1.104564309120178 73.89708709716797 -2.000000715255737 73.00165557861328 -2.000000715255737 71.89708709716797 L -2.000000715255737 -1.905961426018621e-06 C -2.000000715255737 -1.104565501213074 -1.104564309120178 -2.000001907348633 -7.17995362720103e-07 -2.000001907348633 L 124.4657440185547 -2.000001907348633 C 125.5703048706055 -2.000001907348633 126.4657440185547 -1.104565501213074 126.4657440185547 -1.905961426018621e-06 L 126.4657440185547 71.89708709716797 C 126.4657440185547 73.00165557861328 125.5703048706055 73.89708709716797 124.4657440185547 73.89708709716797 Z" stroke="none" fill="#e6e6e6" />
            </g>
        </g>
        <g id="Komponente_111" data-name="Komponente 111" transform="translate(931.5 4973.704)">
            <g id="Gruppe_36-2" data-name="Gruppe 36" transform="translate(11 8)">
                <g id="Gruppe_34-2" data-name="Gruppe 34" transform="translate(0 0)">
                    <g transform="matrix(1, 0, 0, 1, -59.29, -21.52)">
                        <g id="Rechteck_7-5" data-name="Rechteck 7" transform="translate(59.29 21.52)" fill="#fff" stroke="#e6e6e6" stroke-linecap="round" stroke-width="2">
                            <rect width="136.238" height="92.711" rx="2" stroke="none" />
                            <rect x="-1" y="-1" width="138.238" height="94.711" rx="3" fill="none" />
                        </g>
                    </g>
                    <g transform="matrix(1, 0, 0, 1, -59.29, -21.52)">
                        <path id="Pfad_33-5" data-name="Pfad 33" d="M4755.884,2378.406l1.575,4.7,3.86,11.52h-18.565s4.259-12.327,5.789-16.222" transform="translate(-4624.94 -2263.74)" fill="#fff" stroke="#e6e6e6" stroke-linecap="round" stroke-width="2" />
                    </g>
                    <g transform="matrix(1, 0, 0, 1, -59.29, -21.52)">
                        <path id="Pfad_79-5" data-name="Pfad 79" d="M0,.508H31.2" transform="translate(111.18 130.38)" fill="none" stroke="#e6e6e6" stroke-linecap="round" stroke-width="2" />
                    </g>
                </g>
            </g>
            <g id="Schnittmenge_56-2" data-name="Schnittmenge 56" transform="translate(16.86 13.067)" fill="none" stroke-linejoin="round">
                <path d="M0,71.9V0H124.466V71.9Z" stroke="none" />
                <path d="M 124.4657440185547 71.89708709716797 L 124.4657440185547 -1.905961426018621e-06 L -7.17995362720103e-07 -1.905961426018621e-06 L -7.17995362720103e-07 71.89708709716797 L 124.4657440185547 71.89708709716797 M 124.4657440185547 73.89708709716797 L -7.17995362720103e-07 73.89708709716797 C -1.104564309120178 73.89708709716797 -2.000000715255737 73.00165557861328 -2.000000715255737 71.89708709716797 L -2.000000715255737 -1.905961426018621e-06 C -2.000000715255737 -1.104565501213074 -1.104564309120178 -2.000001907348633 -7.17995362720103e-07 -2.000001907348633 L 124.4657440185547 -2.000001907348633 C 125.5703048706055 -2.000001907348633 126.4657440185547 -1.104565501213074 126.4657440185547 -1.905961426018621e-06 L 126.4657440185547 71.89708709716797 C 126.4657440185547 73.00165557861328 125.5703048706055 73.89708709716797 124.4657440185547 73.89708709716797 Z" stroke="none" fill="#e6e6e6" />
            </g>
        </g>
        <text id="get_if" data-name="get () {if" transform="translate(1006.011 5031.447)" fill="#1aa6e4" font-size="16" font-family="Montserrat-Bold, Montserrat" font-weight="700">
            <tspan x="-33.008" y="0">get () {if</tspan>
        </text>
        <g id="Gruppe_327" data-name="Gruppe 327" transform="translate(1476.117 5120.672) rotate(-173)">
            <path id="Pfad_481" data-name="Pfad 481" d="M45.509,0,0,4.663" transform="translate(22.261 44.926)" fill="#dbdbdb" stroke="#e6e6e6" stroke-linecap="round" stroke-linejoin="round" stroke-width="2" />
            <path id="Pfad_482" data-name="Pfad 482" d="M0,14.8C6.144,9.418,11.471.942,18.245.112,28.725-1.193,39.7,9.3,43.92,11.6a12.579,12.579,0,0,0-1.537,1.036c-7.766,6.186-.693,25.692-.693,25.692L24.012,45.655,13.037,38.327C11.425,23.314,5.262,17.228,0,14.8Z" transform="translate(23.363 29.357)" fill="#fff" stroke="#e6e6e6" stroke-linecap="round" stroke-linejoin="round" stroke-width="1" />
            <g transform="matrix(-0.99, 0.12, -0.12, -0.99, 608.05, 87.03)">
                <path id="Vereinigungsmenge_35-2" data-name="Vereinigungsmenge 35" d="M1775.081-4911.074l-10.254-11.486-6.245-20.519.459-26.6,5.806,5.671,2.5-25.512,11.213-1.378,6.053,9.32s5.9-11.109,6.581-10.871l4.056,4.2,3.723-5.155,9.1-1.118,2.106,17.158,2.05-17.667,11.3.594,8.784,19.719-2.789,21.072,5.832-15.309,1.3,10.607-3.154,16.54,3.785,7.616s-4.444,10.487-5.1,10.253-4.976,6.461-4.976,6.461l8.876-3.3-20.276,13.633-21.727,2.667Zm-18.685-91.317s-2.97.511-9.214-4.726-3.2-18.986-3.2-18.986c-3.107-13.135,66.724-20.819,71.629-20.766a33.7,33.7,0,0,0,4.8-.749c7.666-1.411,20.441-2.82,23.817,15.809,4.285,23.643-15.193,23.784-15.193,23.784a35.733,35.733,0,0,0-18.02,4.585c-21.172-11.888-34.707-10.176-43.919,3.2C1762.711-5002.262,1756.4-5002.391,1756.4-5002.391Z" transform="translate(2938.39 -4633.8) rotate(-173)" stroke="#e6e6e6" stroke-linecap="round" stroke-linejoin="round" stroke-width="1" fill="url(#pattern)" />
            </g>
        </g>
        <text id="get_if-2" data-name="get () {if" transform="translate(1317.011 5013.447)" fill="#1aa6e4" font-size="12" font-family="Montserrat-Bold, Montserrat" font-weight="700">
            <tspan x="-24.756" y="0">get () {if</tspan>
        </text>
        <text id="value_300" data-name="value = 300" transform="translate(1340.011 5031.447)" fill="#4d4d4d" font-size="16" font-family="Montserrat-Bold, Montserrat" font-weight="700">
            <tspan x="-47.448" y="0">value = 300</tspan>
        </text>
        <path id="Pfad_486" data-name="Pfad 486" d="M-2014.828,4309.447s69.885,46.749,180.057,0" transform="translate(3101 784)" fill="none" stroke="#9f9f9f" stroke-width="2" />
        <text id="Create_snapshot_-_Spread_your_work" data-name="Create snapshot -
Spread your work" transform="translate(947 5234)" fill="#4d4d4d" font-size="20" font-family="Montserrat-Regular, Montserrat">
            <tspan x="5.32" y="19">Create snapshot -</tspan>
            <tspan font-family="Montserrat-Bold, Montserrat" font-weight="700">
                <tspan x="0.83" y="43">Spread your work</tspan>
            </tspan>
        </text>
        <g id="Komponente_112" data-name="Komponente 112" transform="translate(1263.5 5225.704)">
            <g id="Gruppe_36-3" data-name="Gruppe 36" transform="translate(11 8)">
                <g id="Gruppe_34-3" data-name="Gruppe 34" transform="translate(0 0)">
                    <g transform="matrix(1, 0, 0, 1, -391.29, -273.52)">
                        <g id="Rechteck_7-6" data-name="Rechteck 7" transform="translate(391.29 273.52)" fill="#fff" stroke="#e6e6e6" stroke-linecap="round" stroke-width="2">
                            <rect width="136.238" height="92.711" rx="2" stroke="none" />
                            <rect x="-1" y="-1" width="138.238" height="94.711" rx="3" fill="none" />
                        </g>
                    </g>
                    <g transform="matrix(1, 0, 0, 1, -391.29, -273.52)">
                        <path id="Pfad_33-6" data-name="Pfad 33" d="M4755.884,2378.406l1.575,4.7,3.86,11.52h-18.565s4.259-12.327,5.789-16.222" transform="translate(-4292.94 -2011.74)" fill="#fff" stroke="#e6e6e6" stroke-linecap="round" stroke-width="2" />
                    </g>
                    <g transform="matrix(1, 0, 0, 1, -391.29, -273.52)">
                        <path id="Pfad_79-6" data-name="Pfad 79" d="M0,.508H31.2" transform="translate(443.18 382.38)" fill="none" stroke="#e6e6e6" stroke-linecap="round" stroke-width="2" />
                    </g>
                </g>
            </g>
            <g id="Schnittmenge_56-3" data-name="Schnittmenge 56" transform="translate(16.86 13.067)" fill="none" stroke-linejoin="round">
                <path d="M0,71.9V0H124.466V71.9Z" stroke="none" />
                <path d="M 124.4657440185547 71.89708709716797 L 124.4657440185547 -1.905961426018621e-06 L -7.17995362720103e-07 -1.905961426018621e-06 L -7.17995362720103e-07 71.89708709716797 L 124.4657440185547 71.89708709716797 M 124.4657440185547 73.89708709716797 L -7.17995362720103e-07 73.89708709716797 C -1.104564309120178 73.89708709716797 -2.000000715255737 73.00165557861328 -2.000000715255737 71.89708709716797 L -2.000000715255737 -1.905961426018621e-06 C -2.000000715255737 -1.104565501213074 -1.104564309120178 -2.000001907348633 -7.17995362720103e-07 -2.000001907348633 L 124.4657440185547 -2.000001907348633 C 125.5703048706055 -2.000001907348633 126.4657440185547 -1.104565501213074 126.4657440185547 -1.905961426018621e-06 L 126.4657440185547 71.89708709716797 C 126.4657440185547 73.00165557861328 125.5703048706055 73.89708709716797 124.4657440185547 73.89708709716797 Z" stroke="none" fill="#e6e6e6" />
            </g>
        </g>
        <g id="Gruppe_330" data-name="Gruppe 330" transform="matrix(-0.999, -0.035, 0.035, -0.999, 1470.304, 5374.847)">
            <path id="Pfad_481-2" data-name="Pfad 481" d="M45.509,0,0,4.663" transform="translate(22.261 44.926)" fill="#dbdbdb" stroke="#e6e6e6" stroke-linecap="round" stroke-linejoin="round" stroke-width="2" />
            <path id="Pfad_482-2" data-name="Pfad 482" d="M0,14.8C6.128,9.418,11.441.942,18.2.112,28.65-1.193,39.595,9.3,43.8,11.6a12.544,12.544,0,0,0-1.533,1.036c-7.745,6.186-5.408,21.8-5.408,21.8L23.949,45.655,11.907,34.681C10.3,19.668,5.249,17.228,0,14.8Z" transform="translate(23.478 29.357)" fill="#fff" stroke="#e6e6e6" stroke-linecap="round" stroke-linejoin="round" stroke-width="1" />
            <g transform="matrix(-1, 0.03, -0.03, -1, 601.21, 393.92)">
                <path id="Vereinigungsmenge_36-2" data-name="Vereinigungsmenge 36" d="M1791.027-5174.649l-14.355-4.081L1764.295-5202l4.993-3.635-4.479-28.107,5.805,5.671,5.031-14.414,8.968-2.447,5.771-.709s5.9-11.11,6.583-10.871l2.98,6.811,10.437,2.951,4.679-1.921.889,7.244,2.408-7.648,4.317,12.184,9.429,1.27,1.115,15.688,5.291-2.865-1.667,17.735,4.811,7.872s-4.363,5.284-5.021,5.049-2.644,6.371-2.644,6.371l7.863.928-22.671,9.756,2.4,3.877Zm-39.683-95.073c-6.244-5.237-.8-22.916-.8-22.916,6.1-11.025,47.423-19.618,70.83-18.293s26.138-1.9,28.7,19.817-22.118,18.434-22.118,18.434-2.329.065-11.18,5.179a146.728,146.728,0,0,1-15.755-.608c-10.717-.867-18.625-1.732-28.164,3.807C1768.478-5266.324,1757.588-5264.484,1751.344-5269.722Z" transform="matrix(-1, -0.03, 0.03, -1, 2495.79, -4845.51)" stroke="#e6e6e6" stroke-linecap="round" stroke-linejoin="round" stroke-width="1" fill="url(#pattern-2)" />
            </g>
        </g>
        <text id="get_if-3" data-name="get () {if" transform="translate(1313.011 5266.447)" fill="#1aa6e4" font-size="12" font-family="Montserrat-Bold, Montserrat" font-weight="700">
            <tspan x="-24.756" y="0">get () {if</tspan>
        </text>
        <text id="value_53" data-name="value = 53" transform="translate(1329.011 5284.447)" fill="#4d4d4d" font-size="16" font-family="Montserrat-Bold, Montserrat" font-weight="700">
            <tspan x="-41.304" y="0">value = 53</tspan>
        </text>
        <path id="Pfad_487" data-name="Pfad 487" d="M-1498.262,4686.447s31.6,106.887,160.929,174.887" transform="translate(2577 407)" fill="none" stroke="#9f9f9f" stroke-width="2" />
        <path id="Pfad_501" data-name="Pfad 501" d="M-2014.828,4309.447s42.549,23.718,75.3,1.114" transform="translate(2809.176 467.21) rotate(-9)" fill="none" stroke="#e6e6e6" stroke-width="2" />
        <path id="Pfad_502" data-name="Pfad 502" d="M-1498.262,4686.447s13.286,23.359,67.673,38.22" transform="translate(2992 361)" fill="none" stroke="#e6e6e6" stroke-width="2" />
        <path id="Pfad_503" data-name="Pfad 503" d="M-2014.828,4309.447s42.549,23.718,75.3,1.114" transform="translate(2809.176 710.21) rotate(-9)" fill="none" stroke="#e6e6e6" stroke-width="2" />
        <path id="Pfad_504" data-name="Pfad 504" d="M-1498.262,4686.447s13.286,23.359,67.673,38.22" transform="translate(2992 604)" fill="none" stroke="#e6e6e6" stroke-width="2" />
        <g id="Gruppe_336" data-name="Gruppe 336" transform="matrix(0.999, -0.035, 0.035, 0.999, 879.406, 4964.43)">
            <path id="Pfad_481-3" data-name="Pfad 481" d="M2167.564,1551.069m-39.314-4.028" transform="translate(-2103.977 -1443.749)" fill="#dbdbdb" stroke="#dbdbdb" stroke-linecap="round" stroke-linejoin="round" stroke-width="2" />
            <path id="Pfad_482-3" data-name="Pfad 482" d="M2128.251,1317.9c15.165,13.278,32.331,5.823,37.941,2.764a10.866,10.866,0,0,1-1.328-.9c-6.709-5.344-.6-22.194-.6-22.194l-15.269-6.331-9.482,6.331C2138.121,1310.541,2132.8,1315.8,2128.251,1317.9Z" transform="translate(-2102.604 -1213.341)" fill="#fff" stroke="#dbdbdb" stroke-linecap="round" stroke-linejoin="round" stroke-width="1" />
            <path id="Pfad_480" data-name="Pfad 480" d="M1756.977,506.46l-28.406,22.149-1.4-9.784-12.369-1.59,2.093,15.424-23.989,6.045,10.741,4.574-4.249,14.636,4.249-1.3,1.949,11,4.84,4.074-.576,7.519s4.383,13.4,4.973,13.193l10.619-3.7,8.643,6.094,7.486-5.216,7.777,2.821,4.269-14.513,5.208,5.69,3.321-9.381-3.272-27.486,1.19-5.433,4.416,18.464.075-22.236,10.834,2.453-17.094-9.542s32.052-11.623,31.482-11.42-32.81,4.288-32.81,4.288l5.043-6.046-12.691,3.659Z" transform="translate(-1682.992 -506.46)" fill="#dbdbdb" stroke="#dbdbdb" stroke-linecap="round" stroke-linejoin="round" stroke-width="1" />
            <path id="Pfad_483" data-name="Pfad 483" d="M1739.882,1584.678c-3.394,22.378,72.88,21.782,81.17,21.8s14.833.321,19.264-18.3-12.947-21.461-12.947-21.461-17.343.238-24.988-4.179c-5.61,3.059-22.776,10.514-37.94-2.764a13.908,13.908,0,0,1-7.028,1.309s-8.869-1.03-14.263,3.495S1739.882,1584.678,1739.882,1584.678Z" transform="translate(-1738.792 -1455.226)" fill="#dbdbdb" stroke="#dbdbdb" stroke-linecap="round" stroke-linejoin="round" stroke-width="1" />
        </g>
    </g>
</svg>
