<svg xmlns="http://www.w3.org/2000/svg" width="42.502" height="29.376" viewBox="0 0 42.502 29.376"><path d="M43.625,12.21a7.853,7.853,0,0,0-4.865-.557A6.351,6.351,0,0,0,36.048,7.44L35.131,6.8l-.638.914a7.28,7.28,0,0,0-1.077,4.452,5.155,5.155,0,0,0,.837,2.425,6.884,6.884,0,0,1-3.23.716H2.192l-.08.318A13.83,13.83,0,0,0,5.1,26c2.472,2.9,6.141,4.373,10.966,4.373,10.448,0,18.184-4.81,21.813-13.516,1.436.04,4.506,0,6.061-2.981.04-.08.12-.239.4-.835l.16-.318-.877-.517ZM25.241,1H20.854V4.975h4.387V1Zm0,4.77H20.854V9.745h4.387V5.77Zm-5.184,0H15.67V9.745h4.387V5.77Zm-5.184,0H10.486V9.745h4.387V5.77ZM9.689,10.54H5.3v3.975H9.689V10.54Zm5.184,0H10.486v3.975h4.387V10.54Zm5.184,0H15.67v3.975h4.387V10.54Zm5.184,0H20.854v3.975h4.387V10.54Zm5.184,0H26.039v3.975h4.387V10.54Z" transform="translate(0 0) translate(0) translate(-2 -1)" fill="#2b8cc7" fill-rule="evenodd"/></svg>
