<svg xmlns="http://www.w3.org/2000/svg" width="1200" height="800" viewBox="-3.807 -1.414 32.995 8.487"><path fill="#1d2329" d="M16.83621 3.01621c-.1852.16228-.41451.24624-.67768.24624H14.232c-.26282 0-.48719-.084-.67169-.24624-.18486-.16263-.2801-.375-.2801-.63288V2.2267c0-.24659.09524-.45367.29104-.62159.19614-.17357.41451-.25753.66075-.25753h1.2266v.58208H14.232c-.08361 0-.15664.0282-.2293.0843-.07304.0614-.10655.12876-.10655.21272v.15664c0 .19614.11183.2914.33585.2914h1.92652c.2293 0 .34149-.0952.34149-.2914V.88294c0-.0787-.03351-.14569-.10619-.20708-.07302-.0617-.15134-.09-.2353-.09H13.3363V.00343h2.82222c.25188 0 .47025.0843.66075.25788.19614.17357.29104.38065.29104.6216v1.50036c0 .25788-.0896.47025-.2741.63288m3.87149-.63275c-.15099.58808-.46496.87912-.95179.87912h-.82903c-.48684 0-.80045-.29104-.9518-.87912l-.6103-2.37984h.65511l.58808 2.26801c.0674.26846.20743.40322.40887.40322h.64946c.20708 0 .35278-.13476.42016-.40322l.58208-2.268h.65511zm4.38101-.72213c-.19614.17357-.4145.25717-.66075.25717h-1.2319v-.58772h1.2319c.0783 0 .15134-.0279.22401-.084.0727-.0617.11218-.12877.11218-.20708V.883c0-.19614-.11218-.29704-.33619-.29704h-1.9318c-.22438 0-.3362.1009-.3362.29704v1.49472c0 .084.0339.15134.10653.20743.0727.0614.1457.0896.22966.0896h2.82786v.58208h-2.82786c-.2466 0-.4646-.084-.66076-.25188-.19579-.17357-.29139-.38065-.29139-.62724V.883c0-.26352.0956-.4706.28046-.63288.1845-.16228.40851-.24659.6717-.24659h1.9318c.26317 0 .48718.0843.67204.24094.1845.16228.2801.37501.2801.63853v.15664c0 .2406-.0956.44767-.29139.6216M5.39203 1.62863c0 .2145-.17392.38841-.3884.38841-.2145 0-.38877-.17392-.38877-.3884 0-.2145.17427-.38877.38876-.38877.2145 0 .38841.17427.38841.38876m0-1.24022c0 .2145-.17392.38841-.3884.38841-.2145 0-.38877-.17392-.38877-.3884C4.61486.17356 4.78913 0 5.00362 0c.2145 0 .38841.17357.38841.38841m1.29163 2.48031c0 .2145-.17392.38876-.38876.38876-.21414 0-.38806-.17427-.38806-.38876s.17392-.3884.38806-.3884c.21484 0 .38876.17391.38876.3884"/><path fill="#3875e1" d="M6.68366 1.62863c0 .2145-.17392.38841-.38876.38841-.21414 0-.38806-.17392-.38806-.3884 0-.2145.17392-.38877.38806-.38877.21484 0 .38876.17427.38876.38876"/><path fill="#1d2329" d="M9.9544 2.3778l-.01376.0564c-.15593.54504-.4632.81491-.93133.81491h-.42686c-.48543 0-.79728-.28998-.94792-.87524L7.02634.00357h.65264l.58561 2.25847c.06703.26811.20638.40181.4071.40181h.24836c.20638 0 .35137-.13229.4184-.40005 0 0 .15205-.46919.61595-.47484 0 0 .45543-.0441.61172.4558l.0063.0169"/><path fill="#1d2329" d="M10.57254 2.26155c.06244.2593.21872.40217.41945.40217h.24836c.20637 0 .35101-.1337.4184-.40182L12.2387.00377h.65228l-.61348 2.36996c-.15063.58561-.46284.8756-.94791.8756h-.42686c-.48507 0-.79975-.2921-.95038-.8777zM3.33199.88237c0-.0787-.03316-.14605-.10513-.20743-.07232-.0621-.14429-.0903-.22754-.0903H.6043v2.09444h2.395c.2219 0 .33268-.0952.33268-.2921zm.33831 2.13924c-.1831.163-.41063.24695-.67098.24695H0V.00078h2.99932c.24412 0 .46002.0843.65405.25823.19402.17427.28822.38206.28822.62336v1.5046c0 .25858-.08855.47166-.27129.63464M.03034 4.13642h.95038v.14605H.58455v.99201h-.1644v-.992h-.3898zm1.07791 0h.14782v.48472c.06209-.0759.13934-.1136.23142-.1136.05009 0 .0949.0123.13476.0374.0395.025.06915.0596.08855.10407.0194.0441.02893.10971.02893.19685v.42862H1.5919v-.4653c0-.055-.01376-.0991-.04057-.13266-.02716-.0335-.06279-.0504-.10689-.0504-.0328 0-.0635.008-.09243.0254-.02893.0169-.06103.0448-.09595.084v.53904h-.14782zm.94619.68566h.37712c-.0035-.0593-.02152-.10513-.05292-.13723-.0314-.0321-.07373-.0483-.127-.0483s-.09701.0162-.13089.0483c-.03387.0321-.05609.078-.06632.13723m.52317.0896h-.5274c.0039.072.02787.12911.07232.1718.0441.0423.1016.0639.1718.0639.09772 0 .18803-.0307.27058-.0917v.14464c-.0455.0303-.09066.0519-.13546.0649-.0448.013-.09772.0194-.1577.0194-.0829 0-.14957-.0169-.20072-.0512-.05115-.0346-.09207-.0804-.12277-.13864-.03069-.0579-.04586-.12489-.04586-.20109 0-.1143.0321-.20743.09666-.27904.06491-.0716.14852-.10725.25188-.10725.09948 0 .1785.0349.23777.10478.05927.0699.0889.16333.0889.28081zm1.20485-.63771c-.1277 0-.23319.0413-.3168.12382-.08326.0825-.12488.18662-.12488.31221 0 .12206.04198.22366.12594.30516.08361.0811.1891.1217.31574.1217.12488 0 .23036-.0416.31573-.12488.08572-.0829.12841-.1852.12841-.30692 0-.12453-.04198-.22754-.12594-.30903-.08396-.0815-.19014-.12206-.3182-.12206M4.3684 5.345l-.16333.16052c-.05115-.002-.10443-.0116-.15981-.0272-.0554-.0155-.11183-.037-.16898-.0642-.05715-.0272-.13335-.0741-.2286-.1397-.13794-.025-.25189-.0907-.3415-.1972-.0896-.10654-.13405-.2293-.13405-.3683 0-.17004.0575-.3108.17286-.42228.11536-.11112.26141-.16686.43815-.16686.17569 0 .32138.0554.4378.1658.11642.11042.17427.24942.17427.41663 0 .14076-.04374.26423-.13194.37077-.08784.10654-.20179.17357-.34113.20144l.04304.0162c.1337.0515.23036.0772.28928.0772.03245 0 .07055-.007.11394-.0229m.6927-.07061v-.096c-.03176.0342-.06774.061-.10867.0801-.04057.0187-.08114.0282-.1217.0282-.04762 0-.09137-.0116-.13159-.0353-.03986-.0236-.0702-.0557-.09102-.0963-.02046-.0402-.03069-.1076-.03069-.20143V4.5239h.14817v.42792c0 .079.01129.13406.03422.1651.02258.0314.06244.0469.11959.0469.07126 0 .13194-.0346.18168-.10372v-.53622h.14781v.75036zm.69263-.14958v-.2233l-.09913.0385c-.05045.0201-.08608.0402-.10724.0607-.0208.0205-.03104.0459-.03104.0766 0 .031.0099.0564.02963.0762.01976.0194.04516.0293.07691.0293.04692 0 .09066-.0194.13088-.0579m.14605-.3034v.31891c0 .0254.0085.0381.02611.0381.018 0 .04586-.013.08431-.0395v.091c-.0335.0212-.06068.0356-.08079.0434-.02046.008-.04163.0116-.06385.0116-.06315 0-.10054-.0247-.11183-.0737-.06315.049-.13053.0737-.20214.0737-.05256 0-.09596-.0173-.13088-.0519-.03492-.0346-.05256-.078-.05256-.13017 0-.0473.01693-.0896.0508-.127.03422-.037.0822-.0667.145-.0885l.18978-.0653v-.0402c0-.0914-.04516-.13688-.1351-.13688-.0808 0-.15946.0416-.23602.1249v-.16123c.0575-.0674.1404-.10125.24836-.10125.08079 0 .1457.0212.19473.0635.01623.0138.0307.0317.04374.0543.01305.0226.02152.0452.0247.0677.0035.0226.0056.0653.0056.12841m.3858-.29726v.0917c.06632-.0723.14146-.1083.22578-.1083.04657 0 .0903.012.13052.0363.04022.0243.07055.0575.09172.0998.02081.042.0314.10901.0314.20073v.43004h-.14816V4.845c0-.0773-.01164-.13229-.03493-.1651-.02364-.0332-.0628-.0497-.11748-.0497-.0702 0-.12982.0349-.17886.10442v.53975H6.1335v-.75036zm.57721.11864l.2794-.2748v.15627h.23742v.13335h-.23742v.36724c0 .0857.03528.12876.10654.12876.05327 0 .10936-.0173.16863-.0522v.13758c-.05715.0321-.11924.048-.18662.048-.06773 0-.12418-.0197-.16898-.0596a.18125.18125 0 01-.03528-.0402c-.0092-.0152-.01693-.0346-.02293-.0589-.0063-.024-.0095-.0702-.0095-.13793V4.6576h-.13123zm1.1436.63161v-.096c-.03175.0342-.06773.061-.10865.0801-.04057.0187-.08114.0282-.12171.0282-.04762 0-.09137-.0116-.13159-.0353-.04022-.0236-.07056-.0557-.09102-.0963-.02046-.0402-.03069-.1076-.03069-.20143V4.5239h.14817v.42792c0 .079.01129.13406.03422.1651.02258.0314.06244.0469.11959.0469.07126 0 .13194-.0346.18168-.10372v-.53622h.14781v.75036zm.96637-.54448v.54434H8.8228v-.41946c0-.0836-.0113-.1418-.03351-.17497-.02223-.0328-.06103-.0494-.11642-.0494-.0307 0-.05927.007-.08502.0219-.02575.0148-.05503.0406-.0882.0776v.54434h-.1478v-.75h.1478v.0988c.0755-.0769.14959-.11572.2219-.11572.0949 0 .16863.0462.22084.13793.07902-.0917.16158-.13793.24765-.13793.07267 0 .1323.0268.17922.0801.04692.0533.0702.13476.0702.24412v.44274h-.14782V4.8283c0-.0624-.0127-.1104-.0381-.14393-.0254-.0332-.06209-.0497-.10971-.0497-.06103 0-.11818.0318-.1711.0952m2.13853.27979v.17921c-.11959.0653-.25752.0981-.41416.0981-.127 0-.23495-.0258-.3235-.0769-.08854-.0512-.15874-.12136-.21025-.21096-.0515-.09-.0776-.18698-.0776-.2914 0-.1658.05926-.30515.17744-.41839.11818-.11289.26388-.16969.43709-.16969.1196 0 .25224.0314.39864.0938v.17533c-.13335-.0765-.26317-.11465-.39053-.11465-.13017 0-.23847.0409-.32455.12347-.08608.0825-.12912.18591-.12912.30974 0 .12524.04233.22825.127.30868.08502.0804.19332.12065.32526.12065.13794 0 .2727-.0423.40429-.127m.52006-.35429c-.07091 0-.12876.0233-.17427.0702-.04551.0466-.0681.10584-.0681.17816 0 .0716.02329.13017.06986.17533.0462.0455.10618.0681.17886.0681.07267 0 .13193-.0229.17815-.0688.0462-.0459.06914-.10442.06914-.17639 0-.0709-.024-.12982-.07197-.17639-.04833-.0469-.10866-.0702-.18168-.0702m.0078-.13335c.1136 0 .20814.0367.28328.11042.07514.0737.11253.16616.11253.27764 0 .1083-.0381.1979-.1143.26952-.0762.0716-.17215.10724-.28822.10724-.11183 0-.20531-.0363-.28045-.109-.0755-.0723-.1129-.16299-.1129-.27165 0-.11006.03776-.20143.11395-.27446.07585-.073.17145-.1097.2861-.1097m1.17455.2078v.54434h-.14993v-.41946c0-.0836-.01129-.1418-.0335-.17497-.02223-.0328-.06104-.0494-.11642-.0494-.0307 0-.05927.007-.08502.0219-.02575.0148-.05503.0406-.0882.0776v.54434h-.1478v-.75h.1478v.0988c.0755-.0769.14958-.11572.2219-.11572.0949 0 .16863.0462.22084.13793.07902-.0917.16157-.13793.24765-.13793.07267 0 .1323.0268.17921.0801.04692.0533.0702.13476.0702.24412v.44274h-.14781V4.8283c0-.0624-.0127-.1104-.0381-.14393-.0254-.0332-.06209-.0497-.10971-.0497-.06103 0-.11818.0318-.1711.0952m.92639-.06617h-.10478v.46001c.04551.024.09313.036.14288.036.0695 0 .12594-.024.1704-.0723.0441-.0483.06596-.11078.06596-.18662 0-.049-.01023-.0921-.0314-.12947-.0208-.0374-.04904-.0649-.08502-.0818-.03598-.0173-.0889-.0258-.15804-.0258m-.25682.99413V4.52402h.25964c.133 0 .23636.0332.31044.0995.07408.0663.11148.15875.11148.278 0 .11253-.03493.2046-.10477.27692-.0695.0723-.1584.10831-.26635.10831-.04763 0-.10054-.0106-.1584-.0317v.40287zm1.31953-.38354v-.096c-.03175.0342-.06773.061-.10866.0801-.04057.0187-.08114.0282-.1217.0282-.04763 0-.09138-.0116-.1316-.0353-.03985-.0236-.0702-.0557-.09065-.0963-.02046-.0402-.03104-.1076-.03104-.20143V4.5239h.14816v.42792c0 .079.0113.13406.03422.1651.02258.0314.06244.0469.1196.0469.07125 0 .13193-.0346.18167-.10372v-.53622h.14782v.75036zm.25361-.63161l.2794-.2748v.15627h.23742v.13335h-.23742v.36724c0 .0857.03528.12876.10654.12876.05327 0 .10936-.0173.16863-.0522v.13758c-.05715.0321-.11924.048-.18627.048-.0681 0-.12453-.0197-.16933-.0596a.18125.18125 0 01-.03528-.0402c-.0092-.0152-.01693-.0346-.02293-.0589-.0063-.024-.0095-.0702-.0095-.13793V4.6576h-.13124zm.67282-.11854h.14781v.75036h-.14781zm.07408-.31467c.02434 0 .04516.008.06244.025.01764.0169.0261.0374.0261.0621 0 .0236-.0085.0444-.0261.0617-.0173.0173-.0381.0261-.06244.0261-.02293 0-.04304-.009-.06033-.0265-.01764-.0176-.02611-.0381-.02611-.0614 0-.0229.0085-.043.0261-.0607.0173-.0176.0374-.0264.06034-.0264m.43412.31467v.0917c.06633-.0723.14147-.1083.22579-.1083.04657 0 .0903.012.13052.0363.04022.0243.07055.0575.09172.0998.02081.042.0314.10901.0314.20073v.43004h-.14816V4.845c0-.0773-.01164-.13229-.03493-.1651-.02328-.0332-.0628-.0497-.11748-.0497-.0702 0-.12982.0349-.17886.10442v.53975h-.15204v-.75036zm.91758.12918c-.04022 0-.07444.0138-.103.0409-.02823.0272-.04234.06-.04234.0981 0 .0388.01376.0706.04163.096.02787.0254.0628.0381.10548.0381.04163 0 .07655-.013.10478-.0388.02787-.0261.04198-.0582.04198-.097 0-.0392-.01411-.072-.04233-.0981-.02822-.0261-.06385-.0392-.10619-.0392m-.03563.65722c-.05009 0-.09066.0106-.12241.0317-.03175.0212-.04762.0483-.04762.0815 0 .0769.0695.11535.20814.11535.06562 0 .11641-.01.1524-.0289.03598-.0194.05397-.0466.05397-.0819 0-.0346-.02258-.0628-.0681-.085-.0455-.0219-.10441-.0328-.17638-.0328m-.24306-.52669c0-.0801.02928-.14323.08749-.1898.05856-.0466.13828-.0699.23918-.0699h.30903v.11677h-.15134c.02928.0296.04974.0568.06138.0815.0113.0243.01693.0526.01693.084 0 .0392-.01129.0776-.0335.11535-.02224.0377-.0508.0667-.08609.0868-.03493.0201-.09243.0363-.1725.0483-.0568.008-.08503.0275-.08503.0579 0 .0173.01023.0317.0314.0427.02081.0113.05856.0229.1136.0346.09172.0205.15099.036.17744.0476.02646.0113.0501.0275.07161.0487.036.036.054.0811.054.13547 0 .0713-.0318.12805-.0949.1704-.06315.0423-.1478.0635-.25364.0635-.1069 0-.19227-.0212-.25612-.0639-.0635-.0427-.0956-.0998-.0956-.17182 0-.1016.06244-.16686.18733-.19649-.04974-.0321-.0748-.0639-.0748-.0952 0-.024.01059-.0459.03246-.0653.02117-.0197.05045-.0339.08678-.0434-.11007-.049-.1651-.12806-.1651-.23777m2.21623.22593v.17921c-.11959.0653-.25753.0981-.41416.0981-.127 0-.23495-.0258-.3235-.0769-.0886-.0512-.15875-.12136-.21025-.21096-.0519-.09-.0773-.18698-.0773-.2914 0-.1658.0589-.30515.1771-.41839.11817-.11289.26387-.16969.43708-.16969.1196 0 .25224.0314.3983.0938v.17533c-.133-.0765-.26283-.11465-.39018-.11465-.13018 0-.23848.0409-.32456.12347-.0861.0825-.1291.18591-.1291.30974 0 .12524.0423.22825.127.30868.085.0804.19331.12065.32525.12065.13793 0 .2727-.0423.40428-.127m.52004-.35429c-.0709 0-.12876.0233-.17427.0702-.0455.0466-.0681.10584-.0681.17816 0 .0716.0233.13017.0699.17533.0462.0455.1062.0681.17886.0681.0727 0 .13194-.0229.17815-.0688.0462-.0459.0691-.10442.0691-.17639 0-.0709-.024-.12982-.072-.17639-.0483-.0469-.10866-.0702-.18168-.0702m.008-.13335c.1136 0 .20814.0367.28328.11042.0751.0737.11254.16616.11254.27764 0 .1083-.0381.1979-.1143.26952-.0762.0716-.17216.10724-.28822.10724-.11183 0-.20532-.0363-.28046-.109-.0755-.0723-.11289-.16299-.11289-.27165 0-.11006.0378-.20143.11395-.27446.0758-.073.17145-.1097.2861-.1097m1.17441.2078v.54434h-.14993v-.41946c0-.0836-.0113-.1418-.0335-.17497-.0222-.0328-.061-.0494-.11642-.0494-.0307 0-.0593.007-.085.0219-.0258.0148-.055.0406-.0882.0776v.54434h-.14817v-.75h.14817v.0988c.0755-.0769.14957-.11572.2219-.11572.0949 0 .16862.0462.22083.13793.079-.0917.16157-.13793.248-.13793.0723 0 .13194.0268.17886.0801.0469.0533.0702.13476.0702.24412v.44274h-.1478V4.8283c0-.0624-.0127-.1104-.0381-.14393-.0254-.0332-.0621-.0497-.10972-.0497-.061 0-.11818.0318-.1711.0952m.92637-.06617h-.10477v.46001c.0455.024.0931.036.14287.036.0695 0 .12594-.024.1704-.0723.0441-.0483.066-.11078.066-.18662 0-.049-.0102-.0921-.0314-.12947-.0208-.0374-.049-.0649-.085-.0818-.036-.0173-.0889-.0258-.15805-.0258m-.25682.99413V4.52402h.25964c.133 0 .23636.0332.3108.0995.0737.0663.11077.15875.11077.278 0 .11253-.0346.2046-.10442.27692-.0695.0723-.1584.10831-.26635.10831-.0476 0-.10054-.0106-.15839-.0317v.40287zm1.17664-.53312v-.2233l-.0991.0385c-.0508.0201-.0864.0402-.10724.0607-.0208.0205-.0314.0459-.0314.0766 0 .031.01.0564.03.0762.0198.0194.0452.0293.0769.0293.0469 0 .0907-.0194.13088-.0579m.1457-.3034v.31891c0 .0254.009.0381.0265.0381.018 0 .0459-.013.0843-.0395v.091c-.0339.0212-.0607.0356-.0808.0434-.0205.008-.0416.0116-.0639.0116-.0631 0-.10054-.0247-.11183-.0737-.0635.049-.13053.0737-.20214.0737-.0526 0-.096-.0173-.13088-.0519-.0353-.0346-.0526-.078-.0526-.13017 0-.0473.0169-.0896.0508-.127.0342-.037.0822-.0667.145-.0885l.1898-.0653v-.0402c0-.0914-.0452-.13688-.13512-.13688-.0808 0-.15946.0416-.236.1249v-.16123c.0575-.0674.1404-.10125.24834-.10125.0808 0 .1457.0212.19474.0635.0162.0138.0307.0317.0437.0543.013.0226.0212.0452.0247.0677.004.0226.005.0653.005.12841m.38639-.29726v.0917c.0663-.0723.14146-.1083.22578-.1083.0466 0 .0903.012.13053.0363.0402.0243.0705.0575.0917.0998.0208.042.0314.10901.0314.20073v.43004h-.14816V4.845c0-.0773-.0116-.13229-.0349-.1651-.0233-.0332-.0628-.0497-.11747-.0497-.0702 0-.12982.0349-.17886.10442v.53975h-.15205v-.75036zm1.11224 0h.16545l-.52846 1.13383h-.16545l.2526-.54187-.28823-.59196h.16898l.20038.42227zm.74358.44598h-.0646v-.4251h.10407l.10725.33973.10371-.33973h.10195v.4251h-.0649v-.35666l-.10865.35666h-.0638l-.115-.36266zm-.25188 0h-.0709v-.36477h-.13794v-.0603h.3482v.0603h-.13935z"/></svg>