<svg xmlns="http://www.w3.org/2000/svg" width="226.766" height="29.204" viewBox="0 0 226.766 29.204"><g fill="#9f9f9f"><path d="M713.189,1500.386a8.941,8.941,0,0,1-6.055,2.2H689.921a8.8,8.8,0,0,1-6-2.2,7.219,7.219,0,0,1-2.5-5.655v-1.4a7.012,7.012,0,0,1,2.6-5.554,8.624,8.624,0,0,1,5.9-2.3h10.959v5.2H689.921a3.241,3.241,0,0,0-2.049.753,2.359,2.359,0,0,0-.952,1.9v1.4c0,1.752,1,2.6,3,2.6h17.213c2.049,0,3.051-.85,3.051-2.6v-13.405a2.338,2.338,0,0,0-.949-1.85,3.171,3.171,0,0,0-2.1-.8H681.918v-5.2h25.216a8.451,8.451,0,0,1,5.9,2.3,7.146,7.146,0,0,1,2.6,5.554v13.406a7.184,7.184,0,0,1-2.449,5.655" transform="translate(-562.761 -1473.437)"/><path d="M740.327,1494.732c-1.349,5.254-4.154,7.855-8.5,7.855h-7.407c-4.35,0-7.152-2.6-8.5-7.855l-5.453-21.264h5.853l5.254,20.264c.6,2.4,1.853,3.6,3.653,3.6h5.8c1.85,0,3.152-1.2,3.754-3.6l5.2-20.264h5.853Z" transform="translate(-555.307 -1473.436)"/><path d="M771.844,1488.28a8.621,8.621,0,0,1-5.9,2.3H754.933v-5.251H765.94a3.213,3.213,0,0,0,2-.75,2.412,2.412,0,0,0,1-1.85v-1.4c0-1.753-1-2.654-3-2.654H748.68c-2,0-3,.9-3,2.654v13.355a2.221,2.221,0,0,0,.952,1.854,3.052,3.052,0,0,0,2.052.8h25.266v5.2H748.68a8.809,8.809,0,0,1-5.9-2.251,7.185,7.185,0,0,1-2.6-5.6v-13.355a7.145,7.145,0,0,1,2.506-5.655,8.8,8.8,0,0,1,6-2.2h17.26a9.018,9.018,0,0,1,6,2.153,7.256,7.256,0,0,1,2.5,5.705v1.4a7.168,7.168,0,0,1-2.6,5.554" transform="translate(-547.681 -1473.436)"/><path d="M626.751,1485.732a3.472,3.472,0,1,1-3.47-3.474,3.471,3.471,0,0,1,3.47,3.474" transform="translate(-578.574 -1471.18)"/><path d="M626.751,1476.913a3.472,3.472,0,1,1-3.47-3.47,3.471,3.471,0,0,1,3.47,3.47" transform="translate(-578.574 -1473.443)"/><path d="M635.933,1494.548a3.47,3.47,0,1,1-3.474-3.47,3.474,3.474,0,0,1,3.474,3.47" transform="translate(-576.216 -1468.917)"/><path d="M635.933,1485.732a3.47,3.47,0,1,1-3.474-3.474,3.471,3.471,0,0,1,3.474,3.474" transform="translate(-576.216 -1471.18)"/><path d="M663.114,1494.682l-.123.5c-1.393,4.87-4.139,7.281-8.321,7.281h-3.814c-4.337,0-7.124-2.591-8.469-7.82l-5.434-21.178h5.831l5.232,20.179c.6,2.4,1.844,3.59,3.637,3.59h2.219c1.844,0,3.139-1.182,3.738-3.574,0,0,1.358-4.192,5.5-4.243a5.364,5.364,0,0,1,5.466,4.072l.056.151" transform="translate(-574.173 -1473.436)"/><path d="M663.3,1493.643c.558,2.317,1.954,3.594,3.748,3.594h2.219c1.844,0,3.136-1.195,3.738-3.591l5.182-20.176h5.828l-5.481,21.175c-1.346,5.232-4.135,7.823-8.469,7.823h-3.814c-4.334,0-7.146-2.61-8.492-7.842Z" transform="translate(-568.834 -1473.436)"/><path d="M616.766,1481.325a2.35,2.35,0,0,0-.939-1.853,2.989,2.989,0,0,0-2.033-.807h-21.4v18.713h21.4c1.983,0,2.972-.851,2.972-2.61Zm3.023,19.114a8.773,8.773,0,0,1-6,2.207H587v-29.2h26.8a8.473,8.473,0,0,1,5.844,2.307,7.216,7.216,0,0,1,2.575,5.569v13.443a7.243,7.243,0,0,1-2.424,5.67" transform="translate(-586.995 -1473.442)"/></g></svg>
