<svg xmlns="http://www.w3.org/2000/svg" width="101.642" height="101.699" viewBox="0 0 101.642 101.699"><defs><filter id="a" width="101.642" height="101.699" x="0" y="0" filterUnits="userSpaceOnUse"><feOffset dy="3"/><feGaussianBlur result="b" stdDeviation="3"/><feFlood flood-opacity=".161"/><feComposite in2="b" operator="in"/><feComposite in="SourceGraphic"/></filter></defs><g filter="url(#a)" transform="matrix(1, 0, 0, 1, 0, 0)"><path fill="#fff" stroke="#fff" d="M60.755,67.155c-.533-.166-1.078-.332-1.626-.506.278-1.182.537-2.476.773-3.839,1.132-.776,2.264-1.576,3.376-2.395.058.707.1,1.391.131,2.066-.865,1.676-1.75,3.248-2.654,4.674ZM30.422,14.079c.645-.5,1.29-.962,1.92-1.406.027-.328.058-.637.089-.939.63-.243,1.251-.483,1.866-.7.738.973,1.588,2.186,2.511,3.592-.294.305-.587.618-.885.939-1,.34-2.009.7-3.017,1.054.116-1.093.243-2.109.386-3.024-.39.626-.784,1.29-1.186,1.985-.691.023-1.383.05-2.066.077q.185-.829.382-1.576ZM82.208,40.743c-.985,1.2-2.144,2.472-3.442,3.8-.023.8-.05,1.6-.081,2.395-.491.688-1,1.379-1.53,2.082-.506-2.074-1.082-4.23-1.746-6.427q-1.107-1.756-2.368-3.577c-1.954-.487-4.071-.981-6.3-1.491-.66-.633-1.34-1.263-2.028-1.9-.332.2-.657.4-.989.595Q64.5,38.1,65.236,40c.753-.409,1.5-.823,2.221-1.224q1.472,1.263,2.835,2.484c-2.688,1.881-5.655,3.859-8.78,5.856-1.487-3.264-3.121-6.667-4.84-10.047-.355.054-.711.112-1.066.17,1.769,4.025,3.469,8.084,4.944,11.935,1.626-.823,3.214-1.642,4.747-2.449-.525,1.819-1.089,3.631-1.684,5.4-1.622,1.522-3.3,3.021-4.987,4.485.081,2.063.124,4.029.116,5.848-.939.645-1.873,1.271-2.816,1.877A52.828,52.828,0,0,1,50.3,70.875c-1.514.2-3.021.379-4.515.552-1.124-1.761-2.457-4.168-3.909-7.026.344-1.309.711-2.708,1.082-4.187-.915-2.572-1.885-5.381-2.866-8.3-3.287.2-6.539.375-9.718.518-1.839-1.73-3.654-3.5-5.423-5.269.232-2.843.521-5.748.858-8.637,1.727-2.155,3.511-4.311,5.3-6.427,3.384-.626,6.841-1.232,10.275-1.808.216.885.429,1.777.645,2.673,1.41.9,2.824,1.819,4.241,2.739.541-.753,1.07-1.5,1.6-2.236,2.148.556,4.276,1.12,6.369,1.688q.8-.487,1.588-.962c.216-.788.417-1.564.622-2.333-1.418-.263-2.858-.533-4.311-.8-.491-.8-.985-1.6-1.476-2.387-.352-.166-.7-.336-1.039-.51-.27.977-.545,1.974-.83,2.982-.664-.811-1.325-1.611-1.989-2.4.035-.657.07-1.306.093-1.947q-1.3-.979-2.592-1.916c-.514-.239-1.024-.475-1.533-.707.05.614.089,1.24.139,1.873,1.07.68,2.155,1.371,3.241,2.078q-.823.9-1.661,1.85-1.194-1.512-2.348-2.963c-.56-.606-1.109-1.205-1.661-1.792-1.282.591-2.576,1.205-3.87,1.823-.927,1.336-1.866,2.712-2.8,4.114q-2.051-.29-4.06-.56c-.019-1.665-.023-3.291-.012-4.848q2.532.1,5.126.239c-.518-.819-1.027-1.622-1.53-2.4-.294-.637-.583-1.263-.869-1.866,1.29-.394,2.584-.784,3.87-1.155.734-.823,1.452-1.615,2.167-2.372.564-.035,1.132-.073,1.692-.108-.108-.421-.22-.834-.328-1.232.371-.379.726-.734,1.082-1.093q.406.881.819,1.839c1.568.031,3.136.077,4.7.127.4-.888.776-1.73,1.139-2.518.595.155,1.19.313,1.785.467q-.371-.834-.738-1.591c.865-.178,1.707-.348,2.549-.51-.305-.228-.61-.444-.912-.657-.749.12-1.514.251-2.287.386-.324-.448-.645-.873-.958-1.275-.042,0-.081,0-.124,0,.015-.031.031-.058.05-.089-.127-.166-.263-.328-.394-.479.29-.12.579-.239.861-.348.228-.386.413-.672.618-.985-.282-.023-.568-.05-.85-.073-.4.243-.815.521-1.236.811-.34.44-.7.939-1.066,1.472.464.305.931.614,1.4.939-.39.788-.792,1.661-1.224,2.6-.7.2-1.4.4-2.117.61-.4-.97-.8-1.87-1.182-2.7-.8.313-1.618.633-2.441.973-.382-.17-.757-.328-1.132-.491.085-.823.178-1.584.27-2.26.688-.317,1.36-.606,2.016-.881a14.622,14.622,0,0,1,1.607-1.777c1.275-.259,2.5-.471,3.666-.645,2.963.135,6.057.351,9.189.614,4.342-.147,9.606-.336,11.928-.448a41.249,41.249,0,0,0-51.508.328c.475.066.946.135,1.425.209.282.707.6,1.472.981,2.329.124.436.259.9.406,1.387-.749.715-1.487,1.487-2.206,2.31-.151.406-.3.815-.44,1.24-.548.309-1.082.626-1.615.942-.348,1.155-.668,2.376-.966,3.642-.653-.093-1.3-.182-1.92-.267-.436-2.526-.688-4.7-.888-6.729A41.466,41.466,0,0,0,5.1,21.441c.212-.178.409-.351.626-.525.552,2.793,1.217,5.856,2.121,9.189C6.033,31.276,4.4,32.438,3,33.558A32.417,32.417,0,0,0,.332,36.328,42.151,42.151,0,0,0,0,41.345,41.557,41.557,0,0,0,1.317,51.55c.734.267,1.533.529,2.422.788A58.87,58.87,0,0,0,8.328,57q.556,1.663,1.178,3.268c2.2,1.371,4.608,2.7,7.115,3.948-.757,2.348-1.34,4.392-1.777,6.157-.977.027-1.924.05-2.858.07A41.305,41.305,0,0,0,82.641,42.485C82.49,41.9,82.37,41.334,82.208,40.743Z" transform="translate(9.5 6.5)"/></g></svg>