<svg xmlns="http://www.w3.org/2000/svg" width="45.117" height="46.521" viewBox="0 0 45.117 46.521">
  <path id="Pfad_1668" data-name="Pfad 1668" d="M44.941,21.264c-.064-.421-.128-.669-.128-.669s-.165.191-.438.551a15.7,15.7,0,0,0-.541-2.966,20.192,20.192,0,0,0-1.366-3.515,14.643,14.643,0,0,0-1.248-2.14q-.257-.383-.524-.744c-.831-1.357-1.785-2.187-2.888-3.756A11.384,11.384,0,0,1,36.363,4.11a15.818,15.818,0,0,0-.694,2.562c-1.133-1.143-2.119-1.955-2.713-2.509C30.021,1.422,30.362,0,30.362,0S24.88,6.119,27.255,12.494a12.247,12.247,0,0,0,4.082,5.443c2.3,1.9,4.772,3.387,6.077,7.2A12.213,12.213,0,0,0,32.83,20.3a11.04,11.04,0,0,1,.875,4.374A10.387,10.387,0,0,1,21,34.791a9.56,9.56,0,0,1-2.573-.875,10.473,10.473,0,0,1-3.084-2.85l-.015-.025.184.067a9.473,9.473,0,0,0,1.312.351,8.206,8.206,0,0,0,5.224-.617c1.642-.911,2.636-1.586,3.442-1.32h.015c.787.251,1.408-.513.846-1.312A4.287,4.287,0,0,0,22.2,26.59c-1.643.239-3.149,1.407-5.3.276a4.479,4.479,0,0,1-.4-.238c-.146-.083.462.127.321.032a10.667,10.667,0,0,1-1.353-.808c-.032-.026.325.1.292.076A5.221,5.221,0,0,1,14.344,24.5a2.538,2.538,0,0,1-.1-2.266,2,2,0,0,1,.875-.822c.278.137.451.241.451.241s-.127-.233-.2-.356c.025-.009.047,0,.071-.016.243.1.783.379,1.067.547a1.481,1.481,0,0,1,.488.437s.1-.048.025-.252a1.312,1.312,0,0,0-.5-.618h.023a4.287,4.287,0,0,1,.621.386,3.031,3.031,0,0,0,.248-1.312,1.717,1.717,0,0,0-.1-.729c-.077-.146.044-.2.179-.051a1.423,1.423,0,0,0-.115-.347V19.33s.077-.1.112-.137a2.086,2.086,0,0,1,.315-.257,14.544,14.544,0,0,1,2.136-1.089c.6-.264,1.1-.465,1.206-.523A3.354,3.354,0,0,0,21.577,17a2.869,2.869,0,0,0,.962-1.662,2.332,2.332,0,0,0,.025-.26v-.153c-.087-.328-.653-.574-3.61-.851a2.585,2.585,0,0,1-2.114-1.983V12.1c-.042.108-.08.217-.118.328.038-.109.076-.219.118-.328v-.023a7.491,7.491,0,0,1,2.9-3.6c.076-.061-.3.016-.227-.047a7.516,7.516,0,0,1,.773-.327c.133-.055-.569-.324-1.188-.258a3.207,3.207,0,0,0-1.1.26c.146-.125.583-.292.48-.292a7.093,7.093,0,0,0-2.248.85.458.458,0,0,1,.044-.2A3.5,3.5,0,0,0,14.86,9.549a1.857,1.857,0,0,0,.015-.254,4.193,4.193,0,0,0-.69.647l-.013.01a9.164,9.164,0,0,0-5.128-.437L9.03,9.5h.017a4.291,4.291,0,0,1-.911-1.021l-.023.006-.028-.032q-.168-.249-.346-.564c-.085-.146-.171-.316-.257-.493,0-.012-.013-.016-.019-.017-.035,0-.06.162-.089.12V7.491a6.281,6.281,0,0,1-.413-2.46l-.023.012A2.747,2.747,0,0,0,5.9,6.405c-.089.2-.146.309-.2.418V6.773c.013-.1.057-.308.047-.292s-.017.028-.028.042a2.526,2.526,0,0,0-.366.542,3.435,3.435,0,0,0-.219.557c-.009.031,0-.026,0-.093s.013-.187,0-.162L5.1,7.43a13.852,13.852,0,0,0-1.166,4.425,4.407,4.407,0,0,0-.045.784v.023a9.663,9.663,0,0,0-1.191,1.6A22.754,22.754,0,0,0,.175,20.434a15.091,15.091,0,0,1,1.349-2.363A21.871,21.871,0,0,0,0,26.09a20.745,20.745,0,0,1,.656-2.375,20.13,20.13,0,0,0,1.82,9.424,21.924,21.924,0,0,0,8.677,9.839A18.975,18.975,0,0,0,16.209,45.4c.236.086.475.17.72.252-.077-.03-.146-.064-.223-.1a22.894,22.894,0,0,0,6.561.965c7.865,0,10.461-2.995,10.7-3.294A3.984,3.984,0,0,0,34.9,41.98q.227-.094.459-.2l.1-.044.176-.083a16.477,16.477,0,0,0,3.32-2.079,8.02,8.02,0,0,0,3.1-4.52,2.825,2.825,0,0,0,.042-2.082q.121-.191.249-.408a18.527,18.527,0,0,0,2.781-9.012v-.267A11.276,11.276,0,0,0,44.941,21.264Z" fill="#fff"/>
</svg>
