<svg xmlns="http://www.w3.org/2000/svg" width="366" height="44" fill="none" viewBox="0 0 366 44"><path fill="#006400" d="M5.4 13.9H2.2C1.1 13.9.5 13.5.5 12.4.5 11.4 1.1 10.9 2.2 10.9H5.4V8.10001C5.4 3.20001 7.9.699997 12.8.699997 14.7.699997 16.4 1.1 17.8 1.8 19.5 2.9 20.3 4.4 20.3 6.2 20.3 7.5 19.9 8 18.9 8 18.2 8 17.6 7.59999 17.4 6.89999 17 5.59999 16.6 4.8 16.3 4.5 15.7 3.8 14.5 3.39999 12.8 3.39999 9.7 3.39999 8.4 4.9 8.4 7.8V10.6H14.2C15.5 10.6 16.1 11 16.1 12.1 16.1 13.1 15.4 13.6 14.2 13.6H8.4V32.1C8.4 33.2 8 33.8 7 33.8 6 33.8 5.6 33.2 5.6 32.1L5.4 13.9zM31.3 30.8V14H27C25.8 14 25.2 13.6 25.2 12.5 25.2 11.5 25.8 11 27 11H32.7C33.7 11 34.2 11.8 34.2 13.5 36 11.6 37.8 10.6 39.9 10.6 41.6 10.6 42.8 11 43.8 12.1 44.8 13.2 45.2 14.5 45.2 16.1 45.2 17.2 44.8 17.8 43.8 17.8 43.2 17.8 42.8 17.4 42.5 16.7 42.1 15.3 41.8 14.6 41.8 14.5 41.4 13.8 40.5 13.4 39.6 13.4 38.5 13.4 37.4 13.8 36.5 14.7 35.9 15.1 35.1 16 34.1 17.3V30.8H39.5C40.8 30.8 41.3 31.2 41.3 32.2 41.3 33.2 40.7 33.7 39.5 33.7H27C25.7 33.7 25.2 33.3 25.2 32.2 25.2 31.2 25.8 30.7 27 30.7H31.4L31.3 30.8zM53 22.8V26C53 29.5 55.4 31.1 60.2 31.1 62 31.1 63.4 31 64.5 30.5 65.1 30.4 66 29.8 67.4 28.8 68.2 28 68.9 27.6 69.2 27.6 70 27.6 70.5 28 70.5 28.8 70.5 29.6 69.9 30.6 68.7 31.6 66.8 33.1 63.8 34 60.1 34 53.4 34 50.1 31.4 50.1 25.9V18C50.1 16.2 50.8 14.5 52.2 13.3 54 11.5 56.8 10.7 60.4 10.7 66.9 10.7 70.1 14 70.1 20.6 70.1 22.3 69.4 23 68.3 23L53 22.8zM53 19.9H67.3C67.3 15.6 64.9 13.4 60.1 13.4 58.3 13.4 56.8 13.8 55.2 14.7 53.8 15.8 53 16.9 53 18.3V19.9zM78.1 22.8V26C78.1 29.5 80.5 31.1 85.3 31.1 87.1 31.1 88.5 31 89.6 30.5 90.2 30.4 91.1 29.8 92.5 28.8 93.3 28 94 27.6 94.3 27.6 95.1 27.6 95.6 28 95.6 28.8 95.6 29.6 95 30.6 93.8 31.6 91.9 33.1 88.9 34 85.2 34 78.5 34 75.2 31.4 75.2 25.9V18C75.2 16.2 75.9 14.5 77.3 13.3 79.1 11.5 81.9 10.7 85.5 10.7 92 10.7 95.2 14 95.2 20.6 95.2 22.3 94.5 23 93.4 23L78.1 22.8zM78.1 19.9H92.4C92.4 15.6 90 13.4 85.2 13.4 83.4 13.4 81.9 13.8 80.3 14.7 78.8 15.8 78.1 16.9 78.1 18.3V19.9zM100.5 24.8V12.3C100.5 5.6 104 2.39999 110.9 2.39999 113.7 2.39999 115.9 3.1 117.7 4.2 119.6 5.7 120.6 7.8 120.6 10.5 120.6 11.8 120.2 12.3 119.1 12.3 118.4 12.3 117.8 11.7 117.6 10.5 117.5 9.5 117 8.6 116.5 7.7 115.7 6 113.7 5.3 110.7 5.3 108.2 5.3 106.3 6 105.1 7.2 103.9 8.4 103.6 10.3 103.6 12.9V23.3C103.6 26.1 104.2 28 105.3 29.1 106.6 30.4 108.4 31.2 110.9 31.2 114.8 31.2 117 29.8 117.6 27.2 117.9 26.1 117.9 25.7 117.9 25.5 118.2 24.9 118.6 24.7 119.2 24.7 120.2 24.7 120.7 25.4 120.7 26.5 120.7 29 119.6 30.9 117.6 32.5 115.9 33.6 113.8 34.2 111.1 34.2 107.9 34.2 105.4 33.5 103.6 32 101.5 30.3 100.5 27.8 100.5 24.8zM125.2 26.6V18.3C125.2 13.2 128.5 10.7 135.2 10.7 141.9 10.7 145.2 13.2 145.2 18.3V26.6C145.2 31.7 141.9 34.2 135.3 34.2 128.6 34.1 125.2 31.6 125.2 26.6zM142.3 26.6V18.3C142.3 15.1 139.9 13.6 135.1 13.6 130.5 13.6 128 15.3 128 18.3V26.6C128 29.8 130.4 31.3 135.2 31.3 140.1 31.2 142.3 29.6 142.3 26.6zM167.2 31.3C165.8 32.4 164.7 33 163.6 33.4 162.5 33.8 161.1 34.1 159.6 34.1 157 34.1 154.7 33.5 153.1 32.4 151.2 31.1 150.2 29.2 150.2 26.6V18C150.2 15.5 151.2 13.6 153 12.3 154.5 11.2 156.8 10.6 159.3 10.6 161 10.6 162.4 10.7 163.5 11.2 164.6 11.6 165.9 12.3 167.1 13.4V3C167.1 1.6 167.5.899994 168.5.899994 169.5.899994 170 1.6 170 3V32.6C170 33.7 169.6 34.1 168.6 34.1 168 34.1 167.6 33.8 167.5 33.1 167.3 32.7 167.2 32.1 167.2 31.3zM167 28V16.3C165.6 15.2 164.5 14.5 163.5 14.2 162.2 13.8 161 13.5 159.6 13.5 157.8 13.5 156.3 13.8 155.2 14.6 153.8 15.4 153 16.8 153 18.4V26.5C153 28.2 153.7 29.4 155.2 30.4 156.5 31.1 157.8 31.5 159.8 31.5 161.3 31.5 162.7 31.2 163.8 30.8 164.8 29.9 165.9 29.1 167 28zM178.1 22.8V26C178.1 29.5 180.5 31.1 185.3 31.1 187.1 31.1 188.5 31 189.6 30.5 190.2 30.4 191.1 29.8 192.5 28.8 193.3 28 194 27.6 194.3 27.6 195.1 27.6 195.6 28 195.6 28.8 195.6 29.6 195 30.6 193.8 31.6 191.9 33.1 188.9 34 185.2 34 178.5 34 175.2 31.4 175.2 25.9V18C175.2 16.2 175.9 14.5 177.3 13.3 179.1 11.5 181.9 10.7 185.5 10.7 192 10.7 195.2 14 195.2 20.6 195.2 22.3 194.5 23 193.4 23L178.1 22.8zM178.1 19.9H192.4C192.4 15.6 190 13.4 185.2 13.4 183.4 13.4 181.9 13.8 180.3 14.7 178.8 15.8 178.1 16.9 178.1 18.3V19.9zM200.5 24.8V12.3C200.5 5.6 204 2.39999 210.9 2.39999 213.7 2.39999 215.9 3.1 217.7 4.2 219.6 5.7 220.6 7.8 220.6 10.5 220.6 11.8 220.2 12.3 219.1 12.3 218.4 12.3 217.8 11.7 217.6 10.5 217.5 9.5 217 8.6 216.5 7.7 215.7 6 213.7 5.3 210.7 5.3 208.2 5.3 206.3 6 205.1 7.2 204 8.5 203.6 10.3 203.6 12.9V23.3C203.6 26.1 204.2 28 205.3 29.1 206.5 30.4 208.4 31.2 210.9 31.2 214.8 31.2 217 29.8 217.6 27.2 217.9 26.1 217.9 25.7 217.9 25.5 218.2 24.9 218.6 24.7 219.1 24.7 220.1 24.7 220.6 25.4 220.6 26.5 220.6 29 219.5 30.9 217.5 32.5 215.8 33.6 213.7 34.2 211 34.2 207.8 34.2 205.3 33.5 203.5 32 201.5 30.3 200.5 27.8 200.5 24.8zM241.3 31.3C239.9 32.4 238.8 33.1 238 33.4 236.9 33.8 235.6 34.1 234.1 34.1 231.7 34.1 229.7 33.7 228.1 32.6 226.3 31.3 225.5 29.7 225.5 27.3 225.5 24.9 226.5 23.1 228.3 21.7 229.8 20.5 231.9 19.9 234.4 19.9 236.3 19.9 238.6 20.3 241.2 21.3V17.7C241.2 16 240.4 14.8 238.8 14.1 237.7 13.7 236.3 13.4 234.8 13.4 231 13.4 229.1 14.5 228.7 16.6 228.6 17.6 228.4 18.1 228.4 18.1 228.1 18.5 227.7 18.8 227.1 18.8 226 18.8 225.6 18.2 225.6 17.1 225.6 15.6 226.2 14.2 227.4 12.9 228.8 11.2 231.4 10.5 235.2 10.5 238.1 10.5 240.3 10.9 241.7 12 243.4 13.3 244.2 15.2 244.2 18.1V28.4C244.2 29.6 244.5 30.5 244.9 30.8 244.9 30.8 245.5 31.1 246.3 31.5 246.7 31.8 247 32.2 247 32.9 247 33.7 246.6 34.2 245.7 34.2 245.4 34.2 245 34.2 244.4 33.9 243.3 33.5 242.6 33.2 242.5 33.2 241.8 32.7 241.5 32.1 241.3 31.3zM241.2 28.3V24C239 23.3 236.8 22.9 234.9 22.9 230.6 22.9 228.5 24.3 228.5 27.1 228.5 28.6 229.2 29.7 230.4 30.3 231.5 30.9 232.8 31.1 234.3 31.1 235.7 31.1 236.9 30.8 238 30.3 238.8 30.1 239.8 29.4 241.2 28.3zM252.4 13C253.1 12.2 253.8 11.5 254.2 11.2 254.9 10.8 255.6 10.5 256.7 10.5 258.2 10.5 259.6 11.3 260.9 13 261.7 12 262.4 11.3 263.1 11.1 263.8 10.7 264.8 10.5 265.9 10.5 269.4 10.5 271 12.2 271 15.6V32C271 33.4 270.6 34.1 269.5 34.1 268.5 34.1 268.1 33.4 268.1 32V16.6C268.1 14.5 267.3 13.4 265.6 13.4 264.3 13.4 263.1 14.2 262 15.8V32C262 33.4 261.6 34.1 260.6 34.1 259.6 34.1 259.2 33.4 259.2 32V17C259.2 14.6 258.2 13.5 256.4 13.5 255.1 13.5 254 14.3 252.9 15.9V32.2C252.9 33.6 252.5 34.3 251.4 34.3 250.4 34.3 250 33.6 250 32.2V12.2C250 11.2 250.4 10.7 251.3 10.7 251.7 10.7 252.1 11 252.4 11.5 252.3 11.9 252.4 12.6 252.4 13zM278.4 13C280.6 11.3 283.3 10.6 286.2 10.6 292.3 10.6 295.2 13.2 295.2 18.2V26.5C295.2 28.9 294.4 30.8 292.7 32.2 291.2 33.5 289.1 34 286.4 34 283.3 34 280.7 33.2 278.3 31.5V41.1C278.3 42.6 277.9 43.3 276.9 43.3 275.9 43.3 275.5 42.6 275.5 41.1V12.8C275.5 11.3 275.9 10.6 276.7 10.6 277.1 10.6 277.5 10.9 277.8 11.4 278 12 278.1 12.6 278.4 13zM278.4 28.4C280.5 30.2 283 31.2 285.9 31.2 287.7 31.2 289.2 30.9 290.3 30.1 291.7 29.3 292.2 28 292.2 26.5V18.2C292.2 16.4 291.5 15.3 290 14.4 288.9 13.8 287.4 13.6 285.6 13.6 283.9 13.6 282.5 13.9 281.6 14.3 280.6 14.7 279.7 15.6 278.3 16.9V28.4H278.4V28.4zM305.1 20.3C305.1 13.9 307.3 8.19999 311.6 3.39999 313.1 1.59999 314.5.600006 315.4.600006 315.7.600006 316.1.599994 316.2.899994 316.5 1.19999 316.6 1.3 316.6 1.7 316.6 2.1 316 2.90001 314.9 4.10001 310.3 8.50001 308.1 14 308.1 20.5 308.1 27.7 310.5 33.7 315.2 38.1 316.2 38.9 316.6 39.8 316.6 40.3 316.6 40.6 316.5 41 316.2 41.1 315.9 41.4 315.6 41.5 315.4 41.5 314.3 41.5 312.8 40.2 310.8 37.6 306.9 33 305.1 27.3 305.1 20.3zM365.5 22C365.5 28.4 363.3 34.1 359 38.9 357.5 40.7 356.1 41.7 355.2 41.7 354.9 41.7 354.5 41.7 354.4 41.4 354.1 41.1 354 40.8 354 40.6 354 40.2 354.6 39.3 355.7 38.4 360.3 34 362.5 28.5 362.5 22 362.5 14.8 360.1 8.79999 355.4 4.39999 354.4 3.59999 354 2.7 354 2.2 354 1.9 354.1 1.49999 354.4 1.39999 354.7 1.09999 355 1 355.2 1 356.3 1 357.8 2.29999 359.8 4.89999 363.6 9.39999 365.5 15.2 365.5 22zM349 40.3H321.4C320.6 40.3 319.7 39.6 319.7 38.6 319.7 37.6 320.4 36.9 321.4 36.9H349C349.8 36.9 350.7 37.6 350.7 38.6 350.6 39.6 350.1 40.3 349 40.3zM329.4 4.10001C329.4 4.10001 331.8 5.8 331.8 8.5 331.8 13.5 325 19.1 325 24.3 325 30 329.3 33.6 333.3 34.7 333.9 34.8 334.1 34.1 333.4 34 331.7 33.6 329.8 31.4 329.8 27.9 329.8 24.7 332.9 23.5 334.1 21.9 335.4 20.2 335.1 18.3 334.4 17.7 333.7 17.1 334.1 16.3 335.5 17.3 336.8 18.3 338 19.9 337.6 21.6 337 23.7 337.7 24.9 338.9 25.1 340 25.2 341.3 24.7 341.1 23.7 341 22.7 340.4 21.6 340.7 21.6 341.5 21.6 343.2 23.5 343.2 26.6 343.2 29.7 340.7 31.9 339.9 32.7 339.5 33.1 340 33.8 340.7 33.5 341 33.4 341.7 32.9 342.1 32.7 344 31.3 347.2 28.4 347.2 23 347.2 17.3 345.1 14.8 342.9 12.7 340.8 10.6 340.3 11.2 340.8 12.1 342.6 15.3 341.5 16.3 340.2 16.3 338.7 16.3 338.5 12.7 338 10 336.6 3.9 331.2 2.89999 330.2 2.89999 329.1 2.99999 328.1 3.50001 329.4 4.10001z"/></svg>