<svg xmlns="http://www.w3.org/2000/svg" id="layer" x="0" y="0" version="1.1" viewBox="0 0 652 652" xml:space="preserve"><style>.st0{fill:#006400}</style><g id="Page-1"><g id="freeCodeCamp_logo" transform="translate(-4 -6)"><g id="freeCodeCamp" transform="translate(4 6)"><path id="path5_1_" d="M29.5,307.6h-5.2c-1.8,0-2.8-0.8-2.8-2.4c0-1.6,0.9-2.4,2.8-2.4h5.2v-4.7 c0-8.1,4.1-12.1,12.2-12.1c3.3,0,6.1,0.7,8.3,1.9c2.8,1.7,4.2,4.3,4.2,7.4c0,2.1-0.8,3-2.4,3c-1.1,0-1.9-0.7-2.5-1.9 c-0.7-2.1-1.3-3.3-1.7-3.8c-0.9-1.2-2.9-1.9-5.8-1.9c-5,0-7.3,2.5-7.3,7.4v4.5H44c2.1,0,3.2,0.8,3.2,2.4c0,1.6-1.1,2.4-3.2,2.4 h-9.5v30.4c0,1.9-0.8,2.8-2.4,2.8c-1.6,0-2.4-1-2.4-2.8v-30.3H29.5L29.5,307.6z" class="st0"/><path id="path7_1_" d="M72.1,335.4v-27.7H65c-1.9,0-2.9-0.8-2.9-2.4c0-1.6,0.9-2.4,2.9-2.4h9.4 c1.6,0,2.5,1.5,2.5,4.1c2.9-3.2,6.1-4.9,9.3-4.9c2.8,0,4.8,0.8,6.4,2.5c1.6,1.7,2.4,4,2.4,6.6c0,1.9-0.8,2.8-2.4,2.8 c-0.9,0-1.6-0.7-1.9-1.9c-0.7-2.2-1.1-3.4-1.2-3.6c-0.7-1.2-1.9-1.9-3.7-1.9c-1.8,0-3.6,0.7-5.1,2c-0.9,0.7-2.2,2.1-3.9,4.3V335 h8.9c1.9,0,2.9,0.8,2.9,2.2c0,1.6-0.9,2.5-2.9,2.5H64.9c-1.9,0-2.9-0.8-2.9-2.4c0-1.6,0.9-2.4,2.9-2.4h7.2L72.1,335.4L72.1,335.4 z" class="st0"/><path id="path9_1_" d="M107.9,322.3v5.3c0,5.7,3.9,8.5,11.9,8.5c2.9,0,5.2-0.3,7.1-1c0.9-0.3,2.6-1.2,4.8-2.8 c1.4-1.3,2.5-2,2.9-2c1.3,0,1.9,0.7,1.9,2.1s-0.9,2.9-2.9,4.5c-3.2,2.5-7.9,3.8-14.2,3.8c-11,0-16.5-4.4-16.5-13.1v-13.2 c0-3,1.2-5.7,3.4-7.8c3-2.9,7.5-4.3,13.5-4.3c10.8,0,16.1,5.4,16.1,16.2c0,2.6-1.1,4-3,4h-25.1L107.9,322.3L107.9,322.3z M107.9,317.6h23.5c0-7.2-3.9-10.7-11.9-10.7c-2.9,0-5.5,0.7-7.9,2c-2.4,1.7-3.7,3.7-3.7,5.9V317.6L107.9,317.6z" class="st0"/><path id="path11_1_" d="M149,322.3v5.3c0,5.7,3.9,8.5,11.9,8.5c2.9,0,5.2-0.3,7.1-1c0.9-0.3,2.6-1.2,4.8-2.8 c1.4-1.3,2.5-2,2.9-2c1.3,0,1.9,0.7,1.9,2.1s-0.9,2.9-2.9,4.5c-3.2,2.5-7.9,3.8-14.2,3.8c-11,0-16.5-4.4-16.5-13.1v-13.2 c0-3,1.2-5.7,3.4-7.8c3-2.9,7.5-4.3,13.5-4.3c10.8,0,16.1,5.4,16.1,16.2c0,2.6-1.1,4-3,4h-25.1L149,322.3L149,322.3z M149,317.6 h23.5c0-7.2-3.9-10.7-11.9-10.7c-2.9,0-5.5,0.7-7.9,2c-2.5,1.7-3.7,3.7-3.7,5.9V317.6L149,317.6z" class="st0"/><path id="path13_1_" d="M185.9,325.4v-20.7c0-10.9,5.7-16.2,17-16.2c4.6,0,8.3,1.1,11.2,3c3.3,2.5,4.8,5.9,4.8,10.2 c0,2-0.8,3-2.5,3c-1.2,0-1.9-1-2.5-2.9c-0.3-1.6-0.9-3.2-1.8-4.7c-1.4-2.6-4.6-3.8-9.5-3.8c-4.2,0-7.2,1.1-9,3.2 c-1.7,2-2.6,5.1-2.6,9.4v17.2c0,4.5,0.9,7.7,2.8,9.7c1.9,2.1,5,3.3,9.2,3.3c6.4,0,10.1-2.2,11-6.7c0.4-1.7,0.5-2.5,0.5-2.6 c0.4-1,1.1-1.5,1.9-1.5c1.6,0,2.5,1.1,2.5,3c0,4.1-1.7,7.3-5.1,9.8c-2.8,1.9-6.3,2.8-10.8,2.8c-5.2,0-9.3-1.2-12.3-3.7 C187.4,334.6,185.9,330.6,185.9,325.4L185.9,325.4L185.9,325.4z" class="st0"/><path id="path15_9_" d="M226.5,328.3v-13.6c0-8.4,5.5-12.5,16.5-12.5c11,0,16.5,4.1,16.5,12.5v13.6 c0,8.4-5.4,12.5-16.3,12.5C232,340.8,226.5,336.6,226.5,328.3L226.5,328.3L226.5,328.3z M254.7,328.3v-13.6 c0-5.2-3.9-7.8-11.9-7.8c-7.6,0-11.5,2.6-11.5,7.8v13.6c0,5.2,3.9,7.8,11.8,7.7C250.9,336,254.7,333.5,254.7,328.3L254.7,328.3z" class="st0"/><path id="path17_1_" d="M295.6,336.3c-2.2,1.7-4.2,2.8-5.9,3.4c-1.8,0.7-4.1,1.1-6.7,1.1c-4.4,0-8-1-10.8-2.8 c-3.2-2.1-4.7-5.3-4.7-9.7v-13.9c0-4.1,1.6-7.3,4.6-9.4c2.6-1.9,6.2-2.8,10.4-2.8c2.8,0,5.1,0.3,6.9,1c1.8,0.7,3.8,1.9,5.9,3.6 v-17.1c0-2.2,0.8-3.4,2.2-3.4c1.6,0,2.5,1.2,2.5,3.4v48.7c0,1.7-0.8,2.5-2.2,2.5c-0.9,0-1.6-0.5-1.8-1.6 C295.7,338.4,295.6,337.5,295.6,336.3L295.6,336.3L295.6,336.3z M295.3,330.7v-19.1c-2.4-1.7-4.2-2.9-5.7-3.4 c-1.9-0.8-4.1-1.2-6.4-1.2c-3,0-5.5,0.5-7.3,1.7c-2.4,1.5-3.6,3.6-3.6,6.2v13.1c0,2.8,1.2,4.9,3.7,6.3c1.9,1.1,4.4,1.7,7.5,1.7 c2.5,0,4.7-0.4,6.6-1.2C291.7,333.9,293.4,332.5,295.3,330.7L295.3,330.7L295.3,330.7z" class="st0"/><path id="path19_1_" d="M313.4,322.3v5.3c0,5.7,3.9,8.5,11.9,8.5c2.9,0,5.2-0.3,7.1-1c0.9-0.3,2.6-1.2,4.8-2.8 c1.4-1.3,2.5-2,2.9-2c1.3,0,1.9,0.7,1.9,2.1s-0.9,2.9-2.9,4.5c-3.2,2.5-7.9,3.8-14.2,3.8c-11,0-16.5-4.4-16.5-13.1v-13.2 c0-3,1.2-5.7,3.4-7.8c3-2.9,7.5-4.3,13.5-4.3c10.8,0,16.1,5.4,16.1,16.2c0,2.6-1.1,4-3,4h-25.1L313.4,322.3L313.4,322.3z M313.4,317.6h23.5c0-7.2-3.9-10.7-11.9-10.7c-2.9,0-5.5,0.7-7.9,2c-2.5,1.7-3.7,3.7-3.7,5.9V317.6L313.4,317.6z" class="st0"/><path id="path21_1_" d="M350.3,325.4v-20.7c0-10.9,5.7-16.2,17-16.2c4.6,0,8.3,1.1,11.2,3c3.3,2.5,4.8,5.9,4.8,10.2 c0,2-0.8,3-2.5,3c-1.2,0-1.9-1-2.5-2.9c-0.3-1.6-0.9-3.2-1.8-4.7c-1.4-2.6-4.6-3.8-9.5-3.8c-4.2,0-7.2,1.1-9,3.2 c-1.7,2-2.6,5.1-2.6,9.4v17.2c0,4.5,0.9,7.7,2.8,9.7c1.9,2.1,5,3.3,9.2,3.3c6.4,0,10.1-2.2,11-6.7c0.4-1.7,0.5-2.5,0.5-2.6 c0.4-1,1.1-1.5,1.9-1.5c1.6,0,2.5,1.1,2.5,3c0,4.1-1.7,7.3-5.1,9.8c-2.8,1.9-6.3,2.8-10.8,2.8c-5.2,0-9.3-1.2-12.3-3.7 C351.9,334.6,350.3,330.6,350.3,325.4L350.3,325.4L350.3,325.4z" class="st0"/><path id="path23_1_" d="M417.4,336.3c-2.4,1.7-4.2,2.9-5.5,3.4c-1.7,0.7-3.8,1.1-6.4,1.1c-3.9,0-7.2-0.8-9.7-2.5 c-2.9-2-4.4-4.9-4.4-8.8c0-3.8,1.6-6.9,4.6-9c2.6-2,6.1-2.9,9.9-2.9c3.3,0,6.9,0.8,11.2,2.2v-5.8c0-2.8-1.3-4.8-3.9-5.9 c-1.8-0.8-4.1-1.2-6.7-1.2c-6.2,0-9.4,1.7-10.1,5.2c-0.3,1.6-0.5,2.4-0.5,2.5c-0.4,0.8-1.1,1.2-1.9,1.2c-1.7,0-2.6-1-2.6-2.8 c0-2.5,0.9-4.8,2.9-6.9c2.4-2.6,6.7-4,12.7-4c4.8,0,8.4,0.8,10.8,2.4c2.8,2,4.2,5.3,4.2,9.9v17c0,2,0.4,3.3,1.2,4 c0.1,0.1,0.9,0.5,2.2,1.1c0.8,0.4,1.2,1.1,1.2,2.2c0,1.3-0.7,2-2.1,2c-0.4,0-1.1-0.1-2.1-0.5c-1.8-0.7-3-1.1-3.3-1.2 C418.2,338.5,417.6,337.6,417.4,336.3L417.4,336.3L417.4,336.3z M417.1,331.3v-7c-3.7-1.2-7.2-1.9-10.4-1.9 c-7.1,0-10.6,2.2-10.6,6.9c0,2.4,1.1,4.3,3.2,5.3c1.7,1,3.8,1.5,6.4,1.5c2.2,0,4.3-0.4,6.2-1.3 C413.3,334.2,415,332.9,417.1,331.3L417.1,331.3L417.1,331.3z" class="st0"/><path id="path25_1_" d="M435.7,306.2c1.2-1.5,2.2-2.5,3-2.9c1.1-0.7,2.4-1.1,4.1-1.1c2.6,0,4.8,1.3,6.8,4.1 c1.3-1.6,2.5-2.6,3.6-3.2c1.2-0.7,2.8-1,4.6-1c5.7,0,8.5,2.8,8.5,8.4v26.9c0,2.2-0.8,3.3-2.5,3.3c-1.6,0-2.4-1.1-2.4-3.3v-25.3 c0-3.4-1.4-5.3-4.2-5.3c-2.1,0-4.2,1.3-6.1,3.8v26.8c0,2.2-0.8,3.3-2.4,3.3c-1.6,0-2.4-1.1-2.4-3.3v-24.8c0-3.8-1.6-5.7-4.6-5.7 c-1.9,0-3.8,1.3-5.8,3.8v26.7c0,2.2-0.8,3.3-2.5,3.3c-1.6,0-2.4-1.1-2.4-3.3v-32.9c0-1.6,0.7-2.4,1.9-2.4c0.7,0,1.3,0.5,1.7,1.5 C435.5,304.3,435.7,305.3,435.7,306.2L435.7,306.2L435.7,306.2z" class="st0"/><path id="path27_1_" d="M478.3,306.2c3.7-2.6,8-4,12.7-4c9.9,0,14.9,4.3,14.9,12.6v13.8c0,4-1.4,7-4.2,9.3 c-2.5,2-5.9,3-10.2,3c-5.1,0-9.4-1.3-13.3-4.1v15.7c0,2.4-0.8,3.6-2.4,3.6c-1.6,0-2.4-1.2-2.4-3.6v-46.6c0-2.4,0.7-3.6,1.9-3.6 c0.7,0,1.3,0.5,1.8,1.5C477.7,304.4,478.1,305.4,478.3,306.2L478.3,306.2L478.3,306.2z M478.3,331.4c3.4,3,7.6,4.7,12.4,4.7 c3,0,5.4-0.5,7.2-1.7c2.2-1.3,3.3-3.3,3.3-5.8v-13.8c0-2.9-1.2-4.9-3.6-6.2c-1.8-1-4.3-1.5-7.3-1.5c-2.8,0-5,0.4-6.7,1.2 c-1.6,0.7-3.3,2.1-5.4,4.3V331.4L478.3,331.4L478.3,331.4z" class="st0"/><path id="path29_1_" d="M522.2,318.2c0-10.5,3.6-19.8,10.8-28c2.6-3,4.7-4.5,6.2-4.5c0.5,0,1.1,0.1,1.4,0.5 s0.7,0.8,0.7,1.3c0,0.8-0.9,2-2.8,3.8c-7.5,7.3-11.3,16.3-11.3,27.1c0,12,3.9,21.6,11.7,29c1.6,1.5,2.4,2.6,2.4,3.6 c0,0.5-0.3,1.1-0.7,1.5s-0.9,0.7-1.4,0.7c-1.8,0-4.3-2.1-7.6-6.3C525.2,339.1,522.2,329.5,522.2,318.2L522.2,318.2L522.2,318.2z" class="st0"/><path id="path31_1_" d="M621.5,320.9c0,10.5-3.6,19.8-10.8,28c-2.6,3-4.7,4.5-6.2,4.5c-0.5,0-1.1-0.1-1.4-0.5 c-0.4-0.4-0.7-1-0.7-1.5c0-0.8,0.9-2,2.8-3.7c7.5-7.3,11.3-16.3,11.3-27.1c0-12-3.9-21.6-11.7-29c-1.6-1.5-2.4-2.6-2.4-3.6 c0-0.5,0.3-1.1,0.7-1.5c0.4-0.4,0.9-0.7,1.4-0.7c1.7,0,4.3,2.1,7.6,6.3C618.3,300.2,621.5,309.8,621.5,320.9L621.5,320.9 L621.5,320.9z" class="st0"/><path id="path37_1_" d="M594.5,351H549c-1.4,0-2.8-1.1-2.8-2.8c0-1.5,1.1-2.8,2.8-2.8h45.4c1.4,0,2.8,1.1,2.8,2.8 C597.2,349.9,596.1,351,594.5,351L594.5,351z" class="st0"/><path id="Shape" d="M562.3,291.5c0,0,3.8,2.6,3.8,7.4c0,8.3-11.1,17.5-11.1,26c0,9.3,7,15.3,13.8,17.1 c0.9,0.2,1.4-0.9,0.2-1.2c-2.7-0.7-5.8-4.3-5.8-10c0-5.3,5-7.2,7-9.8c2.1-2.6,1.6-5.9,0.4-6.9c-1.2-1-0.4-2.2,1.8-0.7 s4,4.4,3.3,7.1c-0.8,3.5,0.3,5.5,2.1,5.7s3.8-0.7,3.6-2.4c-0.2-1.7-1.2-3.5-0.6-3.5c1.3,0,4,3.2,4,8.3c0,5.1-4.2,8.6-5.4,9.9 c-0.8,0.8,0.2,1.9,1.3,1.3c0.5-0.2,1.6-0.9,2.3-1.4c3.3-2.4,8.4-7.1,8.4-16c0-9.3-3.5-13.4-7-16.8c-3.5-3.5-4.4-2.6-3.4-0.9 c3,5.2,1.2,6.9-1,6.9c-2.6,0-2.7-5.8-3.7-10.3c-2.2-9.9-11.1-11.6-12.8-11.7C561.8,289.6,560.3,290.6,562.3,291.5L562.3,291.5z" class="st0"/></g></g></g></svg>