<svg xmlns="http://www.w3.org/2000/svg" width="246.237" height="28.409" viewBox="0 0 246.237 28.409"><g data-name="Gruppe 348"><path data-name="Pfad 515" d="M102.482,62.48l.511.062.487.092.462.111.438.136.413.166.382.185.364.216.333.24.314.259.283.29.259.308.234.339.21.364.185.382.16.413.136.431.111.462.086.481.062.511.037.53.012.561v.136l-.006.129-.012.123-.018.117-.018.117-.025.1-.031.1-.031.092-.043.086-.043.086-.043.074-.055.074-.055.068-.062.055-.068.055-.068.043-.074.043-.08.031-.086.031-.086.025-.092.012-.1.012H96.418v-.086h-.025v2.157L96.4,73l.031.283.043.265.068.253.08.24.1.228.117.21.142.2.154.185.179.179.2.16.21.148.234.136.253.123.265.111.29.1.308.08.327.074.345.055.364.043.382.037.4.018.419.006h.154l.154-.006h.148l.148-.006.142-.006.142-.012.142-.006.136-.012.136-.012.129-.012.129-.018.123-.018.123-.018.117-.018.123-.025.111-.025.111-.025.111-.025.111-.031.1-.025.1-.031.1-.037.1-.031.055-.018.055-.025.062-.018.062-.031.068-.025.068-.031.074-.037.074-.031.08-.043.08-.043.08-.043.092-.049.086-.049.1-.055.1-.055.1-.062.1-.062.1-.068.111-.074.111-.074.117-.074.123-.08.123-.086.074-.068.074-.068.074-.062.074-.062.068-.055.062-.049.068-.049.062-.049.055-.043.055-.043.055-.037.055-.037.049-.031.049-.025.043-.031.043-.018.043-.018.037-.018.037-.012.031-.012.031-.006.031-.006h.1l.062.006.062.006.062.012.055.012.055.018.049.018.043.025.043.025.043.031.037.037.037.037.031.037.031.043.025.049.025.049.018.055.012.062.018.062.006.062.012.068v.074l.006.08-.006.074-.006.08-.012.08-.012.074-.025.08-.025.08-.025.08-.037.074-.037.08-.043.08-.049.08-.055.08-.055.074-.062.08-.062.08-.074.08-.074.08-.08.08-.08.08-.092.08-.092.08-.1.08-.1.086-.173.123-.179.123-.185.117-.191.117-.2.1-.21.1-.216.092-.222.092-.228.086-.24.08-.246.074-.253.068-.259.068-.265.055-.277.049-.277.049-.29.037-.3.037-.3.025-.314.025-.314.012-.32.012h-.333l-.573-.006-.548-.031L99.6,77.96l-.5-.074-.475-.086-.45-.111-.419-.129-.4-.154-.37-.166-.345-.191-.32-.21-.3-.234-.265-.246-.246-.271-.222-.3-.191-.308-.166-.333-.148-.351-.111-.376-.092-.388-.068-.413-.037-.438-.012-.456V67.194l.012-.16.012-.148.018-.154.025-.154.025-.148.037-.148.037-.142.049-.148.049-.142.055-.142.062-.136.068-.136.068-.136.08-.136.08-.129.086-.129.092-.123.1-.123.1-.123.111-.117.111-.117.117-.117.16-.154.173-.142.173-.142.185-.129.191-.123.2-.117.21-.111.21-.1.222-.092.228-.092.234-.08.24-.074.253-.074.253-.062.265-.055.265-.049.277-.037.283-.037.283-.031.3-.018.3-.018.308-.006.314-.006.561.012Zm-2.4,1.886-.475.08-.462.117-.45.148-.425.179-.413.21-.376.3-.32.308-.271.333-.216.345-.154.364-.1.382-.031.4v1.134h9.613l-.1-1.152-.3-.98-.5-.8-.7-.622-.9-.45L102.4,64.39l-1.306-.092-.511.018Z" transform="translate(0) translate(33.573 6.699) translate(-94.458 -62.43)" fill="#9f9f9f"/><g data-name="Gruppe 347"><path data-name="Pfad 516" d="M102.482,62.48l.511.062.487.092.462.111.438.136.413.166.382.185.364.216.333.24.314.259.283.29.259.308.234.339.21.364.185.382.16.413.136.431.111.462.086.481.062.511.037.53.012.561v.136l-.006.129-.012.123-.018.117-.018.117-.025.1-.031.1-.031.092-.043.086-.043.086-.043.074-.055.074-.055.068-.062.055-.068.055-.068.043-.074.043-.08.031-.086.031-.086.025-.092.012-.1.012H96.418v-.086h-.025v2.157L96.4,73l.031.283.043.265.068.253.08.24.1.228.117.21.142.2.154.185.179.179.2.16.21.148.234.136.253.123.265.111.29.1.308.08.327.074.345.055.364.043.382.037.4.018.419.006h.154l.154-.006h.148l.148-.006.142-.006.142-.012.142-.006.136-.012.136-.012.129-.012.129-.018.123-.018.123-.018.117-.018.123-.025.111-.025.111-.025.111-.025.111-.031.1-.025.1-.031.1-.037.1-.031.055-.018.055-.025.062-.018.062-.031.068-.025.068-.031.074-.037.074-.031.08-.043.08-.043.08-.043.092-.049.086-.049.1-.055.1-.055.1-.062.1-.062.1-.068.111-.074.111-.074.117-.074.123-.08.123-.086.074-.068.074-.068.074-.062.074-.062.068-.055.062-.049.068-.049.062-.049.055-.043.055-.043.055-.037.055-.037.049-.031.049-.025.043-.031.043-.018.043-.018.037-.018.037-.012.031-.012.031-.006.031-.006h.1l.062.006.062.006.062.012.055.012.055.018.049.018.043.025.043.025.043.031.037.037.037.037.031.037.031.043.025.049.025.049.018.055.012.062.018.062.006.062.012.068v.074l.006.08-.006.074-.006.08-.012.08-.012.074-.025.08-.025.08-.025.08-.037.074-.037.08-.043.08-.049.08-.055.08-.055.074-.062.08-.062.08-.074.08-.074.08-.08.08-.08.08-.092.08-.092.08-.1.08-.1.086-.173.123-.179.123-.185.117-.191.117-.2.1-.21.1-.216.092-.222.092-.228.086-.24.08-.246.074-.253.068-.259.068-.265.055-.277.049-.277.049-.29.037-.3.037-.3.025-.314.025-.314.012-.32.012h-.333l-.573-.006-.548-.031L99.6,77.96l-.5-.074-.475-.086-.45-.111-.419-.129-.4-.154-.37-.166-.345-.191-.32-.21-.3-.234-.265-.246-.246-.271-.222-.3-.191-.308-.166-.333-.148-.351-.111-.376-.092-.388-.068-.413-.037-.438-.012-.456V67.194l.012-.16.012-.148.018-.154.025-.154.025-.148.037-.148.037-.142.049-.148.049-.142.055-.142.062-.136.068-.136.068-.136.08-.136.08-.129.086-.129.092-.123.1-.123.1-.123.111-.117.111-.117.117-.117.16-.154.173-.142.173-.142.185-.129.191-.123.2-.117.21-.111.21-.1.222-.092.228-.092.234-.08.24-.074.253-.074.253-.062.265-.055.265-.049.277-.037.283-.037.283-.031.3-.018.3-.018.308-.006.314-.006.561.012Zm-2.4,1.886-.475.08-.462.117-.45.148-.425.179-.413.21-.376.3-.32.308-.271.333-.216.345-.154.364-.1.382-.031.4v1.134h9.613l-.1-1.152-.3-.98-.5-.8-.7-.622-.9-.45L102.4,64.39l-1.306-.092-.511.018Z" transform="translate(0) translate(33.573 6.699) translate(-94.458 -62.43)" fill="#9f9f9f"/></g></g><g data-name="Gruppe 350"><path data-name="Pfad 517" d="M77.528,64.606h-2.89c-.8,0-1.2-.333-1.2-.937,0-.666.4-.931,1.2-.931h3.895c.666,0,1,.6,1,1.689A5.464,5.464,0,0,1,83.358,62.4a3.385,3.385,0,0,1,2.625,1A3.692,3.692,0,0,1,86.92,66.1c0,.733-.339,1.134-.937,1.134-.4,0-.666-.271-.8-.733a8.621,8.621,0,0,0-.468-1.473,1.617,1.617,0,0,0-1.467-.733,3.219,3.219,0,0,0-2.089.8,8.92,8.92,0,0,0-1.627,1.756v9.009h3.624c.8,0,1.2.339,1.2.937,0,.666-.4,1-1.2,1H74.546c-.8,0-1.2-.339-1.2-.937,0-.666.4-.937,1.2-.937H77.5V75.84h.025Z" transform="translate(0) translate(16.595 6.674) translate(-73.344 -62.4)" fill="#9f9f9f"/><g data-name="Gruppe 349"><path data-name="Pfad 518" d="M77.528,64.606h-2.89c-.8,0-1.2-.333-1.2-.937,0-.666.4-.931,1.2-.931h3.895c.666,0,1,.6,1,1.689A5.464,5.464,0,0,1,83.358,62.4a3.385,3.385,0,0,1,2.625,1A3.692,3.692,0,0,1,86.92,66.1c0,.733-.339,1.134-.937,1.134-.4,0-.666-.271-.8-.733a8.621,8.621,0,0,0-.468-1.473,1.617,1.617,0,0,0-1.467-.733,3.219,3.219,0,0,0-2.089.8,8.92,8.92,0,0,0-1.627,1.756v9.009h3.624c.8,0,1.2.339,1.2.937,0,.666-.4,1-1.2,1H74.546c-.8,0-1.2-.339-1.2-.937,0-.666.4-.937,1.2-.937H77.5V75.84h.025Z" transform="translate(0) translate(16.595 6.674) translate(-73.344 -62.4)" fill="#9f9f9f"/></g></g><g data-name="Gruppe 352"><path data-name="Pfad 519" d="M53.839,63.052c-.733,0-1.134-.333-1.134-.931,0-.672.4-.937,1.134-.937H56V59.293c0-3.291,1.688-4.918,4.979-4.918a7.109,7.109,0,0,1,3.359.739A3.424,3.424,0,0,1,66.1,58.141c0,.863-.339,1.2-.937,1.2a1.138,1.138,0,0,1-1-.739A6.581,6.581,0,0,0,63.5,57.05a3.068,3.068,0,0,0-2.36-.733c-2.021,0-3.02,1-3.02,3.026v1.824H62c.869,0,1.269.333,1.269.931,0,.666-.4.937-1.269.937H58.116v12.3c0,.733-.339,1.134-.937,1.134-.666,0-.937-.4-.937-1.134v-12.3H56v.018Z" transform="translate(0) translate(0 0.222) translate(-52.705 -54.376)" fill="#9f9f9f"/><g data-name="Gruppe 351"><path data-name="Pfad 520" d="M53.839,63.052c-.733,0-1.134-.333-1.134-.931,0-.672.4-.937,1.134-.937H56V59.293c0-3.291,1.688-4.918,4.979-4.918a7.109,7.109,0,0,1,3.359.739A3.424,3.424,0,0,1,66.1,58.141c0,.863-.339,1.2-.937,1.2a1.138,1.138,0,0,1-1-.739A6.581,6.581,0,0,0,63.5,57.05a3.068,3.068,0,0,0-2.36-.733c-2.021,0-3.02,1-3.02,3.026v1.824H62c.869,0,1.269.333,1.269.931,0,.666-.4.937-1.269.937H58.116v12.3c0,.733-.339,1.134-.937,1.134-.666,0-.937-.4-.937-1.134v-12.3H56v.018Z" transform="translate(0) translate(0 0.222) translate(-52.705 -54.376)" fill="#9f9f9f"/></g></g><g data-name="Gruppe 354"><path data-name="Pfad 521" d="M123.481,62.48l.511.062.487.092.462.111.438.136.413.166.382.185.364.216.333.24.314.259.283.29.259.308.234.339.21.364.185.382.16.413.136.431.111.462.086.481.062.511.037.53.012.561v.136l-.006.129-.012.123-.019.117-.018.117-.025.1-.031.1-.031.092-.043.086-.043.086-.043.074-.055.074-.055.068-.062.055-.068.055-.068.043-.074.043-.08.031-.086.031-.086.025-.092.012-.1.012H117.417v-.086h-.025v2.157l.012.29.025.283.049.265.062.253.08.24.1.228.117.21.142.2.16.185.173.179.2.16.21.148.234.136.253.123.265.111.29.1.308.08.327.074.345.055.364.043.382.037.4.018.419.006h.154l.154-.006h.148l.148-.006.142-.006.142-.012.142-.006.136-.012.136-.012.129-.012.129-.018.123-.018.123-.018.123-.018.117-.025.111-.025.117-.025.1-.025.111-.031.1-.025.1-.031.1-.037.1-.031.055-.018.055-.025.062-.018.062-.031.068-.025.068-.031.074-.037.074-.031.08-.043.08-.043.086-.043.086-.049.092-.049.092-.055.1-.055.1-.062.1-.062.1-.068.111-.074.111-.074.117-.074.123-.08.123-.086.074-.068.074-.068.074-.062.074-.062.068-.055.062-.049.068-.049.062-.049.055-.043.055-.043.055-.037.055-.037.049-.031.049-.025.043-.031.043-.018.043-.018.037-.018.037-.012.031-.012.031-.006.031-.006h.1l.062.006.062.006.062.012.055.012.055.018.049.018.043.025.043.025.043.031.037.037.037.037.031.037.031.043.025.049.025.049.018.055.012.062.018.062.006.062.012.068v.074l.006.08-.006.074-.006.08-.012.08-.012.074-.025.08-.025.08-.025.08-.037.074-.037.08-.043.08-.049.08-.049.08-.062.074-.062.08-.062.08-.074.08-.074.08-.08.08-.08.08-.092.08-.092.08-.1.08-.1.086-.173.123-.179.123-.185.117-.191.117-.2.1-.21.1-.216.092-.222.092-.228.086-.24.08-.246.074-.253.068-.259.068-.265.055-.277.049-.277.049-.29.037-.3.037-.3.025-.308.025-.32.012-.32.012h-.333l-.573-.006-.548-.031-.524-.049-.5-.074-.474-.086-.444-.111-.425-.129-.4-.154-.37-.166-.345-.191-.32-.21-.3-.234-.271-.246-.246-.271-.222-.3-.191-.308-.166-.333-.142-.351-.117-.376-.092-.388-.068-.413-.037-.438-.012-.456V67.194l.012-.16.012-.148.018-.154.025-.154.025-.148.037-.148.037-.142.049-.148.049-.142.055-.142.062-.136.068-.136.068-.136.08-.136.08-.129.086-.129.092-.123.1-.123.1-.123.111-.117.111-.117.117-.117.16-.154.173-.142.173-.142.185-.129.191-.123.2-.117.21-.111.21-.1.222-.092.228-.092.234-.08.24-.074.253-.074.253-.062.265-.055.265-.049.277-.037.283-.037.283-.031.3-.018.3-.018.308-.006.314-.006.561.012Zm-2.4,1.886-.475.08-.462.117-.45.148-.425.179-.413.21-.394.3-.333.308-.271.333-.2.345-.148.364-.086.382-.031.4v1.134h9.613l-.1-1.152-.3-.98-.5-.8-.7-.622-.9-.45-1.109-.265-1.306-.092-.511.018Z" transform="translate(0) translate(50.458 6.699) translate(-115.457 -62.43)" fill="#9f9f9f"/><g data-name="Gruppe 353"><path data-name="Pfad 522" d="M123.481,62.48l.511.062.487.092.462.111.438.136.413.166.382.185.364.216.333.24.314.259.283.29.259.308.234.339.21.364.185.382.16.413.136.431.111.462.086.481.062.511.037.53.012.561v.136l-.006.129-.012.123-.019.117-.018.117-.025.1-.031.1-.031.092-.043.086-.043.086-.043.074-.055.074-.055.068-.062.055-.068.055-.068.043-.074.043-.08.031-.086.031-.086.025-.092.012-.1.012H117.417v-.086h-.025v2.157l.012.29.025.283.049.265.062.253.08.24.1.228.117.21.142.2.16.185.173.179.2.16.21.148.234.136.253.123.265.111.29.1.308.08.327.074.345.055.364.043.382.037.4.018.419.006h.154l.154-.006h.148l.148-.006.142-.006.142-.012.142-.006.136-.012.136-.012.129-.012.129-.018.123-.018.123-.018.123-.018.117-.025.111-.025.117-.025.1-.025.111-.031.1-.025.1-.031.1-.037.1-.031.055-.018.055-.025.062-.018.062-.031.068-.025.068-.031.074-.037.074-.031.08-.043.08-.043.086-.043.086-.049.092-.049.092-.055.1-.055.1-.062.1-.062.1-.068.111-.074.111-.074.117-.074.123-.08.123-.086.074-.068.074-.068.074-.062.074-.062.068-.055.062-.049.068-.049.062-.049.055-.043.055-.043.055-.037.055-.037.049-.031.049-.025.043-.031.043-.018.043-.018.037-.018.037-.012.031-.012.031-.006.031-.006h.1l.062.006.062.006.062.012.055.012.055.018.049.018.043.025.043.025.043.031.037.037.037.037.031.037.031.043.025.049.025.049.018.055.012.062.018.062.006.062.012.068v.074l.006.08-.006.074-.006.08-.012.08-.012.074-.025.08-.025.08-.025.08-.037.074-.037.08-.043.08-.049.08-.049.08-.062.074-.062.08-.062.08-.074.08-.074.08-.08.08-.08.08-.092.08-.092.08-.1.08-.1.086-.173.123-.179.123-.185.117-.191.117-.2.1-.21.1-.216.092-.222.092-.228.086-.24.08-.246.074-.253.068-.259.068-.265.055-.277.049-.277.049-.29.037-.3.037-.3.025-.308.025-.32.012-.32.012h-.333l-.573-.006-.548-.031-.524-.049-.5-.074-.474-.086-.444-.111-.425-.129-.4-.154-.37-.166-.345-.191-.32-.21-.3-.234-.271-.246-.246-.271-.222-.3-.191-.308-.166-.333-.142-.351-.117-.376-.092-.388-.068-.413-.037-.438-.012-.456V67.194l.012-.16.012-.148.018-.154.025-.154.025-.148.037-.148.037-.142.049-.148.049-.142.055-.142.062-.136.068-.136.068-.136.08-.136.08-.129.086-.129.092-.123.1-.123.1-.123.111-.117.111-.117.117-.117.16-.154.173-.142.173-.142.185-.129.191-.123.2-.117.21-.111.21-.1.222-.092.228-.092.234-.08.24-.074.253-.074.253-.062.265-.055.265-.049.277-.037.283-.037.283-.031.3-.018.3-.018.308-.006.314-.006.561.012Zm-2.4,1.886-.475.08-.462.117-.45.148-.425.179-.413.21-.394.3-.333.308-.271.333-.2.345-.148.364-.086.382-.031.4v1.134h9.613l-.1-1.152-.3-.98-.5-.8-.7-.622-.9-.45-1.109-.265-1.306-.092-.511.018Z" transform="translate(0) translate(50.458 6.699) translate(-115.457 -62.43)" fill="#9f9f9f"/></g></g><g data-name="Gruppe 356"><path data-name="Pfad 523" d="M136.679,62.044c0-4.431,2.268-6.588,6.988-6.588a8.054,8.054,0,0,1,4.579,1.2,4.978,4.978,0,0,1,2.027,4.16c0,.8-.333,1.2-1,1.2q-.7,0-1-1.2a6.994,6.994,0,0,0-.733-1.892c-.6-1.066-1.892-1.553-3.895-1.553-1.756,0-2.958.4-3.691,1.263a5.8,5.8,0,0,0-1.072,3.827v6.988a5.619,5.619,0,0,0,1.134,3.895,4.858,4.858,0,0,0,3.765,1.331c2.625,0,4.16-.931,4.492-2.755.129-.672.2-1,.2-1.072a.784.784,0,0,1,.8-.6c.672,0,1,.4,1,1.2a4.539,4.539,0,0,1-2.1,3.962,7.9,7.9,0,0,1-4.425,1.134,7.716,7.716,0,0,1-5.053-1.473c-1.424-.931-2.021-2.533-2.021-4.628h0Z" transform="translate(0) translate(67.522 1.091) translate(-136.679 -55.456)" fill="#9f9f9f"/><g data-name="Gruppe 355"><path data-name="Pfad 524" d="M136.679,62.044c0-4.431,2.268-6.588,6.988-6.588a8.054,8.054,0,0,1,4.579,1.2,4.978,4.978,0,0,1,2.027,4.16c0,.8-.333,1.2-1,1.2q-.7,0-1-1.2a6.994,6.994,0,0,0-.733-1.892c-.6-1.066-1.892-1.553-3.895-1.553-1.756,0-2.958.4-3.691,1.263a5.8,5.8,0,0,0-1.072,3.827v6.988a5.619,5.619,0,0,0,1.134,3.895,4.858,4.858,0,0,0,3.765,1.331c2.625,0,4.16-.931,4.492-2.755.129-.672.2-1,.2-1.072a.784.784,0,0,1,.8-.6c.672,0,1,.4,1,1.2a4.539,4.539,0,0,1-2.1,3.962,7.9,7.9,0,0,1-4.425,1.134,7.716,7.716,0,0,1-5.053-1.473c-1.424-.931-2.021-2.533-2.021-4.628h0Z" transform="translate(0) translate(67.522 1.091) translate(-136.679 -55.456)" fill="#9f9f9f"/></g></g><g data-name="Gruppe 358"><path data-name="Pfad 525" d="M165.771,62.457l.709.1.666.136.6.179.561.216.505.259.45.3.4.339.345.37.3.419.24.45.185.493.136.536.08.567.025.61v5.522l-.025.61-.08.567-.129.536-.185.493-.234.45-.283.413-.339.376-.388.339-.444.3-.493.259-.548.216-.6.179-.647.136-.7.1-.752.062-.8.018-.85-.006-.795-.049-.74-.092-.678-.129-.622-.173-.567-.216-.511-.253-.456-.3-.4-.339-.351-.376-.29-.419-.24-.456-.185-.5-.129-.542-.08-.579-.025-.622V67.424l.025-.61.08-.567.136-.536.185-.493.24-.45.3-.419.345-.37.4-.339.45-.3.505-.259.555-.216.61-.179.666-.136.709-.1.764-.062.82-.019.82.019Zm-3.143,1.9-.616.111-.555.154-.493.2-.431.246-.364.283-.3.333-.234.37-.166.413-.1.462-.031.5v5.522l.031.5.1.456.166.419.24.37.3.327.37.283.438.234.505.2.573.142.641.1.709.049.77.006.758-.006.69-.049.635-.092.561-.142.5-.185.431-.234.37-.277.3-.327.234-.376.166-.419.1-.468.031-.511V67.424l-.031-.5-.1-.462-.166-.413-.24-.37-.308-.333-.37-.283-.444-.246-.511-.2-.585-.154-.647-.111-.721-.068-.789-.018-.74.018Z" transform="translate(0) translate(84.185 6.655) translate(-157.402 -62.377)" fill="#9f9f9f"/><g data-name="Gruppe 357"><path data-name="Pfad 526" d="M165.771,62.457l.709.1.666.136.6.179.561.216.505.259.45.3.4.339.345.37.3.419.24.45.185.493.136.536.08.567.025.61v5.522l-.025.61-.08.567-.129.536-.185.493-.234.45-.283.413-.339.376-.388.339-.444.3-.493.259-.548.216-.6.179-.647.136-.7.1-.752.062-.8.018-.85-.006-.795-.049-.74-.092-.678-.129-.622-.173-.567-.216-.511-.253-.456-.3-.4-.339-.351-.376-.29-.419-.24-.456-.185-.5-.129-.542-.08-.579-.025-.622V67.424l.025-.61.08-.567.136-.536.185-.493.24-.45.3-.419.345-.37.4-.339.45-.3.505-.259.555-.216.61-.179.666-.136.709-.1.764-.062.82-.019.82.019Zm-3.143,1.9-.616.111-.555.154-.493.2-.431.246-.364.283-.3.333-.234.37-.166.413-.1.462-.031.5v5.522l.031.5.1.456.166.419.24.37.3.327.37.283.438.234.505.2.573.142.641.1.709.049.77.006.758-.006.69-.049.635-.092.561-.142.5-.185.431-.234.37-.277.3-.327.234-.376.166-.419.1-.468.031-.511V67.424l-.031-.5-.1-.462-.166-.413-.24-.37-.308-.333-.37-.283-.444-.246-.511-.2-.585-.154-.647-.111-.721-.068-.789-.018-.74.018Z" transform="translate(0) translate(84.185 6.655) translate(-157.402 -62.377)" fill="#9f9f9f"/></g></g><g data-name="Gruppe 360"><path data-name="Pfad 527" d="M190.682,54.305l.08.018.08.018.074.025.068.037.062.037.062.043.055.049.049.055.049.055.043.068.037.074.037.08.031.08.025.092.025.092.019.1.018.1.006.117.006.117.006.123V75.473l-.006.092-.006.086-.006.08-.018.074-.019.074-.018.068-.031.062-.025.062-.037.055-.037.055-.043.043-.043.043-.049.043-.049.031-.062.031-.055.031-.062.025-.068.018-.074.012-.074.012-.074.006h-.136l-.049-.006-.049-.006-.049-.006-.049-.012-.043-.018-.043-.012-.043-.025-.037-.018-.037-.025-.037-.031-.031-.031-.031-.031-.031-.037-.025-.043-.025-.043-.025-.043-.018-.049-.018-.055-.012-.055-.019-.055-.006-.062V75.72l-.006-.049v-.043l-.006-.049v-.043l-.006-.049v-.049l-.006-.049-.006-.055-.006-.049v-.055l-.006-.055-.006-.055v-.062L189.789,75l-.006-.068V74.8l-.006-.068v-.148l-.16.1-.148.1-.154.1-.142.086-.142.086-.129.086-.136.08-.123.074-.123.074-.117.068-.111.068-.111.062-.1.055-.1.055-.1.055-.086.043-.086.049-.08.037-.08.037-.068.031-.068.031-.068.025-.1.037-.1.037-.1.031-.111.031-.111.031-.117.025-.117.025-.117.025-.123.025-.123.018-.123.018-.129.018-.129.018-.129.012-.136.012-.136.012-.136.006-.142.006-.136.006-.142.006h-.536l-.247-.006-.234-.012-.234-.019-.228-.018-.228-.031-.216-.031-.216-.037-.216-.037-.2-.049-.2-.049-.2-.055-.191-.055-.191-.068-.185-.068-.185-.068-.179-.08-.173-.08-.166-.086-.166-.092-.16-.092-.16-.1L180,75.134l-.16-.129-.16-.129-.142-.136-.142-.142-.136-.148-.123-.154-.117-.16-.111-.16-.1-.173-.1-.173-.086-.179-.074-.185-.074-.191-.062-.191-.055-.2-.043-.21-.037-.21-.031-.216-.025-.222-.012-.228V65.484l.012-.228.025-.216.025-.21.037-.21.049-.2.049-.2.062-.191.068-.185.074-.179.086-.179.086-.173.1-.166.111-.16.111-.154.123-.154.123-.142.136-.142.142-.136.154-.129.154-.129.166-.117.148-.1.148-.092.16-.092.166-.086.166-.08.173-.08.179-.068.179-.068.185-.068.191-.055.191-.055.2-.049.2-.049.2-.037.21-.037.21-.031.216-.031.216-.018.216-.018.222-.012.228-.006h.53l.148.006.148.006.142.006.148.006.136.012.142.012.129.012.136.018.129.018.129.018.123.018.123.025.123.025.117.025.111.025.111.031.111.031.111.031.1.037.1.037.1.037.1.037.1.043.1.043.1.049.111.049.1.055.1.055.111.062.111.062.111.062.111.068.111.074.111.074.111.074.117.08.117.08.111.086.117.086.117.092.117.1.117.1V55.7l.006-.123.006-.117.006-.117.018-.1.018-.1.018-.092.031-.092.025-.08.037-.08.037-.074.043-.068.043-.055.049-.055.049-.049.062-.043.055-.037.062-.037.068-.025.074-.018.074-.018.074-.006h.173Zm-6.532,8.486-.308.031-.3.031-.3.049-.277.062-.271.068-.253.086-.24.092-.228.111-.21.117-.24.173-.228.185-.2.2-.179.21-.16.216-.136.234-.117.247-.086.259-.062.271-.043.277-.012.3v5.312l.012.308.037.29.055.277.086.265.1.246.129.234.16.222.185.2.2.191.234.166.259.16.228.1.234.1.246.086.259.086.265.074.283.062.29.055.308.043.314.031.327.019.339.006.271-.006.271-.006.265-.018.259-.025.253-.037.253-.037.24-.049.234-.062.228-.068.216-.074.2-.086.173-.117.179-.123.185-.129.185-.142.191-.142.2-.154.2-.16.2-.166.21-.179.216-.185.216-.191V64.64l-.253-.179-.247-.166-.234-.166-.234-.154-.222-.142-.21-.129-.2-.123-.191-.1-.179-.092-.166-.08-.154-.062-.222-.086-.222-.074-.228-.068-.234-.062-.234-.049-.24-.037-.247-.037-.24-.025-.253-.018-.253-.006-.253-.006-.32.006Z" transform="translate(0) translate(100.916 0.16) translate(-178.21 -54.299)" fill="#9f9f9f"/><g data-name="Gruppe 359"><path data-name="Pfad 528" d="M190.682,54.305l.08.018.08.018.074.025.068.037.062.037.062.043.055.049.049.055.049.055.043.068.037.074.037.08.031.08.025.092.025.092.019.1.018.1.006.117.006.117.006.123V75.473l-.006.092-.006.086-.006.08-.018.074-.019.074-.018.068-.031.062-.025.062-.037.055-.037.055-.043.043-.043.043-.049.043-.049.031-.062.031-.055.031-.062.025-.068.018-.074.012-.074.012-.074.006h-.136l-.049-.006-.049-.006-.049-.006-.049-.012-.043-.018-.043-.012-.043-.025-.037-.018-.037-.025-.037-.031-.031-.031-.031-.031-.031-.037-.025-.043-.025-.043-.025-.043-.018-.049-.018-.055-.012-.055-.019-.055-.006-.062V75.72l-.006-.049v-.043l-.006-.049v-.043l-.006-.049v-.049l-.006-.049-.006-.055-.006-.049v-.055l-.006-.055-.006-.055v-.062L189.789,75l-.006-.068V74.8l-.006-.068v-.148l-.16.1-.148.1-.154.1-.142.086-.142.086-.129.086-.136.08-.123.074-.123.074-.117.068-.111.068-.111.062-.1.055-.1.055-.1.055-.086.043-.086.049-.08.037-.08.037-.068.031-.068.031-.068.025-.1.037-.1.037-.1.031-.111.031-.111.031-.117.025-.117.025-.117.025-.123.025-.123.018-.123.018-.129.018-.129.018-.129.012-.136.012-.136.012-.136.006-.142.006-.136.006-.142.006h-.536l-.247-.006-.234-.012-.234-.019-.228-.018-.228-.031-.216-.031-.216-.037-.216-.037-.2-.049-.2-.049-.2-.055-.191-.055-.191-.068-.185-.068-.185-.068-.179-.08-.173-.08-.166-.086-.166-.092-.16-.092-.16-.1L180,75.134l-.16-.129-.16-.129-.142-.136-.142-.142-.136-.148-.123-.154-.117-.16-.111-.16-.1-.173-.1-.173-.086-.179-.074-.185-.074-.191-.062-.191-.055-.2-.043-.21-.037-.21-.031-.216-.025-.222-.012-.228V65.484l.012-.228.025-.216.025-.21.037-.21.049-.2.049-.2.062-.191.068-.185.074-.179.086-.179.086-.173.1-.166.111-.16.111-.154.123-.154.123-.142.136-.142.142-.136.154-.129.154-.129.166-.117.148-.1.148-.092.16-.092.166-.086.166-.08.173-.08.179-.068.179-.068.185-.068.191-.055.191-.055.2-.049.2-.049.2-.037.21-.037.21-.031.216-.031.216-.018.216-.018.222-.012.228-.006h.53l.148.006.148.006.142.006.148.006.136.012.142.012.129.012.136.018.129.018.129.018.123.018.123.025.123.025.117.025.111.025.111.031.111.031.111.031.1.037.1.037.1.037.1.037.1.043.1.043.1.049.111.049.1.055.1.055.111.062.111.062.111.062.111.068.111.074.111.074.111.074.117.08.117.08.111.086.117.086.117.092.117.1.117.1V55.7l.006-.123.006-.117.006-.117.018-.1.018-.1.018-.092.031-.092.025-.08.037-.08.037-.074.043-.068.043-.055.049-.055.049-.049.062-.043.055-.037.062-.037.068-.025.074-.018.074-.018.074-.006h.173Zm-6.532,8.486-.308.031-.3.031-.3.049-.277.062-.271.068-.253.086-.24.092-.228.111-.21.117-.24.173-.228.185-.2.2-.179.21-.16.216-.136.234-.117.247-.086.259-.062.271-.043.277-.012.3v5.312l.012.308.037.29.055.277.086.265.1.246.129.234.16.222.185.2.2.191.234.166.259.16.228.1.234.1.246.086.259.086.265.074.283.062.29.055.308.043.314.031.327.019.339.006.271-.006.271-.006.265-.018.259-.025.253-.037.253-.037.24-.049.234-.062.228-.068.216-.074.2-.086.173-.117.179-.123.185-.129.185-.142.191-.142.2-.154.2-.16.2-.166.21-.179.216-.185.216-.191V64.64l-.253-.179-.247-.166-.234-.166-.234-.154-.222-.142-.21-.129-.2-.123-.191-.1-.179-.092-.166-.08-.154-.062-.222-.086-.222-.074-.228-.068-.234-.062-.234-.049-.24-.037-.247-.037-.24-.025-.253-.018-.253-.006-.253-.006-.32.006Z" transform="translate(0) translate(100.916 0.16) translate(-178.21 -54.299)" fill="#9f9f9f"/></g></g><g data-name="Gruppe 362"><path data-name="Pfad 529" d="M207.34,62.48l.512.062.487.092.462.111.438.136.413.166.388.185.357.216.339.24.308.259.283.29.259.308.24.339.21.364.185.382.16.413.136.431.111.462.086.481.062.511.037.53.012.561-.006.136-.006.129-.012.123-.012.117-.025.117-.025.1-.031.1-.031.092-.037.086-.043.086-.049.074-.055.074-.055.068-.062.055-.062.055-.074.043-.074.043-.08.031-.08.031-.092.025-.092.012-.1.012H201.276v-.086h-.025v2.157l.012.29.025.283.049.265.062.253.086.24.1.228.123.21.136.2.16.185.173.179.2.16.216.148.228.136.253.123.271.111.283.1.308.08.327.074.345.055.364.043.382.037.4.018.419.006h.154l.154-.006h.148l.148-.006.148-.006.142-.012.136-.006.136-.012.136-.012.129-.012.129-.018.123-.018.123-.018.123-.018.117-.025.117-.025.111-.025.111-.025.1-.031.1-.025.1-.031.1-.037.092-.031.055-.018.055-.025.062-.018.062-.031.068-.025.068-.031.074-.037.074-.031.08-.043.08-.043.086-.043.086-.049.092-.049.092-.055.1-.055.1-.062.1-.062.1-.068.111-.074.117-.074.117-.074.117-.08.123-.086.074-.068.08-.068.068-.062.074-.062.068-.055.068-.049.062-.049.062-.049.055-.043.062-.043.055-.037.049-.037.049-.031.049-.025.043-.031.043-.018.043-.018.037-.018.037-.012.037-.012.031-.006.025-.006h.1l.068.006.062.006.055.012.055.012.055.018.049.018.049.025.043.025.037.031.037.037.037.037.031.037.031.043.025.049.025.049.018.055.018.062.012.062.012.062.006.068.006.074v.154l-.012.08-.006.08-.018.074-.018.08-.025.08-.031.08-.037.074-.037.08-.043.08-.049.08-.049.08-.055.074-.062.08-.068.08-.068.08-.08.08-.08.08-.08.08-.092.08-.092.08-.092.08-.1.086-.173.123-.173.123-.185.117-.2.117-.2.1-.21.1-.216.092-.222.092-.228.086-.24.08-.247.074-.253.068-.259.068-.265.055-.271.049-.283.049-.29.037-.3.037-.3.025-.308.025-.32.012-.32.012H206.1l-.573-.006-.548-.031-.524-.049-.5-.074-.468-.086-.45-.111-.425-.129-.394-.154-.376-.166-.345-.191-.32-.21-.3-.234-.271-.246-.247-.271-.216-.3-.2-.308-.166-.333-.142-.351-.117-.376-.092-.388-.062-.413-.043-.438-.012-.456v-5.38l.006-.154.006-.16.012-.148.018-.154.025-.154.031-.148.031-.148.043-.142.043-.148.049-.142.055-.142.062-.136.068-.136.068-.136.08-.136.08-.129.086-.129.1-.123.092-.123.1-.123.111-.117.111-.117.123-.117.16-.154.166-.142.179-.142.179-.129.191-.123.2-.117.2-.111.216-.1.216-.092.228-.092.234-.08.247-.074.246-.074.253-.062.265-.055.265-.049.277-.037.283-.037.29-.031.29-.018.3-.018.308-.006.314-.006.567.012Zm-2.391,1.886-.481.08-.462.117-.444.148-.431.179-.407.21-.4.3-.333.308-.265.333-.21.345-.148.364-.086.382-.031.4v1.134h9.613l-.1-1.152-.3-.98-.5-.8-.7-.622-.9-.45-1.109-.265-1.306-.092-.505.018Z" transform="translate(0) translate(117.887 6.699) translate(-199.316 -62.43)" fill="#9f9f9f"/><g data-name="Gruppe 361"><path data-name="Pfad 530" d="M207.34,62.48l.512.062.487.092.462.111.438.136.413.166.388.185.357.216.339.24.308.259.283.29.259.308.24.339.21.364.185.382.16.413.136.431.111.462.086.481.062.511.037.53.012.561-.006.136-.006.129-.012.123-.012.117-.025.117-.025.1-.031.1-.031.092-.037.086-.043.086-.049.074-.055.074-.055.068-.062.055-.062.055-.074.043-.074.043-.08.031-.08.031-.092.025-.092.012-.1.012H201.276v-.086h-.025v2.157l.012.29.025.283.049.265.062.253.086.24.1.228.123.21.136.2.16.185.173.179.2.16.216.148.228.136.253.123.271.111.283.1.308.08.327.074.345.055.364.043.382.037.4.018.419.006h.154l.154-.006h.148l.148-.006.148-.006.142-.012.136-.006.136-.012.136-.012.129-.012.129-.018.123-.018.123-.018.123-.018.117-.025.117-.025.111-.025.111-.025.1-.031.1-.025.1-.031.1-.037.092-.031.055-.018.055-.025.062-.018.062-.031.068-.025.068-.031.074-.037.074-.031.08-.043.08-.043.086-.043.086-.049.092-.049.092-.055.1-.055.1-.062.1-.062.1-.068.111-.074.117-.074.117-.074.117-.08.123-.086.074-.068.08-.068.068-.062.074-.062.068-.055.068-.049.062-.049.062-.049.055-.043.062-.043.055-.037.049-.037.049-.031.049-.025.043-.031.043-.018.043-.018.037-.018.037-.012.037-.012.031-.006.025-.006h.1l.068.006.062.006.055.012.055.012.055.018.049.018.049.025.043.025.037.031.037.037.037.037.031.037.031.043.025.049.025.049.018.055.018.062.012.062.012.062.006.068.006.074v.154l-.012.08-.006.08-.018.074-.018.08-.025.08-.031.08-.037.074-.037.08-.043.08-.049.08-.049.08-.055.074-.062.08-.068.08-.068.08-.08.08-.08.08-.08.08-.092.08-.092.08-.092.08-.1.086-.173.123-.173.123-.185.117-.2.117-.2.1-.21.1-.216.092-.222.092-.228.086-.24.08-.247.074-.253.068-.259.068-.265.055-.271.049-.283.049-.29.037-.3.037-.3.025-.308.025-.32.012-.32.012H206.1l-.573-.006-.548-.031-.524-.049-.5-.074-.468-.086-.45-.111-.425-.129-.394-.154-.376-.166-.345-.191-.32-.21-.3-.234-.271-.246-.247-.271-.216-.3-.2-.308-.166-.333-.142-.351-.117-.376-.092-.388-.062-.413-.043-.438-.012-.456v-5.38l.006-.154.006-.16.012-.148.018-.154.025-.154.031-.148.031-.148.043-.142.043-.148.049-.142.055-.142.062-.136.068-.136.068-.136.08-.136.08-.129.086-.129.1-.123.092-.123.1-.123.111-.117.111-.117.123-.117.16-.154.166-.142.179-.142.179-.129.191-.123.2-.117.2-.111.216-.1.216-.092.228-.092.234-.08.247-.074.246-.074.253-.062.265-.055.265-.049.277-.037.283-.037.29-.031.29-.018.3-.018.308-.006.314-.006.567.012Zm-2.391,1.886-.481.08-.462.117-.444.148-.431.179-.407.21-.4.3-.333.308-.265.333-.21.345-.148.364-.086.382-.031.4v1.134h9.613l-.1-1.152-.3-.98-.5-.8-.7-.622-.9-.45-1.109-.265-1.306-.092-.505.018Z" transform="translate(0) translate(117.887 6.699) translate(-199.316 -62.43)" fill="#9f9f9f"/></g></g><g data-name="Gruppe 364"><path data-name="Pfad 531" d="M220.537,62.044c0-4.431,2.292-6.588,6.988-6.588a8.041,8.041,0,0,1,4.579,1.2,4.978,4.978,0,0,1,2.027,4.16c0,.8-.333,1.2-1,1.2q-.693,0-1-1.2a6.992,6.992,0,0,0-.733-1.892c-.6-1.066-1.892-1.553-3.895-1.553-1.756,0-2.958.4-3.691,1.263a5.838,5.838,0,0,0-1.066,3.827v6.988a5.619,5.619,0,0,0,1.134,3.895,4.843,4.843,0,0,0,3.759,1.331c2.625,0,4.16-.931,4.492-2.755.136-.672.2-1,.2-1.072a.777.777,0,0,1,.795-.6c.672,0,1,.4,1,1.2a4.533,4.533,0,0,1-2.089,3.962,7.94,7.94,0,0,1-4.431,1.134,7.687,7.687,0,0,1-5.047-1.473,5.258,5.258,0,0,1-2.027-4.628h0Z" transform="translate(0) translate(134.951 1.091) translate(-220.537 -55.456)" fill="#9f9f9f"/><g data-name="Gruppe 363"><path data-name="Pfad 532" d="M220.537,62.044c0-4.431,2.292-6.588,6.988-6.588a8.041,8.041,0,0,1,4.579,1.2,4.978,4.978,0,0,1,2.027,4.16c0,.8-.333,1.2-1,1.2q-.693,0-1-1.2a6.992,6.992,0,0,0-.733-1.892c-.6-1.066-1.892-1.553-3.895-1.553-1.756,0-2.958.4-3.691,1.263a5.838,5.838,0,0,0-1.066,3.827v6.988a5.619,5.619,0,0,0,1.134,3.895,4.843,4.843,0,0,0,3.759,1.331c2.625,0,4.16-.931,4.492-2.755.136-.672.2-1,.2-1.072a.777.777,0,0,1,.795-.6c.672,0,1,.4,1,1.2a4.533,4.533,0,0,1-2.089,3.962,7.94,7.94,0,0,1-4.431,1.134,7.687,7.687,0,0,1-5.047-1.473,5.258,5.258,0,0,1-2.027-4.628h0Z" transform="translate(0) translate(134.951 1.091) translate(-220.537 -55.456)" fill="#9f9f9f"/></g></g><g data-name="Gruppe 366"><path data-name="Pfad 533" d="M248.3,62.214l.228.006.228.012.216.018.21.012.2.025.2.018.2.031.191.025.185.037.179.031.173.043.173.037.16.043.166.049.154.049.148.049.148.055.142.062.142.055.136.068.129.062.123.068.123.074.136.1.129.1.123.1.117.117.111.117.111.129.1.129.1.136.092.142.086.148.08.148.08.154.068.166.068.166.062.173.055.173.049.185.043.185.037.191.031.2.025.2.025.21.012.21.012.216v7.167l.006.092V74.3l.006.086.006.086.006.08.006.08.012.08.012.074.012.068.019.074.012.068.019.062.018.062.025.062.025.055.025.055.025.055.025.049.031.049.031.043.037.043.037.043.037.037.037.037.006.006.012.006.018.012.012.012.025.006.018.012.025.012.025.012.031.018.031.012.031.012.037.018.037.012.043.018.043.018.043.019.049.018.049.018.049.018.055.018.055.025.055.018.055.025.062.025.068.025.037.012.037.018.037.018.031.025.031.018.031.025.031.025.025.031.025.025.025.031.019.037.018.031.018.037.018.037.012.043.012.037.012.049.012.043.006.049.012.049.006.055V76.8l.006.055V77.1l-.012.062-.006.049-.012.055-.012.049-.018.049-.018.043-.025.043-.025.037-.031.037-.031.037-.031.031-.037.031-.043.025-.043.025-.043.025-.049.018-.049.018-.055.012-.062.012-.062.006-.062.006-.068.006h-.123l-.025-.006h-.018l-.025-.006h-.025l-.025-.006-.031-.006-.031-.006-.031-.006-.031-.006-.031-.012-.037-.006-.037-.012-.037-.006-.043-.012-.043-.012-.043-.012-.049-.012-.043-.012-.049-.012-.056-.012L254.2,77.6l-.055-.012-.086-.031-.086-.031-.08-.031-.08-.025-.074-.031-.074-.025-.074-.025-.068-.025-.068-.018-.062-.025-.055-.018-.062-.018-.049-.019-.055-.018-.049-.012-.043-.018-.043-.012L253,77.189l-.037-.012-.031-.012-.031-.012-.031-.012-.025-.006-.018-.012-.018-.006-.043-.006-.037-.006-.043-.012-.037-.012-.037-.018-.031-.025-.037-.025-.031-.025-.031-.031-.031-.037-.031-.031-.025-.043-.025-.037-.031-.049-.025-.043-.018-.049-.025-.049-.025-.055-.018-.055-.019-.055-.018-.062-.018-.062-.019-.062-.018-.062-.018-.068-.136.092-.136.092-.129.086-.129.086-.123.086-.117.074-.117.074-.111.074-.1.068-.1.068-.1.062-.1.062-.092.055-.086.049-.08.049-.08.049-.08.043-.068.043-.074.037-.062.031-.062.031-.055.025-.049.025-.049.025-.049.012-.08.037-.08.025-.086.031-.086.031-.092.025-.092.025-.092.025-.092.018-.1.025-.1.018-.1.018-.1.018-.1.012-.1.018-.111.012-.111.012-.111.012-.117.006-.117.012-.117.006-.123.006-.117.006h-.573l-.191-.006-.185-.006-.185-.012-.185-.012-.179-.018-.179-.018-.173-.025-.173-.031-.166-.031-.166-.031-.16-.037-.16-.037-.154-.043-.154-.049-.148-.049-.148-.055-.142-.055-.142-.055-.136-.068-.136-.062-.129-.068-.129-.074-.123-.074-.123-.08-.142-.1-.136-.1-.129-.111-.129-.111-.117-.111-.111-.117-.111-.123-.1-.123-.1-.129-.092-.136-.08-.136-.08-.142-.074-.142-.068-.148-.062-.148-.055-.154-.049-.16-.049-.16-.037-.16-.031-.166-.025-.173-.025-.173-.012-.179-.012-.179v-.37l.012-.179.012-.185.025-.173.031-.173.031-.173.043-.166.043-.166.055-.16.062-.154.062-.154.074-.154.074-.148.086-.142.086-.142.092-.136.1-.129.1-.129.117-.123.111-.117.123-.117.129-.111.136-.1.136-.1.148-.1.129-.092.129-.092.136-.086.142-.08.142-.08.148-.074.148-.074.154-.068.154-.062.154-.062.16-.055.166-.049.166-.049.166-.043.173-.043.173-.037.173-.031.179-.031.179-.025.185-.018.179-.018.191-.012.185-.012.191-.006h.351l.16.006.166.006.166.012.166.012.166.018.173.018.173.025.179.031.173.025.179.037.179.031.185.037.185.043.185.043.191.049.191.049.191.049.191.055.2.055.2.062.2.062.2.068.21.068.21.074v-2.36l-.006-.136-.006-.129-.012-.129-.018-.129-.025-.117-.025-.123-.037-.117-.037-.111-.043-.111-.049-.1-.055-.1-.062-.1-.062-.1-.074-.1-.074-.086-.08-.092-.086-.08-.086-.08-.1-.08-.1-.074-.1-.074-.111-.068-.117-.062-.123-.062-.129-.062-.086-.037-.092-.037-.092-.037-.1-.031-.1-.031-.1-.031-.1-.031-.1-.025-.1-.025-.1-.025-.111-.018-.1-.018-.117-.018-.111-.018-.111-.012-.117-.012-.117-.012-.123-.012-.117-.006-.123-.012-.123-.006h-.123l-.123-.006H247.3l-.29.012-.283.012-.265.025-.253.031-.247.037-.228.037-.222.049-.21.055-.2.068-.185.068-.179.074-.166.086-.154.086-.142.1-.129.1-.123.111-.111.117-.1.129-.092.129-.074.136-.074.148-.055.154-.049.16-.037.166-.012.08-.018.074-.012.068-.012.068-.012.062-.012.062-.012.055-.012.055-.012.049-.006.049-.012.043-.006.043-.012.037-.006.037-.006.031-.006.031-.006.025-.006.025v.025l-.006.018v.018l-.006.012v.031l-.018.043-.019.037-.018.037-.019.031-.025.031-.025.031-.019.031-.031.025-.025.025-.031.025-.025.018-.031.018-.037.019-.031.018-.037.012-.031.012-.037.012-.043.012-.037.006-.043.012-.043.006h-.043l-.043.006h-.173l-.074-.006-.074-.012-.074-.012-.068-.012-.062-.025-.062-.025-.062-.025-.055-.037-.055-.031-.049-.043-.049-.037-.043-.049-.043-.049-.037-.055-.031-.055-.031-.055-.031-.068-.018-.068-.025-.068-.018-.074-.012-.074-.006-.08-.006-.086v-.2l.006-.123.006-.117.018-.117.012-.117.025-.117.025-.117.031-.117.031-.117.037-.117.037-.111.043-.117.049-.111.055-.117.055-.111.055-.111.068-.111.068-.111.068-.111.074-.1.08-.111.086-.1.086-.1.086-.1.1-.1.111-.129.129-.117.129-.117.142-.111.154-.1.154-.1.166-.092.173-.092.185-.086.185-.08.2-.074.21-.074.21-.062.222-.062.228-.055.234-.049.24-.043.246-.043.259-.031.259-.031.271-.025.277-.018.283-.012.29-.006.3-.006h.234Zm-2.6,8.59-.8.283-.622.407-.45.518-.271.635-.086.752.025.394.074.37.129.351.179.32.228.283.29.24.345.2.3.16.327.136.351.111.376.086.4.062.425.037.45.012.394-.012.382-.025.37-.049.364-.074.351-.092.351-.129.345-.154.234-.136.259-.173.29-.191.308-.216.333-.24.345-.259.364-.277V71.31l-.629-.191-.629-.16-.622-.136-.61-.1-.6-.08-.579-.049-.555-.012-1.152.055Z" transform="translate(0) translate(151.707 6.52) translate(-241.376 -62.208)" fill="#9f9f9f"/><g data-name="Gruppe 365"><path data-name="Pfad 534" d="M248.3,62.214l.228.006.228.012.216.018.21.012.2.025.2.018.2.031.191.025.185.037.179.031.173.043.173.037.16.043.166.049.154.049.148.049.148.055.142.062.142.055.136.068.129.062.123.068.123.074.136.1.129.1.123.1.117.117.111.117.111.129.1.129.1.136.092.142.086.148.08.148.08.154.068.166.068.166.062.173.055.173.049.185.043.185.037.191.031.2.025.2.025.21.012.21.012.216v7.167l.006.092V74.3l.006.086.006.086.006.08.006.08.012.08.012.074.012.068.019.074.012.068.019.062.018.062.025.062.025.055.025.055.025.055.025.049.031.049.031.043.037.043.037.043.037.037.037.037.006.006.012.006.018.012.012.012.025.006.018.012.025.012.025.012.031.018.031.012.031.012.037.018.037.012.043.018.043.018.043.019.049.018.049.018.049.018.055.018.055.025.055.018.055.025.062.025.068.025.037.012.037.018.037.018.031.025.031.018.031.025.031.025.025.031.025.025.025.031.019.037.018.031.018.037.018.037.012.043.012.037.012.049.012.043.006.049.012.049.006.055V76.8l.006.055V77.1l-.012.062-.006.049-.012.055-.012.049-.018.049-.018.043-.025.043-.025.037-.031.037-.031.037-.031.031-.037.031-.043.025-.043.025-.043.025-.049.018-.049.018-.055.012-.062.012-.062.006-.062.006-.068.006h-.123l-.025-.006h-.018l-.025-.006h-.025l-.025-.006-.031-.006-.031-.006-.031-.006-.031-.006-.031-.012-.037-.006-.037-.012-.037-.006-.043-.012-.043-.012-.043-.012-.049-.012-.043-.012-.049-.012-.056-.012L254.2,77.6l-.055-.012-.086-.031-.086-.031-.08-.031-.08-.025-.074-.031-.074-.025-.074-.025-.068-.025-.068-.018-.062-.025-.055-.018-.062-.018-.049-.019-.055-.018-.049-.012-.043-.018-.043-.012L253,77.189l-.037-.012-.031-.012-.031-.012-.031-.012-.025-.006-.018-.012-.018-.006-.043-.006-.037-.006-.043-.012-.037-.012-.037-.018-.031-.025-.037-.025-.031-.025-.031-.031-.031-.037-.031-.031-.025-.043-.025-.037-.031-.049-.025-.043-.018-.049-.025-.049-.025-.055-.018-.055-.019-.055-.018-.062-.018-.062-.019-.062-.018-.062-.018-.068-.136.092-.136.092-.129.086-.129.086-.123.086-.117.074-.117.074-.111.074-.1.068-.1.068-.1.062-.1.062-.092.055-.086.049-.08.049-.08.049-.08.043-.068.043-.074.037-.062.031-.062.031-.055.025-.049.025-.049.025-.049.012-.08.037-.08.025-.086.031-.086.031-.092.025-.092.025-.092.025-.092.018-.1.025-.1.018-.1.018-.1.018-.1.012-.1.018-.111.012-.111.012-.111.012-.117.006-.117.012-.117.006-.123.006-.117.006h-.573l-.191-.006-.185-.006-.185-.012-.185-.012-.179-.018-.179-.018-.173-.025-.173-.031-.166-.031-.166-.031-.16-.037-.16-.037-.154-.043-.154-.049-.148-.049-.148-.055-.142-.055-.142-.055-.136-.068-.136-.062-.129-.068-.129-.074-.123-.074-.123-.08-.142-.1-.136-.1-.129-.111-.129-.111-.117-.111-.111-.117-.111-.123-.1-.123-.1-.129-.092-.136-.08-.136-.08-.142-.074-.142-.068-.148-.062-.148-.055-.154-.049-.16-.049-.16-.037-.16-.031-.166-.025-.173-.025-.173-.012-.179-.012-.179v-.37l.012-.179.012-.185.025-.173.031-.173.031-.173.043-.166.043-.166.055-.16.062-.154.062-.154.074-.154.074-.148.086-.142.086-.142.092-.136.1-.129.1-.129.117-.123.111-.117.123-.117.129-.111.136-.1.136-.1.148-.1.129-.092.129-.092.136-.086.142-.08.142-.08.148-.074.148-.074.154-.068.154-.062.154-.062.16-.055.166-.049.166-.049.166-.043.173-.043.173-.037.173-.031.179-.031.179-.025.185-.018.179-.018.191-.012.185-.012.191-.006h.351l.16.006.166.006.166.012.166.012.166.018.173.018.173.025.179.031.173.025.179.037.179.031.185.037.185.043.185.043.191.049.191.049.191.049.191.055.2.055.2.062.2.062.2.068.21.068.21.074v-2.36l-.006-.136-.006-.129-.012-.129-.018-.129-.025-.117-.025-.123-.037-.117-.037-.111-.043-.111-.049-.1-.055-.1-.062-.1-.062-.1-.074-.1-.074-.086-.08-.092-.086-.08-.086-.08-.1-.08-.1-.074-.1-.074-.111-.068-.117-.062-.123-.062-.129-.062-.086-.037-.092-.037-.092-.037-.1-.031-.1-.031-.1-.031-.1-.031-.1-.025-.1-.025-.1-.025-.111-.018-.1-.018-.117-.018-.111-.018-.111-.012-.117-.012-.117-.012-.123-.012-.117-.006-.123-.012-.123-.006h-.123l-.123-.006H247.3l-.29.012-.283.012-.265.025-.253.031-.247.037-.228.037-.222.049-.21.055-.2.068-.185.068-.179.074-.166.086-.154.086-.142.1-.129.1-.123.111-.111.117-.1.129-.092.129-.074.136-.074.148-.055.154-.049.16-.037.166-.012.08-.018.074-.012.068-.012.068-.012.062-.012.062-.012.055-.012.055-.012.049-.006.049-.012.043-.006.043-.012.037-.006.037-.006.031-.006.031-.006.025-.006.025v.025l-.006.018v.018l-.006.012v.031l-.018.043-.019.037-.018.037-.019.031-.025.031-.025.031-.019.031-.031.025-.025.025-.031.025-.025.018-.031.018-.037.019-.031.018-.037.012-.031.012-.037.012-.043.012-.037.006-.043.012-.043.006h-.043l-.043.006h-.173l-.074-.006-.074-.012-.074-.012-.068-.012-.062-.025-.062-.025-.062-.025-.055-.037-.055-.031-.049-.043-.049-.037-.043-.049-.043-.049-.037-.055-.031-.055-.031-.055-.031-.068-.018-.068-.025-.068-.018-.074-.012-.074-.006-.08-.006-.086v-.2l.006-.123.006-.117.018-.117.012-.117.025-.117.025-.117.031-.117.031-.117.037-.117.037-.111.043-.117.049-.111.055-.117.055-.111.055-.111.068-.111.068-.111.068-.111.074-.1.08-.111.086-.1.086-.1.086-.1.1-.1.111-.129.129-.117.129-.117.142-.111.154-.1.154-.1.166-.092.173-.092.185-.086.185-.08.2-.074.21-.074.21-.062.222-.062.228-.055.234-.049.24-.043.246-.043.259-.031.259-.031.271-.025.277-.018.283-.012.29-.006.3-.006h.234Zm-2.6,8.59-.8.283-.622.407-.45.518-.271.635-.086.752.025.394.074.37.129.351.179.32.228.283.29.24.345.2.3.16.327.136.351.111.376.086.4.062.425.037.45.012.394-.012.382-.025.37-.049.364-.074.351-.092.351-.129.345-.154.234-.136.259-.173.29-.191.308-.216.333-.24.345-.259.364-.277V71.31l-.629-.191-.629-.16-.622-.136-.61-.1-.6-.08-.579-.049-.555-.012-1.152.055Z" transform="translate(0) translate(151.707 6.52) translate(-241.376 -62.208)" fill="#9f9f9f"/></g></g><g data-name="Gruppe 368"><path data-name="Pfad 535" d="M264.88,62.8a2.992,2.992,0,0,1,1.695-.4,3.39,3.39,0,0,1,2.822,1.695,3.982,3.982,0,0,1,1.473-1.269,3.909,3.909,0,0,1,1.886-.4c2.292,0,3.494,1.134,3.494,3.359v10.9c0,.937-.333,1.337-1,1.337s-.937-.4-.937-1.337V66.473c0-1.4-.6-2.157-1.756-2.157a3.191,3.191,0,0,0-2.49,1.559v10.9c0,.931-.339,1.331-.937,1.331s-.937-.4-.937-1.331V66.695c0-1.559-.666-2.292-1.892-2.292a3.223,3.223,0,0,0-2.354,1.559V76.8c0,.937-.333,1.337-1,1.337s-.931-.4-.931-1.337V63.423c0-.666.265-.931.8-.931a.754.754,0,0,1,.666.6,1.616,1.616,0,0,1,.2.912h0A16.672,16.672,0,0,1,264.88,62.8Z" transform="translate(0) translate(168.302 6.674) translate(-262.015 -62.4)" fill="#9f9f9f"/><g data-name="Gruppe 367"><path data-name="Pfad 536" d="M264.88,62.8a2.992,2.992,0,0,1,1.695-.4,3.39,3.39,0,0,1,2.822,1.695,3.982,3.982,0,0,1,1.473-1.269,3.909,3.909,0,0,1,1.886-.4c2.292,0,3.494,1.134,3.494,3.359v10.9c0,.937-.333,1.337-1,1.337s-.937-.4-.937-1.337V66.473c0-1.4-.6-2.157-1.756-2.157a3.191,3.191,0,0,0-2.49,1.559v10.9c0,.931-.339,1.331-.937,1.331s-.937-.4-.937-1.331V66.695c0-1.559-.666-2.292-1.892-2.292a3.223,3.223,0,0,0-2.354,1.559V76.8c0,.937-.333,1.337-1,1.337s-.931-.4-.931-1.337V63.423c0-.666.265-.931.8-.931a.754.754,0,0,1,.666.6,1.616,1.616,0,0,1,.2.912h0A16.672,16.672,0,0,1,264.88,62.8Z" transform="translate(0) translate(168.302 6.674) translate(-262.015 -62.4)" fill="#9f9f9f"/></g></g><g data-name="Gruppe 370"><path data-name="Pfad 537" d="M284.387,62.3l.031.006.037.006.037.012.037.012.037.018.031.018.037.018.037.025.031.025.037.031.031.031.037.031.031.037.031.037.031.043.031.043.031.049.031.043.025.055.031.049.006.049.012.049.012.049.018.055.012.049.019.049.012.049.019.049.018.055.018.049.019.049.018.049.018.055.019.049.018.049.012.049.018.049.012.049.012.049.019.043.006.049.012.043.3-.142.29-.136.29-.136.277-.123.277-.117.265-.111.265-.1.259-.1.253-.086.247-.086.24-.074.234-.074.234-.062.222-.055.222-.055.216-.043.2-.037.2-.031.2-.018.191-.018.191-.012h.179l.548.012.518.031.493.055.468.074.444.1.419.117.388.142.37.16.339.179.314.2.29.228.265.24.24.265.216.29.191.308.16.327.142.345.111.37.086.388.068.407.037.425.012.45v5.583l-.006.222-.012.21-.018.21-.025.2-.031.2-.043.191-.049.191-.055.185-.062.179-.068.173-.074.173-.086.166-.092.166-.1.16-.1.154-.111.148-.117.148-.129.142-.136.142-.136.136-.148.129-.154.129-.142.111-.142.1-.154.1-.154.092-.16.086-.16.08-.173.08-.173.068-.179.068-.185.062-.185.062-.2.049-.2.049-.2.043-.21.037-.21.031-.216.025-.216.025-.222.019-.228.012-.228.006h-.518l-.284-.012-.277-.018-.271-.018-.271-.031-.265-.037-.259-.043-.259-.055-.259-.055-.253-.068-.246-.068-.246-.08-.24-.086-.24-.1-.234-.1-.234-.111-.228-.117-.228-.123-.222-.129-.222-.136-.216-.148-.216-.154v6.44l-.006.123-.012.117-.012.1-.018.1-.025.1-.025.092-.031.092-.031.08-.043.08-.037.068-.049.068-.043.055-.056.055-.055.049-.062.043-.062.031-.068.031-.068.025-.074.012-.08.012h-.16l-.074-.006-.074-.018-.068-.018-.068-.025-.062-.037-.062-.037-.055-.043-.056-.049-.049-.062-.043-.062-.043-.068-.037-.074-.031-.08-.031-.092-.025-.092-.025-.1-.018-.111-.012-.111-.012-.123-.006-.123V63.636l.006-.123.006-.111.012-.111.012-.1.018-.1.025-.092.025-.086.031-.086.031-.074.031-.074.037-.062.043-.062.043-.055.049-.043.055-.043.049-.037.062-.031.062-.018.062-.018.068-.012h.111Zm5.312,2.052-.277.018-.271.025-.259.037-.246.037-.24.049-.228.062-.222.068-.216.074-.2.086-.179.08-.185.1-.185.111-.191.129-.191.148-.2.16-.2.179L286,65.9l-.216.2-.228.222-.24.234v7.678h.068v-.025l.555.327.536.3.518.271.5.234.481.2.468.166.45.142.425.111.413.08.394.043.376.018.327-.006.314-.012.3-.031.3-.037.283-.043.271-.062.259-.068.247-.086.234-.092.222-.111.2-.117.246-.154.216-.166.191-.179.166-.191.142-.2.117-.216.092-.228.074-.234.056-.253.025-.265.012-.271V67.5l-.012-.32-.031-.3-.062-.277-.08-.265-.111-.246-.129-.234-.16-.216-.179-.2-.21-.179-.234-.173-.259-.148-.21-.1-.222-.1-.234-.08-.247-.074-.265-.068-.277-.055-.29-.043-.3-.037-.314-.025-.327-.012-.339-.006-.3.006Z" transform="translate(0) translate(185.588 6.588) translate(-283.512 -62.292)" fill="#9f9f9f"/><g data-name="Gruppe 369"><path data-name="Pfad 538" d="M284.387,62.3l.031.006.037.006.037.012.037.012.037.018.031.018.037.018.037.025.031.025.037.031.031.031.037.031.031.037.031.037.031.043.031.043.031.049.031.043.025.055.031.049.006.049.012.049.012.049.018.055.012.049.019.049.012.049.019.049.018.055.018.049.019.049.018.049.018.055.019.049.018.049.012.049.018.049.012.049.012.049.019.043.006.049.012.043.3-.142.29-.136.29-.136.277-.123.277-.117.265-.111.265-.1.259-.1.253-.086.247-.086.24-.074.234-.074.234-.062.222-.055.222-.055.216-.043.2-.037.2-.031.2-.018.191-.018.191-.012h.179l.548.012.518.031.493.055.468.074.444.1.419.117.388.142.37.16.339.179.314.2.29.228.265.24.24.265.216.29.191.308.16.327.142.345.111.37.086.388.068.407.037.425.012.45v5.583l-.006.222-.012.21-.018.21-.025.2-.031.2-.043.191-.049.191-.055.185-.062.179-.068.173-.074.173-.086.166-.092.166-.1.16-.1.154-.111.148-.117.148-.129.142-.136.142-.136.136-.148.129-.154.129-.142.111-.142.1-.154.1-.154.092-.16.086-.16.08-.173.08-.173.068-.179.068-.185.062-.185.062-.2.049-.2.049-.2.043-.21.037-.21.031-.216.025-.216.025-.222.019-.228.012-.228.006h-.518l-.284-.012-.277-.018-.271-.018-.271-.031-.265-.037-.259-.043-.259-.055-.259-.055-.253-.068-.246-.068-.246-.08-.24-.086-.24-.1-.234-.1-.234-.111-.228-.117-.228-.123-.222-.129-.222-.136-.216-.148-.216-.154v6.44l-.006.123-.012.117-.012.1-.018.1-.025.1-.025.092-.031.092-.031.08-.043.08-.037.068-.049.068-.043.055-.056.055-.055.049-.062.043-.062.031-.068.031-.068.025-.074.012-.08.012h-.16l-.074-.006-.074-.018-.068-.018-.068-.025-.062-.037-.062-.037-.055-.043-.056-.049-.049-.062-.043-.062-.043-.068-.037-.074-.031-.08-.031-.092-.025-.092-.025-.1-.018-.111-.012-.111-.012-.123-.006-.123V63.636l.006-.123.006-.111.012-.111.012-.1.018-.1.025-.092.025-.086.031-.086.031-.074.031-.074.037-.062.043-.062.043-.055.049-.043.055-.043.049-.037.062-.031.062-.018.062-.018.068-.012h.111Zm5.312,2.052-.277.018-.271.025-.259.037-.246.037-.24.049-.228.062-.222.068-.216.074-.2.086-.179.08-.185.1-.185.111-.191.129-.191.148-.2.16-.2.179L286,65.9l-.216.2-.228.222-.24.234v7.678h.068v-.025l.555.327.536.3.518.271.5.234.481.2.468.166.45.142.425.111.413.08.394.043.376.018.327-.006.314-.012.3-.031.3-.037.283-.043.271-.062.259-.068.247-.086.234-.092.222-.111.2-.117.246-.154.216-.166.191-.179.166-.191.142-.2.117-.216.092-.228.074-.234.056-.253.025-.265.012-.271V67.5l-.012-.32-.031-.3-.062-.277-.08-.265-.111-.246-.129-.234-.16-.216-.179-.2-.21-.179-.234-.173-.259-.148-.21-.1-.222-.1-.234-.08-.247-.074-.265-.068-.277-.055-.29-.043-.3-.037-.314-.025-.327-.012-.339-.006-.3.006Z" transform="translate(0) translate(185.588 6.588) translate(-283.512 -62.292)" fill="#9f9f9f"/></g></g><g data-name="Gruppe 372"><path data-name="Pfad 539" d="M312.674,55.924c1.066-1.2,1.953-1.824,2.557-1.824a1.057,1.057,0,0,1,.6.2.822.822,0,0,1,.271.53c0,.339-.4.8-1.14,1.559a14.557,14.557,0,0,0-4.646,10.969,15.547,15.547,0,0,0,4.782,11.77c.666.6.937,1.066.937,1.467a1.182,1.182,0,0,1-.271.6.977.977,0,0,1-.6.271c-.733,0-1.756-.869-3.094-2.557-2.6-3.2-3.771-6.736-3.827-11.548A15.667,15.667,0,0,1,312.674,55.924Z" transform="translate(0) translate(205.473) translate(-308.242 -54.1)" fill="#9f9f9f"/><g data-name="Gruppe 371"><path data-name="Pfad 540" d="M312.674,55.924c1.066-1.2,1.953-1.824,2.557-1.824a1.057,1.057,0,0,1,.6.2.822.822,0,0,1,.271.53c0,.339-.4.8-1.14,1.559a14.557,14.557,0,0,0-4.646,10.969,15.547,15.547,0,0,0,4.782,11.77c.666.6.937,1.066.937,1.467a1.182,1.182,0,0,1-.271.6.977.977,0,0,1-.6.271c-.733,0-1.756-.869-3.094-2.557-2.6-3.2-3.771-6.736-3.827-11.548A15.667,15.667,0,0,1,312.674,55.924Z" transform="translate(0) translate(205.473) translate(-308.242 -54.1)" fill="#9f9f9f"/></g></g><g data-name="Gruppe 374"><path data-name="Pfad 541" d="M321.724,86.522a1.171,1.171,0,0,1,0-2.342h18.654a1.142,1.142,0,0,1,1.165,1.171c-.166.672-.5,1.171-1.165,1.171H321.724Z" transform="translate(0) translate(215.377 24.188) translate(-320.56 -84.181)" fill="#9f9f9f"/><g data-name="Gruppe 373"><path data-name="Pfad 542" d="M321.724,86.522a1.171,1.171,0,0,1,0-2.342h18.654a1.142,1.142,0,0,1,1.165,1.171c-.166.672-.5,1.171-1.165,1.171H321.724Z" transform="translate(0) translate(215.377 24.188) translate(-320.56 -84.181)" fill="#9f9f9f"/></g></g><g data-name="Gruppe 376"><path data-name="Pfad 543" d="M329.482,59.836c0,3.359-4.585,7.056-4.585,10.544a7.32,7.32,0,0,0,5.651,6.92c.4.068.536-.333.068-.468-1.134-.265-2.354-1.756-2.354-4.024,0-2.157,2.089-2.958,2.89-3.962a2.149,2.149,0,0,0,.136-2.822c-.536-.4-.136-.937.733-.271a2.947,2.947,0,0,1,1.331,2.9c-.333,1.4.136,2.225.869,2.354s1.559-.265,1.467-.931-.462-1.405-.265-1.405c.536,0,1.627,1.269,1.627,3.365s-1.695,3.488-2.225,4.024c-.339.333.062.733.53.536a4.737,4.737,0,0,0,.937-.536,7.645,7.645,0,0,0,3.426-6.452,8.316,8.316,0,0,0-2.89-6.853c-1.473-1.4-1.83-1.066-1.405-.333,1.2,2.089.468,2.822-.4,2.822-1.066,0-1.066-2.354-1.559-4.16a6.1,6.1,0,0,0-5.25-4.782c-.487-.222-1.109.179-.29.511h0A3.451,3.451,0,0,1,329.482,59.836Z" transform="translate(0) translate(218.865 1.717) translate(-324.897 -56.235)" fill="#9f9f9f"/><g data-name="Gruppe 375"><path data-name="Pfad 544" d="M329.482,59.836c0,3.359-4.585,7.056-4.585,10.544a7.32,7.32,0,0,0,5.651,6.92c.4.068.536-.333.068-.468-1.134-.265-2.354-1.756-2.354-4.024,0-2.157,2.089-2.958,2.89-3.962a2.149,2.149,0,0,0,.136-2.822c-.536-.4-.136-.937.733-.271a2.947,2.947,0,0,1,1.331,2.9c-.333,1.4.136,2.225.869,2.354s1.559-.265,1.467-.931-.462-1.405-.265-1.405c.536,0,1.627,1.269,1.627,3.365s-1.695,3.488-2.225,4.024c-.339.333.062.733.53.536a4.737,4.737,0,0,0,.937-.536,7.645,7.645,0,0,0,3.426-6.452,8.316,8.316,0,0,0-2.89-6.853c-1.473-1.4-1.83-1.066-1.405-.333,1.2,2.089.468,2.822-.4,2.822-1.066,0-1.066-2.354-1.559-4.16a6.1,6.1,0,0,0-5.25-4.782c-.487-.222-1.109.179-.29.511h0A3.451,3.451,0,0,1,329.482,59.836Z" transform="translate(0) translate(218.865 1.717) translate(-324.897 -56.235)" fill="#9f9f9f"/></g></g><g data-name="Gruppe 378"><path data-name="Pfad 545" d="M352.6,79.756c-1.072,1.2-1.96,1.824-2.564,1.824a1.1,1.1,0,0,1-.6-.2.986.986,0,0,1-.265-.6c0-.333.4-.8,1.134-1.467a14.557,14.557,0,0,0,4.646-10.969,15.547,15.547,0,0,0-4.782-11.77c-.666-.6-.937-1.066-.937-1.467a1.182,1.182,0,0,1,.271-.6.976.976,0,0,1,.6-.271c.666,0,1.756.869,3.094,2.564a17.645,17.645,0,0,1,3.827,11.585A16.4,16.4,0,0,1,352.6,79.756Z" transform="translate(0) translate(238.381 0.111) translate(-349.169 -54.238)" fill="#9f9f9f"/><g data-name="Gruppe 377"><path data-name="Pfad 546" d="M352.6,79.756c-1.072,1.2-1.96,1.824-2.564,1.824a1.1,1.1,0,0,1-.6-.2.986.986,0,0,1-.265-.6c0-.333.4-.8,1.134-1.467a14.557,14.557,0,0,0,4.646-10.969,15.547,15.547,0,0,0-4.782-11.77c-.666-.6-.937-1.066-.937-1.467a1.182,1.182,0,0,1,.271-.6.976.976,0,0,1,.6-.271c.666,0,1.756.869,3.094,2.564a17.645,17.645,0,0,1,3.827,11.585A16.4,16.4,0,0,1,352.6,79.756Z" transform="translate(0) translate(238.381 0.111) translate(-349.169 -54.238)" fill="#9f9f9f"/></g></g></svg>
