<svg xmlns="http://www.w3.org/2000/svg" width="110.662" height="29.204" viewBox="0 0 110.662 29.204"><path data-name="Pfad 509" d="M93.662,16.355h2.92v10.43h-2.92V25.429A3.55,3.55,0,0,1,90.428,27.1a5.261,5.261,0,0,1-5.319-5.528c0-3.129,2.086-5.528,5.111-5.528a3.61,3.61,0,0,1,3.338,1.669V16.355ZM88.238,21.57a2.792,2.792,0,0,0,2.92,2.92,2.852,2.852,0,0,0,2.92-2.92,2.792,2.792,0,0,0-2.92-2.92A2.852,2.852,0,0,0,88.238,21.57Zm14.081-2.712v7.927H99.4V18.859H98.251v-2.5H99.4V12.809h2.92v3.546H104.3v2.5Zm8.866,0a2.625,2.625,0,0,0-1.669-.73c-.73,0-1.147.313-1.147.834,0,.313.1.626.939.939l.73.209c.834.313,2.086.626,2.608,1.46a2.983,2.983,0,0,1,.522,1.773,3.346,3.346,0,0,1-1.147,2.608,4.617,4.617,0,0,1-3.129,1.147,5.325,5.325,0,0,1-4.068-1.773l1.564-1.773a3.625,3.625,0,0,0,2.295,1.252c.834,0,1.46-.417,1.46-1.147a1.117,1.117,0,0,0-.939-1.043l-.626-.209a6.617,6.617,0,0,1-2.19-1.252,2.671,2.671,0,0,1-.834-1.982,3.434,3.434,0,0,1,1.043-2.4,4.456,4.456,0,0,1,2.712-.73,5.254,5.254,0,0,1,3.338,1.147Zm6.362-1.147a3.958,3.958,0,0,1,3.338-1.669c3.025,0,5.111,2.4,5.111,5.528S123.909,27.1,120.78,27.1a4,4,0,0,1-3.338-1.669v1.356h-2.816V9.263h2.92Zm-.313,3.859a2.792,2.792,0,0,0,2.92,2.92,2.852,2.852,0,0,0,2.92-2.92,2.92,2.92,0,0,0-5.841,0Zm13.559,3.651-5.006-8.866h3.442l3.233,5.945,2.92-5.945h3.338l-8.344,15.958h-3.338ZM84.379,18.128h-7.3v2.92h3.859a4.552,4.552,0,0,1-4.8,3.338,5.3,5.3,0,0,1-5.215-5.528c0-3.025,2.086-5.632,5.111-5.632a5.636,5.636,0,0,1,4.381,2.19l2.4-1.564a8.257,8.257,0,0,0-6.78-3.442,8.391,8.391,0,0,0-8.344,8.448,8.345,8.345,0,1,0,16.688,0A1.7,1.7,0,0,0,84.379,18.128Z" transform="translate(-28.057 -3.839)" fill="#9f9f9f"/><path data-name="Pfad 510" d="M28.29,16.817h-7.3V18.9H26a9.456,9.456,0,0,1-6.049,6.78L7.952,13.688A9.384,9.384,0,0,1,16.817,7.43a9.629,9.629,0,0,1,7.718,3.963L26.1,10.038A11.466,11.466,0,0,0,5.657,14.314L19.425,28.081A11.735,11.735,0,0,0,28.29,16.817Zm-22.946.1a11.141,11.141,0,0,0,3.338,7.927,11.322,11.322,0,0,0,7.927,3.338Z" transform="translate(-2.215 -2.215)" fill="#fff"/><path data-name="Pfad 511" d="M14.6,0A14.6,14.6,0,1,0,29.2,14.6,14.645,14.645,0,0,0,14.6,0ZM6.467,22.737a11.322,11.322,0,0,1-3.338-7.927L14.5,26.075A11.839,11.839,0,0,1,6.467,22.737Zm10.639,3.025L3.442,12.1A11.466,11.466,0,0,1,23.885,7.823L22.32,9.178A9.629,9.629,0,0,0,14.6,5.215a9.486,9.486,0,0,0-8.866,6.258L17.731,23.468a9.456,9.456,0,0,0,6.049-6.78H18.774V14.6h7.3a11.506,11.506,0,0,1-8.97,11.16Z" fill="#9f9f9f"/></svg>
