<svg xmlns="http://www.w3.org/2000/svg" width="61.852" height="127.337" viewBox="0 0 61.852 127.337"><g data-name="Gruppe 892"><g data-name="Gruppe 186"><path fill="#9f9f9f" fill-rule="evenodd" d="M62.147-423.813,58.686-433.7l-6.859-19.6a1.209,1.209,0,0,0-2.242,0l-6.859,19.6H19.949l-6.859-19.6a1.209,1.209,0,0,0-2.242,0L3.988-433.7.527-423.813a2.1,2.1,0,0,0,.856,2.448l29.954,20.209,29.954-20.209a2.1,2.1,0,0,0,.857-2.448" transform="translate(-.411 454.065)"/><path fill="#9f9f9f" fill-rule="evenodd" d="M12.7-246.547h0L24.093-279.1H1.316L12.7-246.547Z" transform="translate(18.221 299.456)"/><path fill="#9f9f9f" fill-rule="evenodd" d="M28.24-246.546,16.852-279.095H.891L28.24-246.546Z" transform="translate(2.686 299.455)"/><path fill="#9f9f9f" fill-rule="evenodd" d="M4.431-280h0L.97-270.109a2.1,2.1,0,0,0,.857,2.448L31.78-247.451,4.431-280Z" transform="translate(-.855 300.36)"/><path fill="#9f9f9f" fill-rule="evenodd" d="M0-154.224H15.961L9.1-173.828a1.209,1.209,0,0,0-2.242,0L0-154.224Z" transform="translate(3.577 174.584)"/><path fill="#9f9f9f" fill-rule="evenodd" d="M0-246.546l11.389-32.549H27.349L0-246.546Z" transform="translate(30.926 299.455)"/><path fill="#9f9f9f" fill-rule="evenodd" d="M28.24-280h0l3.461,9.891a2.1,2.1,0,0,1-.857,2.448L.891-247.451,28.24-280Z" transform="translate(30.035 300.36)"/><path fill="#9f9f9f" fill-rule="evenodd" d="M16.869-154.224H.908l6.859-19.6a1.209,1.209,0,0,1,2.242,0l6.859,19.6Z" transform="translate(41.406 174.584)"/></g><path fill="#9f9f9f" fill-rule="evenodd" d="M26.967,0a26.969,26.969,0,0,0-8.528,52.553c1.348.236,1.854-.573,1.854-1.281,0-.64-.034-2.764-.034-5.023-6.776,1.247-8.528-1.652-9.068-3.169-.3-.775-1.618-3.169-2.764-3.809-.944-.506-2.292-1.753-.034-1.787,2.124-.034,3.641,1.955,4.146,2.764,2.427,4.079,6.3,2.933,7.854,2.225a5.673,5.673,0,0,1,1.719-3.607c-6-.674-12.27-3-12.27-13.315A10.5,10.5,0,0,1,12.607,18.3a9.691,9.691,0,0,1,.27-7.146s2.259-.708,7.416,2.764a25.425,25.425,0,0,1,13.484,0c5.158-3.506,7.416-2.764,7.416-2.764a9.691,9.691,0,0,1,.27,7.146,10.434,10.434,0,0,1,2.764,7.248c0,10.349-6.3,12.641-12.3,13.315.978.843,1.82,2.461,1.82,4.989,0,3.607-.034,6.506-.034,7.416,0,.708.506,1.551,1.854,1.281A26.982,26.982,0,0,0,26.967,0Z" transform="translate(3.931 74.732)"/></g></svg>