<svg xmlns="http://www.w3.org/2000/svg" viewBox="0 0 1266 559"><style>.st12{fill:#231f20}.st15{opacity:.1;fill:#e828e3}.st15,.st16{display:inline}.st17{font-family:&apos;SourceSansPro-Semibold&apos;}.st18{font-size:24px}</style><g id="logo_art"><path class="st12" d="M461.505 297.617l-18.047-55.583c.008.025.011.051.019.076-.009-.029-.014-.058-.022-.087l-.001-.005v-.002l-35.828-110.302c-1.959-5.811-7.353-9.711-13.535-9.662-6.2.032-11.445 3.856-13.363 9.747L346.72 236.497H239.415l-34.071-104.704c-1.916-5.885-7.161-9.709-13.361-9.741h-.075c-6.105 0-11.508 3.876-13.489 9.752L142.69 242.007l-.005.014v.003c-.009.028-.013.056-.022.084.008-.025.011-.051.019-.076l-18.114 55.587a20.255 20.255 0 007.36 22.695l156.404 113.639c.023.017.049.027.072.044.067.048.132.097.2.142-.064-.043-.124-.09-.187-.134l-.001-.001c.01.008.022.013.033.02l.027.016.004.003c.242.168.493.322.753.463.036.02.068.045.104.064l.002.001c.022.011.042.025.064.036.017.008.035.013.051.021.012.006.025.01.037.015.029.014.061.023.09.038.136.065.279.118.419.175.131.054.258.117.392.164l.017.007c.022.008.042.019.065.027.028.01.055.021.083.03l.033.008c.035.011.073.016.108.026l.042.01c.188.057.383.098.577.141.076.017.149.041.226.055l.033.008c.025.005.048.014.074.018.041.007.081.02.123.026.033.005.067.003.1.008l.017.001h.005c.369.053.743.09 1.124.09H293.032c.382 0 .756-.037 1.126-.09h.004l.018-.001c.033-.005.068-.003.101-.008.042-.007.082-.019.124-.026.025-.004.048-.013.073-.018l.032-.008c.078-.015.153-.039.231-.056.191-.042.383-.083.57-.139l.039-.009c.037-.011.075-.016.112-.027.011-.004.023-.005.034-.008.029-.009.057-.021.085-.031.022-.008.042-.019.064-.027l.017-.007c.142-.05.276-.116.415-.173.129-.054.261-.102.387-.162.031-.015.064-.024.094-.039l.038-.016c.017-.008.035-.013.052-.022.023-.012.045-.026.067-.037l.001-.001c.037-.019.07-.046.107-.066.258-.14.508-.293.749-.46.019-.013.041-.023.061-.037l.016-.01c.023-.017.05-.028.073-.045L454.148 320.31a20.255 20.255 0 007.357-22.693zm-67.316-155.569l30.678 94.449h-61.355l30.677-94.449zm25.306 110.42l-12.518 16.039-92.328 118.299 43.674-134.339h61.172zM285.432 429.96c0-.001 0-.001 0 0 .008.024.021.046.029.071-.008-.025-.021-.047-.029-.071zm-14.007-43.146L166.637 252.468h61.176l43.612 134.346zm-79.539-244.767l30.734 94.45h-61.356l30.622-94.45zm-50.568 165.347a4.318 4.318 0 01-1.563-4.837l13.465-41.322 98.663 126.493-110.565-80.334zm146.739 126.348c-.031-.025-.061-.052-.091-.078l-.019-.017a6.468 6.468 0 01-.177-.153 6.895 6.895 0 01-.333-.306l.028.023.037.031c.229.219.47.425.722.615l.008.007c.012.009.022.02.034.03-.07-.05-.142-.099-.209-.152zm4.974-32.096l-25.663-79.053-22.765-70.125h96.926l-48.498 149.178zm5.252 31.847c-.06.052-.118.104-.179.154l-.021.019c-.031.025-.06.052-.09.077-.066.053-.138.101-.207.152.012-.009.022-.021.035-.029l.006-.006a7.78 7.78 0 00.719-.613c.009-.009.02-.016.029-.024.012-.011.025-.02.036-.031a7.794 7.794 0 01-.328.301zm146.475-126.101l-110.549 80.311 98.695-126.458 13.411 41.304a4.322 4.322 0 01-1.557 4.843z"/><path id="path14_9_" class="st12" d="M839.7 198.192h-21.8l.1 162.5h88.3v-20.1h-66.5l-.1-142.4z"/><g id="g24_9_" transform="translate(977.327 143.284)"><path id="path26_9_" class="st12" d="M13 188.892c-5.5 5.7-14.6 11.4-27 11.4-16.6 0-23.3-8.2-23.3-18.9 0-16.1 11.2-23.8 35-23.8 4.5 0 11.7.5 15.4 1.2v30.1H13zm-22.6-98.5c-17.6 0-33.8 6.2-46.4 16.7l7.7 13.4c8.9-5.2 19.8-10.4 35.5-10.4 17.9 0 25.8 9.2 25.8 24.6v7.9c-3.5-.7-10.7-1.2-15.1-1.2-38.2 0-57.6 13.4-57.6 41.4 0 25.1 15.4 37.7 38.7 37.7 15.7 0 30.8-7.2 36-18.9l4 15.9h15.4v-83.2c-.1-26.3-11.5-43.9-44-43.9z"/></g><g id="g28_9_" transform="translate(1099.767 143.129)"><path id="path30_9_" class="st12" d="M-17.7 201.192c-8.2 0-15.4-1-20.8-3.5v-75.1c7.4-6.2 16.6-10.7 28.3-10.7 21.1 0 29.2 14.9 29.2 39 0 34.2-13.1 50.3-36.7 50.3m9.2-110.6c-19.5 0-30 13.3-30 13.3v-21l-.1-27.8h-21.3l.1 158.5c10.7 4.5 25.3 6.9 41.2 6.9 40.7 0 60.3-26 60.3-70.9-.1-35.5-18.2-59-50.2-59"/></g><g id="g32_9_" transform="translate(584.042 143.63)"><path id="path34_9_" class="st12" d="M18.3 72.192c19.3 0 31.8 6.4 39.9 12.9l9.4-16.3c-12.7-11.2-29.9-17.2-48.3-17.2-46.4 0-78.9 28.3-78.9 85.4 0 59.8 35.1 83.1 75.2 83.1 20.1 0 37.2-4.7 48.4-9.4l-.5-63.9v-20.1H4v20.1h38l.5 48.5c-5 2.5-13.6 4.5-25.3 4.5-32.2 0-53.8-20.3-53.8-63-.1-43.5 22.2-64.6 54.9-64.6"/></g><g id="g36_9_" transform="translate(793.569 142.577)"><path id="path38_9_" class="st12" d="M-37.7 55.592H-59l.1 27.3v94.3c0 26.3 11.4 43.9 43.9 43.9 4.5 0 8.9-.4 13.1-1.2v-19.1c-3.1.5-6.4.7-9.9.7-17.9 0-25.8-9.2-25.8-24.6v-65h35.7v-17.8h-35.7l-.1-38.5z"/></g><path id="path40_28_" class="st12" d="M680.4 360.692h21.3v-124h-21.3v124z"/><path id="path42_9_" class="st12" d="M680.4 219.592h21.3v-21.3h-21.3v21.3z"/></g></svg>