<svg xmlns="http://www.w3.org/2000/svg" width="21.645" height="25"><g opacity=".457"><path fill="#656565" d="M10.816 22.481l-8.672-4.966V7.5h.012L0 6.25v12.5L10.816 25z" data-name="Pfad 1078"/><path fill="#656565" d="M10.816 12.5l-6.48-3.743h-.012v7.5l6.492 3.719z" data-name="Pfad 1079"/><path fill="#838383" d="M21.645 6.25L10.816 0 0 6.25 2.156 7.5l8.66-5L19.5 7.485z" data-name="Pfad 1080"/><path fill="#838383" d="M17.321 8.745L10.828 5 4.336 8.757l6.48 3.743z" data-name="Pfad 1081"/><path fill="#6d6d6d" d="M10.816 12.5l6.5-3.755z" data-name="Pfad 1083"/><path fill="#6d6d6d" d="M19.5 7.485l2.145-1.235z" data-name="Pfad 1084"/><path fill="#6d6d6d" d="M21.645 6.25L19.5 7.485l-2.18 1.26-6.5 3.755v7.473l6.5-3.731v-2.47l-4.36 2.483v-2.52l6.54-3.718v7.5l-8.685 4.966V25l10.828-6.25z" data-name="Pfad 1085"/></g></svg>