<svg xmlns="http://www.w3.org/2000/svg" width="226.07" height="73.807" viewBox="0 0 226.07 73.807"><defs><style>.a{fill:#0087be}.b{fill:#1aa6e4}.c{fill:#0092cf}.e{fill:#fff}</style></defs><path d="M31.969,99.517,6.329,84.856V55.283h.036L0,51.6V88.5H0l31.969,18.452h0Z" class="a" transform="translate(0 -33.148)"/><path d="M54.9,83.35h0L35.736,72.3H35.7V94.435l19.2,10.978V83.35Z" class="a" transform="translate(-22.934 -46.446)"/><path d="M63.9,18.452,31.969,0,0,18.452H0l6.365,3.683,25.6-14.769L57.572,22.1,63.9,18.452Z" class="b"/><path d="M74.134,52.35,54.967,41.3,35.8,52.385l19.167,11.05Z" class="b" transform="translate(-22.998 -26.531)"/><path d="M89.4,83.285h0L108.567,72.2h0Z" class="c" transform="translate(-57.431 -46.382)"/><path d="M161,55.247v.036l6.329-3.683h0Z" class="c" transform="translate(-103.428 -33.148)"/><path fill="#e8bfd8" d="M143,65.519l6.437-3.683V61.8Z" transform="translate(-91.864 -39.701)"/><path d="M121.269,51.6l-6.329,3.683L108.5,58.966,89.336,70.052h0v3.29H89.3V82.1h.036V92.115h0L108.5,81.137V73.807L95.629,81.137v-7.4l19.31-11.014V84.856l-25.6,14.661v7.438L121.269,88.5h0Z" class="c" transform="translate(-57.367 -33.148)"/><path d="M252.161,86.149c-2.253,2.324-5.686,3.612-9.727,3.612-7.688,0-13.517-6.043-13.517-14.089,0-8.189,5.757-14.161,13.66-14.161a16.409,16.409,0,0,1,10.084,3.469l.358.286V62.3l-.072-.072A17.007,17.007,0,0,0,242.435,58.9c-9.262,0-16.235,7.188-16.235,16.735s7.009,16.7,16.27,16.7a16.615,16.615,0,0,0,12.373-5.078l.072-.072V73.1H252.2Z" class="e" transform="translate(-145.312 -37.838)"/><rect width="2.682" height="22.207" class="e" transform="translate(117.827 31.719)"/><path d="M329.538,62.2a2.038,2.038,0,1,0,2.038,2.038A2.061,2.061,0,0,0,329.538,62.2Z" class="e" transform="translate(-210.388 -39.958)"/><path d="M360.653,69.2h-2.646v6.973H352.5V78.6h5.507V92.372c0,4.22,2.11,6.544,5.9,6.544a8.621,8.621,0,0,0,4.363-1.037l.107-.072V95.2l-.322.179a6.844,6.844,0,0,1-3.54.965c-2.825,0-3.826-1.18-3.862-4.577V78.6h8.01V76.173h-8.01Z" class="e" transform="translate(-226.448 -44.455)"/><path d="M425.571,87.1a10.958,10.958,0,0,0-8.725,3.934V87.672H414.2L414.236,119h2.682V106.482a10.98,10.98,0,0,0,8.725,3.969c6.437,0,11.3-5.006,11.264-11.658S432.008,87.1,425.571,87.1Zm8.582,11.658a8.935,8.935,0,0,1-9.047,9.19,9.273,9.273,0,0,1-8.26-5.221V94.752a9.264,9.264,0,0,1,8.26-5.185A8.935,8.935,0,0,1,434.154,98.758Z" class="e" transform="translate(-266.085 -55.954)"/><path d="M501.9,87.1a11.641,11.641,0,1,0,11.836,11.658A11.5,11.5,0,0,0,501.9,87.1Zm0,2.467a8.981,8.981,0,0,1,9.119,9.226,9.1,9.1,0,1,1-18.2.036h0a8.961,8.961,0,0,1,9.083-9.262Z" class="e" transform="translate(-314.844 -55.953)"/><path d="M588.789,60.136V73.653a10.879,10.879,0,0,0-8.725-3.969c-6.437,0-11.3,5.042-11.264,11.729A11.192,11.192,0,0,0,580.1,93a10.958,10.958,0,0,0,8.725-3.934v3.361h2.646L591.435,60.1Zm0,17.272v7.974a9.346,9.346,0,0,1-8.26,5.185,9.173,9.173,0,0,1,0-18.345,9.346,9.346,0,0,1,8.26,5.185Z" class="e" transform="translate(-365.401 -38.609)"/></svg>