<svg xmlns="http://www.w3.org/2000/svg" width="226.07" height="73.461" viewBox="0 0 226.07 73.461"><defs><style>.a{fill:#fff}.b{fill:none}</style></defs><path d="M251.793,72.758V85.9c-2.212,2.28-5.615,3.538-9.586,3.542h0c-7.617,0-13.364-6-13.371-13.94,0-8.117,5.69-14.015,13.543-14.022h0a16.273,16.273,0,0,1,9.986,3.428l.55.432v-3.3l-.132-.1A17.162,17.162,0,0,0,242.2,58.6h0c-9.336,0-16.37,7.245-16.363,16.842a17.016,17.016,0,0,0,4.7,12.006,16.113,16.113,0,0,0,11.677,4.811h0a16.6,16.6,0,0,0,12.453-5.129l.089-.1V72.754Z" class="a" transform="translate(-145.119 -37.655)"/><path d="M332.073,88.37l-2.913,0,.018,22.328v.125l2.913,0L332.073,88.5Z" class="a" transform="translate(-211.51 -56.784)"/><path d="M329.272,61.86h0a2.162,2.162,0,0,0,0,4.325h0a2.162,2.162,0,1,0,0-4.325Z" class="a" transform="translate(-210.193 -39.75)"/><path d="M368.551,75.79h-8.017V68.82h-2.913v6.97H352.11v2.684h5.515V92.12c0,4.289,2.145,6.67,6.033,6.666h0a8.7,8.7,0,0,0,4.432-1.072l.143-.1V94.726l-.5.286a7.048,7.048,0,0,1-3.478.961h0A3.478,3.478,0,0,1,361.371,95a5.389,5.389,0,0,1-.829-3.467V78.481h8.017Z" class="a" transform="translate(-226.258 -44.222)"/><path d="M425.309,86.76h0a11.126,11.126,0,0,0-8.578,3.7V87.314H413.8l.021,31.453v.125h2.909V106.586a11.148,11.148,0,0,0,8.578,3.735h0c6.505,0,11.405-5.072,11.4-11.795S431.807,86.76,425.309,86.76Zm-8.578,15.727V94.559a9.064,9.064,0,0,1,8.113-5.068h0a8.814,8.814,0,0,1,6.351,2.581,9.107,9.107,0,0,1,2.556,6.455,8.781,8.781,0,0,1-8.9,9.05h0a9.136,9.136,0,0,1-8.121-5.1Z" class="a" transform="translate(-265.898 -55.75)"/><path d="M501.71,86.7h0a11.942,11.942,0,0,0-8.5,3.392,11.756,11.756,0,0,0-3.406,8.435,11.627,11.627,0,0,0,3.417,8.371,12,12,0,0,0,8.492,3.349h0a12.074,12.074,0,0,0,8.532-3.363,11.606,11.606,0,0,0,3.417-8.374,11.742,11.742,0,0,0-3.417-8.432A12.013,12.013,0,0,0,501.71,86.7Zm-6.355,18.229a9,9,0,0,1-2.6-6.391,9.136,9.136,0,0,1,2.556-6.491,8.864,8.864,0,0,1,6.391-2.606h0a8.936,8.936,0,0,1,6.416,2.595,9.118,9.118,0,0,1,2.581,6.487,8.9,8.9,0,0,1-8.989,9h0a8.9,8.9,0,0,1-6.355-2.609Z" class="a" transform="translate(-314.739 -55.709)"/><path d="M591.32,59.985V59.86h-2.913V73.167a11.161,11.161,0,0,0-8.578-3.735h0a11.2,11.2,0,0,0-8.142,3.392,12.052,12.052,0,0,0-3.26,8.439c0,6.68,4.911,11.716,11.413,11.716h0a11.125,11.125,0,0,0,8.578-3.7v3.16h2.909Zm-2.9,25.191a9.171,9.171,0,0,1-8.128,5.075h0a9.046,9.046,0,0,1-.007-18.089h0a9.293,9.293,0,0,1,8.131,5.108Z" class="a" transform="translate(-365.257 -38.465)"/><path d="M115.879,104.817V82.7l-19.3,10.987v7.4l12.871-7.324v7.32L90.77,111.78v7.409Z" class="b" transform="translate(-58.327 -53.141)"/><path d="M24.174,88.8V67.284L17.74,63.57V92.525l25.03,14.34V99.448Z" class="b" transform="translate(-11.399 -40.849)"/><path d="M44.322,27.977,62.951,38.714,69.388,35,44.318,20.55,19.27,35,25.7,38.718Z" class="b" transform="translate(-12.382 -13.205)"/><path d="M6.341,85.945V56.99L0,53.33V89.587l31.371,18.107v-7.409Z" class="a" transform="translate(0 -34.269)"/><path d="M54.337,106.125V84.7L35.74,73.96V95.473Z" class="a" transform="translate(-22.966 -47.525)"/><path d="M32.893,7.345l25.07,14.447L64.3,18.136,32.893,0,1.49,18.132,7.845,21.8Z" class="a" transform="translate(-0.957)"/><path d="M74.517,52.067,55.888,41.33,37.27,52.071,55.885,62.818Z" class="a" transform="translate(-23.949 -26.558)"/><path d="M90.77,92.92l18.675-10.694v-7.32L96.575,82.23v-7.4l19.3-10.987V85.958L90.77,100.33v7.413L122.2,89.6h0V53.35L90.77,71.489Z" class="a" transform="translate(-58.327 -34.281)"/><path d="M89.35,103.18v0h0v0Z" class="a" transform="translate(-57.414 -66.301)"/></svg>