<svg xmlns="http://www.w3.org/2000/svg" xmlns:xlink="http://www.w3.org/1999/xlink" width="159.188" height="70.747" viewBox="0 0 159.188 70.747">
  <defs>
    <pattern id="pattern" patternUnits="userSpaceOnUse" preserveAspectRatio="xMidYMin slice" width="94.137" height="94.137" viewBox="150 0 94.137 94.137">
        <image xlink:href="https://www.gitpod.io/galaxy.jpg" height="100" width="370" />
    </pattern>
  </defs>
  <g id="golang-official" transform="translate(9 6)">
    <g transform="matrix(1, 0, 0, 1, -9, -6)">
      <path id="Vereinigungsmenge_45-2" data-name="Vereinigungsmenge 45" d="M111.017,52.747A25.811,25.811,0,0,1,94.244,46.7a21.6,21.6,0,0,1-6.873-10.7,28.942,28.942,0,0,1-2.887,4.657A28.636,28.636,0,0,1,64.893,52.337,24.351,24.351,0,0,1,46.4,47.8,21.578,21.578,0,0,1,37.67,32.539,26.985,26.985,0,0,1,43.513,12.4,30.508,30.508,0,0,1,62.761.5C69.223-.664,75.409.093,80.978,3.874a21.554,21.554,0,0,1,7.975,9.693c.412.618.138.962-.688,1.169v0l-11.55,3.024c-1.031.276-1.1.344-1.994-.687a9.128,9.128,0,0,0-3.23-2.612c-4.331-2.131-8.525-1.513-12.442,1.031a14.619,14.619,0,0,0-7.012,13.061,10.779,10.779,0,0,0,9.281,10.793A12.688,12.688,0,0,0,73,34.808c.618-.755,1.169-1.581,1.856-2.543H61.592c-1.444,0-1.787-.894-1.306-2.063.894-2.131,2.543-5.705,3.505-7.493a1.856,1.856,0,0,1,1.719-1.1H87.632a29.206,29.206,0,0,1,4.757-8.939c5.019-6.6,11.067-10.037,19.248-11.48,7.012-1.238,13.611-.55,19.591,3.505a21.4,21.4,0,0,1,9.693,15.33,26.536,26.536,0,0,1-7.906,23.3,31.5,31.5,0,0,1-16.5,8.8c-1.856.344-3.712.413-5.5.619Zm2.131-39.181a15.014,15.014,0,0,0-12.029,11.961,11.32,11.32,0,0,0,6.324,12.991,12.6,12.6,0,0,0,11.205-.412c5.431-2.813,8.386-7.218,8.731-13.13h0a20.063,20.063,0,0,0-.206-2.268,11.236,11.236,0,0,0-11.2-9.469A12.506,12.506,0,0,0,113.148,13.566ZM16.91,28.618v0c-.275,0-.343-.207-.206-.413l.963-1.718a.912.912,0,0,1,.687-.413H32.1c.275,0,.412.207.412.482l-.138,1.649a.517.517,0,0,1-.481.481ZM.069,21.952,1.512,20.1a.986.986,0,0,1,.756-.344H33.614a.316.316,0,0,1,.344.413l-.55,1.649a.6.6,0,0,1-.619.412L.275,22.3C0,22.3-.068,22.158.069,21.952Zm10.584-5.981h0c-.275,0-.343-.138-.206-.344l1.444-1.856a.984.984,0,0,1,.755-.344H37.188c.275,0,.344.206.206.413l-1.169,1.786a1.047,1.047,0,0,1-.688.412Z" transform="translate(9 6)" fill="url(#pattern)"/>
    </g>
  </g>
</svg>
