<svg xmlns="http://www.w3.org/2000/svg" width="125.794" height="101.252" viewBox="0 0 125.794 101.252"><defs><style>.a{fill:#ea4335;}.b{fill:#4285f4;}.c{fill:#34a853;}.d{fill:#fbbc05;}</style></defs><g transform="translate(0 0)"><path class="a" d="M265.552,27.882h3.836l10.934-10.934.536-4.644A49.151,49.151,0,0,0,200.9,36.286a5.918,5.918,0,0,1,3.836-.227L226.6,32.45s1.11-1.842,1.691-1.729a27.277,27.277,0,0,1,37.332-2.839Z" transform="translate(-185.729 -0.004)"/><path class="b" d="M844.122,187.437A49.218,49.218,0,0,0,829.276,163.5l-15.344,15.344a27.284,27.284,0,0,1,10.013,21.641v2.726a13.66,13.66,0,1,1,0,27.32h-27.32l-2.726,2.764V249.68l2.726,2.726h27.32a35.536,35.536,0,0,0,20.176-64.969Z" transform="translate(-733.952 -151.154)"/><path class="c" d="M205.145,1055.8h27.319v-21.868H205.145a13.6,13.6,0,0,1-5.641-1.231l-3.836,1.193-11.009,10.934-.959,3.836A35.26,35.26,0,0,0,205.145,1055.8Z" transform="translate(-169.828 -954.721)"/><path class="d" d="M35.309,399.2a35.523,35.523,0,0,0-21.445,63.685L29.706,447.04a13.658,13.658,0,1,1,18.07-18.07l15.842-15.842A35.445,35.445,0,0,0,35.309,399.2Z" transform="translate(0.008 -369.053)"/></g></svg>