<?xml version="1.0" encoding="utf-8"?>
<!-- Generator: Adobe Illustrator 23.0.1, SVG Export Plug-In . SVG Version: 6.00 Build 0)  -->
<svg version="1.1" id="Layer_1" xmlns="http://www.w3.org/2000/svg" xmlns:xlink="http://www.w3.org/1999/xlink" x="0px" y="0px"
	 viewBox="0 0 100 100" style="enable-background:new 0 0 100 100;" xml:space="preserve">
<style type="text/css">
	.st0{fill:none;stroke:#26A4DD;stroke-width:3;stroke-linecap:round;stroke-linejoin:round;stroke-miterlimit:22.9256;}
	.st1{fill:none;stroke:#26A4DD;stroke-width:3;stroke-miterlimit:22.9256;}
</style>
<path class="st0" d="M86.7,61.1l6.3-6.3c10.8-10.8,5.5-25.4-3.2-34.7c-2.9-3.1-6.1-5.8-9.5-7.7c-4.4-2.5-18.3-6.1-27.3,2.7
	L34.1,33.9c-5.1,5.1,7.7,9.9,14.2,3.5l4.7-4.7c7-6.3,15.8,6.4,26.7-2.3"/>
<path class="st0" d="M13.5,58.1l-6.3-6.2C-13.6,31,22.5-4.7,43.7,15.9l4.2,4.2"/>
<path class="st0" d="M63,37.3l24.2,25.4c4.9,5.2-2.4,15-8.7,8.5L67.1,59.5"/>
<path class="st0" d="M57.3,67.4l12.5,12.8c5,5.1,15.1-2.5,8.8-9L66.3,58.6"/>
<path class="st0" d="M53.5,81.5l6.2,6.3c5,5.1,14.8-2.2,8.5-8.8"/>
<path class="st1" d="M28.4,53l0.7,0.7c2.2,2.2,2.2,5.9,0,8.2l-8.6,8.6c-2.2,2.2-5.9,2.2-8.2,0l-0.7-0.7c-2.2-2.2-2.3-5.9,0-8.2
	l8.6-8.6C22.4,50.7,26.1,50.7,28.4,53L28.4,53z M42.9,56.9l0.7,0.7c2.3,2.3,2.2,5.9,0,8.2L29.8,79.5c-2.2,2.2-5.9,2.2-8.2,0L21,78.8
	c-2.2-2.2-2.3-5.9,0-8.2l13.7-13.7C36.9,54.7,40.6,54.7,42.9,56.9L42.9,56.9z M48.5,69.7l0.7,0.7c2.3,2.3,2.2,5.9,0,8.2L39.7,88
	c-2.2,2.2-5.9,2.2-8.2,0l-0.7-0.7c-2.2-2.2-2.3-5.9,0-8.2l9.4-9.4C42.5,67.5,46.2,67.5,48.5,69.7L48.5,69.7z M54.5,82l0.7,0.7
	c2.2,2.2,2.2,5.9,0,8.2l-5.8,5.8c-2.2,2.2-5.9,2.2-8.2,0L40.6,96c-2.2-2.2-2.3-5.9,0-8.2l5.8-5.8C48.6,79.7,52.3,79.7,54.5,82
	L54.5,82z"/>
</svg>
