<?xml version="1.0" encoding="UTF-8" ?>

<svg version="1.1" baseProfile="full" xmlns="http://www.w3.org/2000/svg" xmlns:xlink="http://www.w3.org/1999/xlink" xmlns:ev="http://www.w3.org/2001/xml-events" width="80.489" height="96.067" viewBox="0 0 80.489 96.067">
    <defs>
        <pattern id="img1" patternUnits="userSpaceOnUse" width="600" height="10">
            <image xlink:href="https://user-images.githubusercontent.com/46004116/70911894-9fd2c500-2034-11ea-98ae-828306d5a181.jpg" x="100" y="-140" width="1000" height="500" />
        </pattern>
    </defs>
    <g>
        <path data-name="hourglass" fill="url(#img1)" d="M-74.411-838.9H-133.2a1.79,1.79,0,0,1-1.34-.435c-.518-.53-.5-1.516-.472-2.658.006-.262.012-.532.012-.81s-.006-.549-.012-.81c-.025-1.142-.047-2.128.472-2.658a1.789,1.789,0,0,1,1.34-.435h6.006c0-1.445,0-3.84,0-7.807a20.969,20.969,0,0,1,2.928-10.535,19.181,19.181,0,0,1,2.928-3.886l7.591-7.265a2.281,2.281,0,0,0,.794-1.643,2.874,2.874,0,0,0-.794-1.827l-8.144-7.793a17.515,17.515,0,0,1-4.725-8.484,18.847,18.847,0,0,1-.578-4.515l0-8.7h-5.918a1.838,1.838,0,0,1-1.372-.449c-.55-.557-.536-1.6-.52-2.8,0-.211.006-.429.006-.651s0-.44-.006-.651c-.016-1.206-.029-2.247.52-2.8a1.838,1.838,0,0,1,1.372-.449h58.42a1.762,1.762,0,0,1,1.879,1.134,8.4,8.4,0,0,1,.268,2.742v.054a8.4,8.4,0,0,1-.268,2.742,1.762,1.762,0,0,1-1.879,1.134H-80.35l0,8.7a18.885,18.885,0,0,1-.578,4.515,17.515,17.515,0,0,1-4.725,8.483l-8.144,7.793a2.868,2.868,0,0,0-.794,1.827A2.281,2.281,0,0,0-93.8-876.2l7.591,7.265a19.2,19.2,0,0,1,2.928,3.886,20.969,20.969,0,0,1,2.928,10.535c0,3.96,0,6.361,0,7.807h5.94a1.827,1.827,0,0,1,1.364.445c.542.55.527,1.578.509,2.768,0,.223-.007.454-.007.69s0,.467.007.69c.018,1.19.033,2.217-.509,2.768A1.826,1.826,0,0,1-74.411-838.9Zm-28.179-67.595c-8.243,0-17.557.109-17.741.265a10.051,10.051,0,0,0,2.9,7.128l8.232,7.877a10.57,10.57,0,0,1,2.6,7.292c.007.874.172,21.4.263,21.468-9.636,8.888-14.69,13.645-14.614,13.759s10.764.22,19.557.22c3.917,0,13.048-.021,13.243-.22a.023.023,0,0,0,.006-.018c-.017-.543-10.224-9.79-14.612-13.74.076-.1,0-20.6,0-21.469a10.411,10.411,0,0,1,2.625-7.377l8.144-7.791a11.625,11.625,0,0,0,2.569-3.735,7.249,7.249,0,0,0,.726-2.93.637.637,0,0,0-.154-.463C-89.071-906.395-94.207-906.494-102.59-906.494Z" transform="translate(144.02 922.97)" />
    </g>
</svg>
