<svg xmlns="http://www.w3.org/2000/svg" xmlns:xlink="http://www.w3.org/1999/xlink" width="121.317" height="231.415" viewBox="0 0 121.317 231.415">
  <defs>
    <pattern id="pattern" patternUnits="userSpaceOnUse" preserveAspectRatio="xMidYMin slice" width="121.317" height="234.415" viewBox="0 0 121.317 231.415">
        <image xlink:href="https://user-images.githubusercontent.com/46004116/70911894-9fd2c500-2034-11ea-98ae-828306d5a181.jpg" x="-400" y="-80" height="428" />
    </pattern>
  </defs>
  <g id="iconfinder_1_2364651" transform="translate(-268.188 -8.07)">
    <g transform="matrix(1, 0, 0, 1, 268.19, 8.07)">
      <path id="andy-holmes-rCbdp8VCYhQ-unsplash-2" data-name="andy-holmes-rCbdp8VCYhQ-unsplash" d="M221.369,39.305C206.852,19.3,189.355,19.07,188.62,19.07a2.623,2.623,0,0,0-1.983.932,3.077,3.077,0,0,0-.726,2.2c.05.811,1.052,19.947-14.968,28.829a2.912,2.912,0,0,0-1.4,1.914c-.142.617-3.594,15.1-17.548,15.1h0c-4.612,0-9.951-1.558-15.861-4.63a2.542,2.542,0,0,0-2.621.158,2.993,2.993,0,0,0-1.269,2.482V193.19a2.826,2.826,0,0,0,2.713,2.927h39.407V221.9a10.918,10.918,0,0,0,2.847,7.459,9.327,9.327,0,0,0,6.941,3.125c5.41,0,9.814-4.747,9.814-10.584V196.117h38.881a2.826,2.826,0,0,0,2.713-2.927V103.727C235.569,101.912,235.653,59.018,221.369,39.305Zm8.761,150.957h0Z" transform="translate(-123.24 -13.07)" fill="url(#pattern)"/>
    </g>
    <path id="Pfad_474" data-name="Pfad 474" d="M292.908,153.3v74.109a4.775,4.775,0,1,1-9.518,0V153.3a4.775,4.775,0,1,1,9.518,0Z" transform="translate(58.08 -69.585)" fill="#fff"/>
    <path id="Pfad_476" data-name="Pfad 476" d="M214,153.3v74.109a4.709,4.709,0,1,1-9.372,0V153.3a4.709,4.709,0,1,1,9.372,0Z" transform="translate(103.048 -69.585)" fill="#fff"/>
  </g>
</svg>
