<?xml version="1.0" encoding="utf-8"?>
<!-- Generator: Adobe Illustrator 23.0.1, SVG Export Plug-In . SVG Version: 6.00 Build 0)  -->
<svg version="1.1" id="Layer_1" xmlns="http://www.w3.org/2000/svg" xmlns:xlink="http://www.w3.org/1999/xlink" x="0px" y="0px"
	 viewBox="0 0 100 100" style="enable-background:new 0 0 100 100;" xml:space="preserve">
<style type="text/css">
	.st0{fill:none;stroke:#1A1A1A;stroke-width:1.4397;stroke-linecap:round;stroke-linejoin:round;stroke-miterlimit:22.9256;}
</style>
<path class="st0" d="M44.1,74.8l-2.5,9.6c-0.5,1.7-3.3,1.3-4.6,0.1L16,64.4c-1.3-1.2-1.8-4.2-0.1-4.6l9.3-3.1 M35.5,65.5l-0.2-0.2
	L22.6,53.1c9.5-13.3,20.3-31.2,31.3-42.7C63.5,0.2,79.1-1.5,93.7,4.4l0.1,0.1c6.7,14.5,5.4,30.2-4.2,40.2
	c-11,11.5-28.4,23-41.4,33.1L35.5,65.5L35.5,65.5z M67.5,2.3C75.6,0,84.8,0.8,93.7,4.4l0.1,0.1c4.1,8.8,5.2,18.1,3.3,26.2L67.5,2.3
	L67.5,2.3z M71.2,28.1c3.2,3,3.3,8,0.2,11.2c-3,3.2-8,3.3-11.2,0.2c-3.2-3-3.3-8-0.2-11.2C63,25.2,68,25.1,71.2,28.1L71.2,28.1z
	 M56.3,43.6c3.2,3,3.3,8,0.2,11.2c-3,3.2-8,3.3-11.2,0.2c-3.2-3-3.3-8-0.2-11.2C48.1,40.7,53.1,40.6,56.3,43.6L56.3,43.6z M22.7,53
	l17.7-25.8c-5.7-1.1-11.7-3.7-17.2-3.3C6,25.1,3.1,40.2,1.5,54.5L22.7,53L22.7,53z M48.3,77.6l25-18.8c1.3,5.7,4.2,11.5,4,17
	C76.9,93,62,96.6,47.8,98.8L48.3,77.6L48.3,77.6z M27.1,46.2L55,72.7"/>
</svg>
