<svg xmlns="http://www.w3.org/2000/svg" xmlns:xlink="http://www.w3.org/1999/xlink" width="35.891" height="57.919" viewBox="0 0 35.891 57.919"><defs><pattern id="img1" width="82.373" height="102.373" patternUnits="userSpaceOnUse" preserveAspectRatio="xMidYMin slice" viewBox="140 0 52.373 52.373"><image width="370" height="100" y="-30" xlink:href="https://www.gitpod.io/galaxy.jpg"/></pattern></defs><g><g><g transform="translate(35.891) rotate(90) translate(0 0) translate(0 35.891) rotate(-90)"><path fill="url(#img1)" d="M35.89,53.588c0,2.382-1.554,4.331-3.451,4.331H3.451C1.553,57.919,0,55.97,0,53.588V4.331C0,1.949,1.553,0,3.451,0H32.44c1.9,0,3.451,1.949,3.451,4.331V53.588Z"/><circle cx=".21" cy=".21" r=".21" fill="#4d4d4d" transform="translate(17.779 2.293)"/><ellipse cx="1.895" cy="1.906" fill="#fff" rx="1.895" ry="1.906" transform="translate(15.942 52.985)"/></g><path fill="#fff" d="M0,32.869V0H45.416V32.869Z" opacity=".954" transform="translate(35.891) rotate(90) translate(0 0) translate(5.355 1.497)"/></g></g></svg>