<svg xmlns="http://www.w3.org/2000/svg" xmlns:xlink="http://www.w3.org/1999/xlink" width="72.736" height="87.835" viewBox="0 0 72.736 87.835">
  <defs>
    <filter id="Vereinigungsmenge_11" x="0" y="0" width="72.736" height="87.835" filterUnits="userSpaceOnUse">
      <feOffset dy="3" input="SourceAlpha"/>
      <feGaussianBlur stdDeviation="3" result="blur"/>
      <feFlood flood-opacity="0.161"/>
      <feComposite operator="in" in2="blur"/>
      <feComposite in="SourceGraphic"/>
    </filter>
    <pattern id="pattern" patternUnits="userSpaceOnUse" width="928" height="619" x="750" y="840">
        <image xlink:href="https://www.gitpod.io/galaxy.jpg" width="928" height="619"/>
    </pattern>
  </defs>
  <g id="Gruppe_705" data-name="Gruppe 705" transform="translate(9 6)" >
    <g id="_x35_43_x2C__louck_x2C__love_x2C__heart_x2C__weding" transform="translate(0 0)">
      <g id="Gruppe_392" data-name="Gruppe 392">
        <g transform="matrix(1, 0, 0, 1, -9, -6)" filter="url(#Vereinigungsmenge_11)">
          <path id="Vereinigungsmenge_11-2" data-name="Vereinigungsmenge 11" d="M0,35.518A13.4,13.4,0,0,1,9.652,22.755a.975.975,0,0,1-.032-.248V8.567A8.576,8.576,0,0,1,18.186,0H36.55a8.576,8.576,0,0,1,8.566,8.567v5.108a.974.974,0,1,1-1.949,0V8.567A6.625,6.625,0,0,0,36.55,1.949H18.186a6.625,6.625,0,0,0-6.617,6.618V22.323a13.926,13.926,0,0,1,2.11-.162c6.84,0,10.261,3.34,13.681,10.018C30.78,25.5,34.2,22.162,41.04,22.162a13.99,13.99,0,0,1,3.1.349A13.432,13.432,0,0,1,54.736,35.518c0,13.356-13.7,20.962-27.376,34.317C13.679,56.479,0,48.873,0,35.518Zm22.069,7.834a5.287,5.287,0,0,0,2.247,4.328l.7,6.265h4.708l.7-6.265a5.3,5.3,0,1,0-8.348-4.328Z" transform="translate(9 6)" fill="url(#pattern)" />
        </g>
      </g>
    </g>
  </g>
</svg>
