<?xml version="1.0" encoding="utf-8"?>
<svg xmlns="http://www.w3.org/2000/svg" height="80" viewBox="671.5 641 60 60"><style>.st0{fill:none;stroke:#1aa6e4;stroke-width:0.6;stroke-linecap:round;stroke-linejoin:round;stroke-miterlimit:22.9256;filter: drop-shadow(rgb(26, 166, 228) 0px 0px 1px);}</style><path class="st0" d="M695.55 670.91h11.51c5.37 0 10.73-4.48 9.76-9.76l-2.29-12.55c-.56-3.08-2.57-5.7-5.7-5.7h-15.07c-3.13 0-5.13 2.61-5.7 5.7l-2.29 12.55c-.95 5.28 4.41 9.76 9.78 9.76zM689.04 674.6h24.52c1.3 0 2.36 1.06 2.36 2.36v1.45c0 1.3-1.06 2.36-2.36 2.36h-24.52c-1.3 0-2.36-1.06-2.36-2.36v-1.45c0-1.3 1.06-2.36 2.36-2.36zM687.59 694.78c1.24 0 2.24 1 2.24 2.24s-1 2.24-2.24 2.24c-1.24 0-2.24-1-2.24-2.24s1.01-2.24 2.24-2.24zM701.3 694.78c1.24 0 2.24 1 2.24 2.24s-1 2.24-2.24 2.24c-1.24 0-2.24-1-2.24-2.24s1.01-2.24 2.24-2.24zM715.01 694.78c1.24 0 2.24 1 2.24 2.24s-1 2.24-2.24 2.24c-1.24 0-2.24-1-2.24-2.24s1.01-2.24 2.24-2.24zM701.3 680.78v13.56M688.56 693.8c.7-1.1 1.71-2.08 2.96-2.91 1.25-.83 2.74-1.5 4.39-1.96 1.65-.46 3.47-.72 5.38-.72 1.91 0 3.73.26 5.38.72 1.65.46 3.14 1.13 4.4 1.96 1.25.83 2.26 1.82 2.96 2.91"/><path class="st0" d="M674.32 665.05l3.56-.1c7.07-.22-.68 15.98 7.34 15.83.15 0 2.66-.01 2.83-.03M728.29 665.05l-3.56-.1c-7.07-.22.68 15.98-7.34 15.83-.15 0-2.66-.01-2.83-.03M701.3 672.2v2.4"/></svg>
