<?xml version="1.0" encoding="utf-8"?>
<!-- Generator: Adobe Illustrator 23.0.1, SVG Export Plug-In . SVG Version: 6.00 Build 0)  -->
<svg version="1.1" id="Layer_1" xmlns="http://www.w3.org/2000/svg" xmlns:xlink="http://www.w3.org/1999/xlink" x="0px" y="0px"
	 viewBox="0 0 100 100" style="enable-background:new 0 0 100 100;" xml:space="preserve">
<style type="text/css">
	.st0{fill:none;stroke:#1A1A1A;stroke-width:1.44;stroke-linecap:round;stroke-linejoin:round;stroke-miterlimit:22.9256;}
</style>
<path class="st0" d="M75.3,33.7C87,49.8,85.6,72.5,71.1,87c-16,16-42,16-58.1,0c-16-16-16-42,0-58.1C27.5,14.4,50.2,13,66.3,24.7"/>
<path class="st0" d="M67.2,41.9c7.4,11.5,6.1,27-4,37.1C51.5,90.6,32.6,90.6,21,79C9.4,67.4,9.4,48.5,21,36.9
	c10.1-10.1,25.6-11.4,37.1-4"/>
<path class="st0" d="M58.9,50.2C62,57,60.8,65.4,55.2,71c-7.2,7.2-18.9,7.2-26.2,0c-7.2-7.2-7.2-18.9,0-26.2
	c5.6-5.6,14-6.9,20.9-3.7"/>
<path class="st0" d="M49,60.1c-0.3,1.1-0.9,2.1-1.8,3c-2.8,2.8-7.4,2.8-10.2,0c-2.8-2.8-2.8-7.4,0-10.2c0.9-0.9,1.9-1.5,3-1.8"/>
<line class="st0" x1="42.6" y1="57.6" x2="93.9" y2="6.2"/>
<polyline class="st0" points="76.5,25.7 86.9,29 99,16.9 88.6,13.6 "/>
<polyline class="st0" points="74.6,23.8 71.4,13.5 83.5,1.4 86.7,11.7 "/>
</svg>
