<?xml version="1.0" encoding="utf-8"?>
<!-- Generator: Adobe Illustrator 23.0.1, SVG Export Plug-In . SVG Version: 6.00 Build 0)  -->
<svg version="1.1" id="Layer_1" xmlns="http://www.w3.org/2000/svg" xmlns:xlink="http://www.w3.org/1999/xlink" x="0px" y="0px"
	 viewBox="0 0 100 100" style="enable-background:new 0 0 100 100;" xml:space="preserve">
<style type="text/css">
	.st0{fill:none;stroke:#1A1A1A;stroke-width:1.44;stroke-linecap:round;stroke-linejoin:round;stroke-miterlimit:22.9256;}
</style>
<path class="st0" d="M33.7,74.8c-1.1-16.4-13.8-8.1-15.2-30.4c-0.9-14.1,12.2-25.5,27.2-25.5s28.2,11.5,27.2,25.5
	c-1.4,19-10.8,15.2-14.3,25.1"/>
<line class="st0" x1="34.1" y1="94.4" x2="58.6" y2="88"/>
<line class="st0" x1="34.1" y1="85.1" x2="58.6" y2="78.7"/>
<line class="st0" x1="34.1" y1="75.9" x2="58.6" y2="69.5"/>
<path class="st0" d="M54.4,91.4c0,4.2-3.9,7.6-8.7,7.6c-3,0-5.7-1.4-7.3-3.4"/>
<line class="st0" x1="46.4" y1="1" x2="46.4" y2="9.2"/>
<line class="st0" x1="76.3" y1="12.4" x2="70.5" y2="18.2"/>
<line class="st0" x1="89.9" y1="44.4" x2="81.6" y2="44.4"/>
<line class="st0" x1="75.1" y1="75.1" x2="69.3" y2="69.3"/>
<line class="st0" x1="16.1" y1="12.4" x2="21.9" y2="18.2"/>
<line class="st0" x1="1.3" y1="42.7" x2="9.6" y2="42.7"/>
<line class="st0" x1="14.9" y1="75.1" x2="20.7" y2="69.3"/>
<polyline class="st0" points="35.8,48.7 44.7,61 58.2,37.3 "/>
</svg>
