<?xml version="1.0" encoding="utf-8"?>
<!-- Generator: Adobe Illustrator 23.0.1, SVG Export Plug-In . SVG Version: 6.00 Build 0)  -->
<svg version="1.1" id="Layer_1" xmlns="http://www.w3.org/2000/svg" xmlns:xlink="http://www.w3.org/1999/xlink" x="0px" y="0px"
	 viewBox="0 0 100 100" style="enable-background:new 0 0 100 100;" xml:space="preserve">
<style type="text/css">
	.st0{fill:none;stroke:#1A1A1A;stroke-width:1.44;stroke-linecap:round;stroke-linejoin:round;stroke-miterlimit:22.9256;}
</style>
<path class="st0" d="M94.2,58.6v37.1c0,1.8-1.5,3.3-3.3,3.3H9.1c-1.8,0-3.3-1.5-3.3-3.3V59.2"/>
<path class="st0" d="M35.2,26.8v-9.4c0-3,2.4-5.4,5.4-5.4h18.9c3,0,5.4,2.5,5.4,5.4v9.4"/>
<path class="st0" d="M40.9,66C27.2,65.3,13.3,62.5,1,56.5l0.1-26.2c0-1.8,1.5-3.3,3.3-3.3h91.3c1.8,0,3.3,1.5,3.3,3.3L99,55.8
	C86.6,62.4,72.4,65.3,58.5,66"/>
<path class="st0" d="M44.1,61.3h11.8c1,0,1.8,0.8,1.8,1.8v8.1c0,1-0.8,1.8-1.8,1.8H44.1c-1,0-1.8-0.8-1.8-1.8v-8.1
	C42.3,62.1,43.1,61.3,44.1,61.3L44.1,61.3z"/>
</svg>
