<svg xmlns="http://www.w3.org/2000/svg" xmlns:xlink="http://www.w3.org/1999/xlink" width="109.661" height="80.151" viewBox="0 0 109.661 80.151">
    <defs>
        <pattern id="pattern" patternUnits="userSpaceOnUse" width="200" height="200" x="0" y="30" >
            <image xlink:href="https://www.gitpod.io/galaxy.jpg" width="200" height="200"/>
        </pattern>
    </defs>
    <path id="Vereinigungsmenge_73" data-name="Vereinigungsmenge 73" d="M629.431,7714.71v-.068c.025-8.514,6.4-15.493,14.177-15.51,7.066-.018,10.869,4.616,13.827,8.323l2.112,2.627,2.127-2.637c2.98-3.721,6.808-8.374,13.874-8.392,7.773-.02,14.113,6.932,14.088,15.444-.031,11.3-6.555,18.745-30.218,40.009C635.926,7733.4,629.425,7725.97,629.431,7714.71Zm-19.323,22.955a1.174,1.174,0,0,1,.559-1.543l8.234-3.873a1.153,1.153,0,0,1,1.532.561,1.167,1.167,0,0,1-.559,1.543l-8.236,3.875a1.149,1.149,0,0,1-.446.109h-.039A1.153,1.153,0,0,1,610.108,7737.665Zm5.887-22.1-9.047-.792a1.154,1.154,0,0,1,.2-2.3l9.048.792a1.155,1.155,0,0,1-.056,2.3C616.091,7715.57,616.044,7715.57,616,7715.566Zm88.973-8.264a1.157,1.157,0,0,1,.609-1.514l8.376-3.538a1.159,1.159,0,0,1,1.055,2.057,1.2,1.2,0,0,1-.146.074l-8.376,3.54a1.159,1.159,0,0,1-1.518-.619Zm-83.008-9.97-7.442-5.243a1.164,1.164,0,0,1-.272-1.61,1.132,1.132,0,0,1,1.594-.284l7.438,5.247a1.161,1.161,0,0,1,.278,1.607,1.141,1.141,0,0,1-.9.49h-.037A1.146,1.146,0,0,1,621.96,7697.333Zm71.582-4.646a1.162,1.162,0,0,1-.235-1.617l5.465-7.271a1.155,1.155,0,0,1,1.847,1.387l-5.465,7.271a1.145,1.145,0,0,1-.922.46A1.137,1.137,0,0,1,693.542,7692.688Zm-17.176-6.988a1.167,1.167,0,0,1-1.006-1.283l1.086-9.051a1.14,1.14,0,0,1,1.277-1,1.157,1.157,0,0,1,1.01,1.283l-1.086,9.049a1.157,1.157,0,0,1-.551.849,1.143,1.143,0,0,1-.587.163A1.184,1.184,0,0,1,676.366,7685.7Z" transform="translate(-605.903 -7674.355)" fill="url(#pattern)"/>
</svg>
