<svg xmlns="http://www.w3.org/2000/svg" xmlns:xlink="http://www.w3.org/1999/xlink" width="740" height="440" viewBox="0 45 736 440">
<style>
@font-face {
  font-family: 'Montserrat';
  font-style: normal;
  font-weight: 400;
  font-display: swap;
  src: local('Montserrat'), url(https://fonts.gstatic.com/s/montserrat/v14/JTUSjIg1_i6t8kCHKm459WlhyyTh89Y.woff2) format('woff2');
}
@font-face {
  font-family: 'Montserrat';
  font-style: normal;
  font-weight: 600;
  font-display: swap;
  src: local('Montserrat-Bold'), url(https://fonts.gstatic.com/s/montserrat/v14/JTURjIg1_i6t8kCHKm45_bZF3gnD_vx3rCs.woff2) format('woff2');
}
</style>
    <defs>
        <pattern id="pattern" patternUnits="userSpaceOnUse" preserveAspectRatio="xMidYMin slice" width="742.217" height="194.137" viewBox="0 0 742.217 441.525">
            <image xlink:href="https://www.gitpod.io/galaxy.jpg" width="742.217" />
        </pattern>
    </defs>
    <g id="Gruppe_643" data-name="Gruppe 643" transform="translate(-168.688 -113.724)">
        <path id="Vereinigungsmenge_55" data-name="Vereinigungsmenge 55" d="M-1650.889-8058.818h-351.486c37.549-10.68,59.946-28.12,72.172-40.962,8.956-9.406,12.457-16.346,12.457-16.346h266.857v-2.036l1.724,2.036h1.355v1.6l22.959,27.111-22.959,27.111v1.486h-1.258l-1.82,2.149Zm-710.179,0v-57.308s260.635-.338,261.676,0,0,57.308,0,57.308Z" transform="translate(2532.756 8608.918)" stroke="#fff" stroke-linecap="round" stroke-linejoin="round" stroke-width="6" fill="url(#pattern)" />
        <path id="Pfad_999" data-name="Pfad 999" d="M549.937,524.094H403.126c-1.082-1-2.164-2.024-3.228-3.044s-2.129-2.068-3.176-3.114a215.488,215.488,0,0,1-63.117-140.811h57.424a159.468,159.468,0,0,0,96.883,134.45,157.2,157.2,0,0,0,30.3,9.369A160,160,0,0,0,549.937,524.094Z" transform="translate(-19.555 -31.303)" fill="#e6e6e6" stroke="#fff" stroke-linecap="round" stroke-linejoin="round" stroke-width="6" />
        <path id="Pfad_1000" data-name="Pfad 1000" d="M455.812,211.17a161.114,161.114,0,0,0-38.183,39.7,158.888,158.888,0,0,0-23.974,57.257,160.068,160.068,0,0,0-3.14,31.725q0,6.257.465,12.414H333.557q-.355-6.175-.351-12.414a217.9,217.9,0,0,1,4.275-43.118,217.4,217.4,0,0,1,77.457-126.435Z" transform="translate(-19.507 -6.44)" fill="#e6e6e6" stroke="#fff" stroke-linecap="round" stroke-linejoin="round" stroke-width="6" />
        <path id="Pfad_1001" data-name="Pfad 1001" d="M680.47,152.54,640.158,195a159.1,159.1,0,0,0-17.068-8.455,157.368,157.368,0,0,0-30.309-9.371,161.353,161.353,0,0,0-63.45,0,157.286,157.286,0,0,0-30.3,9.371,159.239,159.239,0,0,0-26.958,14.6c-1.715,1.16-3.422,2.357-5.094,3.59l-40.875-40.876q6.784-5.409,13.945-10.249a216.653,216.653,0,0,1,240.42-1.065Z" transform="translate(-30.675 0)" fill="#e6e6e6" stroke="#fff" stroke-linecap="round" stroke-linejoin="round" stroke-width="6" />
        <path id="Pfad_1002" data-name="Pfad 1002" d="M807,338.3c0,1.487-.018,2.974-.053,4.452l-57.337.37c.053-1.6.08-3.211.08-4.821a160.662,160.662,0,0,0-3.141-31.725,158.889,158.889,0,0,0-23.974-57.257,161.091,161.091,0,0,0-43.278-43.285c-3.219-2.164-6.518-4.224-9.888-6.141l40.312-42.459c.537.352,1.065.713,1.592,1.065a216.9,216.9,0,0,1,78.644,95.448,214.52,214.52,0,0,1,12.757,41.236A217.248,217.248,0,0,1,807,338.3Z" transform="translate(-59.922 -4.894)" fill="#e6e6e6" stroke="#fff" stroke-linecap="round" stroke-linejoin="round" stroke-width="6" />
        <path id="Pfad_1003" data-name="Pfad 1003" d="M807.693,368.074a216.033,216.033,0,0,1-63.415,148.773c-.343.342-.687.677-1.029,1.021-.713.7-1.425,1.4-2.147,2.094-1.073,1.029-2.148,2.04-3.238,3.044,0,0-6.071,6.941-21.608,16.347l-40.612-40.6c1.488-.924,2.948-1.882,4.4-2.859a159.664,159.664,0,0,0,57.882-70.242,157.749,157.749,0,0,0,12.431-57.2Z" transform="translate(-60.672 -30.215)" fill="#e6e6e6" stroke="#fff" stroke-linecap="round" stroke-linejoin="round" stroke-width="6" />
        <path id="Pfad_1004" data-name="Pfad 1004" d="M469.156,540.861v57.309l80.166.076c68.168-1.17,130.192-33.06,142.112-41.038l-40.612-40.6C589.112,552.9,564.536,541.195,469.156,540.861Z" transform="translate(-35.85 -48.07)" fill="#e6e6e6" stroke="#fff" stroke-linecap="round" stroke-linejoin="round" stroke-width="6" />
        <text id="Start_Coding" data-name="Start Coding" transform="translate(727.163 508.542)" fill="#fff" font-size="18" font-family="Montserrat" font-weight="600">
            <tspan x="0" y="19">Start Coding</tspan>
        </text>
        <text id="Choose_Project" data-name="Choose Project" transform="translate(201.664 508.262)" fill="#fff" font-size="18" font-family="Montserrat" font-weight="600">
            <tspan x="0" y="19">Choose Project</tspan>
        </text>
        <g id="Gruppe_631" data-name="Gruppe 631" transform="translate(346.721 392.894)">
            <g id="Gruppe_630" data-name="Gruppe 630">
                <path id="Pfad_1007" data-name="Pfad 1007" d="M375.935,435.157l-4.4,1.795c-.321-.791-.48-1.187-.792-1.983,4.433-1.735,6.648-2.606,11.084-4.34.5,1.27.753,1.9,1.28,3.158a5.888,5.888,0,0,1,.583,3.519,3.1,3.1,0,0,1-1.906,2.108,3.219,3.219,0,0,1-3.878-.918c-1.36,2.149-2.024,3.242-3.314,5.464-.408-.878-.61-1.319-1-2.2,1.228-1.914,1.855-2.858,3.135-4.714C376.4,436.291,376.243,435.915,375.935,435.157Zm1.492-.608c.216.527.324.789.543,1.314a3.289,3.289,0,0,0,1.275,1.7,1.784,1.784,0,0,0,1.628-.017,1.606,1.606,0,0,0,1.056-1.2,3.872,3.872,0,0,0-.393-2.046c-.2-.487-.3-.73-.5-1.219Z" transform="translate(-370.74 -430.629)" fill="#666" />
                <path id="Pfad_1008" data-name="Pfad 1008" d="M379.164,453.142c.361-.326.542-.488.9-.813l-.05-.093a2.836,2.836,0,0,1-1.445-.634,4.346,4.346,0,0,1-1.157-1.471,3.715,3.715,0,0,1-.452-2.748,3.191,3.191,0,0,1,1.847-1.854l5.31-2.537c.343.719.516,1.076.869,1.789-1.992.984-2.986,1.476-4.978,2.461a2.267,2.267,0,0,0-1.187,1.1,1.8,1.8,0,0,0,.183,1.513,2.338,2.338,0,0,0,1.518,1.367,3.736,3.736,0,0,0,2.418-.592l3.963-2.1c.37.7.558,1.047.938,1.741l-7.9,4.322C379.628,454.01,379.472,453.722,379.164,453.142Z" transform="translate(-371.475 -432.115)" fill="#666" />
                <path id="Pfad_1009" data-name="Pfad 1009" d="M386.507,465.886c-.455-.7-.68-1.056-1.126-1.765l4.688-2.946a2.363,2.363,0,0,0,1.085-1.2,1.74,1.74,0,0,0-.291-1.446,2.273,2.273,0,0,0-1.567-1.211,3.849,3.849,0,0,0-2.367.716l-3.865,2.279c-.423-.719-.633-1.08-1.048-1.8l7.816-4.471c.306.535.46.8.772,1.334-.351.333-.528.5-.878.837l.051.087a2.783,2.783,0,0,1,1.466.519,4.194,4.194,0,0,1,1.185,1.277c1.162,1.888.853,3.408-.993,4.6Z" transform="translate(-372.096 -433.443)" fill="#666" />
                <path id="Pfad_1010" data-name="Pfad 1010" d="M395.009,477.36c-.516-.674-.771-1.013-1.277-1.693l8.213-6.1c-.851-1.145-1.27-1.723-2.093-2.887l1.364-.963c2.08,2.944,3.165,4.383,5.425,7.195l-1.3,1.046c-.894-1.113-1.335-1.674-2.2-2.807Z" transform="translate(-373.504 -434.846)" fill="#666" />
                <path id="Pfad_1011" data-name="Pfad 1011" d="M401.944,486.68a4.827,4.827,0,0,1-1.38-3.517,4.4,4.4,0,0,1,1.8-3.124,5.048,5.048,0,0,1,3.41-1.315,4.082,4.082,0,0,1,2.977,1.563,3.994,3.994,0,0,1,1.109,2.9,4.087,4.087,0,0,1-1.482,2.8l-.765.7c-1.72-1.885-2.56-2.845-4.2-4.8a2.814,2.814,0,0,0-1.052,1.879,2.734,2.734,0,0,0,.787,2,7.706,7.706,0,0,0,1.174,1.107,8.415,8.415,0,0,0,1.438.853l-1.152,1.044a6.515,6.515,0,0,1-1.384-.832A9.662,9.662,0,0,1,401.944,486.68Zm5.711-5.445a2.066,2.066,0,0,0-1.427-.778,2.723,2.723,0,0,0-1.731.562c1.107,1.318,1.669,1.969,2.814,3.257a2.445,2.445,0,0,0,.892-1.542A1.976,1.976,0,0,0,407.655,481.235Z" transform="translate(-374.324 -436.41)" fill="#666" />
                <path id="Pfad_1012" data-name="Pfad 1012" d="M413.4,494.984a2.272,2.272,0,0,1-2.162.713,5.2,5.2,0,0,1-2.614-1.638,7.3,7.3,0,0,1-1.782-2.662l1.207-1.128a7.8,7.8,0,0,0,1.674,2.819c.89.915,1.6,1.114,2.1.611a.805.805,0,0,0,.255-.55,2.511,2.511,0,0,0-.149-.823,13.67,13.67,0,0,0-.532-1.337,5.93,5.93,0,0,1-.669-2.447,2.145,2.145,0,0,1,.746-1.49,2.049,2.049,0,0,1,1.971-.523,4.816,4.816,0,0,1,2.274,1.441,8.043,8.043,0,0,1,1.738,2.647c-.587.232-.88.348-1.469.576a7.583,7.583,0,0,0-1.374-2.235c-.735-.75-1.3-.933-1.718-.534a.855.855,0,0,0-.23.794,8.8,8.8,0,0,0,.69,1.862,9.122,9.122,0,0,1,.653,1.773A2.447,2.447,0,0,1,414,494,2.276,2.276,0,0,1,413.4,494.984Z" transform="translate(-375.08 -437.341)" fill="#666" />
                <path id="Pfad_1013" data-name="Pfad 1013" d="M417.882,500.488a5.273,5.273,0,0,0,1.279.852l-.956,1.078a4.457,4.457,0,0,1-.823-.425,6.505,6.505,0,0,1-.908-.694c-1.468-1.34-1.528-2.724-.215-4.111,1.334-1.409,2-2.113,3.336-3.523-.372-.352-.558-.53-.926-.884l.588-.61c.587.177.881.264,1.468.434.719-.369,1.078-.554,1.793-.929.35.329.527.494.882.819l-1.358,1.473c.78.719,1.173,1.073,1.965,1.779l-.962,1.082c-.8-.712-1.2-1.071-1.985-1.8l-3.267,3.543a1.288,1.288,0,0,0-.417,1.006A1.429,1.429,0,0,0,417.882,500.488Z" transform="translate(-376.099 -437.967)" fill="#666" />
            </g>
        </g>
        <g id="Gruppe_633" data-name="Gruppe 633" transform="translate(644.875 356.204)">
            <g id="Gruppe_632" data-name="Gruppe 632" transform="translate(0)">
                <path id="Pfad_1014" data-name="Pfad 1014" d="M712.991,520.287a3.518,3.518,0,0,0-1.349,2.7,4.928,4.928,0,0,0,1.306,3.18,4.765,4.765,0,0,0,2.888,1.906,3.693,3.693,0,0,0,2.967-1.046,8.093,8.093,0,0,0,1.118-1.171c.322-.416.641-.872.954-1.362l1.111,1.243a10.317,10.317,0,0,1-2.3,2.719,5.783,5.783,0,0,1-4.421,1.647,6.147,6.147,0,0,1-4.044-2.551,7.033,7.033,0,0,1-1.475-2.981,5.1,5.1,0,0,1,.244-2.96,6.637,6.637,0,0,1,1.921-2.6,8.429,8.429,0,0,1,3.14-1.742c.215.677.321,1.016.531,1.7a11.963,11.963,0,0,0-1.335.511A5.2,5.2,0,0,0,712.991,520.287Z" transform="translate(-709.633 -404.354)" fill="#666" />
                <path id="Pfad_1015" data-name="Pfad 1015" d="M731.291,517.6c-.6.6-.9.9-1.5,1.5-1.552-1.576-2.329-2.364-3.881-3.942a2.33,2.33,0,0,0-1.407-.8,1.8,1.8,0,0,0-1.372.618,2.352,2.352,0,0,0-.864,1.821,3.8,3.8,0,0,0,1.213,2.172c1.223,1.3,1.833,1.955,3.056,3.257-.617.579-.927.867-1.551,1.44-3.425-3.729-5.134-5.6-8.559-9.327.582-.534.872-.8,1.448-1.344l2.2,2.344a13.83,13.83,0,0,1,1.054,1.275l.094-.088a2.8,2.8,0,0,1,.143-1.524,3.943,3.943,0,0,1,.985-1.442c1.646-1.6,3.223-1.643,4.781-.092Z" transform="translate(-710.45 -403.76)" fill="#666" />
                <path id="Pfad_1016" data-name="Pfad 1016" d="M738.019,511.445a4.937,4.937,0,0,1-3.361,1.8,4.376,4.376,0,0,1-3.321-1.411,4.977,4.977,0,0,1-1.685-3.248,4.177,4.177,0,0,1,1.256-3.178,4.083,4.083,0,0,1,2.789-1.461,4.041,4.041,0,0,1,2.953,1.156l.774.685c-1.708,1.935-2.579,2.888-4.358,4.767a2.528,2.528,0,0,0,3.9-.2,7.894,7.894,0,0,0,.981-1.3,8.619,8.619,0,0,0,.7-1.533l1.162,1.03a6.636,6.636,0,0,1-.685,1.475A9.922,9.922,0,0,1,738.019,511.445Zm-6.047-5.058a2.122,2.122,0,0,0-.631,1.525,2.7,2.7,0,0,0,.747,1.663c1.2-1.27,1.795-1.912,2.964-3.209a2.407,2.407,0,0,0-1.635-.709A2.017,2.017,0,0,0,731.972,506.387Z" transform="translate(-712.039 -402.751)" fill="#666" />
                <path id="Pfad_1017" data-name="Pfad 1017" d="M745.659,502.634a4.45,4.45,0,0,1-3.1,1.84,4.67,4.67,0,0,1-3.342-1.359,4.9,4.9,0,0,1-1.876-3.172,4.541,4.541,0,0,1,1.226-3.363,6.755,6.755,0,0,1,2.1-1.749c.33.572.494.86.82,1.435a6.616,6.616,0,0,0-1.7,1.34c-1.043,1.267-.788,2.558.79,3.894a3.477,3.477,0,0,0,2.141.984,2.247,2.247,0,0,0,1.771-.939,5.511,5.511,0,0,0,1.163-2.44l1.3,1.042a4.337,4.337,0,0,1-.417,1.205A7.59,7.59,0,0,1,745.659,502.634Z" transform="translate(-712.962 -401.657)" fill="#666" />
                <path id="Pfad_1018" data-name="Pfad 1018" d="M746.359,492.947c-.149-.7-.225-1.042-.381-1.734-.231-1.618-.357-2.423-.625-4.022.541-.743.809-1.117,1.342-1.867.387,2.126.565,3.2.888,5.36,2.627-.094,3.948-.164,6.6-.355-.568.8-.855,1.2-1.434,2-2.02.1-3.027.129-5.033.17,0,.567.005.852,0,1.421l2.451,1.87c-.5.661-.757.99-1.269,1.645-3.991-3.114-5.988-4.674-9.98-7.788.478-.612.714-.919,1.184-1.535l4.91,3.745c.526.454.789.68,1.314,1.135Z" transform="translate(-713.154 -400.514)" fill="#666" />
                <path id="Pfad_1019" data-name="Pfad 1019" d="M757.44,478.406a4.625,4.625,0,0,1,2.255,2.871,4.532,4.532,0,0,1-.838,3.554,4.94,4.94,0,0,1-1.833,1.706,3.83,3.83,0,0,1-2.265.406,5.178,5.178,0,0,1-2.348-.955,4.787,4.787,0,0,1-2.128-2.928,4.46,4.46,0,0,1,.835-3.427,4.333,4.333,0,0,1,2.814-2.022A4.759,4.759,0,0,1,757.44,478.406Zm-3.834,5.85c1.717,1.172,3.049,1.072,3.971-.318.912-1.373.482-2.632-1.264-3.758-1.728-1.114-3.023-.992-3.912.347a2.124,2.124,0,0,0-.362,1.97A3.916,3.916,0,0,0,753.606,484.256Z" transform="translate(-714.511 -399.578)" fill="#666" />
                <path id="Pfad_1020" data-name="Pfad 1020" d="M766.667,471.341c-.468-.128-.7-.194-1.171-.324l-.052.092a2.839,2.839,0,0,1,.243,1.562,4.36,4.36,0,0,1-.611,1.768,3.739,3.739,0,0,1-2.063,1.875,3.185,3.185,0,0,1-2.558-.538l-5.017-3.07c.42-.685.626-1.029,1.038-1.72l4.766,2.843a2.262,2.262,0,0,0,1.564.4,1.805,1.805,0,0,0,1.175-.977,2.356,2.356,0,0,0,.333-2.02,3.721,3.721,0,0,0-1.8-1.718l-3.9-2.206c.393-.7.589-1.046.974-1.747l7.882,4.34C767.149,470.48,766.989,470.768,766.667,471.341Z" transform="translate(-715.139 -398.138)" fill="#666" />
                <path id="Pfad_1021" data-name="Pfad 1021" d="M769.9,462.471a5.29,5.29,0,0,0,.483-1.455l1.29.64a4.392,4.392,0,0,1-.192.9,6.5,6.5,0,0,1-.428,1.057c-.9,1.766-2.213,2.193-3.9,1.3l-4.286-2.266c-.241.456-.362.683-.607,1.137l-.745-.4c.015-.618.02-.926.029-1.541-.546-.6-.822-.892-1.372-1.483.225-.429.338-.646.56-1.078l1.78.916c.488-.949.728-1.426,1.2-2.382l1.3.644c-.479.964-.721,1.445-1.213,2.4l4.284,2.2a1.286,1.286,0,0,0,1.078.134A1.433,1.433,0,0,0,769.9,462.471Z" transform="translate(-715.709 -397.207)" fill="#666" />
                <path id="Pfad_1022" data-name="Pfad 1022" d="M764.452,448.653c.6-1.321.887-1.984,1.455-3.318a7.341,7.341,0,0,1,2.059-3.1,2.5,2.5,0,0,1,2.521-.216,2.637,2.637,0,0,1,1.4,1.162,2.538,2.538,0,0,1,.2,1.841l.076.031a3.38,3.38,0,0,1,1.6-1.467,2.712,2.712,0,0,1,1.983.1,2.927,2.927,0,0,1,1.887,2.051,5.459,5.459,0,0,1-.452,3.489c-.73,1.734-1.107,2.6-1.88,4.31Zm6.758.779,3.452,1.51c.359-.822.536-1.234.886-2.06a3.445,3.445,0,0,0,.336-2.023,1.663,1.663,0,0,0-1.113-1.18,1.539,1.539,0,0,0-1.529.107,3.85,3.85,0,0,0-1.2,1.723C771.711,448.28,771.547,448.665,771.211,449.432Zm-1.446-.633c.317-.723.472-1.086.781-1.811a3.454,3.454,0,0,0,.367-1.88,1.449,1.449,0,0,0-.992-1.044,1.31,1.31,0,0,0-1.361.123,4.144,4.144,0,0,0-1.116,1.694c-.274.642-.412.962-.692,1.6Z" transform="translate(-716.223 -395.28)" fill="#666" />
                <path id="Pfad_1023" data-name="Pfad 1023" d="M773.815,433.841a5.18,5.18,0,0,1,.4-.914c.649.3.974.457,1.623.763a4.217,4.217,0,0,0-.384.811,2.7,2.7,0,0,0,.05,2.1,2.639,2.639,0,0,0,1.57,1.374l4.417,1.613c-.288.787-.434,1.182-.729,1.965l-8.419-3.18c.22-.585.329-.878.545-1.465l1.58.3.036-.1a3.722,3.722,0,0,1-.785-1.586A3.044,3.044,0,0,1,773.815,433.841Z" transform="translate(-717.172 -394.215)" fill="#666" />
                <path id="Pfad_1024" data-name="Pfad 1024" d="M785.664,427.132c-.528.019-.792.03-1.32.048l-.02.068a3.879,3.879,0,0,1,.656,1.7,4.837,4.837,0,0,1-.269,1.863,3.271,3.271,0,0,1-1.38,1.94,2.538,2.538,0,0,1-2.177.131,2.352,2.352,0,0,1-1.644-1.716,6.981,6.981,0,0,1,.284-3.444c.177-.64.264-.96.435-1.6l-.46-.138a1.768,1.768,0,0,0-1.358.04,1.819,1.819,0,0,0-.793,1.138,4.927,4.927,0,0,0-.223,1.4,11.571,11.571,0,0,0,.063,1.372c-.6.08-.9.119-1.5.194a7.539,7.539,0,0,1-.037-1.777,8.413,8.413,0,0,1,.325-1.7,4.32,4.32,0,0,1,1.5-2.386,2.878,2.878,0,0,1,2.517-.237c2.331.669,3.5,1,5.826,1.669C785.918,426.267,785.833,426.556,785.664,427.132Zm-2.152,2.605a2.68,2.68,0,0,0-.02-1.912,2.013,2.013,0,0,0-1.365-1.123l-.749-.223c-.123.481-.186.721-.312,1.2a4.623,4.623,0,0,0-.2,2.152,1.349,1.349,0,0,0,.972,1.007,1.15,1.15,0,0,0,1.006-.085A1.762,1.762,0,0,0,783.512,429.737Z" transform="translate(-717.597 -393.124)" fill="#666" />
                <path id="Pfad_1025" data-name="Pfad 1025" d="M789.259,412.9c-.183.828-.276,1.241-.468,2.067l-5.389-1.254a2.332,2.332,0,0,0-1.616.08,1.792,1.792,0,0,0-.825,1.253,2.334,2.334,0,0,0,.241,2,3.8,3.8,0,0,0,2.177,1.176l4.342,1.119c-.21.816-.318,1.224-.537,2.037l-8.689-2.344c.164-.606.244-.911.4-1.519l1.213.025.026-.1a2.817,2.817,0,0,1-.662-1.426,4.346,4.346,0,0,1,.076-1.775c.53-2.2,1.835-3.077,3.981-2.6Z" transform="translate(-717.911 -391.641)" fill="#666" />
                <path id="Pfad_1026" data-name="Pfad 1026" d="M791.208,404.772a4.5,4.5,0,0,1-1.817,3.141,4.649,4.649,0,0,1-3.583.447,4.878,4.878,0,0,1-3.182-1.864,4.587,4.587,0,0,1-.561-3.56,6.9,6.9,0,0,1,.984-2.576c.567.342.85.514,1.415.86a6.722,6.722,0,0,0-.833,2.017c-.295,1.628.553,2.637,2.582,3.034a3.461,3.461,0,0,0,2.353-.186,2.277,2.277,0,0,0,1.092-1.7,5.608,5.608,0,0,0-.17-2.722l1.645.275a4.354,4.354,0,0,1,.221,1.268A7.69,7.69,0,0,1,791.208,404.772Z" transform="translate(-718.326 -390.3)" fill="#666" />
                <path id="Pfad_1027" data-name="Pfad 1027" d="M792.69,389.585c-.091.851-.139,1.277-.24,2.126l-5.494-.654a2.308,2.308,0,0,0-1.6.261,1.815,1.815,0,0,0-.685,1.349,2.367,2.367,0,0,0,.461,1.973,3.785,3.785,0,0,0,2.3.941l4.422.633c-.12.841-.183,1.262-.312,2.1-5.005-.774-7.505-1.164-12.512-1.937.121-.783.18-1.175.292-1.96l3.181.456a13.931,13.931,0,0,1,1.62.338l.018-.128a2.8,2.8,0,0,1-.839-1.284,3.975,3.975,0,0,1-.13-1.752c.29-2.289,1.493-3.326,3.678-3.09Z" transform="translate(-717.976 -388.926)" fill="#666" />
            </g>
        </g>
        <g id="Gruppe_635" data-name="Gruppe 635" transform="translate(642.202 182.231)">
            <g id="Gruppe_634" data-name="Gruppe 634" transform="translate(0 0)">
                <path id="Pfad_1028" data-name="Pfad 1028" d="M714.356,201.572a2.878,2.878,0,0,1-2.51,1,5.534,5.534,0,0,1-3.04-1.5,8.614,8.614,0,0,1-2.211-2.676l1.148-1.378a10.342,10.342,0,0,0,1,1.613,8.44,8.44,0,0,0,1.209,1.317,3.016,3.016,0,0,0,1.619.845,1.369,1.369,0,0,0,1.192-.481,1.388,1.388,0,0,0,.333-1.178,7.909,7.909,0,0,0-.956-2.256,6.111,6.111,0,0,1-.911-2.7,2.941,2.941,0,0,1,.721-1.982,2.646,2.646,0,0,1,2.351-1.01,5.1,5.1,0,0,1,2.9,1.39,9.593,9.593,0,0,1,2.3,3.014c-.615.278-.922.419-1.534.7a8.453,8.453,0,0,0-1.871-2.522,2.527,2.527,0,0,0-1.439-.714,1.257,1.257,0,0,0-1.09.462,1.376,1.376,0,0,0-.342.725,2.091,2.091,0,0,0,.129.91,13.348,13.348,0,0,0,.808,1.7,9.046,9.046,0,0,1,.875,2.1,2.942,2.942,0,0,1,.009,1.405A2.912,2.912,0,0,1,714.356,201.572Z" transform="translate(-706.595 -191.182)" fill="#666" />
                <path id="Pfad_1029" data-name="Pfad 1029" d="M718.408,207.717a5.264,5.264,0,0,0,1.189.854l-.98,1a4.208,4.208,0,0,1-.76-.423,6.272,6.272,0,0,1-.831-.673,2.494,2.494,0,0,1-.134-3.962l3.216-3.465c-.384-.357-.578-.536-.966-.89l.558-.609c.6.181.9.274,1.5.46.711-.354,1.066-.529,1.781-.878.375.351.562.527.934.88l-1.343,1.416c.8.758,1.2,1.14,1.987,1.909l-.985,1.011c-.783-.763-1.178-1.142-1.972-1.9l-3.231,3.408a1.274,1.274,0,0,0-.425.97A1.368,1.368,0,0,0,718.408,207.717Z" transform="translate(-707.723 -192.138)" fill="#666" />
                <path id="Pfad_1030" data-name="Pfad 1030" d="M725.017,216.413l.648-.989-.069-.073a2.793,2.793,0,0,1-1.5-.187,4.14,4.14,0,0,1-1.446-1,3.556,3.556,0,0,1-1.194-2.342,3.2,3.2,0,0,1,1.107-2.291l4.042-4.068c.589.583.881.877,1.461,1.467l-3.853,3.8a2.254,2.254,0,0,0-.769,1.373,1.733,1.733,0,0,0,.6,1.333,2.275,2.275,0,0,0,1.773.837,3.713,3.713,0,0,0,2.113-1.19l3.179-3c.565.6.845.9,1.4,1.5l-6.444,5.954C725.648,217.087,725.438,216.862,725.017,216.413Z" transform="translate(-708.381 -192.899)" fill="#666" />
                <path id="Pfad_1031" data-name="Pfad 1031" d="M730.9,223.3a3.329,3.329,0,0,1-.885-2.807,5.189,5.189,0,0,1,1.832-2.96,5.009,5.009,0,0,1,3.173-1.493,3.451,3.451,0,0,1,2.769,1.326,3.363,3.363,0,0,1,.9,3.019l.067.079a10.348,10.348,0,0,1,1.046-1.073l2.444-2.061c.538.638.806.959,1.337,1.6l-9.518,7.859c-.389-.472-.584-.706-.977-1.175.266-.4.4-.6.661-1l-.06-.07A3.232,3.232,0,0,1,730.9,223.3Zm1.484-.589a2.23,2.23,0,0,0,1.641.925,3.286,3.286,0,0,0,1.973-.916l.2-.168a3.691,3.691,0,0,0,1.425-1.965,2.246,2.246,0,0,0-.663-1.849,1.9,1.9,0,0,0-1.681-.718,4.783,4.783,0,0,0-3.392,2.955A1.89,1.89,0,0,0,732.383,222.714Z" transform="translate(-709.405 -194.171)" fill="#666" />
                <path id="Pfad_1032" data-name="Pfad 1032" d="M742.063,223.2c.561.69.839,1.035,1.393,1.731-1.072,1.849-1.615,2.767-2.716,4.59a8.764,8.764,0,0,1-1.228,1.678l.041.054a7.982,7.982,0,0,1,1.007-.428c.411-.147,2.4-.8,6.018-1.863.53.7.793,1.057,1.314,1.765-4.173,1.04-6.242,1.6-10.344,2.785-1.877.551-3.306.194-4.323-1.08a5.8,5.8,0,0,1-.67-1.047c.459-.371.689-.557,1.147-.929a4.762,4.762,0,0,0,.548.831,2.041,2.041,0,0,0,2.445.57l.859-.242C739.411,228.29,740.314,226.607,742.063,223.2Z" transform="translate(-709.716 -195.03)" fill="#666" />
                <path id="Pfad_1033" data-name="Pfad 1033" d="M750.872,241.367l-3.841,2.589c-.442-.656-.664-.983-1.114-1.635l9.549-6.581c.823,1.195,1.229,1.795,2.03,3a6.205,6.205,0,0,1,1.293,3.533,2.882,2.882,0,0,1-1.513,2.355,3.241,3.241,0,0,1-3.908-.391c-.963,2.293-1.46,3.426-2.483,5.669-.475-.765-.714-1.145-1.2-1.9.941-1.972,1.4-2.968,2.295-4.977C751.542,242.363,751.32,242.031,750.872,241.367Zm1.3-.877c.317.47.474.706.787,1.178a3.5,3.5,0,0,0,1.547,1.46,1.733,1.733,0,0,0,1.576-.252,1.519,1.519,0,0,0,.805-1.355,4.087,4.087,0,0,0-.806-2.009c-.3-.458-.458-.687-.765-1.143Z" transform="translate(-711.322 -196.538)" fill="#666" />
                <path id="Pfad_1034" data-name="Pfad 1034" d="M756.052,258.619c-1.336-2.384-2.025-3.564-3.446-5.9,3.964-2.411,5.944-3.615,9.907-6.027,1.508,2.477,2.239,3.73,3.656,6.259l-1.4.784c-1-1.784-1.511-2.67-2.555-4.428l-2.714,1.613c.964,1.622,1.436,2.439,2.361,4.083l-1.383.777c-.917-1.63-1.385-2.441-2.341-4.05l-3.129,1.86c1,1.685,1.49,2.534,2.448,4.242Z" transform="translate(-712.126 -197.855)" fill="#666" />
                <path id="Pfad_1035" data-name="Pfad 1035" d="M761.291,269.117c.942-1,1.411-1.506,2.344-2.521-.84-1.679-1.27-2.514-2.151-4.172-1.364.179-2.044.274-3.4.468-.4-.733-.594-1.1-1-1.826,4.951-.672,7.443-.955,12.46-1.415.422.808.631,1.213,1.043,2.025-3.282,3.821-4.96,5.687-8.381,9.328C761.845,270.247,761.662,269.87,761.291,269.117Zm3.566-3.729c.919-.983,1.376-1.477,2.286-2.472q.224-.26.726-.775t.744-.738a17.621,17.621,0,0,1-2.21.374c-1.282.155-1.921.236-3.2.4C763.877,263.457,764.208,264.1,764.857,265.388Z" transform="translate(-712.664 -199.413)" fill="#666" />
                <path id="Pfad_1036" data-name="Pfad 1036" d="M773.093,280.294a5.683,5.683,0,0,1-4.7.106,7.141,7.141,0,0,1-3.3-3.807c-.553-1.234-.833-1.849-1.407-3.073l10.5-4.921c.673,1.434,1,2.155,1.646,3.6a6.725,6.725,0,0,1,.508,4.947A5.248,5.248,0,0,1,773.093,280.294Zm-.879-1.961c2.561-1.075,3.3-2.931,2.145-5.532-.293-.658-.441-.986-.74-1.642l-7.658,3.492c.235.516.352.774.583,1.292C767.741,278.62,769.6,279.431,772.214,278.333Z" transform="translate(-713.458 -200.488)" fill="#666" />
                <path id="Pfad_1037" data-name="Pfad 1037" d="M771.09,291.482c3.17-2.632,4.738-3.979,7.833-6.737l-.026-.065q-1.961.907-3.727,1.577l-5.272,2.005c-.256-.671-.385-1.006-.647-1.675l10.8-4.226c.432,1.1.643,1.655,1.058,2.763-2.956,2.631-4.452,3.917-7.475,6.432l.018.047c3.946.089,5.924.168,9.89.393.376,1.127.56,1.692.92,2.825-4.422,1.405-6.632,2.106-11.054,3.509-.23-.727-.348-1.089-.586-1.813l5.449-1.79q.821-.269,2.155-.658t1.623-.445l-.021-.067c-4.153-.245-6.224-.332-10.355-.428C771.444,292.469,771.327,292.139,771.09,291.482Z" transform="translate(-714.127 -202.143)" fill="#666" />
                <path id="Pfad_1038" data-name="Pfad 1038" d="M776.894,310.139c-.692-2.66-1.062-3.984-1.848-6.613,4.445-1.328,6.666-1.993,11.11-3.323.835,2.789,1.227,4.193,1.962,7.016l-1.551.4c-.518-1.991-.789-2.983-1.357-4.958l-3.034.874c.523,1.821.775,2.735,1.255,4.571l-1.534.4c-.477-1.82-.727-2.727-1.246-4.534l-3.5,1.007c.545,1.892.8,2.842,1.3,4.749Z" transform="translate(-714.824 -204.288)" fill="#666" />
                <path id="Pfad_1039" data-name="Pfad 1039" d="M778.707,313.562a1.175,1.175,0,0,1,.939.1,1.516,1.516,0,0,1,.425,1.807,1.191,1.191,0,0,1-.78.511,1.244,1.244,0,1,1-.583-2.415Z" transform="translate(-715.15 -205.887)" fill="#666" />
                <path id="Pfad_1040" data-name="Pfad 1040" d="M780.553,326.715c-.138-.777-.209-1.165-.355-1.939l5.316-1a2.3,2.3,0,0,0,1.4-.686,1.592,1.592,0,0,0,.238-1.37,2.038,2.038,0,0,0-1.03-1.552,3.839,3.839,0,0,0-2.4-.056l-4.278.9c-.161-.766-.243-1.15-.412-1.914l8.567-1.89c.137.626.205.94.339,1.567l-1.066.519.021.1a2.565,2.565,0,0,1,1.184.94,4,4,0,0,1,.662,1.581c.285,1.457.007,2.512-.814,3.147l.025.137a2.813,2.813,0,0,1,1.209,1.008,4.065,4.065,0,0,1,.655,1.7,3.39,3.39,0,0,1-.392,2.615,3.286,3.286,0,0,1-2.279,1.132l-5.658.83c-.114-.779-.173-1.167-.3-1.945l5.345-.839a2.272,2.272,0,0,0,1.419-.649,1.605,1.605,0,0,0,.279-1.369,2.085,2.085,0,0,0-.961-1.6,3.268,3.268,0,0,0-2.146-.176Z" transform="translate(-715.303 -206.331)" fill="#666" />
                <path id="Pfad_1041" data-name="Pfad 1041" d="M782.623,341.54a4.762,4.762,0,0,1,.784-3.513,4.406,4.406,0,0,1,3.1-1.656,4.653,4.653,0,0,1,3.5.715,4.214,4.214,0,0,1,1.608,3.081,4.155,4.155,0,0,1-.734,3.13,3.778,3.778,0,0,1-2.786,1.372l-1,.091c-.23-2.523-.365-3.781-.677-6.288a2.783,2.783,0,0,0-1.858.975,2.7,2.7,0,0,0-.458,2.023,8.09,8.09,0,0,0,.308,1.521,8.969,8.969,0,0,0,.636,1.487l-1.508.141a6.57,6.57,0,0,1-.6-1.415A10.188,10.188,0,0,1,782.623,341.54Zm7.591-1.215a2.143,2.143,0,0,0-.74-1.489,2.542,2.542,0,0,0-1.714-.494c.213,1.719.31,2.58.485,4.308a2.284,2.284,0,0,0,1.579-.738A2.056,2.056,0,0,0,790.214,340.325Z" transform="translate(-715.729 -208.628)" fill="#666" />
            </g>
        </g>
        <g id="Gruppe_637" data-name="Gruppe 637" transform="translate(473.334 136.404)">
            <g id="Gruppe_636" data-name="Gruppe 636" transform="translate(0 0)">
                <path id="Pfad_1042" data-name="Pfad 1042" d="M517.687,159.926c-1.212-5.057-1.82-7.583-3.034-12.639.889-.214,1.333-.318,2.223-.523,1.164,5.068,1.747,7.6,2.91,12.669C518.946,159.626,518.527,159.724,517.687,159.926Z" transform="translate(-514.653 -140.015)" fill="#666" />
                <path id="Pfad_1043" data-name="Pfad 1043" d="M532.415,157.2c-.837.145-1.255.219-2.09.372-.435-2.38-.653-3.568-1.087-5.947a2.557,2.557,0,0,0-.777-1.585,1.889,1.889,0,0,0-1.6-.267,2.459,2.459,0,0,0-1.845,1.16,4.159,4.159,0,0,0-.1,2.7c.392,1.921.588,2.88.98,4.8-.83.17-1.245.256-2.073.434-.824-3.846-1.236-5.769-2.06-9.615.677-.145,1.016-.216,1.7-.356.225.48.338.721.562,1.2l.11-.022a2.985,2.985,0,0,1,1.092-1.328,4.607,4.607,0,0,1,1.81-.741c2.453-.465,3.887.515,4.3,2.881C531.759,153.409,531.978,154.672,532.415,157.2Z" transform="translate(-515.507 -140.15)" fill="#666" />
                <path id="Pfad_1044" data-name="Pfad 1044" d="M543.168,152.764a2.575,2.575,0,0,1-.773,2.33,5.235,5.235,0,0,1-2.9,1.183,7.489,7.489,0,0,1-3.246-.1c-.115-.713-.173-1.069-.288-1.782a8.327,8.327,0,0,0,3.373.289c1.293-.19,1.889-.661,1.782-1.431a.9.9,0,0,0-.3-.585,2.519,2.519,0,0,0-.786-.412,11.851,11.851,0,0,0-1.472-.4,6.767,6.767,0,0,1-2.547-.94,2.4,2.4,0,0,1-.888-1.587,2.2,2.2,0,0,1,.746-2.1,5.2,5.2,0,0,1,2.784-1.125,8.34,8.34,0,0,1,3.522.227c-.2.661-.3.992-.5,1.653a7.661,7.661,0,0,0-2.866-.267c-1.144.165-1.667.565-1.573,1.186a.943.943,0,0,0,.56.706,10.664,10.664,0,0,0,2.062.589,8.731,8.731,0,0,1,1.929.605,2.583,2.583,0,0,1,.954.786A2.551,2.551,0,0,1,543.168,152.764Z" transform="translate(-517.109 -139.925)" fill="#666" />
                <path id="Pfad_1045" data-name="Pfad 1045" d="M550.463,152.957a5.428,5.428,0,0,0,1.524-.389c.059.626.088.94.147,1.566a4.282,4.282,0,0,1-.872.338,6.466,6.466,0,0,1-1.129.216c-1.986.2-3.1-.709-3.34-2.783-.245-2.105-.369-3.158-.614-5.264-.559.065-.838.1-1.4.167-.046-.367-.068-.551-.113-.918.563-.377.846-.566,1.415-.94.2-.861.3-1.292.513-2.152.545-.062.818-.092,1.365-.15.092.869.139,1.3.232,2.174,1.174-.126,1.76-.185,2.936-.295.059.63.088.945.148,1.576-1.167.11-1.751.168-2.916.293.224,2.093.335,3.141.56,5.235a1.465,1.465,0,0,0,.5,1.07A1.432,1.432,0,0,0,550.463,152.957Z" transform="translate(-518.261 -139.52)" fill="#666" />
                <path id="Pfad_1046" data-name="Pfad 1046" d="M561.475,153.862c-.2-.538-.3-.806-.5-1.343l-.072,0a4.135,4.135,0,0,1-1.369,1.309,4.687,4.687,0,0,1-1.838.452,3.226,3.226,0,0,1-2.338-.6,2.926,2.926,0,0,1-1.013-2.136,2.56,2.56,0,0,1,.958-2.385,6.707,6.707,0,0,1,3.486-1.106c.7-.069,1.051-.1,1.753-.164-.013-.21-.018-.314-.032-.524a1.933,1.933,0,0,0-.541-1.38,1.914,1.914,0,0,0-1.454-.375,5.021,5.021,0,0,0-1.5.329,11.117,11.117,0,0,0-1.348.629c-.329-.573-.494-.859-.826-1.431a7.632,7.632,0,0,1,1.786-.779,8.61,8.61,0,0,1,1.873-.351,4.545,4.545,0,0,1,3.023.638,3.107,3.107,0,0,1,1.128,2.515c.13,2.647.2,3.971.327,6.617C562.376,153.812,562.075,153.828,561.475,153.862Zm-3.231-1.22a2.687,2.687,0,0,0,1.811-.758,2.291,2.291,0,0,0,.594-1.822c-.02-.34-.031-.511-.05-.852-.517.052-.776.078-1.293.133a4.456,4.456,0,0,0-2.17.646,1.485,1.485,0,0,0-.582,1.4,1.312,1.312,0,0,0,.476.986A1.745,1.745,0,0,0,558.243,152.641Z" transform="translate(-519.422 -139.682)" fill="#666" />
                <path id="Pfad_1047" data-name="Pfad 1047" d="M569.536,153.014c-.843.022-1.264.035-2.106.065-.2-5.53-.3-8.3-.5-13.826.895-.033,1.343-.047,2.237-.07C569.317,144.711,569.389,147.482,569.536,153.014Z" transform="translate(-520.938 -139.104)" fill="#666" />
                <path id="Pfad_1048" data-name="Pfad 1048" d="M575.4,152.928c-.843,0-1.263.006-2.106.017-.071-5.534-.1-8.305-.174-13.834.9-.011,1.343-.015,2.238-.018C575.37,144.622,575.377,147.394,575.4,152.928Z" transform="translate(-521.681 -139.093)" fill="#666" />
                <path id="Pfad_1049" data-name="Pfad 1049" d="M589.165,153.372c-.856-.047-1.284-.068-2.141-.106.2-4.465.3-6.7.494-11.166-1.619-.071-2.429-.1-4.048-.143l.048-1.821c4.172.112,6.256.214,10.421.512-.053.727-.078,1.09-.13,1.818-1.616-.115-2.425-.166-4.043-.254C589.526,146.675,589.4,148.908,589.165,153.372Z" transform="translate(-522.926 -139.218)" fill="#666" />
                <path id="Pfad_1050" data-name="Pfad 1050" d="M605.651,150.268a5.367,5.367,0,0,1-1.693,3.59,4.6,4.6,0,0,1-3.6.976,4.91,4.91,0,0,1-2.392-.847,4.208,4.208,0,0,1-1.5-1.92,6.014,6.014,0,0,1-.37-2.741,5.141,5.141,0,0,1,1.568-3.621,4.719,4.719,0,0,1,3.744-1.008,4.6,4.6,0,0,1,3.389,1.742A5.123,5.123,0,0,1,605.651,150.268Zm-7.345-.761c-.2,2.264.554,3.463,2.25,3.63,1.679.165,2.64-.865,2.889-3.123.245-2.233-.5-3.451-2.243-3.622a2.251,2.251,0,0,0-2.066.68A4.285,4.285,0,0,0,598.306,149.507Z" transform="translate(-524.441 -139.762)" fill="#666" />
                <path id="Pfad_1051" data-name="Pfad 1051" d="M618.576,152.122a5.353,5.353,0,0,1-1.877,3.5,4.6,4.6,0,0,1-3.655.789,4.908,4.908,0,0,1-2.35-.969,4.21,4.21,0,0,1-1.4-1.993,6.019,6.019,0,0,1-.231-2.756,5.139,5.139,0,0,1,1.753-3.537,4.729,4.729,0,0,1,3.795-.815,4.605,4.605,0,0,1,3.3,1.914A5.107,5.107,0,0,1,618.576,152.122Zm-7.308-1.136c-.312,2.25.377,3.487,2.067,3.74,1.67.252,2.685-.728,3.048-2.971.359-2.216-.326-3.472-2.06-3.732a2.254,2.254,0,0,0-2.1.574A4.277,4.277,0,0,0,611.268,150.986Z" transform="translate(-525.995 -139.954)" fill="#666" />
                <path id="Pfad_1052" data-name="Pfad 1052" d="M623.729,157.47c-.831-.161-1.247-.24-2.079-.393,1-5.443,1.5-8.165,2.5-13.608.884.163,1.327.246,2.21.417C625.307,149.32,624.782,152.035,623.729,157.47Z" transform="translate(-527.515 -139.619)" fill="#666" />
                <path id="Pfad_1053" data-name="Pfad 1053" d="M634.5,157.532a2.578,2.578,0,0,1-1.555,1.9,5.273,5.273,0,0,1-3.144.073,7.5,7.5,0,0,1-3.005-1.249c.145-.707.217-1.061.362-1.768a8.369,8.369,0,0,0,3.059,1.47c1.28.282,2.007.055,2.181-.7a.9.9,0,0,0-.075-.655,2.546,2.546,0,0,0-.591-.664,12.059,12.059,0,0,0-1.239-.895,6.771,6.771,0,0,1-2.055-1.784,2.4,2.4,0,0,1-.268-1.8,2.2,2.2,0,0,1,1.446-1.7,5.218,5.218,0,0,1,3.011-.061,8.435,8.435,0,0,1,3.227,1.467c-.425.546-.637.82-1.057,1.367a7.72,7.72,0,0,0-2.594-1.271c-1.133-.252-1.766-.065-1.9.549a.945.945,0,0,0,.274.86,10.69,10.69,0,0,0,1.725,1.284,8.757,8.757,0,0,1,1.6,1.254,2.6,2.6,0,0,1,.617,1.073A2.535,2.535,0,0,1,634.5,157.532Z" transform="translate(-528.134 -140.345)" fill="#666" />
            </g>
        </g>
        <g id="Gruppe_639" data-name="Gruppe 639" transform="translate(337.333 220.989)">
            <g id="Gruppe_638" data-name="Gruppe 638">
                <path id="Pfad_1054" data-name="Pfad 1054" d="M367.868,320.344l4.863,1.121c-.186.808-.276,1.212-.452,2.023-4.885-1.061-7.325-1.593-12.211-2.655.327-1.505.5-2.255.859-3.751a6.46,6.46,0,0,1,1.826-3.551,3.12,3.12,0,0,1,2.964-.5,3.486,3.486,0,0,1,2.563,3.324c2.508-.886,3.765-1.3,6.279-2.089-.252.907-.375,1.361-.614,2.272-2.239.665-3.358,1.017-5.593,1.759C368.154,319.113,368.057,319.523,367.868,320.344Zm-1.649-.38c.134-.583.2-.875.341-1.457a3.634,3.634,0,0,0,.008-2.246,1.883,1.883,0,0,0-1.356-1.048,1.644,1.644,0,0,0-1.658.343,4.244,4.244,0,0,0-.984,2.071c-.135.567-.2.852-.333,1.419Z" transform="translate(-360.069 -244.568)" fill="#666" />
                <path id="Pfad_1055" data-name="Pfad 1055" d="M377.79,304.746l-1.265-.119c-.013.04-.02.059-.033.1a2.923,2.923,0,0,1,.608,1.47,4.16,4.16,0,0,1-.18,1.815,3.61,3.61,0,0,1-1.567,2.24,3.537,3.537,0,0,1-2.729.109l-5.937-1.708c.239-.832.361-1.248.61-2.076l5.582,1.679a2.5,2.5,0,0,0,1.69.033,1.77,1.77,0,0,0,.938-1.2,2.319,2.319,0,0,0-.143-2.039,4.1,4.1,0,0,0-2.218-1.37l-4.473-1.472c.27-.817.406-1.226.685-2.04l8.942,3.064C378.094,303.837,377.992,304.139,377.79,304.746Z" transform="translate(-360.865 -243.041)" fill="#666" />
                <path id="Pfad_1056" data-name="Pfad 1056" d="M382.818,291.292c-.315.75-.47,1.126-.776,1.881l-5.385-2.185a2.444,2.444,0,0,0-1.687-.185,1.83,1.83,0,0,0-1.044,1.172,2.373,2.373,0,0,0-.006,2.1,3.972,3.972,0,0,0,2.14,1.467l4.409,1.658c-.285.758-.426,1.139-.7,1.9-3.555-1.289-5.332-1.931-8.888-3.218.229-.631.344-.946.578-1.574l1.267.154.038-.1a2.878,2.878,0,0,1-.518-1.576,4.488,4.488,0,0,1,.333-1.864c.89-2.249,2.434-2.912,4.562-2.019Z" transform="translate(-361.368 -241.641)" fill="#666" />
                <path id="Pfad_1057" data-name="Pfad 1057" d="M375.148,276.7c.689-1.453,1.041-2.175,1.762-3.612a7.765,7.765,0,0,1,2.517-3.238,2.556,2.556,0,0,1,2.676.034,2.789,2.789,0,0,1,1.321,1.387,2.716,2.716,0,0,1,.011,1.936l.076.04a3.358,3.358,0,0,1,1.811-1.328,2.869,2.869,0,0,1,2.046.375,3.215,3.215,0,0,1,1.753,2.3,5.308,5.308,0,0,1-.68,3.372c-.824,1.622-1.226,2.44-2.005,4.084Zm5.6.275c.363-.743.547-1.114.92-1.852a3.783,3.783,0,0,0,.536-1.94,1.526,1.526,0,0,0-.936-1.191,1.351,1.351,0,0,0-1.443.014,4.4,4.4,0,0,0-1.335,1.751c-.341.678-.51,1.019-.844,1.7Zm1.489.728,3.554,1.739c.389-.794.586-1.19.984-1.98a3.366,3.366,0,0,0,.464-1.98,1.8,1.8,0,0,0-1.064-1.313,1.614,1.614,0,0,0-1.6-.058,3.709,3.709,0,0,0-1.38,1.661C382.806,276.539,382.614,276.925,382.235,277.7Z" transform="translate(-361.882 -239.352)" fill="#666" />
                <path id="Pfad_1058" data-name="Pfad 1058" d="M396.219,264.758c-.481-.163-.722-.244-1.205-.4l-.055.089a2.932,2.932,0,0,1,.258,1.57,4.161,4.161,0,0,1-.587,1.724,3.6,3.6,0,0,1-2.036,1.817,3.538,3.538,0,0,1-2.68-.519l-5.39-3.019c.421-.753.635-1.129,1.066-1.877,2.02,1.165,3.03,1.746,5.05,2.909a2.493,2.493,0,0,0,1.637.42,1.762,1.762,0,0,0,1.186-.95,2.315,2.315,0,0,0,.325-2.016,4.119,4.119,0,0,0-1.848-1.84l-4.018-2.456c.449-.734.675-1.1,1.132-1.828l8.007,5.026C396.721,263.944,396.553,264.214,396.219,264.758Z" transform="translate(-363.009 -238.017)" fill="#666" />
                <path id="Pfad_1059" data-name="Pfad 1059" d="M389.008,253.711a1.061,1.061,0,0,1-.519-.721,1.307,1.307,0,0,1,.26-.926,1.279,1.279,0,0,1,.739-.587,1.212,1.212,0,0,1,1.361.911,1.267,1.267,0,0,1-.245.9,1.3,1.3,0,0,1-.745.6A1.054,1.054,0,0,1,389.008,253.711Zm11.206,4.73c-.451.675-.676,1.014-1.119,1.694l-7.918-5.163c.468-.718.7-1.077,1.182-1.789C395.5,255.287,397.072,256.337,400.214,258.441Z" transform="translate(-363.484 -237.184)" fill="#666" />
                <path id="Pfad_1060" data-name="Pfad 1060" d="M403.355,253.727c-.472.662-.706,1-1.17,1.662-4.368-3.037-6.552-4.551-10.921-7.59.5-.72.754-1.079,1.263-1.793C396.859,249.1,399.024,250.637,403.355,253.727Z" transform="translate(-363.819 -236.53)" fill="#666" />
                <path id="Pfad_1061" data-name="Pfad 1061" d="M408.115,247.607a3.428,3.428,0,0,1-2.714,1.462,5.732,5.732,0,0,1-3.5-1.317,5.486,5.486,0,0,1-2.282-3,3.576,3.576,0,0,1,.758-3.149,3.5,3.5,0,0,1,2.953-1.536c.027-.034.041-.051.068-.085a11.531,11.531,0,0,1-1.352-.881l-2.693-2.148c.551-.691.828-1.035,1.387-1.719,4.117,3.37,6.178,5.047,10.3,8.418-.4.494-.605.742-1,1.24-.476-.2-.714-.3-1.19-.5l-.06.076A3.346,3.346,0,0,1,408.115,247.607Zm-.95-1.427a2.3,2.3,0,0,0,.591-1.885,3.618,3.618,0,0,0-1.394-1.877l-.22-.175a4.039,4.039,0,0,0-2.367-1.1,2.322,2.322,0,0,0-1.782,1.056,1.966,1.966,0,0,0-.37,1.894,5.287,5.287,0,0,0,3.849,2.944A1.958,1.958,0,0,0,407.165,246.18Z" transform="translate(-364.791 -235.235)" fill="#666" />
            </g>
        </g>
        <g id="Gruppe_641" data-name="Gruppe 641" transform="translate(493.732 506.957)">
            <g id="Gruppe_640" data-name="Gruppe 640">
                <path id="Pfad_1062" data-name="Pfad 1062" d="M544.121,572.131a3.5,3.5,0,0,0-2.8.965,4.785,4.785,0,0,0-1.287,3.076,4.515,4.515,0,0,0,.682,3.255,3.558,3.558,0,0,0,2.763,1.267,8.031,8.031,0,0,0,1.577-.059c.509-.07,1.043-.17,1.6-.3-.038.642-.056.963-.094,1.606a10.222,10.222,0,0,1-3.453.332,5.577,5.577,0,0,1-4.178-1.825,5.828,5.828,0,0,1-1.036-4.473,6.807,6.807,0,0,1,1.029-3.056,5.061,5.061,0,0,1,2.208-1.887,6.592,6.592,0,0,1,3.125-.508,8.228,8.228,0,0,1,3.376.908c-.32.612-.482.918-.807,1.528a11.568,11.568,0,0,0-1.275-.545A5.107,5.107,0,0,0,544.121,572.131Z" transform="translate(-537.838 -561.507)" fill="#666" />
                <path id="Pfad_1063" data-name="Pfad 1063" d="M552.683,582.4c-.825-.018-1.238-.029-2.062-.055.222-4.878.332-7.318.553-12.2.773.025,1.16.035,1.934.052C552.938,575.084,552.853,577.525,552.683,582.4Z" transform="translate(-539.375 -561.464)" fill="#666" />
                <path id="Pfad_1064" data-name="Pfad 1064" d="M564.744,578.463a4.442,4.442,0,0,1-1.13,3.352,4.577,4.577,0,0,1-3.373,1.255,4.918,4.918,0,0,1-2.4-.536,3.672,3.672,0,0,1-1.57-1.583,4.868,4.868,0,0,1-.5-2.389,4.583,4.583,0,0,1,1.238-3.284,4.5,4.5,0,0,1,3.276-1.195,4.284,4.284,0,0,1,3.2,1.151A4.477,4.477,0,0,1,564.744,578.463Zm-6.9.112c-.024,2,.786,3.009,2.429,2.99,1.624-.018,2.424-1.042,2.4-3.044-.026-1.98-.832-2.948-2.419-2.931a2.141,2.141,0,0,0-1.817.781A3.72,3.72,0,0,0,557.845,578.574Z" transform="translate(-539.993 -561.937)" fill="#666" />
                <path id="Pfad_1065" data-name="Pfad 1065" d="M577.238,582.112c-.823.07-1.235.1-2.06.165-.147-2.126-.221-3.189-.368-5.316a2.209,2.209,0,0,0-.537-1.462,1.758,1.758,0,0,0-1.409-.4,2.319,2.319,0,0,0-1.8.8,3.62,3.62,0,0,0-.474,2.341c.081,1.726.121,2.589.2,4.315-.822.044-1.234.064-2.057.1-.126-3.465-.188-5.2-.314-8.663.616-.027.924-.041,1.54-.073.129.448.2.673.327,1.121l.1-.005a2.779,2.779,0,0,1,1.145-1.023,4.326,4.326,0,0,1,1.686-.444c2.214-.151,3.4.8,3.571,2.911C576.968,578.733,577.058,579.859,577.238,582.112Z" transform="translate(-541.514 -561.873)" fill="#666" />
                <path id="Pfad_1066" data-name="Pfad 1066" d="M585.771,581.426a4.862,4.862,0,0,1-3.63-.786,4.168,4.168,0,0,1-1.557-3.11,4.751,4.751,0,0,1,.825-3.436,4.135,4.135,0,0,1,2.966-1.544,4.031,4.031,0,0,1,3,.678,3.847,3.847,0,0,1,1.445,2.7c.054.394.08.591.134.986-2.506.342-3.761.494-6.276.759a2.662,2.662,0,0,0,.948,1.848,2.752,2.752,0,0,0,2.068.447,7.855,7.855,0,0,0,1.556-.337,8.586,8.586,0,0,0,1.5-.682c.078.593.118.889.2,1.482a6.583,6.583,0,0,1-1.451.648A9.8,9.8,0,0,1,585.771,581.426Zm-1.238-7.49a2.1,2.1,0,0,0-1.443.723,2.572,2.572,0,0,0-.51,1.686c1.7-.18,2.55-.279,4.248-.494a2.292,2.292,0,0,0-.756-1.544A1.994,1.994,0,0,0,584.533,573.935Z" transform="translate(-542.973 -561.747)" fill="#666" />
                <path id="Pfad_1067" data-name="Pfad 1067" d="M599.77,574.166c.333,1.8.5,2.7.832,4.5-.824.149-1.236.222-2.061.363-.785-4.514-1.176-6.771-1.962-11.287,1.342-.23,2.012-.35,3.35-.6a6.029,6.029,0,0,1,3.561.143,2.949,2.949,0,0,1,1.638,2.219,3.1,3.1,0,0,1-1.72,3.467c1.79,1.709,2.7,2.555,4.562,4.225-.931.2-1.4.3-2.33.5-1.581-1.542-2.359-2.321-3.886-3.892C600.961,573.948,600.564,574.022,599.77,574.166Zm-.282-1.526c.554-.1.831-.151,1.385-.256a3.347,3.347,0,0,0,1.918-.867,1.689,1.689,0,0,0,.33-1.537,1.534,1.534,0,0,0-.946-1.233,3.965,3.965,0,0,0-2.076-.03c-.516.1-.774.145-1.291.239C599.079,570.431,599.216,571.168,599.488,572.641Z" transform="translate(-544.899 -561.079)" fill="#666" />
                <path id="Pfad_1068" data-name="Pfad 1068" d="M615.269,576.05a4.91,4.91,0,0,1-3.714-.325,4.208,4.208,0,0,1-1.967-2.884,4.7,4.7,0,0,1,.357-3.505,4.675,4.675,0,0,1,5.82-1.606,3.882,3.882,0,0,1,1.8,2.492l.267.96c-2.447.653-3.675.961-6.139,1.539a2.69,2.69,0,0,0,1.191,1.711,2.78,2.78,0,0,0,2.116.183,7.863,7.863,0,0,0,1.5-.529,8.475,8.475,0,0,0,1.4-.863c.159.577.238.867.4,1.444a6.549,6.549,0,0,1-1.355.823A9.916,9.916,0,0,1,615.269,576.05Zm-2.24-7.262a2.081,2.081,0,0,0-1.338.9,2.551,2.551,0,0,0-.28,1.733c1.667-.392,2.5-.6,4.158-1.021a2.32,2.32,0,0,0-.96-1.434A2.021,2.021,0,0,0,613.029,568.788Z" transform="translate(-546.442 -561.118)" fill="#666" />
                <path id="Pfad_1069" data-name="Pfad 1069" d="M627.181,572.716a3.536,3.536,0,0,1-3.085-.32l-.118.034q.436,1.019.5,1.243l1.027,3.4c-.808.233-1.212.348-2.022.574-1.4-4.812-2.1-7.22-3.5-12.032.614-.172.92-.258,1.533-.434q.135.215.6,1.035l.1-.028a3.169,3.169,0,0,1,2.268-2.048,3.425,3.425,0,0,1,2.954.312,5.137,5.137,0,0,1,1.99,2.829,4.837,4.837,0,0,1,.091,3.457A3.449,3.449,0,0,1,627.181,572.716Zm-2.727-6.992a2.144,2.144,0,0,0-1.467,1.107,3.127,3.127,0,0,0,.07,2.119l.079.263a3.761,3.761,0,0,0,1.2,2.041,2.173,2.173,0,0,0,1.952.16,1.862,1.862,0,0,0,1.324-1.226,3.69,3.69,0,0,0-.15-2.294,3.731,3.731,0,0,0-1.219-1.933A1.944,1.944,0,0,0,624.453,565.724Z" transform="translate(-547.714 -560.718)" fill="#666" />
                <path id="Pfad_1070" data-name="Pfad 1070" d="M641.064,563.251a4.332,4.332,0,0,1,.107,3.512,4.485,4.485,0,0,1-2.756,2.283,5.025,5.025,0,0,1-2.461.283,3.808,3.808,0,0,1-2.044-.97,4.944,4.944,0,0,1-1.316-2.075,4.475,4.475,0,0,1,.014-3.482,5.084,5.084,0,0,1,6.124-2.164A4.6,4.6,0,0,1,641.064,563.251Zm-6.5,2.366c.683,1.884,1.8,2.563,3.354,2.007,1.534-.549,1.932-1.771,1.2-3.638-.722-1.848-1.829-2.489-3.327-1.953a2.089,2.089,0,0,0-1.446,1.327A3.654,3.654,0,0,0,634.563,565.616Z" transform="translate(-549.188 -560.277)" fill="#666" />
            </g>
        </g>
    </g>
</svg>
