<?xml version="1.0" encoding="UTF-8"?>
<!DOCTYPE svg PUBLIC "-//W3C//DTD SVG 1.1//EN" "http://www.w3.org/Graphics/SVG/1.1/DTD/svg11.dtd">
<svg version="1.1" xmlns="http://www.w3.org/2000/svg" xmlns:xlink="http://www.w3.org/1999/xlink" x="0" y="0" width="355.543" height="354.432" viewBox="0, 0, 355.543, 354.432"
    stroke="#1aa6e4"
    >
  <g id="Layer_1" transform="translate(-29.866, -30.839)">
    <path d="M48.706,384.271 C40.253,380.612 34.546,373.67 34.546,365.706 C34.546,361.626 34.595,357.536 34.595,353.452 C35.862,354.943 38.414,355.962 41.355,355.962 C44.875,355.962 47.835,354.504 48.707,352.523 C49.578,354.504 52.538,355.962 56.058,355.962 C59,355.962 61.551,354.943 62.819,353.452 C62.819,357.536 62.867,361.626 62.867,365.706 C62.867,373.67 57.16,380.612 48.706,384.271 z M42.754,367.526 L48.236,373.878 L55.99,362.029 M286.734,245.012 L320.138,245.012 L320.138,227.591 L286.734,227.591 z M303.436,241.971 C305.784,241.971 307.688,239.432 307.688,236.301 C307.688,233.17 305.784,230.632 303.436,230.632 C301.088,230.632 299.184,233.17 299.184,236.301 C299.184,239.432 301.088,241.971 303.436,241.971 z M292.818,244.244 C292.818,241.348 290.47,239.001 287.575,239.001 M314.054,244.244 C314.054,241.348 316.401,239.001 319.297,239.001 M292.818,228.359 C292.818,231.254 290.47,233.602 287.575,233.602 M314.054,228.359 C314.054,231.254 316.401,233.602 319.297,233.602 M294.921,237.401 C295.528,237.401 296.02,236.908 296.02,236.301 C296.02,235.694 295.528,235.202 294.921,235.202 C294.314,235.202 293.822,235.694 293.822,236.301 C293.822,236.908 294.314,237.401 294.921,237.401 z M311.935,237.401 C312.542,237.401 313.034,236.908 313.034,236.301 C313.034,235.694 312.542,235.202 311.935,235.202 C311.328,235.202 310.836,235.694 310.836,236.301 C310.836,236.908 311.328,237.401 311.935,237.401 z M286.853,249.07 L320.019,249.07 M286.853,252.988 L320.019,252.988 M286.853,256.906 L320.019,256.906 M240.062,358.765 L241.982,354.135 M238.238,358.711 L237.866,356.186 M239.753,365.407 L239.753,367.506 M239.753,376.662 L239.753,378.761 M242.796,368.601 C241.829,368.28 240.957,367.977 240.081,367.879 C235.366,367.349 234.761,372.099 239.781,372.084 C244.659,372.069 244.199,376.824 239.473,376.289 C238.598,376.19 237.725,375.886 236.765,375.567 M242.368,358.527 L242.447,358.478 C243.009,357.411 244.782,355.444 245.298,353.86 C246.979,348.694 237.839,353.407 232.587,352.332 C232.076,352.228 234.985,355.6 236.227,358.527 M236.123,359.036 L242.723,359.036 C244.924,359.036 248.054,361.586 250.633,364.623 C254.359,369.009 258.711,379.754 251.675,383.286 C249.196,384.531 245.326,384.242 239.761,384.242 C233.832,384.242 229.961,384.492 227.574,383.153 C221.146,379.548 224.882,368.72 228.551,364.324 C230.962,361.437 233.922,359.036 236.123,359.036 z M366.841,108.943 L366.841,111.042 M366.841,120.198 L366.841,122.297 M369.884,112.137 C368.917,111.816 368.045,111.513 367.17,111.415 C362.454,110.885 361.849,115.635 366.869,115.62 C371.747,115.605 371.288,120.36 366.561,119.825 C365.686,119.726 364.813,119.423 363.853,119.104 M366.842,101.699 C374.53,101.699 380.763,107.931 380.763,115.62 C380.763,123.309 374.53,129.542 366.842,129.542 C359.153,129.542 352.92,123.309 352.92,115.62 C352.92,107.931 359.153,101.699 366.842,101.699 z M365.218,101.699 L365.218,98.545 M368.465,98.545 L368.465,101.699 M375.779,104.647 L379.28,101.145 L381.316,103.182 L377.815,106.683 M363.203,94.785 L370.481,94.785 C370.827,94.785 371.11,95.068 371.11,95.414 L371.11,97.557 C371.11,97.902 370.827,98.186 370.481,98.186 L363.203,98.186 C362.857,98.186 362.574,97.903 362.574,97.557 L362.574,95.414 C362.574,95.068 362.856,94.785 363.203,94.785 z M366.842,104.55 C372.955,104.55 377.912,109.506 377.912,115.62 C377.912,121.734 372.955,126.69 366.842,126.69 C360.728,126.69 355.772,121.734 355.772,115.62 C355.772,109.506 360.728,104.55 366.842,104.55 z M381.09,295.781 L378.643,295.781 C378.535,295.781 378.446,295.931 378.446,296.114 L378.446,300.251 C378.446,300.434 378.535,300.584 378.643,300.584 L381.09,300.584 C381.198,300.584 381.287,300.434 381.287,300.251 L381.287,296.114 C381.287,295.931 381.198,295.781 381.09,295.781 z M381.09,307.712 L378.643,307.712 C378.535,307.712 378.446,307.862 378.446,308.045 L378.446,312.182 C378.446,312.365 378.535,312.515 378.643,312.515 L381.09,312.515 C381.198,312.515 381.287,312.365 381.287,312.182 L381.287,308.045 C381.287,307.862 381.198,307.712 381.09,307.712 z" fill-opacity="0"  stroke-width="1.44" stroke-linecap="round" stroke-linejoin="round"/>
    <path d="M379.925,295.296 L379.925,293.115 C379.925,292.139 379.127,291.341 378.151,291.341 L356.086,291.341 C355.109,291.341 354.311,292.139 354.311,293.115 L354.311,315.18 C354.311,316.157 355.109,316.955 356.086,316.955 L378.151,316.955 C379.126,316.955 379.925,316.157 379.925,315.18 L379.925,312.71 M379.925,307.482 L379.925,301.101 M367.118,296.806 C363.063,296.806 359.776,300.093 359.776,304.148 C359.776,308.203 363.063,311.49 367.118,311.49 C371.173,311.49 374.46,308.203 374.46,304.148 C374.46,300.093 371.173,296.806 367.118,296.806 z M367.118,300.259 C364.97,300.259 363.23,302 363.23,304.148 C363.23,306.295 364.97,308.036 367.118,308.036 C369.266,308.036 371.007,306.295 371.007,304.148 C371.007,302 369.266,300.259 367.118,300.259 z M379.316,287.707 L354.92,287.707 C352.586,287.707 350.677,289.616 350.677,291.95 L350.677,316.346 C350.677,318.68 352.586,320.589 354.92,320.589 L379.316,320.589 C381.65,320.589 383.559,318.68 383.559,316.346 L383.559,291.95 C383.559,289.616 381.65,287.707 379.316,287.707 z M367.118,296.806 L367.118,298.564 M361.926,298.956 L363.17,300.2 M359.776,304.148 L361.535,304.148 M361.926,309.339 L363.17,308.096 M367.118,311.49 L367.118,309.731 M372.31,309.339 L371.066,308.096 M374.46,304.148 L372.701,304.148 M372.31,298.956 L371.066,300.2 M164.18,222.688 L187.963,222.688 C188.553,222.688 189.036,223.177 189.036,223.761 L189.036,255.834 C189.036,256.418 188.548,256.907 187.963,256.907 L164.18,256.907 C163.595,256.907 163.107,256.424 163.107,255.834 L163.107,223.761 C163.107,223.171 163.589,222.688 164.18,222.688 z M169.574,234.471 L169.574,240.374 M166.623,237.422 L172.526,237.422 M184.399,235.349 L180.224,239.523 M167.487,248.376 L171.661,252.55 M167.487,252.55 L171.661,248.376 M163.237,243.766 L188.906,243.766 M176.071,230.932 L176.071,256.6 M179.596,248.875 L185.498,248.875 M179.596,252.051 L185.498,252.051" fill-opacity="0"  stroke-width="1.44" stroke-linecap="round" stroke-linejoin="round"/>
    <path d="M179.739,234.66 C179.462,234.936 179.462,235.385 179.739,235.662 C180.016,235.938 180.464,235.938 180.741,235.662 C181.018,235.385 181.018,234.936 180.741,234.66 C180.464,234.383 180.016,234.383 179.739,234.66 z" fill="#000000"/>
    <path d="M179.739,234.66 C179.462,234.936 179.462,235.385 179.739,235.662 C180.016,235.938 180.464,235.938 180.741,235.662 C181.018,235.385 181.018,234.936 180.741,234.66 C180.464,234.383 180.016,234.383 179.739,234.66 z" fill-opacity="0"  stroke-width="1.44"/>
    <path d="M184.15,239.071 C183.873,239.347 183.873,239.796 184.15,240.073 C184.427,240.35 184.875,240.35 185.152,240.073 C185.429,239.796 185.429,239.347 185.152,239.071 C184.875,238.794 184.427,238.794 184.15,239.071 z" fill="#000000"/>
    <path d="M184.15,239.071 C183.873,239.347 183.873,239.796 184.15,240.073 C184.427,240.35 184.875,240.35 185.152,240.073 C185.429,239.796 185.429,239.347 185.152,239.071 C184.875,238.794 184.427,238.794 184.15,239.071 z" fill-opacity="0"  stroke-width="1.44"/>
    <path d="M163.237,230.626 L188.906,230.626 M224.021,193.224 L255.486,193.224 M225.73,184.276 L229.936,184.276 L229.936,193.163 L225.73,193.163 z M233.677,176.339 L237.883,176.339 L237.883,193.163 L233.677,193.163 z M241.624,183.425 L245.83,183.425 L245.83,193.163 L241.624,193.163 z M249.571,179.74 L253.777,179.74 L253.777,193.163 L249.571,193.163 z" fill-opacity="0"  stroke-width="1.44" stroke-linecap="round" stroke-linejoin="round"/>
    <path d="M227.833,174.337 C226.493,174.337 225.406,175.423 225.406,176.763 C225.406,178.103 226.493,179.189 227.833,179.189 C229.172,179.189 230.259,178.103 230.259,176.763 C230.259,175.423 229.172,174.337 227.833,174.337 z M235.78,166.267 C234.44,166.267 233.354,167.353 233.354,168.693 C233.354,170.033 234.44,171.119 235.78,171.119 C237.12,171.119 238.206,170.033 238.206,168.693 C238.206,167.353 237.12,166.267 235.78,166.267 z M243.727,173.485 C242.387,173.485 241.301,174.571 241.301,175.911 C241.301,177.25 242.387,178.337 243.727,178.337 C245.067,178.337 246.153,177.25 246.153,175.911 C246.153,174.571 245.067,173.485 243.727,173.485 z M251.674,169.814 C250.335,169.814 249.248,170.901 249.248,172.24 C249.248,173.58 250.335,174.666 251.674,174.666 C253.014,174.666 254.1,173.58 254.1,172.24 C254.1,170.901 253.014,169.814 251.674,169.814 z" fill-opacity="0"  stroke-width="1.44"/>
    <path d="M230.026,174.37 L233.776,170.67 M237.993,170.487 L241.778,173.952 M246.139,174.688 L248.991,173.301 M54.386,44.171 C53.486,47.295 51.035,49.57 48.707,49.684 C46.371,49.57 43.912,47.281 43.019,44.142 L42.578,44.21 C42.08,44.288 41.61,43.944 41.532,43.446 L41.1,40.669 C41.023,40.171 41.367,39.701 41.865,39.623 L42.178,39.575 C42.038,39.139 41.963,38.676 41.963,38.196 L41.963,37.173 C41.963,34.672 44.009,32.626 46.51,32.626 L47.052,32.626 C47.046,32.54 47.057,32.458 47.086,32.382 C47.365,31.645 49.23,31.668 51.251,32.433 C51.68,32.596 52.082,32.779 52.447,32.974 C54.09,33.662 55.253,35.288 55.253,37.173 L55.253,38.196 C55.253,38.676 55.178,39.139 55.038,39.575 L55.351,39.623 C55.849,39.701 56.193,40.171 56.116,40.669 L55.684,43.446 C55.606,43.944 55.136,44.288 54.638,44.21 L54.386,44.171 z M59.42,62.92 L54.504,62.92 M32.656,65.647 L31.84,58.223 L31.84,57.444 C31.84,55.709 33.596,54.708 35.061,54.411 C36.398,54.14 41.405,53.055 43.025,51.933 L43.124,51.918 L46.055,65.67 L47.814,56.598 L46.323,52.755 L51.135,52.755 L49.645,56.598 L51.355,65.67 L54.335,51.918 L54.434,51.933 C56.054,53.055 61.06,54.14 62.398,54.411 C63.862,54.708 65.618,55.711 65.618,57.444 L65.618,58.223 L64.802,65.647 M189.08,307.226 L191.297,305.012 C195.117,301.197 193.229,296.043 190.151,292.734 C189.136,291.643 187.978,290.697 186.777,290.025 C185.214,289.148 180.313,287.865 177.108,290.985 L170.456,297.604 C168.66,299.391 173.191,301.12 175.485,298.86 L177.16,297.208 C179.636,294.963 182.747,299.462 186.624,296.403 M163.187,306.178 L160.974,303.969 C153.598,296.604 166.372,283.959 173.859,291.246 L175.35,292.73 M180.701,298.812 L189.266,307.791 C191.015,309.625 188.419,313.115 186.175,310.8 L182.16,306.661 M178.661,309.45 L183.074,313.985 C184.841,315.799 188.419,313.116 186.175,310.8 L181.861,306.349 M177.32,314.461 L179.524,316.683 C181.309,318.482 184.772,315.915 182.547,313.578" fill-opacity="0"  stroke-width="1.44" stroke-linecap="round" stroke-linejoin="round"/>
    <path d="M168.418,304.545 L168.654,304.781 C169.449,305.576 169.447,306.885 168.653,307.678 L165.603,310.731 C164.809,311.524 163.501,311.526 162.706,310.731 L162.47,310.495 C161.675,309.7 161.673,308.395 162.47,307.597 L165.52,304.545 C166.317,303.748 167.623,303.75 168.418,304.545 z M173.55,305.942 L173.785,306.177 C174.582,306.974 174.58,308.281 173.785,309.075 L168.926,313.934 C168.131,314.729 166.823,314.729 166.028,313.934 L165.793,313.699 C164.998,312.904 164.996,311.598 165.793,310.801 L170.652,305.942 C171.449,305.145 172.753,305.145 173.55,305.942 z M175.536,310.482 L175.771,310.718 C176.568,311.515 176.567,312.82 175.771,313.616 L172.44,316.947 C171.644,317.743 170.338,317.743 169.542,316.947 L169.307,316.711 C168.511,315.916 168.51,314.611 169.307,313.814 L172.638,310.482 C173.435,309.685 174.739,309.685 175.536,310.482 z M177.678,314.814 L177.913,315.05 C178.709,315.846 178.707,317.154 177.913,317.948 L175.867,319.993 C175.074,320.787 173.764,320.788 172.97,319.993 L172.735,319.758 C171.94,318.963 171.937,317.657 172.734,316.86 L174.78,314.814 C175.577,314.017 176.881,314.018 177.678,314.814 z" fill-opacity="0"  stroke-width="1.44"/>
    <path d="M372.459,169.565 L372.459,192.048 C372.459,192.686 371.921,193.224 371.283,193.224 L351.84,193.224 C351.202,193.224 350.664,192.695 350.664,192.048 L350.664,163.077 C350.664,162.43 351.192,161.901 351.84,161.901 L364.794,161.901 M372.459,169.565 L365.97,169.565 C365.323,169.565 364.794,169.037 364.794,168.389 L364.794,161.901 L372.459,169.565 z M376.626,165.832 L380.825,165.832 L380.825,187.621 C380.825,191.965 376.626,191.965 376.626,187.621 L376.626,165.832 z M383.557,177.402 L383.573,169.263 L376.601,169.263 M378.655,193.224 L378.655,190.877 M355.365,168.202 L361.561,168.202 M355.365,174.066 L367.758,174.066 M355.365,177.489 L367.758,177.489 M355.365,180.912 L367.758,180.912 M355.365,184.335 L361.561,184.335 M128.431,253.807 L125.332,256.907 L117.374,248.949 L120.523,245.9 L128.431,253.807 z M109.532,224.832 C116.814,224.832 122.717,230.735 122.717,238.018 C122.717,245.3 116.814,251.203 109.532,251.203 C102.249,251.203 96.346,245.3 96.346,238.018 C96.346,230.735 102.249,224.832 109.532,224.832 z M109.398,227.423 C115.306,227.423 120.095,232.213 120.095,238.121 M109.184,232.329 L109.184,234.42 M109.184,243.541 L109.184,245.632 M112.215,235.511 C111.252,235.191 110.383,234.89 109.511,234.792 C104.814,234.263 104.211,238.996 109.212,238.981 C114.071,238.966 113.613,243.702 108.905,243.169 C108.033,243.071 107.164,242.768 106.207,242.45 M55.293,113.261 L55.293,115.352 M55.293,124.472 L55.293,126.563 M55.294,110.282 C60.612,110.282 64.924,114.594 64.924,119.912 C64.924,125.23 60.612,129.542 55.294,129.542 C49.975,129.542 45.664,125.23 45.664,119.912 C45.664,114.594 49.975,110.282 55.294,110.282 z M58.325,116.443 C57.361,116.122 56.492,115.821 55.621,115.723 C50.923,115.195 50.321,119.927 55.321,119.912 C60.18,119.897 59.723,124.634 55.014,124.101 C54.142,124.002 53.273,123.7 52.316,123.382 M38.234,100.096 L34.473,100.096 L34.473,96.31 L54.069,96.31 L54.069,100.096 M38.158,103.881 L38.158,100.096 L57.754,100.096 L57.754,103.881 L52.17,103.881 M32.489,107.667 L32.489,103.881 L52.084,103.881 L52.084,107.667 M32.489,111.452 L32.489,107.667 L52.084,107.667 L52.084,110.429 M32.489,115.238 L32.489,111.452 L50.519,111.452 M32.489,119.023 L32.489,115.238 L46.78,115.238 M32.489,122.809 L32.489,119.023 L45.518,119.023 M48.148,126.594 L32.489,126.594 L32.489,122.809 L46.003,122.809 M162.547,360.873 L173.997,356.697 M178.011,355.234 L189.595,351.008 M176.071,384.271 L176.071,358.143 M167.89,384.271 L184.253,384.271 M176.071,354.097 C177.189,354.097 178.094,355.002 178.094,356.12 C178.094,357.237 177.189,358.143 176.071,358.143 C174.954,358.143 174.048,357.237 174.048,356.12 C174.048,355.002 174.954,354.097 176.071,354.097 z M159.985,376.002 L171.761,376.002 M160.284,377.187 C161.401,379.334 163.443,380.841 165.873,380.841 C168.278,380.841 170.296,379.365 171.424,377.258 C171.855,376.451 171.852,375.96 171.544,375.016 L166.723,362.435 C166.664,362.212 166.499,362.02 166.264,361.939 C165.89,361.81 165.481,362.008 165.352,362.382 L165.355,362.384 C163.634,367.357 161.912,370.129 160.194,375.101 C159.898,375.955 159.899,376.447 160.284,377.187 z" fill-opacity="0"  stroke-width="1.44" stroke-linecap="round" stroke-linejoin="round"/>
    <path d="M180.382,368.679 L192.157,368.679 M180.681,369.864 C181.797,372.011 183.839,373.519 186.27,373.519 C188.675,373.519 190.692,372.042 191.82,369.935 C192.252,369.128 192.249,368.637 191.941,367.694 L187.119,355.112 C187.061,354.889 186.895,354.698 186.66,354.616 C186.286,354.487 185.878,354.685 185.749,355.059 L185.751,355.061 C184.031,360.034 182.309,362.806 180.59,367.778 C180.295,368.632 180.295,369.124 180.681,369.864 z M128.182,51.467 L128.182,64.686 C128.182,65.326 127.648,65.859 127.007,65.859 L97.769,65.859 C97.128,65.859 96.595,65.332 96.595,64.686 L96.595,51.662 M107.085,40.123 L107.085,36.758 C107.085,35.701 107.949,34.836 109.007,34.836 L115.77,34.836 C116.828,34.836 117.692,35.718 117.692,36.758 L117.692,40.123 M109.151,54.088 C104.227,53.843 99.289,52.838 94.875,50.698 L94.895,41.361 C94.895,40.715 95.423,40.187 96.069,40.187 L128.708,40.187 C129.354,40.187 129.882,40.716 129.882,41.361 L129.902,50.454 C125.46,52.796 120.41,53.832 115.427,54.086 M110.279,52.407 L114.497,52.407 C114.855,52.407 115.148,52.7 115.148,53.058 L115.148,55.951 C115.148,56.309 114.855,56.602 114.497,56.602 L110.279,56.602 C109.921,56.602 109.628,56.309 109.628,55.951 L109.628,53.058 C109.628,52.7 109.921,52.407 110.279,52.407 z M368.143,247.229 L372.544,244.887 C373.58,244.336 375.602,243.501 375.613,245.567 L376.357,245.058 C378.443,243.629 380.031,244.641 379.251,246.615 C382.959,243.919 384.27,247.332 382.618,248.17 L370.935,255.551 C368.474,257.105 365.227,257.129 364.313,256.583 C359.121,255.245 357.624,253.971 353.098,254.552 M350.914,245.313 L356.28,243.132 C357.65,242.575 359.183,242.718 359.76,243.146 C360.73,243.864 361.699,244.582 362.668,245.3 C366.703,248.29 367.029,247.543 371.783,247.826 C372.836,247.889 373.529,249.585 371.783,250.256 C367.346,252.285 364.608,251.375 360.563,249.305 M367.118,226.939 L367.118,228.798 M367.118,236.906 L367.118,238.765 M367.118,224.192 C371.901,224.192 375.778,228.069 375.778,232.852 C375.778,237.635 371.901,241.512 367.118,241.512 C362.335,241.512 358.459,237.635 358.459,232.852 C358.459,228.069 362.335,224.192 367.118,224.192 z M369.812,229.767 C368.956,229.483 368.184,229.215 367.409,229.128 C363.233,228.658 362.697,232.866 367.142,232.852 C371.462,232.839 371.055,237.05 366.869,236.576 C366.094,236.488 365.322,236.22 364.471,235.937" fill-opacity="0"  stroke-width="1.44" stroke-linecap="round" stroke-linejoin="round"/>
    <path d="M231.524,47.702 C230.602,47.702 229.853,48.45 229.853,49.373 C229.853,50.296 230.602,51.044 231.524,51.044 C232.447,51.044 233.195,50.296 233.195,49.373 C233.195,48.45 232.447,47.702 231.524,47.702 z M236.998,42.144 C236.075,42.144 235.327,42.892 235.327,43.814 C235.327,44.737 236.075,45.485 236.998,45.485 C237.921,45.485 238.669,44.737 238.669,43.814 C238.669,42.892 237.921,42.144 236.998,42.144 z M242.472,47.115 C241.549,47.115 240.801,47.863 240.801,48.786 C240.801,49.709 241.549,50.457 242.472,50.457 C243.394,50.457 244.143,49.709 244.143,48.786 C244.143,47.863 243.394,47.115 242.472,47.115 z" fill-opacity="0"  stroke-width="1.44"/>
    <path d="M233.019,47.855 L235.602,45.306 M238.507,45.18 L241.114,47.567 M245.177,40.693 L249.159,39.884 L243.653,47.604 M249.159,39.884 L249.654,43.771 M225.259,34.654 L254.247,34.654 L254.247,55.295 L225.259,55.295 z M222.865,34.56 L256.642,34.56 M239.753,55.295 L239.753,64.291 M239.753,34.56 L239.753,32.036 M239.819,59.945 L249.156,65.859 M239.688,59.945 L230.351,65.859 M44.581,184.853 C44.212,179.172 39.813,182.049 39.307,174.333 C38.987,169.462 43.515,165.494 48.706,165.494 C53.898,165.494 58.452,169.464 58.106,174.333 C57.638,180.916 54.372,179.586 53.174,183.029 M44.725,191.625 L53.196,189.403 M44.725,188.432 L53.196,186.21 M44.725,185.239 L53.196,183.017 M51.733,190.594 C51.733,192.046 50.379,193.224 48.709,193.224 C47.656,193.224 46.729,192.756 46.187,192.046 M48.997,159.322 L48.997,162.168 M59.328,163.257 L57.316,165.27 M64.022,174.344 L61.176,174.344 M58.917,184.967 L56.905,182.955 M38.495,163.257 L40.508,165.27 M33.39,173.762 L36.237,173.762 M38.084,184.967 L40.097,182.955 M45.31,175.825 L48.401,180.081 L53.055,171.866 M363.644,48.75 L370.592,48.75 C373.834,48.75 377.069,46.043 376.487,42.856 L375.103,35.277 C374.764,33.419 373.554,31.839 371.665,31.839 L362.571,31.839 C360.683,31.839 359.472,33.416 359.133,35.277 L357.749,42.856 C357.168,46.045 360.402,48.75 363.644,48.75 z M359.716,50.978 L374.52,50.978 C375.304,50.978 375.946,51.619 375.946,52.404 L375.946,53.282 C375.946,54.066 375.304,54.707 374.52,54.707 L359.716,54.707 C358.932,54.707 358.29,54.066 358.29,53.282 L358.29,52.404 C358.29,51.619 358.932,50.978 359.716,50.978 z M358.842,63.157 C359.588,63.157 360.193,63.762 360.193,64.508 C360.193,65.254 359.588,65.859 358.842,65.859 C358.096,65.859 357.491,65.254 357.491,64.508 C357.491,63.762 358.096,63.157 358.842,63.157 z M367.118,63.157 C367.864,63.157 368.469,63.762 368.469,64.508 C368.469,65.254 367.864,65.859 367.118,65.859 C366.372,65.859 365.767,65.254 365.767,64.508 C365.767,63.762 366.372,63.157 367.118,63.157 z M375.394,63.157 C376.14,63.157 376.745,63.762 376.745,64.508 C376.745,65.254 376.14,65.859 375.394,65.859 C374.648,65.859 374.043,65.254 374.043,64.508 C374.043,63.762 374.648,63.157 375.394,63.157 z M367.118,54.707 L367.118,62.893 M359.427,62.568 C359.849,61.906 360.461,61.31 361.216,60.81 C361.971,60.309 362.87,59.904 363.869,59.625 C364.867,59.345 365.966,59.19 367.118,59.19 C368.271,59.19 369.369,59.345 370.367,59.625 C371.366,59.904 372.266,60.309 373.02,60.81 C373.776,61.31 374.387,61.906 374.809,62.568 M350.826,45.215 L352.977,45.153 C357.244,45.017 352.568,54.8 357.409,54.709 C357.501,54.707 359.017,54.702 359.117,54.693 M383.41,45.215 L381.259,45.153 C376.993,45.017 381.668,54.8 376.827,54.709 C376.735,54.707 375.219,54.702 375.119,54.693 M367.118,49.53 L367.118,50.978 M247.631,120.876 C251.22,118.761 255.051,118.663 255.493,116.439 C256.144,113.157 252.616,112.539 250.491,113.49" fill-opacity="0"  stroke-width="1.44" stroke-linecap="round" stroke-linejoin="round"/>
    <path d="M233.842,106.512 C232.62,105.416 232.768,103.661 233.499,102.666 C234.237,101.661 234.431,100.138 233.251,98.922 M238.203,105.963 C236.523,104.682 236.726,102.632 237.731,101.469 C238.747,100.294 239.014,98.514 237.391,97.092 M242.754,106.512 C241.533,105.416 241.681,103.661 242.412,102.666 C243.15,101.661 243.344,100.138 242.163,98.922" fill-opacity="0"  stroke-width="1.44" stroke-linecap="round" stroke-linejoin="round"/>
    <path d="M230.565,129.542 L245.379,129.542 C247.96,129.542 251.85,126.407 252.008,125.362 L223.935,125.362 C224.094,126.407 227.803,129.542 230.565,129.542 z M232.798,125.176 C227.997,122.522 224.878,114.559 225.249,110.519 C229.616,110.519 243.056,110.519 250.695,110.519 C251.103,114.999 247.342,122.856 243.146,125.176 M56.01,318.869 C56.01,319.819 55.259,320.589 54.333,320.589 C53.664,320.589 53.086,320.186 52.817,319.605 L49.595,314.26 C49.004,313.2 48.154,311.68 46.274,312.908 C45.568,313.37 44.688,313.533 43.791,313.533 C41.117,313.533 38.9,311.523 38.499,308.895 C38.009,309.115 37.468,309.237 36.899,309.237 C34.833,309.237 33.133,307.631 32.921,305.57 C31.695,304.869 30.866,303.526 30.866,301.985 C30.866,299.719 32.658,297.882 34.868,297.882 C34.922,297.882 34.976,297.883 35.031,297.885 C34.849,297.482 34.748,297.034 34.748,296.561 C34.748,294.814 36.128,293.398 37.832,293.398 C38.238,293.398 38.625,293.478 38.98,293.624 C39.882,292.055 41.547,291.001 43.453,291.001 C44.555,291.001 45.577,291.354 46.418,291.955 C46.973,291.346 47.763,290.965 48.641,290.965 C49.575,290.965 50.41,291.397 50.968,292.077 C51.579,291.79 52.258,291.63 52.974,291.63 C54.294,291.63 55.491,292.175 56.362,293.057 C56.648,292.967 56.952,292.918 57.267,292.918 C58.922,292.918 60.272,294.254 60.348,295.931 C60.513,295.902 60.683,295.887 60.856,295.887 C62.536,295.887 63.898,297.283 63.898,299.006 C63.898,299.177 63.884,299.344 63.859,299.507 C65.423,300.065 66.546,301.59 66.546,303.384 C66.546,304.249 66.284,305.052 65.838,305.714 C66.011,306.237 66.105,306.798 66.105,307.381 C66.105,310.245 63.84,312.568 61.047,312.568 C60.982,312.568 60.918,312.566 60.854,312.563 C60.867,312.678 60.859,312.795 60.873,312.911 C61.064,314.52 59.992,315.931 58.755,315.931 C57.61,315.931 57.39,315.136 56.503,315.584 C55.952,315.862 55.574,316.443 55.574,317.114 C55.574,317.816 56.01,318.081 56.01,318.869 z M65.663,305.796 C65.081,306.325 64.316,306.646 63.478,306.646 C61.658,306.646 60.184,305.134 60.184,303.269 M60.552,301.687 C60.552,303.385 59.209,304.762 57.553,304.762 C56.928,304.762 56.347,304.566 55.867,304.23 M63.979,311.58 C63.336,312.027 62.537,312.244 61.705,312.133 C59.901,311.892 58.63,310.196 58.865,308.347 M39.612,303.612 C40.077,304.307 40.305,305.171 40.196,306.072 C39.958,308.027 38.22,309.414 36.313,309.171 M44.47,300.433 C44.46,301.229 44.177,302.026 43.613,302.662 C42.39,304.042 40.307,304.145 38.96,302.89 M50.429,297.166 C50.911,297.461 51.293,297.93 51.477,298.522 C51.875,299.806 51.182,301.177 49.93,301.585 M55.343,297.074 C54.885,296.741 54.312,296.571 53.71,296.638 C52.404,296.784 51.46,297.987 51.602,299.326 M49.407,301.511 C49.814,302.166 49.999,302.97 49.871,303.798 C49.592,305.593 47.947,306.817 46.196,306.532 M58.298,308.468 C57.748,309.135 56.966,309.607 56.057,309.742 C54.803,309.928 53.606,309.43 52.827,308.523 M60.335,315.136 C59.861,315.567 59.238,315.829 58.556,315.829 C57.074,315.829 55.874,314.598 55.874,313.079 M33.235,306.616 C32.495,305.503 32.775,303.986 33.86,303.228 M312.39,297.477 C316.544,303.167 316.052,311.191 310.915,316.328 C305.234,322.009 296.023,322.009 290.342,316.328 C284.661,310.647 284.661,301.436 290.342,295.755 C295.479,290.617 303.503,290.126 309.193,294.28 M309.516,300.351 C312.136,304.435 311.661,309.93 308.09,313.502 C303.969,317.622 297.289,317.622 293.168,313.502 C289.048,309.381 289.048,302.701 293.168,298.58 C296.74,295.009 302.235,294.534 306.319,297.154 M306.579,303.288 C307.7,305.712 307.261,308.678 305.263,310.676 C302.704,313.235 298.554,313.235 295.994,310.676 C293.435,308.116 293.435,303.966 295.994,301.407 C297.992,299.409 300.958,298.97 303.381,300.091 M303.074,306.794 C302.955,307.18 302.743,307.544 302.437,307.85 C301.438,308.848 299.819,308.848 298.82,307.85 C297.821,306.851 297.821,305.232 298.82,304.233 C299.126,303.927 299.49,303.715 299.876,303.597 M300.82,305.91 L318.993,287.737 M312.827,294.633 L316.504,295.788 L320.791,291.502 L317.114,290.346 M312.164,293.97 L311.009,290.293 L315.295,286.006 L316.451,289.683 M288.616,97.636 L318.255,97.636 L318.255,118.74 L288.616,118.74 z M286.168,97.54 L320.703,97.54 M303.436,118.74 L303.436,127.938 M303.436,97.54 L303.436,94.959 M303.503,123.495 L313.049,129.542 M303.369,123.495 L293.822,129.542" fill-opacity="0"  stroke-width="1.44" stroke-linecap="round" stroke-linejoin="round"/>
    <path d="M301.294,103.331 L312.236,103.331 M294.636,102.674 L296.018,104.479 L297.604,102.408 M301.294,107.946 L312.236,107.946 M294.636,107.289 L296.018,109.094 L297.604,107.023 M301.294,112.561 L312.236,112.561 M294.636,111.903 L296.018,113.708 L297.604,111.638" fill-opacity="0"  stroke-width="1.44" stroke-linecap="round" stroke-linejoin="round"/>
    <path d="M312.078,61.51 C309.373,64.198 305.647,65.859 301.532,65.859 C293.268,65.859 286.57,59.16 286.57,50.897 C286.57,42.635 293.266,35.937 301.527,35.934 L301.527,50.75 L301.531,50.75 L301.532,50.897 L312.078,61.51 z M320.3,50.466 L320.302,50.613 C320.302,54.761 318.613,58.516 315.885,61.226 L305.339,50.613 L305.339,50.466 L320.3,50.466 z M304.205,32.895 C312.419,32.895 319.086,39.515 319.165,47.711 L304.2,47.711 L304.2,32.895 L304.205,32.895 z M300.515,35.969 L286.605,49.88 M301.527,40.305 L287.074,54.759 M301.527,45.653 L288.657,58.523 M301.582,50.947 L291.002,61.526 M304.247,53.629 L294.031,63.845 M306.912,56.311 L297.827,65.397 M309.578,58.994 L302.762,65.81" fill-opacity="0"  stroke-width="1.44" stroke-linecap="round" stroke-linejoin="round"/>
    <path d="M356.652,351.043 L377.584,351.043 L377.584,367.187 C377.584,372.29 372.868,376.475 367.119,376.475 L367.118,376.475 C361.369,376.475 356.652,372.296 356.652,367.187 L356.652,351.043 z M367.118,376.488 L367.118,383.78 M357.563,384.271 L376.673,384.271 M356.408,353.648 L349.827,353.648 C351.253,357.499 353.556,360.002 356.408,361.446 M377.828,353.648 L384.409,353.648 C382.983,357.499 380.68,360.002 377.828,361.446 M367.118,355.208 L369.069,359.831 L373.911,360.143 L370.118,363.428 L371.316,368.13 L367.02,365.536 L362.92,368.13 L364.058,363.242 L360.325,360.143 L365.325,359.716 L367.118,355.208 z M288.713,351.389 L303.436,351.389 L303.436,356.77 C303.619,357.366 304.216,357.79 304.923,357.772 C306.28,357.738 306.336,355.973 308.759,355.973 C310.768,355.973 312.396,357.601 312.396,359.61 C312.396,361.619 310.768,363.247 308.759,363.247 C306.55,363.247 306.327,361.628 304.923,361.663 C304.407,361.676 303.745,362.11 303.436,362.503 L303.436,367.83 L297.693,367.83 C297.459,367.51 297.277,367.118 297.268,366.786 C297.234,365.382 298.853,365.159 298.853,362.951 C298.853,360.942 297.224,359.314 295.216,359.314 C293.206,359.314 291.578,360.942 291.578,362.951 C291.578,365.373 293.343,365.429 293.378,366.786 C293.388,367.189 293.255,367.555 293.028,367.83 L286.995,367.83 L286.995,353.107 C286.995,352.162 287.768,351.389 288.713,351.389 z M303.436,384.271 L288.713,384.271 C287.768,384.271 286.995,383.498 286.995,382.553 L286.995,367.83 M318.159,384.271 L303.436,384.271 L303.436,378.89 C303.252,378.295 302.656,377.871 301.949,377.888 C300.591,377.923 300.535,379.688 298.113,379.688 C296.104,379.688 294.476,378.06 294.476,376.05 C294.476,374.041 296.104,372.413 298.113,372.413 C300.322,372.413 300.544,374.032 301.949,373.998 C302.465,373.985 303.127,373.551 303.436,373.158 L303.436,367.83 L309.179,367.83 C309.412,368.15 309.595,368.542 309.603,368.874 C309.638,370.279 308.019,370.501 308.019,372.71 C308.019,374.719 309.647,376.347 311.656,376.347 C313.665,376.347 315.293,374.719 315.293,372.71 C315.293,370.288 313.528,370.232 313.494,368.874 C313.483,368.472 313.617,368.105 313.843,367.83 L319.877,367.83 L319.877,382.553 C319.877,383.498 319.104,384.271 318.159,384.271 z M303.436,351.389 L318.159,351.389 C319.104,351.389 319.877,352.162 319.877,353.107 L319.877,367.83" fill-opacity="0"  stroke-width="1.44" stroke-linecap="round" stroke-linejoin="round"/>
    <path d="M242.181,254.465 C244.466,254.125 246.781,253.327 248.337,251.77 C250.27,249.837 251.776,246.56 251.776,243.628 L251.776,233.655 C251.776,230.723 250.27,227.751 248.337,225.818 C246.405,223.885 243.432,222.379 240.501,222.379 L239.038,222.379 C236.106,222.379 233.135,223.885 231.202,225.818 C229.269,227.751 227.763,230.723 227.763,233.655 L227.763,243.628" fill-opacity="0"  stroke-width="1.44" stroke-linecap="round" stroke-linejoin="round"/>
    <path d="M243.935,235.671 C244.361,235.671 244.707,236.017 244.707,236.443 C244.707,236.869 244.361,237.215 243.935,237.215 C243.509,237.215 243.163,236.869 243.163,236.443 C243.163,236.017 243.509,235.671 243.935,235.671 z M235.604,235.671 C236.03,235.671 236.375,236.017 236.375,236.443 C236.375,236.869 236.03,237.215 235.604,237.215 C235.178,237.215 234.832,236.869 234.832,236.443 C234.832,236.017 235.178,235.671 235.604,235.671 z" fill-opacity="0"  stroke-width="1.44"/>
    <path d="M227.412,243.786 C224.645,243.573 222.462,241.11 222.462,238.103 C222.462,235.095 224.645,232.631 227.412,232.419 M252.095,243.786 C254.862,243.573 257.045,241.11 257.045,238.103 C257.045,235.095 254.862,232.631 252.095,232.419 M235.149,242.989 C235.623,244.671 237.504,245.927 239.753,245.927 C242.003,245.927 243.884,244.671 244.358,242.989" fill-opacity="0"  stroke-width="1.44" stroke-linecap="round" stroke-linejoin="round"/>
    <path d="M239.753,252.074 C241.088,252.074 242.17,253.156 242.17,254.49 C242.17,255.825 241.088,256.907 239.753,256.907 C238.419,256.907 237.337,255.825 237.337,254.49 C237.337,253.156 238.419,252.074 239.753,252.074 z" fill-opacity="0"  stroke-width="1.44"/>
    <path d="M227.55,232.709 C231.092,231.987 234.069,229.714 235.743,226.63 C237.937,228.897 241.013,230.308 244.418,230.308 C246.578,230.308 248.605,229.74 250.36,228.746 M222.439,320.588 L257.067,320.588 M225.388,320.588 L225.388,285.961 L246.508,285.961 L246.508,320.588 M246.977,291.738 L254.119,291.738 L254.119,319.589 M234.002,320.155 L234.002,317.008 L237.895,317.008 L237.895,320.155 M228.548,289.673 L243.348,289.673 M250.183,297.875 L250.183,296.084 M250.183,303.912 L250.183,302.122 M250.183,309.949 L250.183,308.159 M250.183,315.986 L250.183,314.196 M228.548,293.176 L243.348,293.176 M228.548,296.679 L243.348,296.679 M228.548,300.182 L243.348,300.182 M228.548,303.685 L243.348,303.685 M228.548,307.188 L243.348,307.188 M228.548,310.691 L243.348,310.691 M228.548,314.194 L243.348,314.194 M228.457,317.747 L231.191,317.747 M240.613,317.747 L243.348,317.747 M173.617,50.044 C173.69,50.902 173.5,52.038 172.689,52.956 C172.605,53.052 172.511,53.143 172.41,53.23 L176.111,61.766 L180.106,53.331 C179.951,53.214 179.812,53.089 179.69,52.954 C178.977,52.163 178.828,50.923 178.894,50.033 M188.635,65.859 C190.035,58.516 188.458,55.567 180.106,53.331 M172.41,53.23 L169.146,54.432 C163.262,56.631 162.077,58.964 163.745,65.859 M184.686,63.397 L180.223,63.397 M174.137,38.528 C175.641,38.528 179.228,38.266 180.253,36.748 C181.392,37.924 182.298,41.496 182.298,43.369 C182.298,46.926 179.778,50.729 176.602,50.729 C173.425,50.729 170.851,47.845 170.851,44.288 C170.851,40.73 170.961,38.528 174.137,38.528 z M185.885,55.09 C187.898,52.747 186.46,50.251 186.46,46.521 C186.46,39.437 186.277,31.386 176.392,31.864 C166.507,32.342 166.228,37.607 166.228,44.691 C166.228,49.142 166.305,52.527 167.754,54.429 M302.275,166.011 C301.696,169.524 298.923,172.297 295.41,172.876 M302.567,180.222 C303.16,176.746 305.902,174.003 309.378,173.411 M302.295,180.023 L295.513,173.24 C294.835,172.563 293.727,172.563 293.05,173.24 L291.271,175.019 C290.594,175.697 290.594,176.805 291.271,177.482 L298.054,184.264 C298.731,184.942 299.839,184.942 300.516,184.264 L302.295,182.485 C302.973,181.808 302.973,180.7 302.295,180.023 z M313.638,168.68 L306.855,161.898 C306.178,161.221 305.07,161.22 304.392,161.898 L302.614,163.677 C301.936,164.354 301.936,165.462 302.614,166.14 L309.397,172.922 C310.074,173.599 311.181,173.599 311.859,172.922 L313.638,171.143 C314.315,170.465 314.315,169.358 313.638,168.68 z M304.196,177.612 L316.484,190.517 C318.21,192.33 321.597,188.772 319.783,187.045 L306.964,174.844 M288.513,189.74 L305.397,189.74 M286.569,193.224 L307.86,193.224 M106.75,365.767 L109.117,364.498 L108.059,362 C108.419,361.659 108.739,361.271 109.009,360.841 L111.666,361.388 L112.444,358.817 L109.929,357.799 C109.942,357.292 109.891,356.791 109.78,356.308 L112.046,354.815 L110.778,352.448 L108.28,353.506 C107.939,353.146 107.55,352.826 107.121,352.556 L107.667,349.899 L105.096,349.122 L104.079,351.636 C103.571,351.623 103.071,351.674 102.587,351.784 L101.095,349.519 L98.727,350.787 L99.785,353.285 C99.425,353.626 99.105,354.015 98.835,354.444 L96.179,353.898 L95.401,356.469 L97.915,357.486 C97.901,357.994 97.952,358.495 98.063,358.979 L95.799,360.471 L97.067,362.838 L99.564,361.78 C99.905,362.141 100.294,362.461 100.724,362.73 L100.177,365.387 L102.748,366.164 L103.766,363.65 C104.273,363.663 104.774,363.612 105.258,363.501 L106.75,365.767 z M104.597,355.411 C103.229,354.997 102.104,355.6 101.69,356.968 C101.277,358.336 101.879,359.461 103.247,359.874 C104.615,360.288 105.74,359.686 106.153,358.318 C106.567,356.95 105.965,355.825 104.597,355.411 z" fill-opacity="0"  stroke-width="1.44" stroke-linecap="round" stroke-linejoin="round"/>
    <path d="M121.95,383.753 L125.038,382.099 L123.657,378.841 C124.127,378.396 124.544,377.889 124.896,377.329 L128.362,378.041 L129.376,374.689 L126.096,373.361 C126.114,372.7 126.047,372.047 125.902,371.416 L128.857,369.469 L127.204,366.382 L123.945,367.762 C123.5,367.292 122.994,366.875 122.433,366.523 L123.146,363.058 L119.794,362.044 L118.466,365.323 C117.804,365.305 117.151,365.372 116.52,365.516 L114.574,362.562 L111.486,364.216 L112.866,367.473 C112.396,367.918 111.979,368.425 111.627,368.986 L108.162,368.274 L107.148,371.626 L110.427,372.953 C110.409,373.615 110.476,374.269 110.62,374.9 L107.667,376.846 L109.32,379.933 L112.578,378.553 C113.023,379.024 113.53,379.441 114.09,379.793 L113.378,383.257 L116.731,384.271 L118.058,380.992 C118.72,381.01 119.373,380.943 120.004,380.798 L121.95,383.753 z M119.458,369.205 C117.275,368.545 114.97,369.779 114.31,371.962 C113.649,374.145 114.884,376.45 117.067,377.11 C119.25,377.77 121.554,376.536 122.215,374.353 C122.875,372.17 121.641,369.865 119.458,369.205 z M94.962,315.114 L112.07,315.114 M96.121,314.904 L96.121,300.041 L101.875,300.041 L101.875,314.904 M105.264,314.905 L105.264,293.596 L111.019,293.596 L111.019,314.905 M114.407,304.86 L114.407,286.573 L120.162,286.573 L120.162,302.057 M120.737,302.432 C115.723,302.432 111.659,306.497 111.659,311.511 C111.659,316.525 115.723,320.589 120.737,320.589 C125.751,320.589 129.815,316.525 129.815,311.511 C129.815,306.497 125.751,302.432 120.737,302.432 z M124.174,307.55 C123.477,307.838 117.688,314.174 116.698,315.115 M124.174,313.988 L124.174,307.55 L117.736,307.55" fill-opacity="0"  stroke-width="1.44" stroke-linecap="round" stroke-linejoin="round"/>
    <path d="M46.74,248.529 L45.864,251.893 C45.706,252.5 44.7,252.362 44.247,251.927 L36.911,244.896 C36.457,244.462 36.267,243.433 36.876,243.28 L40.13,242.194 M43.726,245.264 L43.654,245.196 L39.2,240.927 C42.534,236.26 46.287,230.005 50.143,225.981 C53.522,222.455 58.98,221.834 64.061,223.902 L64.11,223.922 C66.458,229.005 65.984,234.483 62.647,237.965 C58.791,241.988 52.701,246.003 48.18,249.533 L43.726,245.264 z M54.907,223.166 C57.728,222.38 60.964,222.642 64.062,223.902 L64.11,223.922 C65.536,227.009 65.921,230.241 65.256,233.084 L54.907,223.166 z M56.184,232.193 C57.286,233.249 57.323,234.998 56.267,236.1 C55.211,237.202 53.462,237.239 52.36,236.183 C51.258,235.127 51.221,233.378 52.277,232.276 C53.333,231.174 55.083,231.137 56.184,232.193 z M50.975,237.628 C52.077,238.684 52.114,240.434 51.058,241.535 C50.002,242.637 48.253,242.674 47.151,241.618 C46.049,240.563 46.012,238.813 47.068,237.711 C48.124,236.609 49.873,236.572 50.975,237.628 z M39.236,240.911 L45.429,231.889 C43.43,231.506 41.34,230.604 39.432,230.738 C33.409,231.161 32.377,236.42 31.84,241.414 L39.236,240.911 z M48.194,249.495 L56.944,242.925 C57.413,244.906 58.403,246.956 58.35,248.868 C58.182,254.904 52.973,256.158 48.006,256.907 L48.194,249.495 z M40.797,238.542 L50.533,247.775" fill-opacity="0"  stroke-width="1.44" stroke-linecap="round" stroke-linejoin="round"/>
  </g>
</svg>

