<svg xmlns="http://www.w3.org/2000/svg" width="55.545" height="54.662" viewBox="0 0 55.545 54.662"><path d="M11.427,33.516a23.74,23.74,0,0,0,13.385,9.9L24,38.106a25.121,25.121,0,0,0,14.988-6.435,25.517,25.517,0,0,0,8.1-14.793l-10.7-.987a16.056,16.056,0,0,1-3.5,10.124A17.659,17.659,0,0,1,23.1,32.241l-.813-5.313A16.032,16.032,0,0,1,11.427,33.516Z" transform="translate(8.459 11.244)" fill="#bcbcbc"/><path d="M16.462,5.659A24.1,24.1,0,0,0,1,12.061l5.1,1.964A24.194,24.194,0,0,0,4.3,29.964a25.677,25.677,0,0,0,9.044,14.247l6.24-8.563a16.451,16.451,0,0,1-7.233-8.016,17.231,17.231,0,0,1-.6-11.441l5.1,1.964a15.351,15.351,0,0,1-.388-12.5Z" transform="translate(-1 2.835)" fill="#bcbcbc"/><path d="M42.745,24.621A22.979,22.979,0,0,0,44.8,8.3l-4.285,3.354A24.97,24.97,0,0,0,27.325,2.167,27.3,27.3,0,0,0,18.818,1,27.771,27.771,0,0,0,10.2,2.7l4.469,9.57a17.215,17.215,0,0,1,5.063-1.933,18.146,18.146,0,0,1,5.648-.182,17.876,17.876,0,0,1,10.41,5.185L31.5,18.708A16.123,16.123,0,0,1,42.745,24.621Z" transform="translate(7.452 -0.996)" fill="#bcbcbc"/></svg>