<?xml version="1.0" encoding="utf-8"?>
<!-- Generator: Adobe Illustrator 23.0.1, SVG Export Plug-In . SVG Version: 6.00 Build 0)  -->
<svg version="1.1" id="Layer_1" xmlns="http://www.w3.org/2000/svg" xmlns:xlink="http://www.w3.org/1999/xlink" x="0px" y="0px"
	 viewBox="0 0 100 100" style="enable-background:new 0 0 100 100;" xml:space="preserve">
<style type="text/css">
	.st0{fill:none;stroke:#1A1A1A;stroke-width:1.44;stroke-miterlimit:22.9256;}
	.st1{fill:none;stroke:#1A1A1A;stroke-width:1.44;stroke-linecap:round;stroke-linejoin:round;stroke-miterlimit:22.9256;}
</style>
<path class="st0" d="M26.1,46.5c-2.7,0-4.8,2.2-4.8,4.8c0,2.7,2.2,4.8,4.8,4.8c2.7,0,4.8-2.2,4.8-4.8C31,48.6,28.8,46.5,26.1,46.5
	L26.1,46.5z M42,30.3c-2.7,0-4.8,2.2-4.8,4.8c0,2.7,2.2,4.8,4.8,4.8c2.7,0,4.8-2.2,4.8-4.8C46.9,32.5,44.7,30.3,42,30.3L42,30.3z
	 M57.9,44.8c-2.7,0-4.8,2.2-4.8,4.8c0,2.7,2.2,4.8,4.8,4.8c2.7,0,4.8-2.2,4.8-4.8C62.7,46.9,60.6,44.8,57.9,44.8L57.9,44.8z"/>
<line class="st1" x1="30.5" y1="46.9" x2="38" y2="39.5"/>
<line class="st1" x1="46.4" y1="39.1" x2="53.9" y2="46.1"/>
<polyline class="st1" points="65.7,26.1 77.3,23.8 61.3,46.2 "/>
<line class="st1" x1="77.3" y1="23.8" x2="78.7" y2="35"/>
<polygon class="st1" points="7.9,8.6 92.1,8.6 92.1,68.5 7.9,68.5 7.9,8.6 "/>
<line class="st1" x1="1" y1="8.3" x2="99" y2="8.3"/>
<line class="st1" x1="50" y1="68.5" x2="50" y2="94.6"/>
<line class="st1" x1="50" y1="8.3" x2="50" y2="1"/>
<line class="st1" x1="50.2" y1="82" x2="77.3" y2="99.1"/>
<line class="st1" x1="49.8" y1="82" x2="22.7" y2="99.1"/>
</svg>
