<svg xmlns="http://www.w3.org/2000/svg" xmlns:xlink="http://www.w3.org/1999/xlink" width="365.238" height="366.965" viewBox="0 0 365.238 366.965">
  <defs>
    <filter id="Pfad_1073" x="-0.004" y="-0.044" width="365.235" height="367.016" filterUnits="userSpaceOnUse">
      <feOffset dy="3" input="SourceAlpha"/>
      <feGaussianBlur stdDeviation="3" result="blur"/>
      <feFlood flood-opacity="0.161"/>
      <feComposite operator="in" in2="blur"/>
      <feComposite in="SourceGraphic"/>
    </filter>
    <filter id="Ausschluss_3" x="0" y="0" width="365.238" height="366.965" filterUnits="userSpaceOnUse">
      <feOffset dy="3" input="SourceAlpha"/>
      <feGaussianBlur stdDeviation="3" result="blur-2"/>
      <feFlood flood-opacity="0.161"/>
      <feComposite operator="in" in2="blur-2"/>
      <feComposite in="SourceGraphic"/>
    </filter>
  </defs>
  <g id="Gruppe_705" data-name="Gruppe 705" transform="translate(2.041 -5.479)">
    <path id="Pfad_1072" data-name="Pfad 1072" d="M64.321,33.379" transform="translate(197.871 74.452)" fill="#1aa6e4"/>
    <g transform="matrix(1, 0, 0, 1, -2.04, 5.48)" filter="url(#Ausschluss_3)">
      <path id="Ausschluss_3-2" data-name="Ausschluss 3" d="M220.688,347.963h-.023c-2.539-.23-23.828-65.1-24.867-68.9L280.008,190.7c.469,1.736-2.172,29.066-4.883,53.9-2.781,25.564-6.031,51.916-7.008,53.162C265.664,300.906,223.391,347.963,220.688,347.963Zm-53.648-46.752h-.016c-1.5-.7-30.43-27.42-57.531-52.855-26.758-25.143-55.547-52.578-56.109-54.17-1.094-3.07,149.758-159.74,151.281-161.32A161.509,161.509,0,0,1,342.172,4.992c.2.783,4.656,19.168,4.008,44.469a183.8,183.8,0,0,1-6.219,43.518,152.277,152.277,0,0,1-21.7,46.912C316.8,141.506,171.141,301.193,167.039,301.211Zm26.93-150.727a4.463,4.463,0,0,0-3.273,1.424l-76.367,81.9a4.472,4.472,0,0,0,3.266,7.539,4.524,4.524,0,0,0,3.289-1.432l76.367-81.9a4.479,4.479,0,0,0-3.281-7.529Zm48.617-63.756a20.454,20.454,0,0,0-.687,40.9c.25.018.508.018.758.018a20.455,20.455,0,0,0,.664-40.9c-.133,0-.25,0-.375-.008S242.7,86.729,242.586,86.729ZM117.25,300.656h0a1.218,1.218,0,0,1-.266-.02c-1.289-.268-18.031-15.311-32.8-29.094-7.258-6.781-30.969-29.07-31.3-31.326-.43-2.627,4.383-14.363,7.25-21.377l.063-.139.031-.09.125-.3c.172-.418.336-.82.492-1.2l.188-.449.156-.391c.492-1.209.875-2.168,1.1-2.807l83.469,80.391a222.779,222.779,0,0,1-28.508,6.809ZM70.234,168.377h-.008c-1.094-.414-6.734-1.918-15.2-4.166l-.867-.232C33.953,158.588.133,149.563.008,147.613c-.086-1.434,11.977-14.674,22.344-25.574,10.93-11.506,23.219-23.861,24.891-24.623,2.7-1.219,77.3-13.65,105.8-18.338l.4-.072L70.234,168.375Z" transform="translate(9.49 6.5)" fill="#1aa6e4" stroke="rgba(0,0,0,0)" stroke-miterlimit="10" stroke-width="1"/>
    </g>
    <path id="Pfad_1074" data-name="Pfad 1074" d="M14.756,52.949" transform="translate(25.416 142.543)" fill="#1aa6e4"/>
  </g>
</svg>
