<svg xmlns="http://www.w3.org/2000/svg" xmlns:xlink="http://www.w3.org/1999/xlink" width="48.004" height="75" viewBox="0 0 48.004 75"><defs><pattern id="a" patternUnits="userSpaceOnUse" width="928" height="619" x="0" y="600"><image xlink:href="https://www.gitpod.io/galaxy.jpg" width="928" height="619"/></pattern></defs><g data-name="Gruppe 705" transform="translate(-80.998 -1551.302)"><path data-name="Pfad 1157" d="M-22232,119.3h-32a8.009,8.009,0,0,1-8-8V74.061a24,24,0,0,1,1.27-7.708,23.757,23.757,0,0,1,3.521-6.674,24.012,24.012,0,0,1,5.355-5.209,23.908,23.908,0,0,1,6.773-3.343.812.812,0,0,1-.012-.168,6.567,6.567,0,0,1,.531-2.594,6.78,6.78,0,0,1,1.459-2.113,6.829,6.829,0,0,1,2.158-1.425,6.931,6.931,0,0,1,2.645-.525,6.928,6.928,0,0,1,2.643.525,6.755,6.755,0,0,1,2.158,1.425,6.589,6.589,0,0,1,1.459,2.113,6.54,6.54,0,0,1,.531,2.582,23.888,23.888,0,0,1,7,3.259,24.107,24.107,0,0,1,5.545,5.232,23.949,23.949,0,0,1,3.654,6.769,23.915,23.915,0,0,1,1.314,7.853V111.3A8.011,8.011,0,0,1-22232,119.3Zm-37.893-16.377c-.01.046-.006,3.122,0,4.522v.81c.057,3.147.633,5.266,1.816,6.668,1.285,1.529,3.322,2.286,6.412,2.381h27.283c.162.006.326.011.475.011a7.629,7.629,0,0,0,5.836-2.18c1.473-1.569,2.15-3.949,1.961-6.881l.006-.307q0-5-.006-5.025c0-.01-.02-.017-.039-.017a.753.753,0,0,0-.307.151c-1.783,1.872-4.678,3.321-8.6,4.31a51,51,0,0,1-12.213,1.358,58.492,58.492,0,0,1-13.57-1.526c-4.24-1.046-7.3-2.513-8.855-4.242l-.016,0a1.565,1.565,0,0,0-.168-.03Zm6.9-11.621a1,1,0,0,0-1,1,1,1,0,0,0,1,1h29a1,1,0,0,0,1-1,1,1,0,0,0-1-1Zm7-28a1,1,0,0,0-1,.995v8a1,1,0,0,0,1,1h16a1,1,0,0,0,1-1v-8a1,1,0,0,0-1-.995Zm7.7-17.523a5.285,5.285,0,0,0-3.734,1.515,5.114,5.114,0,0,0-1.543,3.415,24.166,24.166,0,0,1,5.578-.654,23.81,23.81,0,0,1,4.969.52,5.108,5.108,0,0,0-1.537-3.281A5.263,5.263,0,0,0-22248.3,45.784Z" transform="translate(22352.998 1506.999)" fill="url(#a)"/><g transform="translate(88.47 1601.696)" fill="url(#a)" stroke-linecap="round"><path d="M 29.28194236755371 18.34758377075195 L 2.390362024307251 18.34758377075195 C 1.348012089729309 18.34758377075195 0.5000020861625671 17.34206199645996 0.5000020861625671 16.10611343383789 L 0.5000020861625671 2.74146294593811 C 0.5000020861625671 1.505512833595276 1.348012089729309 0.5000028610229492 2.390362024307251 0.5000028610229492 L 3.328082084655762 0.5000028610229492 L 3.328082084655762 3.497272729873657 L 3.328082084655762 3.997272729873657 L 3.828082084655762 3.997272729873657 L 5.121541976928711 3.997272729873657 L 5.621541976928711 3.997272729873657 L 5.621541976928711 3.497272729873657 L 5.621541976928711 0.5000028610229492 L 29.28194236755371 0.5000028610229492 C 30.32429122924805 0.5000028610229492 31.17230224609375 1.505512833595276 31.17230224609375 2.74146294593811 L 31.17230224609375 16.10611343383789 C 31.17230224609375 17.34206199645996 30.32429122924805 18.34758377075195 29.28194236755371 18.34758377075195 Z"/><path d="M 2.390361785888672 1.000001907348633 C 1.623712539672852 1.000001907348633 1.000001907348633 1.781223297119141 1.000001907348633 2.741462707519531 L 1.000001907348633 16.10611343383789 C 1.000001907348633 17.06636238098145 1.623712539672852 17.84758377075195 2.390361785888672 17.84758377075195 L 29.28194236755371 17.84758377075195 C 30.04859161376953 17.84758377075195 30.67230224609375 17.06636238098145 30.67230224609375 16.10611343383789 L 30.67230224609375 2.741462707519531 C 30.67230224609375 1.781223297119141 30.04859161376953 1.000001907348633 29.28194236755371 1.000001907348633 L 6.121541976928711 1.000001907348633 L 6.121541976928711 3.497272491455078 L 6.121541976928711 4.497272491455078 L 5.121541976928711 4.497272491455078 L 3.828071594238281 4.497272491455078 L 2.828071594238281 4.497272491455078 L 2.828071594238281 3.497272491455078 L 2.828071594238281 1.000001907348633 L 2.390361785888672 1.000001907348633 M 2.390361785888672 1.9073486328125e-06 L 3.828071594238281 1.9073486328125e-06 L 3.828071594238281 3.497272491455078 L 5.121541976928711 3.497272491455078 L 5.121541976928711 1.9073486328125e-06 L 29.28194236755371 1.9073486328125e-06 C 30.60210227966309 1.9073486328125e-06 31.67230224609375 1.227392196655273 31.67230224609375 2.741462707519531 L 31.67230224609375 16.10611343383789 C 31.67230224609375 17.62018203735352 30.60210227966309 18.84758377075195 29.28194236755371 18.84758377075195 L 2.390361785888672 18.84758377075195 C 1.070201873779297 18.84758377075195 1.9073486328125e-06 17.62018203735352 1.9073486328125e-06 16.10611343383789 L 1.9073486328125e-06 2.741462707519531 C 1.9073486328125e-06 1.227392196655273 1.070201873779297 1.9073486328125e-06 2.390361785888672 1.9073486328125e-06 Z" fill="#fff"/></g><rect data-name="Rechteck 933" width="10" height="6" rx="1" transform="translate(106 1611.303)" fill="#fff"/></g></svg>
