<svg xmlns="http://www.w3.org/2000/svg" xmlns:xlink="http://www.w3.org/1999/xlink" width="95" height="95" viewBox="0 0 95 95">
  <defs>
    <pattern id="pattern" patternUnits="userSpaceOnUse" preserveAspectRatio="xMidYMin slice" width="94.137" height="94.137" viewBox="150 0 94.137 94.137">
        <image xlink:href="https://www.gitpod.io/galaxy.jpg" height="100" width="370" />
    </pattern>
  </defs>
  <g id="Gruppe_maskieren_2" data-name="Gruppe maskieren 2" transform="translate(-0.449 -0.319)" clip-path="url(#clip-path)">
    <g id="layer1" transform="translate(13.304 2.354)">
      <g id="Ebene_x0020_1" transform="translate(0 0)">
        <g id="_198302696" transform="translate(0 0)">
          <path id="Vereinigungsmenge_46" data-name="Vereinigungsmenge 46" d="M0,129.109a10.03,10.03,0,0,0,3.615-3.465c.6-1.055.753-2.562.753-6.026v-23.5h4.52v23.2c0,4.67-.452,6.479-1.657,8.286a10.016,10.016,0,0,1-5.273,3.917Zm50.469-10.245c0-4.369,3.314-7.08,10.545-7.08h1.507v-1.959c0-2.41-1.356-3.615-4.218-3.615a19.567,19.567,0,0,0-6.177,1.205l-.6-2.712a20.7,20.7,0,0,1,7.835-1.657c5.272,0,7.382,2.561,7.382,6.327v14.764H63.425l-.3-2.26a9.774,9.774,0,0,1-6.479,2.712C52.578,124.589,50.469,122.479,50.469,118.864Zm4.218-.753a2.973,2.973,0,0,0,3.163,3.315,7.27,7.27,0,0,0,4.67-2.11V114.5H60.713C55.892,114.5,54.687,116,54.687,118.111Zm-42.785.753c0-4.369,3.314-7.08,10.545-7.08h1.507v-1.959c0-2.41-1.356-3.615-4.218-3.615a17.826,17.826,0,0,0-6.026,1.205l-.753-2.712a20.7,20.7,0,0,1,7.835-1.657c5.272,0,7.382,2.561,7.382,6.327v14.764H24.858l-.3-2.26a9.709,9.709,0,0,1-6.328,2.712C14.162,124.589,11.9,122.479,11.9,118.864Zm4.218-.753a2.973,2.973,0,0,0,3.163,3.315,7.27,7.27,0,0,0,4.67-2.11V114.5H22.146C17.325,114.5,16.12,116,16.12,118.111Zm20.94,6.026L30.733,103.5h4.52l3.917,12.655.9,3.766A72.713,72.713,0,0,0,44.141,103.5h4.52a85.872,85.872,0,0,1-6.327,20.639Zm-10.4-34.2c-10.7-.6-12.805-2.41-12.805-2.41,10.094,1.657,27.268,1.958,41.128-.6,12.2-2.26,13.407-5.273,13.407-5.273-.5,6.334-17.477,8.573-32.542,8.573C32.645,90.226,29.523,90.124,26.666,89.939ZM6.328,83.913c-13.107-2.109,6.478-9.49,9.942-7.08a15.015,15.015,0,0,0-3.013.452c-1.958.3-7.984,2.26-4.821,3.615,9.039,3.917,41.279,3.013,51.372,0,5.357-1.636,2.924-3.715,2.864-3.765,7.06,3.19-8.192,8.792-31.62,8.792A154.491,154.491,0,0,1,6.328,83.913ZM23.351,69.752s-3.465,2.109,2.41,2.711c7.081.9,10.847.753,18.681-.753a28.224,28.224,0,0,0,4.972,2.411,41.241,41.241,0,0,1-15.983,3.118C21.681,77.24,13.638,72.5,23.351,69.752Zm39.319,7.382h0ZM21.09,59.96c-.06.046-3.718,2.866,2.11,3.464a71.254,71.254,0,0,0,24.1-1.2,9.2,9.2,0,0,0,3.615,2.259,69.858,69.858,0,0,1-19.5,2.788C18.569,67.267,10.662,63.472,21.09,59.96Zm33.3,6.177C71.259,57.4,63.425,48.962,58,50.016a9.428,9.428,0,0,0-1.959.6,2.581,2.581,0,0,1,1.507-1.2c10.7-3.767,19.133,11.3-3.465,17.173A1.844,1.844,0,0,0,54.386,66.137ZM21.091,59.959h0ZM10.7,53.03a31.245,31.245,0,0,1,14.311-3.315s-16.421,3.918-5.875,5.273c4.52.6,13.408.452,21.694-.151,6.779-.6,13.559-1.807,13.559-1.807a36.129,36.129,0,0,0-4.068,2.109c-6.532,1.707-15.413,2.448-23.258,2.448C14.822,57.587,5.1,55.784,10.7,53.03ZM39.32,43.237C24.557,26.214,55.44,18.53,55.44,18.53c-19.584,11.3-15.969,14.613-11.3,21.393,5.122,7.08-6.026,12.805-6.026,12.805S43.689,48.209,39.32,43.237ZM24.708,28.774C30.884,19.434,47.907,14.914,44.141,0c0,0,9.341,9.491-8.889,23.8-14.613,11.6-3.314,18.229,0,25.761C26.666,41.881,20.489,35.1,24.708,28.774Z" fill="url(#pattern)"/>
        </g>
      </g>
    </g>
  </g>
</svg>
