<svg xmlns="http://www.w3.org/2000/svg" xmlns:xlink="http://www.w3.org/1999/xlink" width="94.137" height="94.137" viewBox="0 0 94.137 94.137">
  <defs>
    <pattern id="pattern" patternUnits="userSpaceOnUse" preserveAspectRatio="xMidYMin slice" width="94.137" height="94.137" viewBox="150 0 94.137 94.137">
        <image xlink:href="https://www.gitpod.io/galaxy.jpg" width="370" height="100" />
    </pattern>
  </defs>
  <g id="Gruppe_479" data-name="Gruppe 479" transform="translate(9 6)">
    <g id="javascript" transform="translate(0 0)">
      <g transform="matrix(1, 0, 0, 1, -9, -6)">
        <path d="M0,0H76.137V76.137H0Z" transform="translate(9 6)" fill="url(#pattern)"/>
      </g>
      <path id="Pfad_605" data-name="Pfad 605" d="M18.276,60.618,24.1,57.091c1.124,1.993,2.147,3.679,4.6,3.679,2.351,0,3.834-.92,3.834-4.5V31.946H39.69V56.375c0,7.411-4.344,10.784-10.682,10.784-5.724,0-9.046-2.964-10.733-6.542m25.3-.766L49.4,56.478c1.534,2.5,3.527,4.344,7.053,4.344,2.965,0,4.855-1.482,4.855-3.527,0-2.453-1.942-3.322-5.213-4.753l-1.788-.767c-5.162-2.2-8.586-4.957-8.586-10.783,0-5.366,4.088-9.455,10.477-9.455,4.549,0,7.819,1.585,10.17,5.724L60.8,40.839c-1.227-2.2-2.555-3.066-4.6-3.066a3.113,3.113,0,0,0-3.424,3.066c0,2.146,1.329,3.016,4.4,4.345l1.789.766c6.082,2.607,9.506,5.264,9.506,11.243,0,6.44-5.059,9.966-11.857,9.966-6.644,0-10.937-3.169-13.032-7.309" transform="translate(1.743 3.008)" fill="#fff"/>
    </g>
  </g>
</svg>
