<svg xmlns="http://www.w3.org/2000/svg" width="74.771" height="72.277" viewBox="0 0 74.771 72.277"><path d="M68.23,16.075a5.535,5.535,0,0,0-2.736-3.164L39.415.428A4.784,4.784,0,0,0,37.278,0,9.024,9.024,0,0,0,35.14.171L9.061,12.74A4.594,4.594,0,0,0,6.5,15.9L.083,44.035a5.394,5.394,0,0,0,.941,4.1L19.065,70.456A6.225,6.225,0,0,0,23,72.251H51.728a4.261,4.261,0,0,0,3.933-1.8L73.7,48.139a5.839,5.839,0,0,0,1.026-4.1l-6.5-27.96Z" transform="translate(0 0)" fill="#1d70dc"/><path d="M65.728,44.472h0c-.086,0-.171,0-.171-.086s-.171-.085-.342-.085a4.163,4.163,0,0,0-1.026-.086,1.084,1.084,0,0,1-.513-.086h-.086a17.28,17.28,0,0,1-2.907-.513,1.033,1.033,0,0,1-.6-.6h0l-.684-.171a22.3,22.3,0,0,0-.342-7.524,23.164,23.164,0,0,0-2.993-7.011l.513-.513h0v-.086a1.194,1.194,0,0,1,.257-.77,15.313,15.313,0,0,1,2.394-1.71h0l.513-.257c.342-.171.6-.342.941-.513.085-.086.171-.086.257-.171s0-.086,0-.171h0a1.673,1.673,0,0,0,.342-2.394,1.633,1.633,0,0,0-1.2-.6,2.043,2.043,0,0,0-1.2.428h0l-.085.086c-.086.086-.171.171-.257.171a5.533,5.533,0,0,0-.684.77c-.085.171-.257.257-.342.342h0a11.243,11.243,0,0,1-2.138,1.881,1.215,1.215,0,0,1-.513.171.514.514,0,0,1-.342-.086h-.086l-.684.428c-.684-.684-1.454-1.368-2.138-2.052A21.909,21.909,0,0,0,40.5,18.82l-.086-.684h0v.086a1.175,1.175,0,0,1-.428-.684,17.082,17.082,0,0,1,.171-2.907v-.086c0-.171.086-.342.086-.513.086-.342.086-.684.171-1.026v-.513h0a1.692,1.692,0,0,0-1.454-1.8,1.715,1.715,0,0,0-1.454.6,1.688,1.688,0,0,0-.513,1.2h0v.428a4.292,4.292,0,0,0,.171,1.026,1.084,1.084,0,0,1,.086.513v.086a16.113,16.113,0,0,1,.171,2.907,1.175,1.175,0,0,1-.428.684v.171h0l-.086.684c-.941.086-1.881.257-2.907.428A20.383,20.383,0,0,0,23.489,25.4l-.513-.342h-.086c-.086,0-.171.086-.342.086a1.215,1.215,0,0,1-.513-.171A15.766,15.766,0,0,1,19.9,23.01h0c-.086-.171-.257-.257-.342-.342-.257-.257-.428-.513-.684-.77-.086-.086-.171-.086-.257-.171l-.086-.086h0a2.043,2.043,0,0,0-1.2-.428,1.294,1.294,0,0,0-1.2.6,1.839,1.839,0,0,0,.342,2.394h0a.084.084,0,0,1,.086.086s.171.171.257.171a9.327,9.327,0,0,0,.941.513l.513.257h0a12.139,12.139,0,0,1,2.394,1.71.862.862,0,0,1,.257.77v-.086h0l.513.513c-.086.171-.171.257-.257.428A20.3,20.3,0,0,0,18.188,42.59l-.684.171h0a.084.084,0,0,1-.086.086,1.347,1.347,0,0,1-.6.6,15.882,15.882,0,0,1-2.907.513h0a1.084,1.084,0,0,0-.513.086c-.342,0-.684.086-1.026.086-.086,0-.171.086-.342.086-.086,0-.086,0-.171.086h0a1.669,1.669,0,0,0-1.368,1.967h0a1.587,1.587,0,0,0,1.71,1.2.771.771,0,0,0,.428-.086h0c.086,0,.086,0,.086-.086s.257,0,.342,0c.342-.086.684-.257.941-.342a1.215,1.215,0,0,1,.513-.171H14.6a15.242,15.242,0,0,1,2.822-.77H17.5a.971.971,0,0,1,.684.257.084.084,0,0,1,.086.086h0l.77-.086a20.638,20.638,0,0,0,7.011,10,13.561,13.561,0,0,0,2.309,1.539l-.428.6h0a.084.084,0,0,0,.086.085,1.012,1.012,0,0,1,.086.855,14.03,14.03,0,0,1-1.368,2.48v.085a1.5,1.5,0,0,1-.342.428c-.171.171-.342.513-.6.855-.086.086-.086.171-.171.257a.084.084,0,0,1-.086.085h0a1.76,1.76,0,0,0,.684,2.309,1.585,1.585,0,0,0,.6.171,1.916,1.916,0,0,0,1.625-1.026h0a.084.084,0,0,1,.086-.086c0-.086.086-.171.171-.257.086-.342.257-.6.342-.941l.171-.513h0a14.471,14.471,0,0,1,1.112-2.651,1.33,1.33,0,0,1,.684-.513c.086,0,.086,0,.086-.086h0l.342-.684a20.127,20.127,0,0,0,7.439,1.368,17.121,17.121,0,0,0,4.617-.6,25.548,25.548,0,0,0,2.736-.77l.342.6h0c.086,0,.086,0,.086.085a1.33,1.33,0,0,1,.684.513,14.471,14.471,0,0,1,1.112,2.651V63.2l.171.513a3.063,3.063,0,0,0,.342.941c.086.086.086.171.171.257a.084.084,0,0,0,.086.086h0a1.916,1.916,0,0,0,1.625,1.026,2.012,2.012,0,0,0,.684-.171,1.431,1.431,0,0,0,.77-.941,2.2,2.2,0,0,0-.086-1.283h0a.084.084,0,0,0-.085-.086c0-.086-.086-.171-.171-.257a3.071,3.071,0,0,0-.6-.855A1.5,1.5,0,0,0,51.022,62v-.171a10.1,10.1,0,0,1-1.368-2.48,1.012,1.012,0,0,1,.086-.855.084.084,0,0,1,.085-.086h0l-.257-.684A21.135,21.135,0,0,0,58.8,46.1l.684.086h0a.084.084,0,0,0,.086-.086.971.971,0,0,1,.684-.257h.086a14.375,14.375,0,0,1,2.736.77h.086a1.215,1.215,0,0,0,.513.171,4.583,4.583,0,0,0,.941.428c.086,0,.171.086.342.086.086,0,.086,0,.171.086h0a.771.771,0,0,0,.428.086,1.86,1.86,0,0,0,1.71-1.2,2.016,2.016,0,0,0-1.539-1.8ZM41.018,41.821l-2.309,1.112L36.4,41.821l-.6-2.48,1.625-2.052h2.565l1.625,2.052Zm13.937-5.558A16.37,16.37,0,0,1,55.3,41.65l-8.123-2.309h0a1.4,1.4,0,0,1-1.026-1.71,1.378,1.378,0,0,1,.342-.6L52.9,31.218a17.4,17.4,0,0,1,2.052,5.045Zm-4.617-8.208-7.011,4.959a1.454,1.454,0,0,1-1.881-.342.776.776,0,0,1-.257-.6l-.513-8.636a16.091,16.091,0,0,1,9.662,4.617ZM34.861,23.694l1.71-.342-.428,8.55h0A1.425,1.425,0,0,1,34.69,33.27a2.012,2.012,0,0,1-.684-.171l-7.1-5.045a16.979,16.979,0,0,1,7.952-4.361ZM24.43,31.218l6.327,5.643h0a1.374,1.374,0,0,1,.171,1.967.962.962,0,0,1-.684.428L21.95,41.65a18,18,0,0,1,2.48-10.432Zm-1.454,14.45,8.465-1.454a1.4,1.4,0,0,1,1.454,1.112,1.012,1.012,0,0,1-.086.855h0L29.56,54.048a16.82,16.82,0,0,1-6.584-8.379Zm19.409,10.6a17.3,17.3,0,0,1-3.677.428,19.164,19.164,0,0,1-5.387-.855l4.19-7.61a1.326,1.326,0,0,1,1.71-.342,4.282,4.282,0,0,1,.684.6h0l4.1,7.439A13.893,13.893,0,0,0,42.386,56.271Zm10.432-7.439a16.327,16.327,0,0,1-5.13,5.13l-3.335-8.037a1.39,1.39,0,0,1,.77-1.625,2.5,2.5,0,0,1,.77-.171l8.55,1.454A12.839,12.839,0,0,1,52.817,48.832Z" transform="translate(-1.517 -1.548)" fill="#fff"/></svg>
