<svg xmlns="http://www.w3.org/2000/svg" width="667.186" height="361">
    <defs>
        <filter id="a" x="0" y="51" width="137" height="137" filterUnits="userSpaceOnUse">
            <feOffset dy="3" />
            <feGaussianBlur stdDeviation="3" result="blur" />
            <feFlood flood-opacity=".161" />
            <feComposite operator="in" in2="blur" />
            <feComposite in="SourceGraphic" />
        </filter>
        <filter id="b" x="0" y="175" width="137" height="137" filterUnits="userSpaceOnUse">
            <feOffset dy="3" />
            <feGaussianBlur stdDeviation="3" result="blur-2" />
            <feFlood flood-opacity=".161" />
            <feComposite operator="in" in2="blur-2" />
            <feComposite in="SourceGraphic" />
        </filter>
        <filter id="c" x="141" y="0" width="137" height="137" filterUnits="userSpaceOnUse">
            <feOffset dy="3" />
            <feGaussianBlur stdDeviation="3" result="blur-3" />
            <feFlood flood-opacity=".161" />
            <feComposite operator="in" in2="blur-3" />
            <feComposite in="SourceGraphic" />
        </filter>
        <filter id="d" x="141" y="224" width="137" height="137" filterUnits="userSpaceOnUse">
            <feOffset dy="3" />
            <feGaussianBlur stdDeviation="3" result="blur-4" />
            <feFlood flood-opacity=".161" />
            <feComposite operator="in" in2="blur-4" />
            <feComposite in="SourceGraphic" />
        </filter>
        <filter id="e" x="281.075" y="51" width="386.111" height="249.773" filterUnits="userSpaceOnUse">
            <feOffset dy="3" />
            <feGaussianBlur stdDeviation="3" result="blur-5" />
            <feFlood flood-opacity=".161" />
            <feComposite operator="in" in2="blur-5" />
            <feComposite in="SourceGraphic" />
        </filter>
    </defs>
    <g data-name="Gruppe 1248">
        <path data-name="Linie 202" fill="none" stroke="#9f9f9f" stroke-width="3" stroke-dasharray="3 5" d="M128.5 219.5h220" />
        <path data-name="Linie 203" fill="none" stroke="#9f9f9f" stroke-width="3" stroke-dasharray="3 5" d="M256.5 279.5h121" />
        <path data-name="Linie 204" fill="none" stroke="#9f9f9f" stroke-width="3" stroke-dasharray="3 5" d="M122.5 136.5h293" />
        <path data-name="Linie 205" fill="none" stroke="#9f9f9f" stroke-width="3" stroke-dasharray="3 5" d="M256.5 77.5h193" />
        <g filter="url(#a)">
            <g data-name="Ellipse 507" transform="translate(9 57)" fill="#e6e6e6" stroke="#e6e6e6" stroke-width="3">
                <circle cx="59.5" cy="59.5" r="59.5" stroke="none" />
                <circle cx="59.5" cy="59.5" r="58" fill="none" />
            </g>
        </g>
        <g filter="url(#b)">
            <g data-name="Ellipse 508" transform="translate(9 181)" fill="#e6e6e6" stroke="#e6e6e6" stroke-width="3">
                <circle cx="59.5" cy="59.5" r="59.5" stroke="none" />
                <circle cx="59.5" cy="59.5" r="58" fill="none" />
            </g>
        </g>
        <g filter="url(#c)">
            <g data-name="Ellipse 509" transform="translate(150 6)" fill="#e6e6e6" stroke="#e6e6e6" stroke-width="3">
                <circle cx="59.5" cy="59.5" r="59.5" stroke="none" />
                <circle cx="59.5" cy="59.5" r="58" fill="none" />
            </g>
        </g>
        <text transform="translate(50 123)" fill="#707070" font-size="18" font-family="Montserrat-SemiBold, Montserrat" font-weight="600">
            <tspan x="0" y="0">Run</tspan>
        </text>
        <text transform="translate(69 247)" fill="#707070" font-size="18" font-family="Montserrat-SemiBold, Montserrat" font-weight="600">
            <tspan x="-18.972" y="0">Test</tspan>
        </text>
        <text transform="translate(185 72)" fill="#707070" font-size="18" font-family="Montserrat-SemiBold, Montserrat" font-weight="600">
            <tspan x="0" y="0">Build</tspan>
        </text>
        <g filter="url(#d)">
            <g data-name="Ellipse 510" transform="translate(150 230)" fill="#e6e6e6" stroke="#e6e6e6" stroke-width="3">
                <circle cx="59.5" cy="59.5" r="59.5" stroke="none" />
                <circle cx="59.5" cy="59.5" r="58" fill="none" />
            </g>
        </g>
        <text transform="translate(178 296)" fill="#707070" font-size="18" font-family="Montserrat-SemiBold, Montserrat" font-weight="600">
            <tspan x="0" y="0">Debug</tspan>
        </text>
        <g transform="translate(-.005)" filter="url(#e)">
            <path data-name="cloud-download" d="M480.952 288.773H590.03a68.189 68.189 0 0025.663-131.354 75.038 75.038 0 00-106.194-51.98 95.448 95.448 0 00-178.518 47q0 2.825.162 5.611a68.175 68.175 0 0027.1 130.727h122.709zm-13.634 0z" fill="#fff" fill-rule="evenodd" />
        </g>
        <path d="M512.941 160.075a7.945 7.945 0 00-3.928-4.541l-37.434-17.92a6.867 6.867 0 00-3.069-.614 12.954 12.954 0 00-3.068.245l-37.435 18.043a6.6 6.6 0 00-3.682 4.541l-9.205 40.381a7.743 7.743 0 001.35 5.89l25.9 32.034a8.936 8.936 0 005.646 2.577h41.24a6.116 6.116 0 005.646-2.577L520.8 206.1a8.382 8.382 0 001.473-5.891l-9.332-40.134z" fill="#326de6" />
        <path d="M507.172 198.614c-.123 0-.245 0-.245-.123s-.245-.123-.491-.123a5.976 5.976 0 00-1.473-.123 1.557 1.557 0 01-.736-.123h-.123a24.8 24.8 0 01-4.173-.736 1.483 1.483 0 01-.859-.859l-.982-.245a32.01 32.01 0 00-.491-10.8 33.25 33.25 0 00-4.3-10.064l.736-.736v-.123a1.713 1.713 0 01.368-1.1 21.981 21.981 0 013.437-2.455l.739-.375c.491-.245.859-.491 1.35-.736.123-.123.245-.123.368-.245s0-.123 0-.245a2.4 2.4 0 00.491-3.437 2.344 2.344 0 00-1.718-.859 2.933 2.933 0 00-1.718.614l-.123.123c-.123.123-.245.245-.368.245a7.94 7.94 0 00-.982 1.1c-.123.245-.368.368-.491.491a16.139 16.139 0 01-3.068 2.7 1.745 1.745 0 01-.736.245.738.738 0 01-.491-.123h-.123l-.982.614c-.982-.982-2.087-1.964-3.068-2.946a31.449 31.449 0 00-15.956-6.382l-.123-.982v.123a1.686 1.686 0 01-.614-.982 24.521 24.521 0 01.245-4.173v-.123c0-.245.123-.491.123-.736.123-.491.123-.982.245-1.473v-.736a2.428 2.428 0 00-2.084-2.577 2.462 2.462 0 00-2.087.859 2.423 2.423 0 00-.736 1.718v.623a6.16 6.16 0 00.245 1.473 1.557 1.557 0 01.123.736v.123a23.129 23.129 0 01.245 4.173 1.687 1.687 0 01-.614.982v.245l-.123.982c-1.35.123-2.7.368-4.173.614a29.259 29.259 0 00-15.1 8.592l-.736-.491h-.121c-.123 0-.245.123-.491.123a1.744 1.744 0 01-.736-.245 22.631 22.631 0 01-3.068-2.823c-.123-.245-.368-.368-.491-.491-.368-.368-.614-.736-.982-1.1-.123-.123-.245-.123-.368-.245l-.123-.123a2.933 2.933 0 00-1.718-.614 1.857 1.857 0 00-1.718.859 2.64 2.64 0 00.495 3.43.12.12 0 01.123.123s.245.245.368.245a13.389 13.389 0 001.35.736l.736.368a17.425 17.425 0 013.437 2.455 1.237 1.237 0 01.368 1.1v-.123l.736.736c-.123.245-.245.368-.368.614a29.145 29.145 0 00-4.3 20.129l-.982.245a.12.12 0 01-.123.123 1.934 1.934 0 01-.859.859 22.8 22.8 0 01-4.173.736 1.557 1.557 0 00-.736.123c-.491 0-.982.123-1.473.123-.123 0-.245.123-.491.123-.123 0-.123 0-.245.123a2.4 2.4 0 00-1.964 2.823 2.279 2.279 0 002.455 1.718 1.106 1.106 0 00.614-.123c.123 0 .123 0 .123-.123s.368 0 .491 0c.491-.123.982-.368 1.35-.491a1.744 1.744 0 01.736-.245h.127a21.879 21.879 0 014.05-1.1h.123a1.394 1.394 0 01.982.368.12.12 0 01.123.123l1.1-.123a29.624 29.624 0 0010.064 14.36 19.468 19.468 0 003.314 2.209l-.614.859a.12.12 0 00.123.123 1.452 1.452 0 01.123 1.227 20.139 20.139 0 01-1.963 3.557v.123a2.155 2.155 0 01-.491.614c-.245.245-.491.736-.859 1.227-.123.123-.123.245-.245.368a.12.12 0 01-.123.123 2.527 2.527 0 00.982 3.314 2.275 2.275 0 00.859.245 2.75 2.75 0 002.332-1.473.12.12 0 01.123-.123c0-.123.123-.245.245-.368.123-.491.368-.859.491-1.35l.245-.736a20.772 20.772 0 011.6-3.8 1.909 1.909 0 01.982-.736c.123 0 .123 0 .123-.123l.491-.982a28.891 28.891 0 0010.678 1.964 24.576 24.576 0 006.628-.859 36.671 36.671 0 003.928-1.1l.491.859c.123 0 .123 0 .123.123a1.909 1.909 0 01.982.736 20.772 20.772 0 011.6 3.8v.123l.245.736a4.4 4.4 0 00.491 1.35c.123.123.123.245.245.368a.12.12 0 00.123.123 2.75 2.75 0 002.332 1.473 2.888 2.888 0 00.982-.245 2.054 2.054 0 001.1-1.35 3.158 3.158 0 00-.123-1.841.12.12 0 00-.123-.123c0-.123-.123-.245-.245-.368a4.408 4.408 0 00-.859-1.227 2.155 2.155 0 00-.491-.614v-.251a14.5 14.5 0 01-1.964-3.559 1.452 1.452 0 01.123-1.227.12.12 0 01.123-.123l-.369-.981a30.338 30.338 0 0013.252-16.693l.982.123a.12.12 0 00.123-.123 1.394 1.394 0 01.982-.368h.123a20.635 20.635 0 013.928 1.1h.123a1.744 1.744 0 00.736.245 6.578 6.578 0 001.35.614c.123 0 .245.123.491.123.123 0 .123 0 .245.123a1.107 1.107 0 00.614.123 2.669 2.669 0 002.451-1.714 2.894 2.894 0 00-2.209-2.577zm-35.471-3.8l-3.314 1.6-3.314-1.6-.859-3.559 2.332-2.946h3.682l2.332 2.946zm20.006-7.985a23.5 23.5 0 01.491 7.732l-11.66-3.314a2.007 2.007 0 01-1.473-2.455 1.978 1.978 0 01.491-.859l9.205-8.346a24.971 24.971 0 012.946 7.242zm-6.628-11.78l-10.064 7.119a2.087 2.087 0 01-2.7-.491 1.114 1.114 0 01-.368-.859l-.736-12.4a23.1 23.1 0 0113.868 6.631zm-22.215-6.26l2.455-.491-.614 12.274a2.045 2.045 0 01-2.087 1.964 2.889 2.889 0 01-.982-.245l-10.186-7.242a24.373 24.373 0 0111.415-6.26zm-14.974 10.8l9.083 8.1a1.973 1.973 0 01.245 2.823 1.382 1.382 0 01-.982.614l-11.905 3.438a25.836 25.836 0 013.559-14.974zm-2.086 20.74l12.151-2.087a2.01 2.01 0 012.087 1.6 1.452 1.452 0 01-.123 1.227l-4.664 11.292a24.145 24.145 0 01-9.451-12.032zm27.861 15.223a24.837 24.837 0 01-5.278.614 27.509 27.509 0 01-7.732-1.227l6.014-10.924a1.9 1.9 0 012.455-.491 6.148 6.148 0 01.982.859l5.891 10.678a19.942 19.942 0 00-2.332.491zm14.974-10.678a23.436 23.436 0 01-7.36 7.364l-4.791-11.537a2 2 0 011.1-2.332 3.584 3.584 0 011.1-.245l12.274 2.087a18.43 18.43 0 01-2.323 4.663z" fill="#fff" />
    </g>
</svg>
