<svg xmlns="http://www.w3.org/2000/svg" width="511.407" height="137.954" viewBox="0 0 511.407 137.954">
  <g id="Gruppe_956" data-name="Gruppe 956" transform="translate(-255 -8129.046)">
    <path id="Swift_logo" d="M40.67,44.973c-6.351,3.669-15.084,4.046-23.87.28A37.331,37.331,0,0,1,0,30.876a28.307,28.307,0,0,0,6.205,3.783c9.073,4.253,18.145,3.962,24.529.011l-.01-.011C21.643,27.7,13.924,18.616,8.173,11.2A25.9,25.9,0,0,1,5.146,7.114,174.676,174.676,0,0,0,27.091,23.763,161.716,161.716,0,0,1,11.653,4.389,153.514,153.514,0,0,0,37.082,25.276c.406.229.719.419.97.589a19.915,19.915,0,0,0,.694-2.1c2.119-7.719-.3-16.5-5.6-23.763C45.4,7.416,52.671,21.34,49.643,33q-.118.472-.257.929.053.063.106.131c6.053,7.568,4.389,15.589,3.632,14.076C49.84,41.7,43.761,43.67,40.67,44.974Z" transform="translate(540.954 8218.054)" fill="#4d4d4d"/>
    <path id="typescriptlang-icon" d="M0,24.252V48.5H48.507V0H0ZM39.09,22.32a6.041,6.041,0,0,1,3.034,1.748,7.969,7.969,0,0,1,1.163,1.555c.015.061-2.094,1.478-3.373,2.271-.045.03-.231-.169-.44-.477a2.746,2.746,0,0,0-2.279-1.37c-1.47-.1-2.425.67-2.41,1.955a1.778,1.778,0,0,0,.208.909c.324.67.925,1.07,2.81,1.887,3.473,1.493,4.958,2.478,5.881,3.88a7.043,7.043,0,0,1,.562,5.913c-.77,2.018-2.679,3.388-5.366,3.843a14.882,14.882,0,0,1-3.7-.038,8.915,8.915,0,0,1-4.935-2.572,8.527,8.527,0,0,1-1.263-1.872,3.682,3.682,0,0,1,.447-.285l1.8-1.038,1.395-.809.293.432a6.507,6.507,0,0,0,1.84,1.763,4.5,4.5,0,0,0,4.719-.239,2.109,2.109,0,0,0,.27-2.687c-.377-.538-1.147-.993-3.335-1.94-2.5-1.078-3.58-1.748-4.566-2.81a6.4,6.4,0,0,1-1.332-2.425,9.709,9.709,0,0,1-.085-3.1,5.9,5.9,0,0,1,4.974-4.6,12.3,12.3,0,0,1,3.68.108ZM27.7,24.343l.015,1.986H21.4V44.268H16.939V26.329H10.626V24.381l.053-2c.023-.03,3.865-.045,8.523-.038l8.477.023Z" transform="translate(255 8129.326)" fill="#4d4d4d"/>
    <g id="ISO_C__Logo" data-name="ISO_C++_Logo" transform="translate(468.435 8217.914)">
      <path id="Vereinigungsmenge_61" data-name="Vereinigungsmenge 61" d="M19.366,36.365,1.334,25.954A3.865,3.865,0,0,1,0,24.543L21.255,12.271,42.51,24.543a3.867,3.867,0,0,1-1.334,1.411L23.143,36.365a4.189,4.189,0,0,1-3.777,0Zm1.889-24.093L42.51,0a3.863,3.863,0,0,1,.555,1.861V22.682a3.867,3.867,0,0,1-.555,1.861Z" transform="translate(0.555 12.272)" fill="#4d4d4d"/>
      <path id="Pfad_1109" data-name="Pfad 1109" d="M43.065,12.271a3.866,3.866,0,0,0-1.334-1.411L23.7.45a4.19,4.19,0,0,0-3.777,0L1.889,10.861A4.19,4.19,0,0,0,0,14.132V34.954a3.864,3.864,0,0,0,.555,1.861L21.81,24.543Z" transform="translate(0 0)" fill="#bcbcbc"/>
      <g id="Gruppe_669" data-name="Gruppe 669" transform="translate(7.27 10.003)">
        <path id="Pfad_1110" data-name="Pfad 1110" d="M65.54,99.255A14.54,14.54,0,1,1,78.131,77.44l-6.292,3.641a7.27,7.27,0,1,0,0,7.266l6.292,3.641A14.592,14.592,0,0,1,65.54,99.255Z" transform="translate(-51 -70.175)" fill="#fff"/>
      </g>
      <g id="Gruppe_670" data-name="Gruppe 670" transform="translate(31.503 22.12)">
        <path id="Pfad_1111" data-name="Pfad 1111" d="M225.847,156.79h-1.616v-1.616h-1.615v1.616H221v1.615h1.616v1.616h1.615v-1.616h1.616Z" transform="translate(-221 -155.175)" fill="#fff"/>
      </g>
      <g id="Gruppe_671" data-name="Gruppe 671" transform="translate(37.561 22.12)">
        <path id="Pfad_1112" data-name="Pfad 1112" d="M268.347,156.79h-1.616v-1.616h-1.615v1.616H263.5v1.615h1.616v1.616h1.615v-1.616h1.616Z" transform="translate(-263.5 -155.175)" fill="#fff"/>
      </g>
    </g>
    <g id="golang-official" transform="translate(556.381 8129.324)">
      <path id="Pfad_1094" data-name="Pfad 1094" d="M9.888,14.821c-.256,0-.319-.128-.191-.319l1.339-1.722a.914.914,0,0,1,.7-.319H34.509c.256,0,.319.191.191.383L33.615,14.5a.972.972,0,0,1-.638.383L9.887,14.821ZM.256,20.69c-.256,0-.319-.128-.191-.319L1.4,18.649a.914.914,0,0,1,.7-.319H31.193a.293.293,0,0,1,.319.383L31,20.243a.557.557,0,0,1-.574.383Zm15.436,5.868c-.256,0-.319-.191-.191-.383l.893-1.595a.847.847,0,0,1,.638-.383H29.789c.256,0,.383.191.383.446l-.128,1.53a.479.479,0,0,1-.446.446l-13.906-.064ZM81.9,13.673,71.187,16.479c-.957.256-1.02.319-1.85-.638a8.472,8.472,0,0,0-3-2.424c-4.018-1.977-7.91-1.4-11.545.957a13.566,13.566,0,0,0-6.507,12.12A10,10,0,0,0,56.9,36.51,11.774,11.774,0,0,0,67.743,32.3c.574-.7,1.085-1.467,1.722-2.36H57.154c-1.339,0-1.658-.829-1.212-1.914.829-1.977,2.36-5.294,3.253-6.953a1.722,1.722,0,0,1,1.595-1.02H84.009c-.128,1.722-.128,3.444-.383,5.167a27.2,27.2,0,0,1-5.23,12.5A26.575,26.575,0,0,1,60.217,48.566a22.6,22.6,0,0,1-17.159-4.21,20.022,20.022,0,0,1-8.1-14.162,25.036,25.036,0,0,1,5.422-18.69A28.306,28.306,0,0,1,58.239.47c6-1.085,11.737-.383,16.9,3.125a20,20,0,0,1,7.4,8.994c.383.574.128.893-.638,1.085Z" transform="translate(-0.001 -0.001)" fill="#4d4d4d"/>
      <path id="Pfad_1095" data-name="Pfad 1095" d="M179.57,49.509A23.956,23.956,0,0,1,164.006,43.9a20,20,0,0,1-6.888-12.311c-1.148-7.208.829-13.587,5.167-19.264,4.657-6.124,10.27-9.313,17.861-10.652,6.507-1.148,12.63-.51,18.179,3.253a19.856,19.856,0,0,1,8.994,14.224,24.621,24.621,0,0,1-7.336,21.624,29.23,29.23,0,0,1-15.309,8.165c-1.722.319-3.444.383-5.1.574Zm15.181-25.77a18.426,18.426,0,0,0-.191-2.1,10.507,10.507,0,0,0-13.013-8.484,13.933,13.933,0,0,0-11.163,11.1,10.5,10.5,0,0,0,5.868,12.056,11.7,11.7,0,0,0,10.4-.383c5.039-2.61,7.782-6.7,8.1-12.184Z" transform="translate(-76.554 -0.563)" fill="#4d4d4d"/>
    </g>
    <g id="g2303" transform="translate(409.026 8129.987)">
      <path id="path1948" d="M25.282,6.4a27.449,27.449,0,0,0-4.594.392c-4.068.719-4.807,2.223-4.807,5V15.45h9.613v1.221H12.274a6,6,0,0,0-6.005,4.874,17.969,17.969,0,0,0,0,9.77c.683,2.846,2.315,4.874,5.109,4.874h3.305V31.8a6.109,6.109,0,0,1,6.006-5.972h9.6A4.843,4.843,0,0,0,35.1,20.941V11.787c0-2.605-2.2-4.562-4.807-5A29.984,29.984,0,0,0,25.282,6.4Zm-5.2,2.947a1.832,1.832,0,1,1-1.8,1.838A1.824,1.824,0,0,1,20.083,9.344Z" transform="translate(-5.591 -6.397)" fill="#4d4d4d"/>
      <path id="path1950" d="M54.706,35.054v4.269a6.166,6.166,0,0,1-6.006,6.1H39.1A4.9,4.9,0,0,0,34.291,50.3v9.154c0,2.605,2.265,4.138,4.807,4.885a16.084,16.084,0,0,0,9.6,0c2.42-.7,4.807-2.111,4.807-4.885V55.793H43.9V54.572H58.313c2.794,0,3.835-1.949,4.807-4.874,1-3.011.961-5.907,0-9.77-.69-2.781-2.009-4.874-4.807-4.874Zm-5.4,23.182a1.832,1.832,0,1,1-1.8,1.826A1.814,1.814,0,0,1,49.305,58.236Z" transform="translate(-24.001 -24.78)" fill="#bcbcbc"/>
      <path id="path1894" d="M34.993,102.619c0,1.38-5.768,2.5-12.883,2.5S9.228,104,9.228,102.619s5.768-2.5,12.883-2.5,12.883,1.118,12.883,2.5Z" transform="translate(-2.098 -56.833)" fill="#dbdbdb" opacity="0.444"/>
    </g>
    <g id="c_logo" data-name="c# logo" transform="translate(334.849 8217.886)">
      <path id="Pfad_1113" data-name="Pfad 1113" d="M51.745,13.488,32.615,2.477A2.349,2.349,0,0,0,31.387,2.2a2.81,2.81,0,0,0-1.228.277L11.149,13.527A2.721,2.721,0,0,0,10,15.666V37.727a2.327,2.327,0,0,0,.4,1.386L52.7,14.557a2.805,2.805,0,0,0-.951-1.069Z" transform="translate(-10 -2.2)" fill="#bcbcbc"/>
      <path id="Pfad_1114" data-name="Pfad 1114" d="M10.7,57.856a2.275,2.275,0,0,0,.753.753l19.09,11.05a2.349,2.349,0,0,0,1.228.277A2.81,2.81,0,0,0,33,69.658l19.011-11.05a2.722,2.722,0,0,0,1.149-2.139V34.409A2.249,2.249,0,0,0,52.92,33.3L10.7,57.856Z" transform="translate(-10.423 -20.982)" fill="#4d4d4d"/>
      <path id="Pfad_1115" data-name="Pfad 1115" d="M48.581,44.937a9.723,9.723,0,1,1,0-9.545l5.149-2.97a15.639,15.639,0,1,0-.04,15.526Zm4.634-3.921.356-1.7H51.907V37.451h2.02L54.4,35h1.941l-.475,2.416h1.505L57.848,35h1.9l-.475,2.416h.951v1.861H58.918l-.356,1.7h1.663v1.861H58.2l-.475,2.376H55.789l.475-2.376H54.759l-.475,2.376h-1.9l.475-2.376h-.951V40.976h1.307Zm1.9,0h1.505l.356-1.7H55.472Z" transform="translate(-18.757 -15.668)" fill="#fff"/>
    </g>
    <g id="Gruppe_687" data-name="Gruppe 687" transform="translate(715.7 8129.046)">
      <path id="_227268128" d="M20.2,182.5s-1.872,1.14,1.3,1.465a26.683,26.683,0,0,0,10.094-.407,15.268,15.268,0,0,0,2.686,1.3c-9.524,4.07-21.572-.244-14.083-2.361Zm-1.221-5.291s-2.035,1.547,1.14,1.872a38.5,38.5,0,0,0,13.025-.651,4.965,4.965,0,0,0,1.954,1.221c-11.478,3.419-24.34.326-16.118-2.442Zm22.468,9.28s1.384,1.14-1.547,2.035c-5.454,1.628-22.875,2.117-27.759,0-1.709-.733,1.547-1.791,2.6-1.954a8.114,8.114,0,0,1,1.628-.244c-1.872-1.3-12.455,2.686-5.373,3.826,19.456,3.175,35.492-1.384,30.445-3.663ZM21.093,171.674s-8.873,2.117-3.175,2.849a70.8,70.8,0,0,0,11.722-.081c3.663-.326,7.326-.977,7.326-.977a19.587,19.587,0,0,0-2.2,1.14c-9.036,2.361-26.375,1.3-21.409-1.14a16.886,16.886,0,0,1,7.733-1.791Zm15.874,8.873c9.117-4.721,4.884-9.28,1.954-8.71a5.093,5.093,0,0,0-1.058.326,1.4,1.4,0,0,1,.814-.651c5.78-2.035,10.338,6.105-1.872,9.28a1.009,1.009,0,0,0,.163-.244ZM21.989,193.409c8.792.57,22.223-.326,22.549-4.477,0,0-.651,1.628-7.245,2.849a73.274,73.274,0,0,1-22.223.326s1.14.977,6.919,1.3Z" transform="translate(-8.587 -144.811)" fill="#4d4d4d"/>
      <path id="_230367536" d="M56.142,15.847c-7.9,6.268-1.791,9.85,0,13.92-4.64-4.152-7.978-7.815-5.7-11.234,3.338-5.047,12.536-7.489,10.5-15.548C60.945,2.985,65.992,8.114,56.142,15.847Zm2.2,10.5c2.361,2.686-.651,5.129-.651,5.129s6.024-3.093,3.256-6.919C58.421,20.894,56.467,19.1,67.05,13c0,0-16.688,4.152-8.71,13.35Z" transform="translate(-38.1 -2.985)" fill="#4d4d4d"/>
    </g>
    <g id="fsharp" transform="translate(255.126 8217.534)">
      <path id="Pfad_1149" data-name="Pfad 1149" d="M0,24.326,24.326,0V12.163L12.163,24.326,24.326,36.488V48.651Z" fill="#4d4d4d"/>
      <path id="Pfad_1150" data-name="Pfad 1150" d="M78.1,86.79,86.79,78.1V95.477Z" transform="translate(-62.464 -62.464)" fill="#9f9f9f"/>
      <path id="Pfad_1151" data-name="Pfad 1151" d="M155.363,24.326,130.169,0V12.163l12.163,12.163L130.169,36.488V48.651Z" transform="translate(-104.106)" fill="#bcbcbc"/>
    </g>
    <g id="HTML5_logo_and_wordmark" transform="translate(405.948 8217.866)">
      <path id="Pfad_1102" data-name="Pfad 1102" d="M108.4,0h2.138V2.12h1.971V0h2.138V6.414h-2.138V4.276h-1.952V6.414H108.4m9.073-4.276h-1.887V0h5.922V2.138h-1.9V6.414h-2.138M122.447,0h2.24l1.376,2.259L127.439,0h2.24V6.414h-2.138V3.235l-1.5,2.305-1.5-2.305V6.414h-2.1M130.739,0h2.138V4.295h3.031v2.12h-5.169" transform="translate(-105.258)" fill="#4d4d4d"/>
      <path id="Pfad_1103" data-name="Pfad 1103" d="M77.668,135.033,74.6,100.6h33.727l-3.068,34.415-13.823,3.83" transform="translate(-74.6 -91.248)" fill="#4d4d4d"/>
      <path id="Pfad_1104" data-name="Pfad 1104" d="M256,163.49V131h13.786l-2.631,29.376" transform="translate(-239.137 -118.822)" fill="#bcbcbc"/>
      <path id="Pfad_1105" data-name="Pfad 1105" d="M142,176.3h10.6v4.22H146.63l.39,4.323H152.6v4.211h-9.445m.186,2.12h4.239l.3,3.375,4.722,1.264v4.406l-8.664-2.417" transform="translate(-135.734 -159.911)" fill="#ebebeb"/>
      <path id="Pfad_1106" data-name="Pfad 1106" d="M266.379,176.3H255.8v4.22h10.189m-.381,4.323H255.8v4.22h5.206l-.493,5.485-4.713,1.264V200.2l8.645-2.4" transform="translate(-238.955 -159.911)" fill="#fff"/>
    </g>
    <g id="Clojure_logo" transform="translate(717.274 8217.866)">
      <path id="path8" d="M24.566,0A24.567,24.567,0,1,0,49.133,24.567,24.595,24.595,0,0,0,24.566,0" fill="none"/>
      <path id="path10" d="M110,130.3c-.221.478-.464,1.016-.716,1.588a40.3,40.3,0,0,0-2.239,6.052,9.091,9.091,0,0,0-.208,2.026c0,.3.016.625.042.951a11.683,11.683,0,0,0,7.744.117,6.96,6.96,0,0,1-.772-.817c-1.578-2.012-2.458-4.96-3.85-9.918" transform="translate(-86.328 -105.294)" fill="#4d4d4d"/>
      <path id="path12" d="M71.951,78.225a11.717,11.717,0,0,0-.135,19.094c.72-3,2.527-5.749,5.235-11.257-.161-.442-.344-.925-.549-1.433a17.911,17.911,0,0,0-2.8-5.057,7.789,7.789,0,0,0-1.751-1.345" transform="translate(-54.108 -63.212)" fill="#4d4d4d"/>
      <path id="path14" d="M44.858,95.779a19.088,19.088,0,0,1-3.96-.826,14.1,14.1,0,0,1-15.56-23.24,10.352,10.352,0,0,0-2.449-.3c-4.138.039-8.507,2.329-10.325,8.514a11.591,11.591,0,0,0-.13,2.388A22.2,22.2,0,0,0,52.792,95.081a25.859,25.859,0,0,1-6.051.806,15.582,15.582,0,0,1-1.883-.107" transform="translate(-10.044 -57.708)" fill="#4d4d4d"/>
      <path id="path16" d="M118.655,87.955a6.2,6.2,0,0,0,.88.3,11.74,11.74,0,0,0,4.807-9.463h0a11.724,11.724,0,0,0-15.425-11.14c2.384,2.717,3.53,6.6,4.638,10.847l0,0s.355,1.179.96,2.74a27.084,27.084,0,0,0,2.391,4.893,5.132,5.132,0,0,0,1.747,1.818" transform="translate(-88.012 -54.185)" fill="#4d4d4d"/>
      <path id="path18" d="M52.157,12.541a22.167,22.167,0,0,0-18.043,9.273,11.275,11.275,0,0,1,6.106-1.77A11.928,11.928,0,0,1,45.8,21.4c.235.135.458.281.677.431A14.105,14.105,0,0,1,66.262,34.742h0a14.061,14.061,0,0,1-4.2,10.036,17.319,17.319,0,0,0,2.006.112,10.95,10.95,0,0,0,7.109-2.217,9.384,9.384,0,0,0,2.991-5.1A22.167,22.167,0,0,0,52.157,12.541" transform="translate(-27.567 -10.134)" fill="#4d4d4d"/>
    </g>
    <path id="path3" d="M68.137,43.47,66.088,42.2q-.026-.3-.058-.6l1.761-1.642a.705.705,0,0,0-.234-1.176l-2.251-.842c-.056-.195-.116-.388-.176-.581l1.4-1.95a.705.705,0,0,0-.459-1.108L63.7,33.919c-.092-.18-.188-.357-.285-.533l1-2.189a.7.7,0,0,0-.666-1l-2.409.084q-.187-.234-.38-.462l.553-2.346a.706.706,0,0,0-.848-.849l-2.346.553q-.228-.193-.463-.38l.084-2.409a.705.705,0,0,0-1-.666l-2.189,1c-.177-.1-.354-.193-.533-.286l-.387-2.374a.705.705,0,0,0-1.108-.459l-1.951,1.4q-.288-.092-.58-.176l-.842-2.251a.7.7,0,0,0-1.176-.235l-1.642,1.762c-.2-.022-.4-.042-.6-.058L44.67,20a.705.705,0,0,0-1.2,0L42.2,22.05c-.2.016-.4.036-.6.058l-1.643-1.762a.7.7,0,0,0-1.176.235l-.842,2.251c-.195.056-.388.115-.581.176l-1.951-1.4a.705.705,0,0,0-1.108.459l-.387,2.374c-.179.093-.356.188-.533.286l-2.189-1a.705.705,0,0,0-1,.666l.084,2.409q-.234.187-.463.38l-2.346-.553a.706.706,0,0,0-.849.849l.553,2.346q-.192.228-.38.462L24.391,30.2a.705.705,0,0,0-.666,1l1,2.189c-.1.176-.193.353-.286.533l-2.373.386a.705.705,0,0,0-.459,1.108l1.4,1.95c-.061.193-.12.386-.176.581l-2.251.842a.705.705,0,0,0-.234,1.176L22.109,41.6c-.022.2-.041.4-.058.6L20,43.47a.705.705,0,0,0,0,1.2l2.049,1.268q.025.3.058.6l-1.761,1.643a.705.705,0,0,0,.234,1.176l2.251.842c.056.195.115.388.176.581l-1.4,1.95a.7.7,0,0,0,.459,1.108l2.373.386c.093.18.188.357.286.534l-1,2.188a.705.705,0,0,0,.666,1l2.408-.084c.125.157.252.31.38.463l-.553,2.347a.7.7,0,0,0,.849.847l2.346-.553c.152.13.307.256.463.38L30.2,63.747a.7.7,0,0,0,1,.666l2.189-1c.176.1.353.193.533.286l.387,2.372a.706.706,0,0,0,1.108.46l1.95-1.4c.193.061.386.121.581.177l.842,2.25a.705.705,0,0,0,1.176.234l1.643-1.761c.2.023.4.042.6.06l1.268,2.049a.705.705,0,0,0,1.2,0l1.268-2.049c.2-.018.4-.037.6-.06l1.642,1.761a.705.705,0,0,0,1.176-.234l.842-2.25c.195-.056.388-.116.581-.177l1.95,1.4a.705.705,0,0,0,1.108-.46l.387-2.372c.179-.093.356-.189.533-.286l2.189,1a.7.7,0,0,0,1-.666l-.084-2.409c.156-.124.31-.25.462-.38l2.346.553a.7.7,0,0,0,.848-.847l-.553-2.347c.129-.152.256-.306.38-.463l2.409.084a.7.7,0,0,0,.666-1l-1-2.188c.1-.177.193-.354.285-.534l2.373-.386a.705.705,0,0,0,.459-1.108l-1.4-1.95c.061-.193.12-.386.176-.581l2.251-.842a.705.705,0,0,0,.234-1.176l-1.761-1.643c.021-.2.041-.4.058-.6l2.049-1.268a.705.705,0,0,0,0-1.2Zm-13.713,17a1.452,1.452,0,1,1,1.721-1.115A1.452,1.452,0,0,1,54.424,60.466Zm-.7-4.708a1.321,1.321,0,0,0-1.569,1.016l-.727,3.394A17.89,17.89,0,0,1,36.552,60.1L35.825,56.7a1.321,1.321,0,0,0-1.569-1.016l-3,.643A17.779,17.779,0,0,1,29.711,54.5H44.292c.165,0,.275-.03.275-.18V49.166c0-.15-.11-.18-.275-.18H40.027v-3.27H44.64a2.9,2.9,0,0,1,2.836,2.46c.183.719.586,3.06.861,3.809.274.84,1.39,2.519,2.58,2.519h7.266a1.489,1.489,0,0,0,.263-.026,17.9,17.9,0,0,1-1.652,1.939l-3.066-.659ZM33.561,60.4a1.452,1.452,0,1,1,1.113-1.723A1.449,1.449,0,0,1,33.561,60.4Zm-5.531-22.43a1.449,1.449,0,1,1-1.912-.739A1.452,1.452,0,0,1,28.029,37.965ZM26.329,42l3.122-1.387a1.323,1.323,0,0,0,.672-1.746l-.643-1.454h2.529v11.4h-5.1a17.862,17.862,0,0,1-.68-4.894,18.064,18.064,0,0,1,.1-1.917Zm13.7-1.107v-3.36H46.05c.311,0,2.2.359,2.2,1.769,0,1.17-1.446,1.59-2.635,1.59H40.028Zm21.883,3.024q0,.669-.049,1.325H60.032c-.183,0-.257.12-.257.3v.841c0,1.979-1.116,2.409-2.094,2.519-.931.1-1.963-.39-2.091-.96-.549-3.09-1.465-3.749-2.91-4.889,1.794-1.139,3.66-2.82,3.66-5.069a5.734,5.734,0,0,0-2.8-4.709,7.944,7.944,0,0,0-3.831-1.26H30.778a17.819,17.819,0,0,1,9.982-5.634l2.232,2.341a1.32,1.32,0,0,0,1.868.043l2.5-2.388a17.858,17.858,0,0,1,12.215,8.7l-1.709,3.861a1.325,1.325,0,0,0,.672,1.746l3.291,1.462Q61.91,43.016,61.912,43.912ZM42.993,24.384a1.45,1.45,0,1,1-.048,2.052A1.448,1.448,0,0,1,42.993,24.384ZM59.956,38.035a1.449,1.449,0,1,1,.737,1.915,1.448,1.448,0,0,1-.737-1.915Z" transform="translate(312.342 8109.657)" fill="#4d4d4d"/>
    <g id="Blind-whale" transform="translate(623.176 8217.985)">
      <g id="docs" transform="translate(0 0)">
        <path id="Shape" d="M67.789,19.5c-1.513-1.05-4.979-1.443-7.689-.918a10.542,10.542,0,0,0-4.286-6.953l-1.45-1.05-1.008,1.509a12.432,12.432,0,0,0-1.7,7.347,8.763,8.763,0,0,0,1.324,4,10.509,10.509,0,0,1-5.105,1.181H2.3l-.126.525C1.736,27.764,1.736,35.964,6.9,42.262c3.908,4.789,9.706,7.216,17.333,7.216,16.513,0,28.741-7.937,34.476-22.3,2.269.066,7.122,0,9.58-4.92.063-.131.189-.394.63-1.378l.252-.525L67.789,19.5ZM38.733,1H31.8V7.56h6.933V1Zm0,7.872H31.8v6.56h6.933V8.872Zm-8.194,0H23.606v6.56H30.54V8.872Zm-8.194,0H15.413v6.56h6.933V8.872Zm-8.194,7.872H7.219V23.3h6.933v-6.56Zm8.194,0H15.413V23.3h6.933v-6.56Zm8.194,0H23.606V23.3H30.54v-6.56Zm8.194,0H31.8V23.3h6.933v-6.56Zm8.194,0H39.994V23.3h6.933v-6.56Z" transform="translate(-2 -1)" fill="#4d4d4d" fill-rule="evenodd"/>
      </g>
    </g>
    <path id="Devicon-ruby-plain" d="M15.794,47.964l33.332,4.55L37.855,33.748,15.794,47.964ZM52.279,12.832q-1.477,2.218-2.955,4.436Q44.259,24.89,39.2,32.513c-.188.283-.432.508-.167.944q4.89,8.075,9.737,16.177a21.339,21.339,0,0,0,1.691,2.518q.983-19.639,1.966-39.279l-.144-.041ZM7.774,29.618a.8.8,0,0,0,.711.141c3.127-1.537,6.274-3.04,9.333-4.7a14.759,14.759,0,0,0,2.624-2.3q4.269-3.915,8.527-7.84a2.114,2.114,0,0,0,.483-.519c1.02-1.994,2.023-4,3.06-6.059-1.238-.465-2.411-.92-3.6-1.334a.875.875,0,0,0-.589.153c-2.75,1.536-5.551,2.99-8.213,4.666a27.336,27.336,0,0,0-3.6,3.149c-1.9,1.735-3.8,3.474-5.673,5.239A9.765,9.765,0,0,0,9.5,21.775c-1.281,1.866-2.524,3.758-3.824,5.7C6.407,28.23,7.067,28.949,7.774,29.618ZM19.2,27.068c-1.556,6.572-3.1,13.107-4.7,19.856L36.587,32.695,19.2,27.068ZM50.369,12.9,31.6,16.032l6.37,15.494c4.157-6.247,8.232-12.368,12.4-18.629Zm-30.9,12.828L36.5,31.255c-2.135-5.2-4.2-10.222-6.3-15.348ZM8.01,33.45,2.047,47.7,13.4,47.369Zm5.528,10.613.141-.031c1.364-5.67,2.747-11.3,4.139-17.192L8.706,31.576C10.26,35.613,11.916,39.872,13.538,44.064Zm34.54-32.087q-2.72-.72-5.441-1.439c-2.608-.686-5.218-1.363-7.824-2.055-.326-.087-.561-.143-.753.249-.921,1.887-1.871,3.76-2.807,5.64a1.244,1.244,0,0,0-.045.279L48.074,12.1ZM37.557,7.684l14.781,4.089L49.9,4.814,37.578,7.545l-.022.139ZM14.791,49.053a42.528,42.528,0,0,0-5.566.015c-1.525.026-3.05.084-4.575.131a.606.606,0,0,0-.47.206l37.826,3.5.026-.168L29.9,51.079c-5.037-.688-10.065-1.444-15.114-2.026Zm-12.5-5.7Q4.733,37.7,7.17,32.044A.713.713,0,0,0,7,31.105c-.682-.649-1.316-1.349-2.062-2.125-1.008,4.978-1.992,9.833-2.976,14.687l.11.052a2.86,2.86,0,0,0,.223-.365ZM34.32,6.689c2.74-.707,5.52-1.26,8.283-1.876.179-.04.354-.1.53-.15l-.027-.135-11.873,1.6a4.451,4.451,0,0,0,3.087.563Z" transform="translate(475.304 8125.367)" fill="#4d4d4d" fill-rule="evenodd"/>
  </g>
</svg>
