<svg xmlns="http://www.w3.org/2000/svg" xmlns:xlink="http://www.w3.org/1999/xlink" width="87.986" height="97.907" viewBox="0 0 87.986 97.907">
  <defs>
    <pattern id="pattern" patternUnits="userSpaceOnUse" preserveAspectRatio="xMidYMin slice" width="94.137" height="94.137" viewBox="150 0 94.137 94.137">
        <image xlink:href="https://www.gitpod.io/galaxy.jpg" y="-135" x="-20" width="370" height="250"/>
    </pattern>
  </defs>
  <g transform="matrix(1, 0, 0, 1, 0, 0)">
    <path id="Vereinigungsmenge_32-2" data-name="Vereinigungsmenge 32" d="M32.412,79.907a1.445,1.445,0,0,1,0-2.889H36.3a1.444,1.444,0,1,1,0,2.889Zm-2.9-3.851a1.444,1.444,0,1,1,0-2.889H39.2a1.444,1.444,0,1,1,0,2.889ZM27.573,72.2a1.444,1.444,0,1,1,0-2.889H41.136a1.444,1.444,0,1,1,0,2.889Zm-2.268-5.241a2.5,2.5,0,0,1-.958-2.3V57.609c-.617-5.419-7.026-8.964-8.633-11.992A21.021,21.021,0,0,1,19.492,20.9a21.255,21.255,0,0,1,29.957,0,21.012,21.012,0,0,1,3.775,24.717c-1.609,3.041-8.789,6.516-8.105,11.991v7.058a2.194,2.194,0,0,1-1.448,2.3l-.043.042c-.434.426-4.644.637-8.924.637C30.268,67.642,25.759,67.415,25.305,66.963Zm36.95-30.25a.866.866,0,1,1,0-1.732h6.86a.866.866,0,1,1,0,1.732Zm-61.386,0a.866.866,0,1,1,0-1.732H7.734a.866.866,0,1,1,0,1.732ZM57.781,22.464a.866.866,0,0,1,.315-1.183l5.943-3.415a.871.871,0,0,1,1.189.317.863.863,0,0,1-.319,1.176l-5.943,3.414a.871.871,0,0,1-1.185-.31Zm-46.758.31L5.08,19.36a.859.859,0,0,1-.319-1.176.875.875,0,0,1,1.182-.317l5.944,3.415a.862.862,0,0,1-.427,1.609A.872.872,0,0,1,11.023,22.774Zm36.9-10.116a.867.867,0,0,1-.318-1.175l3.431-5.914a.866.866,0,0,1,1.5.859l-3.432,5.913a.871.871,0,0,1-.754.432A.861.861,0,0,1,47.928,12.658Zm-27.052-.317L17.44,6.428a.866.866,0,0,1,1.5-.859l3.431,5.914a.862.862,0,0,1-.746,1.291A.871.871,0,0,1,20.875,12.341Zm13.546-4.8a.854.854,0,0,1-.856-.866L33.643.851a.867.867,0,0,1,1.733.022L35.294,6.7a.858.858,0,0,1-.859.845Z" transform="translate(9 6)" fill="url(#pattern)"/>
  </g>
</svg>
