<?xml version="1.0" encoding="utf-8"?>
<!-- Generator: Adobe Illustrator 22.0.1, SVG Export Plug-In . SVG Version: 6.00 Build 0)  -->
<svg version="1.1" id="logo-final" xmlns="http://www.w3.org/2000/svg" xmlns:xlink="http://www.w3.org/1999/xlink" x="0px" y="0px"
	 viewBox="0 0 178.7 206.4" xml:space="preserve">
<style type="text/css">
	.st0{fill:#0087BE;}
	.st1{fill:#1AA6E4;}
	.st2{fill:#0092CF;}
</style>
<g>
	<polygon class="st0" points="89.3,185.6 17.7,144.6 17.7,61.9 17.8,61.9 0,51.6 0,154.8 0,154.8 89.3,206.4 89.3,206.4 	"/>
	<polygon class="st0" points="89.3,103.2 89.3,103.2 35.8,72.3 35.7,72.3 35.7,134.2 89.3,164.9 89.3,103.2 	"/>
	<polygon class="st1" points="178.7,51.6 89.3,0 0,51.6 0,51.6 17.8,61.9 89.3,20.6 161,61.8 178.7,51.6 178.7,51.6 	"/>
	<polygon class="st1" points="143,72.2 89.4,41.3 35.8,72.3 89.3,103.2 	"/>
	<polygon class="st2" points="89.3,103.2 89.3,103.2 89.3,103.2 89.3,103.2 89.3,103.2 	"/>
	<polygon class="st2" points="89.3,103.2 89.3,103.2 89.3,103.2 143,72.2 143,72.2 	"/>
	<polygon class="st2" points="161,61.8 161,61.8 178.7,51.6 178.7,51.6 	"/>
	<polygon class="st2" points="178.7,51.6 161,61.8 143,72.2 89.3,103.2 89.3,103.2 89.3,103.2 89.3,103.2 89.3,112.4 89.3,112.4 
		89.3,136.9 89.3,136.9 89.3,164.9 89.3,164.9 143,134.1 143,113.7 107,134.2 107,113.4 161,82.7 161,144.6 89.3,185.6 89.3,206.4 
		178.7,154.8 178.7,154.8 178.7,154.8 	"/>
</g>
</svg>
