<?xml version="1.0" encoding="utf-8"?>
<!-- Generator: Adobe Illustrator 23.0.1, SVG Export Plug-In . SVG Version: 6.00 Build 0)  -->
<svg version="1.1" id="logo-final" xmlns="http://www.w3.org/2000/svg" xmlns:xlink="http://www.w3.org/1999/xlink" x="0px" y="0px"
	 viewBox="0 0 632.2 206.4" style="enable-background:new 0 0 632.2 206.4;" xml:space="preserve">
<style type="text/css">
	.st0{fill:#0087BE;}
	.st1{fill:#1AA6E4;}
	.st2{fill:#0092CF;}
	.st3{fill:#E8BFD8;}
	.st4{fill:#FFFFFF;}
</style>
<title>Zeichenfläche 1</title>
<polygon class="st0" points="89.4,185.6 17.7,144.6 17.7,61.9 17.8,61.9 0,51.6 0,154.8 0,154.8 89.4,206.4 89.4,206.4 89.4,185.6 
	"/>
<polygon class="st0" points="89.4,103.2 89.4,103.2 35.8,72.3 35.7,72.3 35.7,134.2 89.4,164.9 89.4,103.2 89.4,103.2 "/>
<polygon class="st1" points="178.7,51.6 89.4,0 0,51.6 0,51.6 17.8,61.9 89.4,20.6 161,61.8 178.7,51.6 178.7,51.6 178.7,51.6 "/>
<polygon class="st1" points="143,72.2 89.4,41.3 35.8,72.3 89.4,103.2 "/>
<polygon class="st2" points="89.4,103.2 89.4,103.2 89.4,103.2 89.4,103.2 89.4,103.2 89.4,103.2 "/>
<polygon class="st2" points="89.4,103.2 89.4,103.2 89.4,103.2 143,72.2 143,72.2 "/>
<polygon class="st2" points="161,61.8 161,61.9 178.7,51.6 178.7,51.6 "/>
<polygon class="st3" points="143,72.2 161,61.9 161,61.8 143,72.2 "/>
<polygon class="st2" points="178.7,51.6 161,61.9 143,72.2 89.4,103.2 89.4,103.2 89.4,103.2 89.4,103.2 89.4,112.4 89.3,112.4 
	89.3,136.9 89.4,136.9 89.4,164.9 89.4,164.9 143,134.2 143,113.7 107,134.2 107,113.5 161,82.7 161,144.6 89.4,185.6 89.4,206.4 
	178.7,154.8 178.7,154.8 178.7,154.8 "/>
<path class="st4" d="M298.8,135.1c-6.3,6.5-15.9,10.1-27.2,10.1c-21.5,0-37.8-16.9-37.8-39.4c0-22.9,16.1-39.6,38.2-39.6
	c10.2,0,20.1,3.4,28.2,9.7l1,0.8v-8.3l-0.2-0.2c-7.9-6.1-18.1-9.3-29.4-9.3c-25.9,0-45.4,20.1-45.4,46.8s19.6,46.7,45.5,46.7
	c13.9,0,26.1-5.1,34.6-14.2l0.2-0.2V98.6h-7.6L298.8,135.1z"/>
<rect x="329.5" y="88.7" class="st4" width="7.5" height="62.1"/>
<path class="st4" d="M333.2,62.2c-3.1,0-5.7,2.6-5.7,5.7s2.6,5.7,5.7,5.7c3.1,0,5.7-2.6,5.7-5.7C338.9,64.8,336.3,62.2,333.2,62.2z"
	/>
<path class="st4" d="M375.3,69.2h-7.4v19.5h-15.4v6.8h15.4v38.5c0,11.8,5.9,18.3,16.5,18.3c4.7,0,9.8-1.2,12.2-2.9l0.3-0.2v-7.3
	l-0.9,0.5c-3,1.8-6.4,2.7-9.9,2.7c-7.9,0-10.7-3.3-10.8-12.8V95.5h22.4v-6.8h-22.4L375.3,69.2z"/>
<path class="st4" d="M446,87.1c-10,0-18.6,3.9-24.4,11v-9.4h-7.4l0.1,87.6h7.5v-35c5.9,7.2,14.5,11.1,24.4,11.1
	c18,0,31.6-14,31.5-32.6S464,87.1,446,87.1z M470,119.7c0,14.6-10.9,25.7-25.3,25.7c-9.8-0.1-18.8-5.7-23.1-14.6v-22.3
	c4.3-8.8,13.2-14.4,23.1-14.5C459.1,94,470,105.1,470,119.7z"/>
<path class="st4" d="M523.1,87.1c-18.8,0-33,14.1-33,32.7s14.2,32.5,33,32.4s33.1-14,33.1-32.5C556.2,101.1,542,87,523.1,87.1z
	 M523.1,94c14.5,0,25.5,11.1,25.5,25.8c0,14.1-11.4,25.5-25.4,25.5s-25.5-11.4-25.5-25.4c0,0,0,0,0,0C497.7,105.1,508.6,94,523.1,94
	L523.1,94z"/>
<path class="st4" d="M624.7,60.2v37.8c-5.8-7.2-14.4-11.1-24.4-11.1c-18,0-31.6,14.1-31.5,32.8c0,18.5,13.6,32.4,31.6,32.4
	c10,0,18.6-3.9,24.4-11v9.4h7.4l-0.1-90.4L624.7,60.2z M624.7,108.5v22.3c-4.4,8.8-13.3,14.4-23.1,14.5c-14.4,0-25.3-11-25.3-25.5
	c0-14.7,10.8-25.8,25.3-25.8C611.4,94.1,620.3,99.7,624.7,108.5L624.7,108.5z"/>
</svg>
