<svg xmlns="http://www.w3.org/2000/svg" xmlns:svg="http://www.w3.org/2000/svg" id="svg4162" width="500" height="500" version="1.1" viewBox="0 0 500 500"><g id="layer1" fill="#9F9F9F" transform="translate(0,-552.36216)"><g id="g1400" transform="translate(-4.3609793,-7.6704785)"><path id="path4714" d="M 232.83952,614.96702 A 154.04816,154.04794 0 0 0 78.79153,769.01382 154.04816,154.04794 0 0 0 232.83952,923.06184 154.04816,154.04794 0 0 0 386.88751,769.01382 154.04816,154.04794 0 0 0 232.83952,614.96702 Z m 0,26.77613 A 129.95832,127.2707 0 0 1 362.79832,769.01382 129.95832,127.2707 0 0 1 232.83952,896.28449 129.95832,127.2707 0 0 1 102.88194,769.01382 129.95832,127.2707 0 0 1 232.83952,641.74315 Z" style="opacity:1;fill-opacity:1;stroke:none;stroke-opacity:1"/><rect id="rect4721" width="173.027" height="36.167" x="794.878" y="319.554" rx="33.249" ry="18.083" transform="matrix(0.65316768,0.7572133,-0.60689051,0.79478545,0,0)" style="opacity:1;fill-opacity:1;stroke:none;stroke-opacity:1"/></g></g></svg>