<svg xmlns="http://www.w3.org/2000/svg" xmlns:xlink="http://www.w3.org/1999/xlink" width="82.428" height="95.313" viewBox="0 0 82.428 95.313"><defs><pattern id="pattern" width="94.137" height="94.137" patternUnits="userSpaceOnUse" preserveAspectRatio="xMidYMin slice" viewBox="150 0 94.137 94.137"><image width="320" height="220" x="-20" y="-105" xlink:href="https://www.gitpod.io/galaxy.jpg"/></pattern></defs><g transform="matrix(1, 0, 0, 1, 0, 0)"><path id="XMLID_69_2" fill="url(#pattern)" d="M17.569,54.763h9.487a1.616,1.616,0,0,0,1.392-.8A4.784,4.784,0,0,1,32.6,51.542h3.221a4.784,4.784,0,0,1,4.156,2.423,1.612,1.612,0,0,0,1.392.8h9.162a1.611,1.611,0,0,0,1.308-2.551L43.911,30.406,47.09,1.787A1.611,1.611,0,0,0,44.2.643L24.872,26.415a1.55,1.55,0,0,0-.238.457L16.045,52.644a1.606,1.606,0,0,0,1.524,2.12Zm44.359,7.673A1.608,1.608,0,0,0,59.7,64.408a1.614,1.614,0,0,1-.96,2.039,1.639,1.639,0,0,1-2.068-.963l-2.345-6.443a1.609,1.609,0,0,0-1.514-1.057H41.369a1.616,1.616,0,0,0-1.392.8,4.775,4.775,0,0,1-4.152,2.423H32.6a4.784,4.784,0,0,1-4.156-2.423,1.605,1.605,0,0,0-1.392-.8H15.42a1.611,1.611,0,0,0-1.527,1.1l-2.149,6.443A1.615,1.615,0,1,1,8.723,64.4a1.61,1.61,0,0,0-2.242-1.952C3.508,63.919,2,65.668,2,67.649,2,74,18.207,77.313,34.214,77.313S66.428,74,66.428,67.649C66.428,65.665,64.914,63.912,61.928,62.437Z" data-name="XMLID_69_" transform="translate(7 6)"/></g></svg>