<svg xmlns="http://www.w3.org/2000/svg" width="32.118" height="20.916" viewBox="0 0 32.118 20.916"><path d="M5.637,9.586a1.252,1.252,0,0,0-.392.912v14.92a1.243,1.243,0,0,0,1.249,1.253H32.625a1.25,1.25,0,0,0,1.249-1.253V10.5a1.253,1.253,0,0,0-.39-.914L19.559,21.692,5.637,9.586ZM6.494,8A2.489,2.489,0,0,0,4,10.482V25.434a2.482,2.482,0,0,0,2.494,2.482h26.13a2.489,2.489,0,0,0,2.494-2.482V10.482A2.482,2.482,0,0,0,32.624,8ZM19.559,20.074,32.006,9.245H7.112L19.559,20.074Z" transform="translate(0.5 0.5) translate(0 0) translate(-4 -8)" fill="#b5b5b5" stroke="#b5b5b5" fill-rule="evenodd"/></svg>
