<svg xmlns="http://www.w3.org/2000/svg" width="116.918" height="141.5" viewBox="0 0 116.918 141.5"><defs><style>.a{fill:#9f9f9f;fill-rule:evenodd;}</style></defs><g transform="translate(-65.953 -25.976)"><g transform="translate(65.953 25.976)"><path class="a" d="M182.871,66.413,145.46,54.091V155.484l37.411,11.992ZM102.563,95.147l-.454-.638-.111-.16h0l-.11-.147-.111-.159h-.013l-.11-.16-.11-.147-.111-.16h0l-.122-.16h0l-.111-.16h0l-.122-.159h0l-.111-.147-.122-.16h0l-.123-.16h0l-.11-.16-.123-.16h0l-.122-.147V92.15L100.243,92h0l-.123-.159h0l-.122-.16h0l-.123-.16h0l-.122-.159h0l-.122-.16h0l-.123-.159h0l-.122-.16h0l-.123-.16h0l-.135-.16h0L99,90.406h0l-.123-.16h0l-.122-.16h-.013l-.122-.16h0l-.122-.16h0l-.135-.16h0l-.122-.16h0l-.135-.16h0l-.123-.159h-.012l-.123-.16h0l-.135-.16h0l-.122-.159-.012-.012-.122-.16h0l-.135-.16h0l-.135-.16h0L97.066,88h0l-.135-.159h0l-.135-.16h0l-.135-.172h0l-.135-.16h0l-.135-.16h0l-.135-.16h0l-.135-.16v-.012l-.135-.16h0l-.135-.16h0l-.135-.16h0l-.135-.16V86.2l-.135-.159h0l-.135-.16h0l-.135-.16h0l-.135-.172h0l-.135-.159h0l-.135-.16h0l-.135-.172h0L94.5,84.9h0l-.147-.16v-.012l-.135-.16h0l-.135-.16h0l-.135-.16V84.24l-.331-.38-.074-.1-.245-.294-.319-.38-.258-.307-.074-.086-.32-.393-.012-.012-.32-.38-.086-.11-.233-.282-.184-.209-.147-.184-.257-.307-.062-.086-.332-.392-.012-.025-.307-.368-.1-.123-.221-.27-.185-.233-.147-.172-.258-.332-.062-.061-.319-.4-.024-.025-.295-.368-.111-.135-.208-.27-.184-.233-.123-.16-.27-.344-.049-.061-.319-.4-.025-.037-.282-.368-.11-.147-.2-.245-.2-.258-.111-.147-.27-.368-.037-.037-.307-.405-.037-.061-.258-.356-.122-.16-.184-.245-.295-.405-.257-.38-.037-.037a49.714,49.714,0,0,1-7.733-14.987l-11.1-3.62V155.123L102.565,167.1V95.147ZM129.578,58.19c-2.786,9.34-9.954,17.92-16.754,26.058-2.516,3.019-4.983,5.965-7.119,8.837v46.395a1.6,1.6,0,0,1,1.068-.429h3.007a1.516,1.516,0,0,1,1.363,2.173,1.548,1.548,0,0,1-1.363.847h-3.007a1.452,1.452,0,0,1-1.068-.455v25.554l36.613-11.979V54.017ZM85.564,68.267l.013.037.27.405.037.061.233.344.1.147.184.27.16.221.122.184.209.307.074.1.282.393v.012l.295.4.049.074.233.331.122.16.172.246.184.245.122.16.233.332.062.074.307.405v.012l.307.392.062.086.245.307.135.184.172.221.2.258.11.135.27.343.049.062.307.392.025.037.294.368.086.11.233.282.147.2.172.2.221.282.1.122.282.356.037.037.32.393.037.049.282.343.11.135.209.258.172.209.16.184.233.295.393.467.012.025.331.38.049.074.27.319.122.147.209.245.184.221.135.16.257.307.074.086.319.38v.012l.111.135h0l.122.135.221.282h.012l.111.135h0l.442.528.012.024H97.4l.013.025.319.38.012.012.11.122v.012l.111.135.013.012.1.122.012.012.1.123.013.012.11.122.012.012.209.258.013.024.221.258.012.012.209.258.012.012.1.122.013.024.1.111.024.024.086.11.025.025.1.11.013.024.1.111.012.024.1.123.013.025.1.11.012.024.1.11.025.025.2.245.024.024.086.111.025.025.086.11.025.025.086.11.024.024.111.147.086.1.024.037.086.1.024.037.074.1.037.037.074.1.037.037.074.1.024.037.086.1.024.037.086.1.025.037.086.1.024.049.074.086.037.049.073.086.025.049.086.086.025.049.074.086.037.049.074.086.037.049.062.086.037.049.11.135.074.086.037.049.062.086.037.049.074.086.037.049.061.086.037.049.074.086.037.049.062.086.037.049.062.086.037.049.074.086.037.049.061.086.037.049.061.086.049.049.062.086.037.049.062.086c2.148-2.872,4.566-5.756,7.033-8.714,8.321-9.954,17.22-20.608,17.22-32a24.259,24.259,0,1,0-48.519,0C79.12,56.459,81.783,62.473,85.564,68.267ZM110.431,43.5a10,10,0,1,0,2.909,7.045A9.926,9.926,0,0,0,110.431,43.5ZM76.2,100.252a1.51,1.51,0,1,0,3.019,0V97.245a1.536,1.536,0,0,0-.859-1.363A1.509,1.509,0,0,0,76.2,97.245Zm0,12.065a1.51,1.51,0,0,0,3.019,0V109.3a1.532,1.532,0,0,0-.859-1.35A1.5,1.5,0,0,0,76.2,109.3Zm0,12.065a1.51,1.51,0,0,0,3.019,0v-3.019a1.51,1.51,0,0,0-3.019,0Zm0,12.065a1.51,1.51,0,0,0,3.019,0v-3.019a1.51,1.51,0,0,0-3.019,0Zm9.463,5.622a1.528,1.528,0,0,0,1.35-.847,1.51,1.51,0,0,0-1.35-2.173H82.643a1.51,1.51,0,0,0,0,3.019h3.019Zm12.065,0a1.543,1.543,0,0,0,1.35-.847,1.514,1.514,0,0,0-1.35-2.173H94.708a1.51,1.51,0,1,0,0,3.019h3.019Zm24.118,0a1.548,1.548,0,0,0,1.362-.847,1.516,1.516,0,0,0-1.362-2.173h-3.007a1.51,1.51,0,1,0,0,3.019h3.007Zm6.861-8.236a1.528,1.528,0,0,0-.847-1.35,1.51,1.51,0,0,0-2.173,1.35v3.019a1.51,1.51,0,1,0,3.02,0v-3.019Zm0-12.053a1.548,1.548,0,0,0-.847-1.362,1.516,1.516,0,0,0-2.173,1.362v3.007a1.51,1.51,0,1,0,3.02,0V121.78Zm0-12.065a1.548,1.548,0,0,0-.847-1.363,1.516,1.516,0,0,0-2.173,1.363v3.007a1.51,1.51,0,1,0,3.02,0v-3.007Zm0-12.065a1.548,1.548,0,0,0-.847-1.363,1.516,1.516,0,0,0-2.173,1.363v3.019a1.51,1.51,0,0,0,3.02,0V97.65Zm9.475.43a1.529,1.529,0,0,0,1.351-.847,1.51,1.51,0,0,0-1.351-2.172h-3.019a1.51,1.51,0,1,0,0,3.019Zm12.053,0a1.548,1.548,0,0,0,1.363-.847,1.516,1.516,0,0,0-1.363-2.172h-3.007a1.51,1.51,0,1,0,0,3.019Zm12.065,0a1.546,1.546,0,0,0,1.362-.847,1.515,1.515,0,0,0-1.362-2.172H159.28a1.51,1.51,0,0,0,0,3.019Zm6.2,2.847a1.51,1.51,0,0,0,3.019,0V97.908a1.51,1.51,0,0,0-3.019,0Zm0,12.065a1.51,1.51,0,0,0,3.019,0v-3.019a1.51,1.51,0,0,0-3.019,0ZM79.218,85.18a1.537,1.537,0,0,0-.859-1.363A1.51,1.51,0,0,0,76.2,85.18v3.007a1.51,1.51,0,1,0,3.019,0Zm24.167-47.732a13.116,13.116,0,1,1-9.267,3.842A13.015,13.015,0,0,1,103.385,37.448Z" transform="translate(-65.953 -25.976)"/></g></g></svg>