<svg xmlns="http://www.w3.org/2000/svg" width="52.162" height="40.583" viewBox="0 0 52.162 40.583"><defs><style>.a{fill:#231f20;}.b{fill:#f79410;}.c{fill:#ff5f00;}.d{fill:#eb001b;}.e{fill:#f79e1b;}</style></defs><g transform="translate(1565.623 -1106.749)"><g transform="translate(-1565.623 1106.748)"><g transform="translate(2.654 34.352)"><path class="a" d="M-137.237-16.093v.106h.1a.1.1,0,0,0,.053-.013.046.046,0,0,0,.019-.04.045.045,0,0,0-.019-.039.094.094,0,0,0-.053-.013Zm.1-.074a.18.18,0,0,1,.117.034.112.112,0,0,1,.041.092.106.106,0,0,1-.033.081.16.16,0,0,1-.093.039l.129.149h-.1l-.12-.148h-.039v.148h-.084v-.395Zm-.026.531a.312.312,0,0,0,.128-.027.336.336,0,0,0,.1-.071.33.33,0,0,0,.071-.106.338.338,0,0,0,.026-.129.338.338,0,0,0-.026-.129.341.341,0,0,0-.071-.106.336.336,0,0,0-.1-.071.328.328,0,0,0-.128-.025.342.342,0,0,0-.13.025.334.334,0,0,0-.107.071.321.321,0,0,0-.07.106.319.319,0,0,0-.026.129.319.319,0,0,0,.026.129.311.311,0,0,0,.07.106.334.334,0,0,0,.107.071.325.325,0,0,0,.13.027m0-.758a.426.426,0,0,1,.169.034.429.429,0,0,1,.137.091.418.418,0,0,1,.092.135.406.406,0,0,1,.034.165.406.406,0,0,1-.034.165.441.441,0,0,1-.092.135.466.466,0,0,1-.137.091.426.426,0,0,1-.169.034.432.432,0,0,1-.171-.034.446.446,0,0,1-.138-.091.441.441,0,0,1-.092-.135.407.407,0,0,1-.034-.165.407.407,0,0,1,.034-.165.418.418,0,0,1,.092-.135.412.412,0,0,1,.138-.091.432.432,0,0,1,.171-.034m-39.943-1.52a1.285,1.285,0,0,1,1.3-1.371,1.284,1.284,0,0,1,1.29,1.371,1.284,1.284,0,0,1-1.29,1.371,1.285,1.285,0,0,1-1.3-1.371m3.466,0v-2.141h-.931v.52a1.623,1.623,0,0,0-1.352-.627,2.146,2.146,0,0,0-2.142,2.248,2.145,2.145,0,0,0,2.142,2.248,1.623,1.623,0,0,0,1.352-.627v.52h.931Zm31.457,0a1.285,1.285,0,0,1,1.3-1.371,1.283,1.283,0,0,1,1.29,1.371,1.283,1.283,0,0,1-1.29,1.371,1.285,1.285,0,0,1-1.3-1.371m3.467,0v-3.86h-.932v2.239A1.623,1.623,0,0,0-141-20.162a2.146,2.146,0,0,0-2.142,2.248A2.145,2.145,0,0,0-141-15.666a1.623,1.623,0,0,0,1.352-.627v.52h.932Zm-23.369-1.415A1.063,1.063,0,0,1-161-18.29h-2.222a1.1,1.1,0,0,1,1.138-1.039m.018-.833a2.092,2.092,0,0,0-2.132,2.248A2.111,2.111,0,0,0-162-15.666a2.6,2.6,0,0,0,1.755-.6l-.456-.69a2.047,2.047,0,0,1-1.246.448,1.189,1.189,0,0,1-1.28-1.049h3.179c.009-.116.018-.233.018-.358a2.053,2.053,0,0,0-2.033-2.248m11.24,2.248a1.285,1.285,0,0,1,1.3-1.371,1.284,1.284,0,0,1,1.29,1.371,1.284,1.284,0,0,1-1.29,1.371,1.285,1.285,0,0,1-1.3-1.371m3.466,0v-2.141h-.931v.52a1.624,1.624,0,0,0-1.352-.627,2.146,2.146,0,0,0-2.142,2.248,2.145,2.145,0,0,0,2.142,2.248,1.624,1.624,0,0,0,1.352-.627v.52h.931Zm-8.723,0a2.163,2.163,0,0,0,2.284,2.248,2.242,2.242,0,0,0,1.54-.511l-.447-.752a1.881,1.881,0,0,1-1.121.385,1.279,1.279,0,0,1-1.29-1.371,1.279,1.279,0,0,1,1.29-1.371,1.881,1.881,0,0,1,1.121.385l.447-.752a2.242,2.242,0,0,0-1.54-.511,2.163,2.163,0,0,0-2.284,2.248m12-2.248a1.264,1.264,0,0,0-1.129.627v-.52h-.923v4.281h.932v-2.4c0-.708.3-1.1.913-1.1a1.509,1.509,0,0,1,.582.108l.287-.878a1.982,1.982,0,0,0-.663-.117m-24.954.448a3.2,3.2,0,0,0-1.746-.448c-1.085,0-1.783.52-1.783,1.371,0,.7.52,1.129,1.477,1.263l.44.063c.511.072.751.206.751.448,0,.331-.34.52-.976.52a2.28,2.28,0,0,1-1.424-.448l-.439.725a3.088,3.088,0,0,0,1.854.556c1.236,0,1.953-.582,1.953-1.4,0-.752-.564-1.146-1.5-1.28l-.439-.064c-.4-.053-.726-.133-.726-.42,0-.314.3-.5.815-.5a2.762,2.762,0,0,1,1.335.367Zm12.011-.448a1.261,1.261,0,0,0-1.128.627v-.52h-.923v4.281h.931v-2.4c0-.708.3-1.1.913-1.1a1.509,1.509,0,0,1,.582.108l.287-.878a1.983,1.983,0,0,0-.663-.117m-7.944.108h-1.522v-1.3h-.941v1.3h-.868v.851h.868v1.953c0,.993.385,1.585,1.487,1.585A2.185,2.185,0,0,0-164.782-16l-.269-.8a1.723,1.723,0,0,1-.824.242c-.465,0-.617-.287-.617-.717V-19.2h1.522Zm-13.919,4.281v-2.687a1.594,1.594,0,0,0-1.684-1.7,1.657,1.657,0,0,0-1.5.762,1.572,1.572,0,0,0-1.415-.762,1.416,1.416,0,0,0-1.254.636v-.528h-.932v4.281h.94v-2.373a1,1,0,0,1,1.049-1.138c.618,0,.931.4.931,1.129v2.383h.941v-2.373a1.01,1.01,0,0,1,1.048-1.138c.636,0,.94.4.94,1.129v2.383Z" transform="translate(185.679 21.774)"/></g><g transform="translate(50.311 25.489)"><path class="b" d="M-3.848-1.772V-2.4h-.163l-.189.43-.188-.43h-.164v.625h.116v-.472l.176.407h.12l.176-.408v.473Zm-1.034,0V-2.29h.209V-2.4h-.533v.106H-5v.519Z" transform="translate(5.207 2.397)"/></g><path class="c" d="M3357.112,2172.927H3343v-25.355h14.108Z" transform="translate(-3323.978 -2144.122)"/><g transform="translate(0 0)"><path class="d" d="M-56.462-45.684A16.1,16.1,0,0,1-50.3-58.361a16.054,16.054,0,0,0-9.965-3.448A16.124,16.124,0,0,0-76.392-45.684,16.124,16.124,0,0,0-60.269-29.559,16.054,16.054,0,0,0-50.3-33.006a16.1,16.1,0,0,1-6.158-12.678" transform="translate(76.392 61.809)"/></g><g transform="translate(26.073 0)"><path class="e" d="M-73.912-45.684A16.124,16.124,0,0,1-90.035-29.559,16.06,16.06,0,0,1-100-33.006a16.1,16.1,0,0,0,6.159-12.678A16.1,16.1,0,0,0-100-58.361a16.06,16.06,0,0,1,9.966-3.448A16.124,16.124,0,0,1-73.912-45.684" transform="translate(100.001 61.809)"/></g></g></g></svg>