<svg xmlns="http://www.w3.org/2000/svg" width="101.469" height="87.711" viewBox="0 0 101.469 87.711"><g id="A_-_167__x2C__success_x2C__mountain_x2C__peak_x2C__flag_x2C_" transform="translate(0 0)"><g id="Gruppe_60" data-name="Gruppe 60" transform="translate(0 0.001)"><path id="Vereinigungsmenge_102" fill="#9f9f9f" d="M0,87.611,39.806,27.733V5.71a3.019,3.019,0,0,1-1.555-2.738A2.786,2.786,0,0,1,40.792,0a2.791,2.791,0,0,1,2.552,2.973,3.016,3.016,0,0,1-1.566,2.74v.91h8.264a1.078,1.078,0,0,1,.986,1.149v3.235h5.083a.963.963,0,0,1,.829.524,1.321,1.321,0,0,1,.073,1.094l-1.392,3.632,1.4,3.951a1.315,1.315,0,0,1-.092,1.078.96.96,0,0,1-.821.51H46.873a1.078,1.078,0,0,1-.986-1.149V17.434H41.779V27.727L59.556,52.673,34.675,87.611h-14.6c.067.023-7.923.1-13.843.1C2.837,87.71.122,87.685,0,87.611Zm37.24,0L69.354,42.52l32.115,45.09Z" data-name="Vereinigungsmenge 102"/></g></g></svg>