<svg xmlns="http://www.w3.org/2000/svg" width="16.698" height="20" viewBox="0 0 16.698 20">
  <path id="Differenzmenge_14" data-name="Differenzmenge 14" d="M619.823,153a9.613,9.613,0,0,1-3.824-.786,9.78,9.78,0,0,1-3.122-2.143,9.977,9.977,0,0,1-2.105-3.179,10.2,10.2,0,0,1,0-7.785,9.977,9.977,0,0,1,2.105-3.179A9.78,9.78,0,0,1,616,133.786a9.613,9.613,0,0,1,3.824-.786h.141a9.975,9.975,0,0,0-2.156,3.2,10.151,10.151,0,0,0,2.039,10.963,9.791,9.791,0,0,0,3.077,2.15,9.609,9.609,0,0,0,3.774.825A9.679,9.679,0,0,1,619.823,153Z" transform="translate(-610 -133)" fill="#9f9f9f"/>
</svg>
