<svg xmlns="http://www.w3.org/2000/svg" xmlns:xlink="http://www.w3.org/1999/xlink" id="Layer_1" x="0" y="0" version="1.1" viewBox="0 0 2000 700" xml:space="preserve" style="enable-background:new 0 0 2000 700"><g><path d="M1358.4,299.3c-25.5,0-43.7,8.7-52.6,25.2l-4.8,8.9v-29.8h-41.5v181.3h43.7V377.1c0-25.8,14-40.6,38.4-40.6 c23.3,0,36.6,14.4,36.6,39.5v109h43.7V368.1C1421.8,325,1398.1,299.3,1358.4,299.3z M1146.7,299.3c-51.5,0-83.5,32.1-83.5,83.9 v25.5c0,49.7,32.3,80.6,84.2,80.6c34.7,0,59.1-12.7,74.4-38.9l-27.1-15.6c-11.3,15.1-29.4,24.5-47.3,24.5c-26.3,0-42-16.2-42-43.4 v-7.2h121.9v-30.1C1227.3,330.4,1195.7,299.3,1146.7,299.3z M1187.6,379.3h-82.2v-4.3c0-29.9,14.7-46.3,41.3-46.3 c25.6,0,40.9,16.2,40.9,43.4V379.3z M1855.2,273.7v-34.7h-150.9v34.7h52.9v176.5h-52.9v34.7h150.9v-34.7h-52.9V273.7H1855.2z M710.6,234c-67.4,0-109.3,42-109.3,109.7v36.6c0,67.7,41.9,109.7,109.3,109.7c67.4,0,109.3-42,109.3-109.7v-36.6 C819.9,276.1,778,234,710.6,234z M774.8,382.8c0,44.9-23.4,70.7-64.2,70.7s-64.2-25.8-64.2-70.7v-41.6c0-44.9,23.4-70.7,64.2-70.7 s64.2,25.8,64.2,70.7V382.8z M957,299.3c-22.9,0-42.7,9.5-53.1,25.4l-4.7,7.2v-28.3h-41.5v243.7h43.7v-88.3l4.7,6.9 c9.8,14.6,29,23.3,51.3,23.3c37.6,0,75.6-24.6,75.6-79.6v-30.8C1033,339.3,1009.5,299.3,957,299.3z M989.3,407.5 c0,29.2-17.1,47.4-44.5,47.4c-25.6,0-43.4-19.2-43.4-46.7V381c0-27.9,18-47.4,43.8-47.4c27.2,0,44.2,18.2,44.2,47.4V407.5z M1542.4,239.1l-88.2,245.9h44.3l16.9-52.7h101.3l0.2,0.5l16.7,52.2h44.3l-88.2-245.9H1542.4z M1526.4,397.5l39.7-124.3l39.3,124.3 H1526.4z"/><path d="M515.9,307.7c9.6-29.4,6.4-60.3-9.1-87.2c-23.4-40.6-69.8-61.2-115.6-51.5c-20.6-23-49-35.7-80.1-35.7 c-46.9,0-87.9,29.9-102.4,74.4c-30.3,6.4-55.4,24.6-70.9,51.5c-23.4,40.6-18.1,91.1,13.2,125.9c-9.6,29.4-6.4,60.3,9.1,87.2 c23.4,40.6,69.8,61.2,115.6,51.5c20.6,23,49,35.7,80.1,35.7c46.9,0,87.9-29.9,102.4-74.4c30.3-6.4,55.4-24.6,70.9-51.5 C552.5,393,547.2,342.5,515.9,307.7z M355.7,531.6c-18.8,0-36.9-6.6-51.1-18.5c0.6-0.4,1.8-1,2.6-1.4l84.9-49c4.4-2.5,7-7,7-12.1 l0-119.6l35.9,20.7c0.5,0.3,0.7,0.7,0.7,1v99.1C435.6,495.8,399.8,531.6,355.7,531.6z M184.2,458.3c-9.4-16.3-12.8-35.3-9.5-53.5 c0.6,0.4,1.7,1,2.5,1.5l84.9,49c4.4,2.5,9.6,2.5,13.9,0l103.6-59.8V437c0,0.6-0.3,1-0.5,1.1l-85.8,49.5 C255.1,509.6,206.2,496.5,184.2,458.3z M161.8,273.1c9.4-16.3,24.2-28.7,41.6-35c0,0.7,0,2,0,2.9v98c0,5,2.6,9.5,7,12.1l103.6,59.8 L278,431.6c-0.5,0.3-1,0.2-1.2,0.1l-85.8-49.5C152.9,360.2,139.8,311.3,161.8,273.1z M456.5,341.7l-103.6-59.8l35.9-20.7 c0.5-0.3,1-0.3,1.2-0.1l85.8,49.5c38.1,22,51.2,71,29.2,109.1c-9.4,16.3-24.2,28.7-41.6,35c0-0.7,0-2,0-2.9l0-98 C463.5,348.7,460.8,344.2,456.5,341.7z M492.2,288c-0.6-0.4-1.7-1-2.5-1.5l-84.9-49c-4.4-2.5-9.6-2.5-13.9,0l-103.6,59.8l0-41.4 c0-0.6,0.3-1,0.5-1.1l85.8-49.5c12.5-7.2,26.3-10.7,39.8-10.7c27.6,0,54.5,14.3,69.3,39.9C492,250.7,495.4,269.7,492.2,288z M267.8,361.8l-35.9-20.7c-0.5-0.3-0.7-0.7-0.7-1l0-99.1c0-21.3,8.3-41.3,23.4-56.4c15.1-15.1,35.1-23.4,56.4-23.4 c18.8,0,36.9,6.6,51.1,18.5c-0.6,0.4-1.8,1-2.6,1.4l-84.9,49c-4.4,2.5-7,7-7,12.1L267.8,361.8z M287.3,319.8l46.1-26.6l46.1,26.6 V373l-46.1,26.6L287.3,373V319.8z"/></g></svg>