<svg xmlns="http://www.w3.org/2000/svg" xmlns:xlink="http://www.w3.org/1999/xlink" width="64.57" height="75.463" viewBox="0 0 64.57 75.463"><defs><pattern id="pattern" width="600" height="600" x="300" y="300" patternUnits="userSpaceOnUse"><image width="928" height="619" xlink:href="https://www.gitpod.io/galaxy.jpg"/></pattern></defs><path id="Vereinigungsmenge_67" fill="url(#pattern)" d="M-17245.8-8006.205s-.76-2.243-1.045-3.064a10.3,10.3,0,0,0-1.154-2.019c-1.447-.455-2.973-.77-3.553-2.158a16.424,16.424,0,0,1-6.807,1.629,19.479,19.479,0,0,1-7.447-1.629c-.574,1.389-1.574,1.7-3.014,2.158a7.317,7.317,0,0,0-1.223,1.281,37.971,37.971,0,0,0-1.6,3.609c-.389.777-1.145.889-1.3.767a1.1,1.1,0,0,1-.2-1.4s.539-1.263.939-1.959a3.219,3.219,0,0,0,.232-1.776s-2.428-.444-3.645,3.184c-.281.825-.922,1.929-1.754,1.654s-.795-1.2-.516-2.024c2.055-6.134,5.154-5.079,8.084-5.486,2.213-.307,1.365-.178,1.83-1.565a30.023,30.023,0,0,1-7.207-6.6c-7.125-9.313-9.18-16.74-6.934-28.227a17.506,17.506,0,0,0,21.063,1.9l1.941,4.827a1.587,1.587,0,0,0,1.477.992,1.586,1.586,0,0,0,1.475-.992l1.943-4.827a17.5,17.5,0,0,0,21.061-1.9c2.225,11.387-1.338,21.956-6.062,26.579s-6.8,6.453-9.551,8.245c.467,1.388-.3,1.251,1.91,1.558,3.021,1.089,5.584-1.2,7.641,4.936.279.828.832,1.928,0,2.206s-1.275-.382-1.557-1.207a7.833,7.833,0,0,0-1.824-3.024,2.842,2.842,0,0,0-1.7-.211,6.379,6.379,0,0,1-1.516-.033,10.361,10.361,0,0,0,.5,1.511c.256.518,1.295,2.068,1.295,2.068a1.235,1.235,0,0,1-.383,1.629.26.26,0,0,1-.141.035A3.386,3.386,0,0,1-17245.8-8006.205Zm6.938-13.086a3.06,3.06,0,0,1,0-2.439c6.959-9.114,8.717-15.39,6.455-28.058,4.658,2.015,5.752,5.428,6.557,9.444,1.883,9.447-2.8,13.427-9.379,20.123a5.736,5.736,0,0,1-2.879,1.145A1.227,1.227,0,0,1-17238.861-8019.291Zm-41.344-.93c-6.578-6.7-11.26-10.676-9.373-20.123.8-4.017,1.9-7.43,6.555-9.444-2.26,12.668-.508,18.943,6.453,28.058a3.043,3.043,0,0,1,0,2.439,1.223,1.223,0,0,1-.754.215A5.752,5.752,0,0,1-17280.205-8020.221Zm19.76-29.489h0a2.748,2.748,0,0,1,2.717-2.295,2.743,2.743,0,0,1,2.715,2.295l-2.715,6.749Zm-10.107,3.646a14.359,14.359,0,0,1-10.283-4.346,14.192,14.192,0,0,1-4.012-10.366,14.436,14.436,0,0,1,14.811-13.719,14.206,14.206,0,0,1,10.928,5.679l.018.015a1.576,1.576,0,0,0,1.254.614,1.58,1.58,0,0,0,1.252-.614l.016-.015a14.356,14.356,0,0,1,16.211-4.875,14.215,14.215,0,0,1,9.525,13.919,14.433,14.433,0,0,1-14.771,13.7,14.241,14.241,0,0,1-7.605-2.5s-.717-.455-.717-.658c-.117-1.988-1.277-4-3.91-4s-4.021,2.706-4.012,4.213c0,.037-.6.415-.617.44a14.245,14.245,0,0,1-8.068,2.5Zm23.268-21.838a7.821,7.821,0,0,0-5.5,5.472,7.886,7.886,0,0,0,2.045,7.729,8,8,0,0,0,7.773,2.032,7.814,7.814,0,0,0,5.5-5.472,7.889,7.889,0,0,0-2.043-7.729,8,8,0,0,0-5.641-2.32A8.024,8.024,0,0,0-17247.285-8067.9Zm-25.426,0a7.823,7.823,0,0,0-5.5,5.472,7.894,7.894,0,0,0,2.043,7.729,8.005,8.005,0,0,0,7.773,2.032,7.819,7.819,0,0,0,5.5-5.472,7.891,7.891,0,0,0-2.047-7.729,7.993,7.993,0,0,0-5.639-2.32A8.01,8.01,0,0,0-17272.711-8067.9Zm-.826,10.584a4.217,4.217,0,0,1-.746-4.99,4.272,4.272,0,0,1,4.592-2.154,4.256,4.256,0,0,1,3.34,3.324,4.224,4.224,0,0,1-2.166,4.561,4.262,4.262,0,0,1-2,.5A4.272,4.272,0,0,1-17273.537-8057.317Zm1.594-2.991a1.412,1.412,0,0,0,1.416,1.407,1.414,1.414,0,0,0,1.42-1.407,1.414,1.414,0,0,0-1.42-1.41A1.412,1.412,0,0,0-17271.943-8060.309Zm26.23,3.8a3.855,3.855,0,0,1-3.031-3.01,3.833,3.833,0,0,1,1.967-4.139,3.877,3.877,0,0,1,4.549.671,3.831,3.831,0,0,1,.676,4.527,3.868,3.868,0,0,1-3.4,2.025A3.864,3.864,0,0,1-17245.713-8056.511Zm-.531-3.761a1.282,1.282,0,0,0,1.287,1.277,1.286,1.286,0,0,0,1.287-1.277,1.287,1.287,0,0,0-1.287-1.281A1.283,1.283,0,0,0-17246.244-8060.271Zm.58-15.03a17.7,17.7,0,0,0-4.652.637,36.351,36.351,0,0,1,11.959-3.717,38.945,38.945,0,0,0,9.025-2.446,1.583,1.583,0,0,1,1.457.011,1.582,1.582,0,0,1,.838,1.185,12.542,12.542,0,0,1-4.3,11.783A17.488,17.488,0,0,0-17245.664-8075.3Zm-42.621-4.331a1.592,1.592,0,0,1,.838-1.185,1.592,1.592,0,0,1,1.457-.011,38.738,38.738,0,0,0,9.025,2.446,36.414,36.414,0,0,1,11.959,3.717,17.451,17.451,0,0,0-18.979,6.815A12.565,12.565,0,0,1-17288.285-8079.633Zm21.477,3.128a22.579,22.579,0,0,1,8.971-1.392,22.575,22.575,0,0,1,8.969,1.392,18.809,18.809,0,0,0-8.969,7.675A18.814,18.814,0,0,0-17266.809-8076.5Z" data-name="Vereinigungsmenge 67" transform="translate(17290 8081)"/></svg>