<svg id="C_-_87_x2C__structure_x2C__Company_x2C__cooperation_x2C__group_x2C__hierarchy_x2C__people_x2C__team" xmlns="http://www.w3.org/2000/svg" width="92.63" height="94.716" viewBox="0 0 92.63 94.716">
  <g id="Gruppe_965" data-name="Gruppe 965" transform="translate(0 0)">
    <g id="Gruppe_964" data-name="Gruppe 964" transform="translate(0 21.809)">
      <path id="Pfad_1432" data-name="Pfad 1432" d="M63.323,412.712H50.815a5.652,5.652,0,0,0-5.661,5.63v7.3H68.918v-7.369A5.587,5.587,0,0,0,63.323,412.712Z" transform="translate(-45.154 -352.74)" fill="#9f9f9f"/>
      <path id="Pfad_1433" data-name="Pfad 1433" d="M225.664,145.257a5.587,5.587,0,0,0-5.6-5.565H207.561a5.653,5.653,0,0,0-5.663,5.63v7.3h23.766Z" transform="translate(-167.467 -139.692)" fill="#9f9f9f"/>
      <path id="Pfad_1434" data-name="Pfad 1434" d="M384.151,329.093a8,8,0,1,0-8.051-8A8.034,8.034,0,0,0,384.151,329.093Z" transform="translate(-303.404 -274.998)" fill="#9f9f9f"/>
      <path id="Pfad_1435" data-name="Pfad 1435" d="M376.82,412.712H364.313a5.653,5.653,0,0,0-5.663,5.63v7.3h23.767v-7.369A5.587,5.587,0,0,0,376.82,412.712Z" transform="translate(-289.787 -352.74)" fill="#9f9f9f"/>
      <path id="Pfad_1436" data-name="Pfad 1436" d="M209.015,264.769l-16.8-12.543V229.273a1.029,1.029,0,1,0-2.058,0v22.952l-16.8,12.543a1.029,1.029,0,1,0,1.231,1.65l16.6-12.392,16.6,12.392a1.029,1.029,0,0,0,1.232-1.65Z" transform="translate(-144.868 -208.793)" fill="#9f9f9f"/>
    </g>
    <path id="Pfad_1437" data-name="Pfad 1437" d="M69.3,329.093a8,8,0,1,0-8.05-8A8.034,8.034,0,0,0,69.3,329.093Z" transform="translate(-57.716 -253.189)" fill="#9f9f9f"/>
    <path id="Pfad_1438" data-name="Pfad 1438" d="M225.321,56.412a8,8,0,1,0-8.051-8A8.034,8.034,0,0,0,225.321,56.412Z" transform="translate(-179.463 -40.406)" fill="#9f9f9f"/>
  </g>
</svg>
