<svg xmlns="http://www.w3.org/2000/svg" width="1772.253" height="2671.575" viewBox="0 0 1772.253 2671.575">
  <g id="Group_63" data-name="Group 63" transform="translate(-82.418 -582.424)">
    <path id="Path_101" data-name="Path 101" d="M-7886.405,758-7288,676l888,298-138,412-740-38-880,184,58,458,812-58,888,290-56,392-1692,718" transform="translate(8247 -88)" fill="none" stroke="#707070" stroke-width="1"/>
    <path id="Path_100" data-name="Path 100" d="M6,0A6,6,0,1,1,0,6,6,6,0,0,1,6,0Z" transform="translate(357.33 664.343)" fill="#26a4dd"/>
    <ellipse id="Ellipse_44" data-name="Ellipse 44" cx="5.304" cy="5.304" rx="5.304" ry="5.304" transform="translate(957.589 582.424)" fill="#26a4dd"/>
    <ellipse id="Ellipse_45" data-name="Ellipse 45" cx="6" cy="6" rx="6" ry="6" transform="translate(1840.97 878.874)" fill="#26a4dd"/>
    <circle id="Ellipse_19" data-name="Ellipse 19" cx="6.418" cy="6.418" r="6.418" transform="translate(82.418 1438.165)" fill="#26a4dd"/>
    <circle id="Ellipse_51" data-name="Ellipse 51" cx="6.418" cy="6.418" r="6.418" transform="translate(1841.835 2127.165)" fill="#26a4dd"/>
    <circle id="Ellipse_47" data-name="Ellipse 47" cx="6.418" cy="6.418" r="6.418" transform="translate(95 3241.165)" fill="#26a4dd"/>
    <ellipse id="Ellipse_56" data-name="Ellipse 56" cx="6" cy="6" rx="6" ry="6" transform="translate(1701.97 1291.874)" fill="#26a4dd"/>
    <ellipse id="Ellipse_57" data-name="Ellipse 57" cx="6" cy="6" rx="6" ry="6" transform="translate(963.97 1254.874)" fill="#26a4dd"/>
    <ellipse id="Ellipse_58" data-name="Ellipse 58" cx="6" cy="6" rx="6" ry="6" transform="translate(142.97 1893.874)" fill="#26a4dd"/>
    <ellipse id="Ellipse_59" data-name="Ellipse 59" cx="6" cy="6" rx="6" ry="6" transform="translate(953.97 1835.874)" fill="#26a4dd"/>
    <circle id="Ellipse_61" data-name="Ellipse 61" cx="6.418" cy="6.418" r="6.418" transform="translate(1785 2517.165)" fill="#26a4dd"/>
  </g>
</svg>
