<svg xmlns="http://www.w3.org/2000/svg" width="995.119" height="4074.248" viewBox="0 0 995.119 4074.248">
  <g id="Group_59" data-name="Group 59" transform="translate(-38.165 -801.165)">
    <g id="Group_58" data-name="Group 58">
      <path id="Path_108" data-name="Path 108" d="M6053.582,4221.582,6131,4378" transform="translate(-5970)" fill="none" stroke="#707070" stroke-width="1"/>
      <path id="Path_88" data-name="Path 88" d="M6094.418,4749.584l-76.836-513,76.836,651" transform="translate(-5932.418 -13.084)" fill="none" stroke="#707070" stroke-width="1"/>
      <path id="Path_105" data-name="Path 105" d="M6759.582,3960,6120,3966.5" transform="translate(-5970)" fill="none" stroke="#707070" stroke-width="1"/>
      <path id="Path_91" data-name="Path 91" d="M6803.751,4392.084,6018.667,4236l927.751,326.084" transform="translate(-5932.418 -13.084)" fill="none" stroke="#707070" stroke-width="1"/>
      <path id="Path_92" data-name="Path 92" d="M6907.418,4721.084,6016,4234.667l949.418,653.417" transform="translate(-5932.418 -13.084)" fill="none" stroke="#707070" stroke-width="1"/>
      <path id="Path_87" data-name="Path 87" d="M5976.333,2274.167,6190.667,2400,6498,2377" transform="translate(-5932 -134)" fill="none" stroke="#707070" stroke-width="1"/>
      <path id="Path_2" data-name="Path 2" d="M6082.5,1239.418l-58.5,905,33,1018,72,807.5-65,255,77.5,329" transform="translate(-5979 -2.918)" fill="none" stroke="#707070" stroke-width="1"/>
      <circle id="Ellipse_20" data-name="Ellipse 20" cx="6.418" cy="6.418" r="6.418" transform="translate(72.165 3155.165)" fill="#26a4dd"/>
      <!--path id="Path_3" data-name="Path 3" d="M6534,814l-426.5,427.5" transform="translate(-6005 -6)" fill="none" stroke="#707070" stroke-width="1"/-->
      <circle id="Ellipse_13" data-name="Ellipse 13" cx="6.418" cy="6.418" r="6.418" transform="translate(96.165 1229.165)" fill="#26a4dd"/>
      <circle id="Ellipse_36" data-name="Ellipse 36" cx="6.418" cy="6.418" r="6.418" transform="translate(251.165 2261.165)" fill="#26a4dd"/>
      <circle id="Ellipse_37" data-name="Ellipse 37" cx="6.418" cy="6.418" r="6.418" transform="translate(559 2238.165)" fill="#828282"/>
      <circle id="Ellipse_21" data-name="Ellipse 21" cx="6.418" cy="6.418" r="6.418" transform="translate(77.165 4215.165)" fill="#26a4dd"/>
      <circle id="Ellipse_52" data-name="Ellipse 52" cx="6.418" cy="6.418" r="6.418" transform="translate(783.165 3953.165)" fill="#26a4dd"/>
    </g>
    <circle id="Ellipse_54" data-name="Ellipse 54" cx="6.418" cy="6.418" r="6.418" transform="translate(38.165 2134.165)" fill="#26a4dd"/>
  </g>
</svg>
