<svg xmlns="http://www.w3.org/2000/svg" viewBox="0 0 1200 1400">
  <g>
    <path d="M 100,100 110,110, 130,90" fill="none" stroke="#707070" stroke-width="1"/>
    <circle r="5" transform="translate(130 90)" fill="#26a4dd"/>
    <path id="Path_100" data-name="Path 100" d="M6,0A6,6,0,1,1,0,6,6,6,0,0,1,6,0Z" transform="translate(357.33 664.343)" fill="#26a4dd"/>
    <ellipse id="Ellipse_45" data-name="Ellipse 45" cx="6" cy="6" rx="6" ry="6" transform="translate(1840.97 878.874)" fill="#26a4dd"/>
    <circle id="Ellipse_19" data-name="Ellipse 19" cx="6.418" cy="6.418" r="6.418" transform="translate(82.418 1438.165)" fill="#26a4dd"/>
    <circle id="Ellipse_51" data-name="Ellipse 51" cx="6.418" cy="6.418" r="6.418" transform="translate(1841.835 2127.165)" fill="#26a4dd"/>
    <circle id="Ellipse_47" data-name="Ellipse 47" cx="6.418" cy="6.418" r="6.418" transform="translate(95 3241.165)" fill="#26a4dd"/>
    <ellipse id="Ellipse_56" data-name="Ellipse 56" cx="6" cy="6" rx="6" ry="6" transform="translate(1701.97 1291.874)" fill="#26a4dd"/>
    <ellipse id="Ellipse_57" data-name="Ellipse 57" cx="6" cy="6" rx="6" ry="6" transform="translate(963.97 1254.874)" fill="#26a4dd"/>
    <ellipse id="Ellipse_58" data-name="Ellipse 58" cx="6" cy="6" rx="6" ry="6" transform="translate(142.97 1893.874)" fill="#26a4dd"/>
    <ellipse id="Ellipse_59" data-name="Ellipse 59" cx="6" cy="6" rx="6" ry="6" transform="translate(953.97 1835.874)" fill="#26a4dd"/>
    <circle id="Ellipse_61" data-name="Ellipse 61" cx="6.418" cy="6.418" r="6.418" transform="translate(1785 2517.165)" fill="#26a4dd"/>
  </g>
</svg>
