<svg xmlns="http://www.w3.org/2000/svg" width="1995.576" height="2874.835" viewBox="0 0 1995.576 2874.835">
  <g id="Group_62" data-name="Group 62" transform="translate(-44.165 -465.165)">
    <path id="Path_83" data-name="Path 83" d="M4310.8,3620.583c-76.207-86.331-302-344.583-302-344.583" transform="translate(-3890.799 -287)" fill="none" stroke="#707070" stroke-width="1"/>
    <path id="Path_84" data-name="Path 84" d="M3986,468l-54,1458,67,1063" transform="translate(-3881)" fill="none" stroke="#707070" stroke-width="1"/>
    <circle id="Ellipse_13" data-name="Ellipse 13" cx="6.418" cy="6.418" r="6.418" transform="translate(98.165 465.165)" fill="#828282"/>
    <path id="Path_9" data-name="Path 9" d="M3974.751,1319.418l217.667,60.749,245-28.4,274,34.429,265-6.025,309-32.708,629,92.959" transform="translate(-3874.751 -575.418)" fill="none" stroke="#707070" stroke-width="1"/>
    <circle id="Ellipse_30" data-name="Ellipse 30" cx="6.418" cy="6.418" r="6.418" transform="translate(310.831 799.165)" fill="#26a4dd"/>
    <circle id="Ellipse_31" data-name="Ellipse 31" cx="6.418" cy="6.418" r="6.418" transform="translate(555.831 770.165)" fill="#828282"/>
    <circle id="Ellipse_32" data-name="Ellipse 32" cx="6.418" cy="6.418" r="6.418" transform="translate(829.831 803.165)" fill="#828282"/>
    <circle id="Ellipse_33" data-name="Ellipse 33" cx="6.418" cy="6.418" r="6.418" transform="translate(1093.831 798.165)" fill="#828282"/>
    <circle id="Ellipse_34" data-name="Ellipse 34" cx="6.418" cy="6.418" r="6.418" transform="translate(1402.831 764.165)" fill="#828282"/>
    <circle id="Ellipse_35" data-name="Ellipse 35" cx="6.418" cy="6.418" r="6.418" transform="translate(413.582 3327.165)" fill="#26a4dd"/>
    <circle id="Ellipse_19" data-name="Ellipse 19" cx="6.418" cy="6.418" r="6.418" transform="translate(44.165 1925.165)" fill="#26a4dd"/>
  </g>
</svg>
