<svg xmlns="http://www.w3.org/2000/svg" xmlns:xlink="http://www.w3.org/1999/xlink" width="394.938" height="395.202" viewBox="0 0 394.938 395.202">
  <defs>
    <pattern id="pattern" patternUnits="userSpaceOnUse" preserveAspectRatio="xMidYMin slice" width="394.938" height="395.202" viewBox="170 20 394.938 394.938">
        <image xlink:href="https://www.gitpod.io/galaxy.jpg" width="600" height="450"/>
    </pattern>
  </defs>
  <g transform="matrix(1, 0, 0, 1, 0, 0)">
    <path id="andy-holmes-rCbdp8VCYhQ-unsplash-2" data-name="andy-holmes-rCbdp8VCYhQ-unsplash" d="M277.114,306.307c-2.431-.758-4.915-1.515-7.417-2.308,1.268-5.391,2.449-11.293,3.524-17.512,5.162-3.541,10.324-7.188,15.4-10.923.264,3.224.44,6.342.6,9.426-3.946,7.646-7.981,14.817-12.1,21.318ZM138.76,64.218c2.942-2.273,5.884-4.387,8.756-6.413.123-1.5.264-2.907.405-4.281,2.872-1.11,5.708-2.2,8.51-3.206,3.365,4.44,7.241,9.972,11.452,16.385-1.339,1.392-2.678,2.819-4.035,4.281-4.545,1.55-9.161,3.171-13.76,4.81.529-4.986,1.11-9.619,1.762-13.795-1.779,2.854-3.576,5.884-5.409,9.056-3.154.106-6.307.229-9.426.352q.846-3.779,1.744-7.188Zm236.2,121.617c-4.493,5.479-9.778,11.276-15.7,17.318-.106,3.629-.229,7.294-.37,10.923-2.238,3.136-4.545,6.29-6.977,9.5-2.308-9.461-4.933-19.292-7.963-29.316q-5.048-8.007-10.8-16.314c-8.915-2.22-18.569-4.475-28.753-6.8-3.013-2.889-6.113-5.761-9.249-8.668-1.515.916-3,1.815-4.51,2.713q3.568,8.615,6.906,17.248c3.436-1.868,6.853-3.753,10.13-5.585q6.712,5.761,12.932,11.328c-12.262,8.58-25.793,17.6-40.046,26.709-6.783-14.887-14.235-30.409-22.075-45.824-1.621.247-3.242.511-4.863.775,8.069,18.358,15.821,36.875,22.551,54.44,7.417-3.753,14.658-7.488,21.653-11.17-2.4,8.3-4.968,16.561-7.681,24.648-7.4,6.942-15.046,13.777-22.745,20.455.37,9.408.564,18.376.529,26.674-4.281,2.942-8.545,5.8-12.844,8.562-8.774,11.769-17.442,21.97-25.669,29.827-6.906.916-13.777,1.727-20.6,2.519-5.127-8.034-11.205-19.01-17.829-32.047,1.568-5.973,3.242-12.35,4.933-19.1-4.175-11.734-8.6-24.542-13.073-37.879-14.993.916-29.827,1.709-44.327,2.361-8.386-7.893-16.667-15.944-24.736-24.031,1.057-12.967,2.378-26.216,3.911-39.394,7.875-9.831,16.015-19.662,24.19-29.316,15.433-2.854,31.2-5.62,46.864-8.245.987,4.035,1.956,8.1,2.942,12.192,6.431,4.1,12.879,8.3,19.345,12.491,2.467-3.436,4.88-6.853,7.294-10.2,9.8,2.537,19.5,5.109,29.052,7.7q3.647-2.22,7.241-4.387c.987-3.594,1.9-7.135,2.837-10.641-6.466-1.2-13.037-2.431-19.662-3.629-2.237-3.647-4.493-7.294-6.73-10.888-1.6-.758-3.171-1.533-4.739-2.326-1.233,4.457-2.484,9-3.788,13.6-3.03-3.7-6.043-7.347-9.073-10.958.159-3,.317-5.955.423-8.879q-5.946-4.466-11.822-8.739c-2.343-1.092-4.669-2.167-6.994-3.224.229,2.8.405,5.655.634,8.545,4.88,3.1,9.831,6.254,14.781,9.478q-3.753,4.123-7.576,8.439-5.444-6.9-10.712-13.513c-2.555-2.766-5.056-5.5-7.576-8.175-5.849,2.7-11.751,5.5-17.653,8.316-4.228,6.1-8.51,12.368-12.773,18.763q-9.355-1.321-18.517-2.555c-.088-7.593-.106-15.011-.053-22.111q11.549.476,23.379,1.092c-2.361-3.735-4.686-7.4-6.977-10.958-1.339-2.907-2.66-5.761-3.964-8.509,5.884-1.8,11.786-3.576,17.653-5.268,3.347-3.753,6.624-7.364,9.884-10.817,2.572-.159,5.162-.335,7.717-.493-.493-1.92-1-3.805-1.5-5.62,1.691-1.727,3.312-3.347,4.933-4.986q1.85,4.017,3.735,8.386c7.153.141,14.306.352,21.441.581,1.832-4.052,3.541-7.893,5.2-11.487,2.713.7,5.426,1.427,8.14,2.132q-1.691-3.805-3.365-7.259c3.946-.81,7.787-1.586,11.628-2.326-1.392-1.039-2.784-2.026-4.158-3-3.418.546-6.906,1.145-10.43,1.762-1.48-2.044-2.942-3.982-4.369-5.814-.194,0-.37-.018-.564-.018.07-.141.141-.264.229-.405-.581-.758-1.2-1.5-1.8-2.185,1.321-.546,2.643-1.092,3.929-1.586,1.039-1.762,1.885-3.066,2.819-4.493-1.286-.106-2.59-.229-3.876-.335-1.832,1.11-3.717,2.378-5.638,3.7-1.55,2.008-3.171,4.281-4.863,6.712,2.114,1.392,4.246,2.8,6.4,4.281-1.779,3.594-3.612,7.576-5.585,11.839-3.189.916-6.4,1.832-9.655,2.784-1.832-4.422-3.647-8.527-5.391-12.315-3.647,1.427-7.382,2.889-11.135,4.44-1.744-.775-3.453-1.5-5.162-2.237.388-3.753.81-7.223,1.233-10.307,3.136-1.445,6.2-2.766,9.2-4.017a66.69,66.69,0,0,1,7.329-8.1c5.814-1.18,11.4-2.149,16.719-2.942,13.513.617,27.625,1.6,41.913,2.8,19.8-.669,43.816-1.533,54.4-2.044a188.142,188.142,0,0,0-234.936,1.5c2.167.3,4.316.617,6.5.951,1.286,3.224,2.748,6.712,4.475,10.624.564,1.991,1.18,4.123,1.85,6.325-3.418,3.259-6.783,6.783-10.06,10.536-.687,1.85-1.357,3.717-2.008,5.655-2.5,1.409-4.933,2.854-7.364,4.3-1.586,5.268-3.048,10.835-4.4,16.614-2.977-.423-5.92-.828-8.756-1.216C48.4,84.2,47.252,74.3,46.335,65.028A189.134,189.134,0,0,0,23.273,97.8c.969-.81,1.868-1.6,2.854-2.4,2.519,12.738,5.55,26.709,9.672,41.913-8.28,5.338-15.715,10.641-22.128,15.751A147.862,147.862,0,0,0,1.515,165.7,192.257,192.257,0,0,0,0,188.583,189.55,189.55,0,0,0,6.008,235.13c3.347,1.216,6.994,2.414,11.046,3.594a268.521,268.521,0,0,0,20.93,21.265q2.537,7.585,5.373,14.9C53.4,281.148,64.376,287.209,75.81,292.9c-3.453,10.712-6.113,20.032-8.1,28.083-4.457.123-8.774.229-13.037.317a187.82,187.82,0,0,0,133.95,55.9c102.4,0,185.553-81.677,188.319-183.421C376.25,191.12,375.7,188.53,374.964,185.835Z" transform="translate(9 6)" fill="url(#pattern)"/>
  </g>
</svg>
