<svg xmlns="http://www.w3.org/2000/svg" xmlns:xlink="http://www.w3.org/1999/xlink" width="94" height="94" viewBox="0 0 94 94">
  <defs>
    <pattern id="pattern" patternUnits="userSpaceOnUse" preserveAspectRatio="xMidYMin slice" width="94.137" height="94.137" viewBox="150 0 94.137 94.137">
        <image xlink:href="https://www.gitpod.io/galaxy.jpg" height="100" width="370" />
    </pattern>
  </defs>
  <g id="Gruppe_maskieren_1" data-name="Gruppe maskieren 1" transform="translate(-0.002 -0.084)" clip-path="url(#clip-path)">
    <g id="g2303" transform="translate(21.056 13.381)">
      <path id="path46" d="M35.325,19.023q0-11.908-6.791-12.237a12.757,12.757,0,0,0-5.271.866,7.739,7.739,0,0,0-2.768,1.461V28.061q4.344,2.726,7.71,2.529Q35.322,30.12,35.325,19.023Zm5.585.329a16.841,16.841,0,0,1-2.848,10.043,10.5,10.5,0,0,1-8.815,4.649,15.637,15.637,0,0,1-8.751-2.657V48.608l-4.857-1.732V8.651A10.849,10.849,0,0,1,18.7,6.122,21.042,21.042,0,0,1,29.241,3.529l.069.069a9.666,9.666,0,0,1,8.735,4.649Q40.907,12.575,40.909,19.352Z" transform="translate(62.268 12.959)" fill="#0092cf"/>
      <path id="path48" d="M45.949,30.654q0,8.114-1.626,11.238T38.1,46.876a23.823,23.823,0,0,1-8.045,1.6l-.8-3.061a38.654,38.654,0,0,0,6.185-1.2,8.174,8.174,0,0,0,4.857-3.656q1.068-2,1.063-7.646V31.653a24.952,24.952,0,0,1-10.441,2.258A9.6,9.6,0,0,1,24.6,31.653,7.684,7.684,0,0,1,21.538,25.4V5.192l4.857-1.663V23.874A6.182,6.182,0,0,0,28.5,28.9a7.952,7.952,0,0,0,5.446,1.7A13.62,13.62,0,0,0,41.092,28V4.262h4.857Z" transform="translate(86.91 12.959)" fill="#0092cf"/>
      <path id="path50" d="M40.917,41.126c-.579.048-1.111.069-1.6.069A9.559,9.559,0,0,1,32.9,39.23a6.794,6.794,0,0,1-2.29-5.436V14.665H27.282V11.61h3.326V3.5L35.46,1.769V11.61h5.457v3.055H35.46v19a4.6,4.6,0,0,0,1.467,3.868,7.415,7.415,0,0,0,3.99,1.068Z" transform="translate(110.9 5.611)" fill="#0092cf"/>
      <path id="path52" d="M54.7,46.683H49.843V27.937a8.862,8.862,0,0,0-1.334-4.92,4.854,4.854,0,0,0-4.277-2.327q-3.34,0-8.353,3.523V46.683H31.022V1.874L35.879.343V20.753a16.922,16.922,0,0,1,10.175-3.39A8.11,8.11,0,0,1,52.3,19.956a9.132,9.132,0,0,1,2.4,6.451V46.683Z" transform="translate(126.522 -0.343)" fill="#0092cf"/>
      <path id="path54" d="M57.808,18.258A14.923,14.923,0,0,0,56.076,10.7a7.252,7.252,0,0,0-6.382-3.842q-7.986.462-7.981,11.435a18.81,18.81,0,0,0,1.668,8.4q2.136,4.3,6.408,4.23Q57.808,30.856,57.808,18.258Zm5.319.032A17.275,17.275,0,0,1,59.8,29.129,11.963,11.963,0,0,1,49.694,33.98a11.723,11.723,0,0,1-9.979-4.851,17.506,17.506,0,0,1-3.257-10.84A15.475,15.475,0,0,1,39.981,7.981a12.139,12.139,0,0,1,9.777-4.453A12.341,12.341,0,0,1,59.6,7.981,15.475,15.475,0,0,1,63.127,18.289Z" transform="translate(149.227 12.959)" fill="#0092cf"/>
      <path id="path56" d="M65.933,33.38H61.077V13.571a6.625,6.625,0,0,0-1.961-5.09,7.121,7.121,0,0,0-5.223-1.759A11.674,11.674,0,0,0,47.309,8.98v24.4H42.453v-25a23.922,23.922,0,0,1,7.715-3.985,23.538,23.538,0,0,1,5.856-.866,15.2,15.2,0,0,1,3.257.335,9.373,9.373,0,0,1,4.655,2.46,6.51,6.51,0,0,1,2,4.787Z" transform="translate(174.263 12.959)" fill="#0092cf"/>
      <path id="Vereinigungsmenge_44" data-name="Vereinigungsmenge 44" d="M10.841,69.616c0-2.1,8.769-3.8,19.587-3.8s19.588,1.7,19.588,3.8-8.769,3.8-19.588,3.8S10.841,71.713,10.841,69.616Zm12.113-9.461c-3.863-1.136-7.308-3.466-7.308-7.429V38.809a7.457,7.457,0,0,1,7.308-7.428h14.6a9.375,9.375,0,0,0,9.132-9.268V15.622H52.17c4.254,0,6.258,3.182,7.308,7.411,1.461,5.873,1.527,10.277,0,14.857C58,42.335,56.418,45.3,52.17,45.3H30.262v1.856h14.6v5.571c0,4.219-3.628,6.362-7.308,7.429a26.121,26.121,0,0,1-7.346,1.114A25.361,25.361,0,0,1,22.954,60.155Zm12.778-6.509a2.743,2.743,0,1,0,2.742-2.777A2.773,2.773,0,0,0,35.731,53.646ZM8.8,45.3c-4.248,0-6.729-3.083-7.768-7.41a27.327,27.327,0,0,1,0-14.857,9.126,9.126,0,0,1,9.132-7.411h20.1V13.765H15.645V8.2c0-4.219,1.123-6.506,7.308-7.6A41.857,41.857,0,0,1,29.938,0a45.6,45.6,0,0,1,7.615.6c3.967.661,7.308,3.636,7.308,7.6V22.113a7.364,7.364,0,0,1-7.308,7.429h-14.6a9.287,9.287,0,0,0-9.13,9.079V45.3ZM19.291,7.277a2.743,2.743,0,1,0,2.742-2.8A2.758,2.758,0,0,0,19.291,7.277Z" transform="translate(0 1.708)" fill="url(#pattern)"/>
      <path id="text3004" d="M50.443,7.656h.851V2.316h2.017V1.679H48.426v.637h2.017v5.34m3.624,0h.727V2.779l1.579,4.877h.81L58.828,2.8V7.656h.794V1.679h-1.05l-1.8,5.12-1.533-5.12H54.067V7.656" transform="translate(199.211 5.235)" fill="#0092cf"/>
    </g>
  </g>
</svg>
