<svg xmlns="http://www.w3.org/2000/svg" width="23.717" height="29.435"><g data-name="Gruppe 1419"><g data-name="Gruppe 1411"><path data-name="Pfad 1563" d="M0 17.577a11.858 11.858 0 1111.858 11.858A11.858 11.858 0 010 17.577z" fill="#e6e6e6"/></g><path data-name="Pfad 1619" d="M15.4 14.112a2.529 2.529 0 001.254.4 3.505 3.505 0 001.209-.236c.274-.121.646-.291.674-.647.113-3.1 5.137-3.346 5.137-8.167 0-3.45-2.94-5.46-7.35-5.46-3.75 0-6.3 1.692-6.7 2.819s0 1.52.148 1.67.634.441 1.917.172 2.085-1.42 4.305-1.42c2.31 0 3.75 1.14 3.75 2.82 0 2.817-4.175 3.265-4.749 7.354a.757.757 0 00.405.695zm1.254 7.4a2.312 2.312 0 002.37-2.34 2.288 2.288 0 00-2.37-2.31 2.3 2.3 0 00-2.4 2.31 2.32 2.32 0 002.396 2.338z" fill="#707070"/></g></svg>