<svg xmlns="http://www.w3.org/2000/svg" xmlns:xlink="http://www.w3.org/1999/xlink" width="479.052" height="517.352" viewBox="0 0 479.052 517.352">
  <defs>
    <filter id="Vereinigungsmenge_18" x="0" y="0" width="479.052" height="517.352" filterUnits="userSpaceOnUse">
      <feOffset dy="3" input="SourceAlpha"/>
      <feGaussianBlur stdDeviation="3" result="blur"/>
      <feFlood flood-opacity="0.161"/>
      <feComposite operator="in" in2="blur"/>
      <feComposite in="SourceGraphic"/>
    </filter>
    <pattern id="pattern" patternUnits="userSpaceOnUse" width="928" height="619" x="400" y="0" >
        <image xlink:href="https://www.gitpod.io/galaxy.jpg" width="928" height="619"/>
    </pattern>
  </defs>
  <g transform="matrix(1, 0, 0, 1, 0, 0)" filter="url(#Vereinigungsmenge_18)">
    <path id="Vereinigungsmenge_18-2" data-name="Vereinigungsmenge 18" d="M-9723,373.185a201.548,201.548,0,0,1,145.953-193.758,16.151,16.151,0,0,1-.158-2.133,15.842,15.842,0,0,1,.229-2.591c-10.65-3.219-18.34-12.4-18.34-23.236,0-13.511,11.96-24.467,26.712-24.467s26.716,10.956,26.716,24.467a23.256,23.256,0,0,1-6.812,16.314,15.806,15.806,0,0,1,2.633,5.4,202.921,202.921,0,0,1,24.4-1.478c111.193,0,201.332,90.208,201.332,201.481s-90.139,201.483-201.332,201.483S-9723,484.46-9723,373.185Zm31.7,0c0,93.756,75.951,169.765,169.64,169.765s169.64-76.006,169.64-169.765-75.951-169.763-169.64-169.763S-9691.307,279.429-9691.307,373.185Zm102.326-221.718c0,8.271,5.877,15.281,14.011,17.73a15.826,15.826,0,0,1,13.609-7.761,15.73,15.73,0,0,1,8.131,2.266,17.713,17.713,0,0,0,5-12.236c0-10.306-9.121-18.661-20.375-18.661S-9588.98,141.162-9588.98,151.467Zm-11.574,351.207,8.873-13.968a2.746,2.746,0,0,0-.807-3.791,2.742,2.742,0,0,0-3.777.877l-8.867,13.959a151.809,151.809,0,0,1-64.038-91.724l14.493-3.228a2.765,2.765,0,0,0,2.147-3.264,2.764,2.764,0,0,0-3.329-2.044l-14.454,3.221a152.389,152.389,0,0,1-2.882-29.528,150.993,150.993,0,0,1,23.081-80.465l12.473,7.935a2.756,2.756,0,0,0,3.817-.79,2.761,2.761,0,0,0-.9-3.8l-12.426-7.906a151.679,151.679,0,0,1,91.8-62.851l3.14,14.113a2.753,2.753,0,0,0,3.259,2.131,2.756,2.756,0,0,0,2.045-3.313l-3.122-14.032a152.2,152.2,0,0,1,28.362-2.665,150.729,150.729,0,0,1,80.283,23.022l-7.845,12.345a2.747,2.747,0,0,0,.811,3.794,2.737,2.737,0,0,0,3.774-.875l7.818-12.3a151.815,151.815,0,0,1,62.614,90.617l-12.019,2.676a2.767,2.767,0,0,0-2.15,3.264,2.767,2.767,0,0,0,3.33,2.046l11.992-2.674a152.422,152.422,0,0,1,2.919,29.728,150.988,150.988,0,0,1-22.057,78.822l-11.07-7.044a2.758,2.758,0,0,0-3.818.788,2.759,2.759,0,0,0,.9,3.8l11.07,7.042a151.731,151.731,0,0,1-90.41,63.879l-3.177-14.277a2.75,2.75,0,0,0-3.253-2.131,2.753,2.753,0,0,0-2.048,3.313l3.181,14.3a151.907,151.907,0,0,1-30.849,3.15A150.744,150.744,0,0,1-9600.555,502.674Zm63.281-143.41-.529.5-.6.993-74.122,123.288,104.161-97.762.528-.5.6-1,74.117-123.284Zm3.939,58.955a46.607,46.607,0,0,0,11.576,1.485l23.06,51.655.9-57.969-.7.118a46.727,46.727,0,0,0,13.168-11.325l27.131,10.384-20.625-21.3a46.437,46.437,0,0,0,3.611-16.751l51.045-22.82-56.739-.886c-.048-.087-.1-.171-.15-.258l-2.735,4.546a41.849,41.849,0,0,1,4.086,18.084,41.975,41.975,0,0,1-41.957,41.988,42.222,42.222,0,0,1-7.667-.71Zm-29.107-67.377a46.241,46.241,0,0,0-5.34,16.55l-51.984,24.22h55.411c.021.051.045.1.066.151l2.95-4.907a41.976,41.976,0,0,1-2.285-13.672,41.973,41.973,0,0,1,41.956-41.988,42.153,42.153,0,0,1,6.513.508l4.069-3.818a46.043,46.043,0,0,0-5.609-.951l-24.29-52.222v56.163a46.6,46.6,0,0,0-13.973,9.856l-27.683-10.1Zm27.915,22.9a12.985,12.985,0,0,1,12.388-13.556,12.982,12.982,0,0,1,13.546,12.4,12.983,12.983,0,0,1-12.388,13.556c-.2.009-.394.013-.589.013A12.988,12.988,0,0,1-9534.526,373.744Z" transform="translate(9619.7 -1416.9) rotate(-8)" fill="url(#pattern)"/>
  </g>
</svg>
