<svg xmlns="http://www.w3.org/2000/svg" width="89.786" height="71.528" viewBox="0 0 89.786 71.528">
  <path id="iconfinder_wifi_Symbol_925808" d="M45.794,75.176A18.555,18.555,0,0,0,31.677,81.45c-3.137,3.765-8.784-1.255-5.647-5.02a26.627,26.627,0,0,1,39.529,0c3.137,3.765-2.51,8.784-5.647,5.02A18.555,18.555,0,0,0,45.794,75.176Zm0,26.353A7.529,7.529,0,1,1,53.324,94,7.634,7.634,0,0,1,45.794,101.528Zm0-45.176A36.225,36.225,0,0,0,19.442,67.019c-3.137,3.137-9.1-1.569-5.333-5.333A44.334,44.334,0,0,1,45.794,48.823,44.334,44.334,0,0,1,77.48,61.686c3.765,3.765-2.2,8.47-5.333,5.333A36.225,36.225,0,0,0,45.794,56.353Zm0-18.823A55.459,55.459,0,0,0,7.52,52.588c-3.765,3.451-9.1-1.882-5.333-5.333a63.731,63.731,0,0,1,87.215,0c3.765,3.451-1.569,8.784-5.333,5.333A55.459,55.459,0,0,0,45.794,37.529Z" transform="translate(-0.901 -30)" fill="#9f9f9f"/>
</svg>
