<svg xmlns="http://www.w3.org/2000/svg" xmlns:xlink="http://www.w3.org/1999/xlink" width="446.168" height="380.438" viewBox="0 0 446.168 380.438">
  <defs>
    <filter id="andy-holmes-rCbdp8VCYhQ-unsplash" x="0" y="0" width="446.168" height="380.438" filterUnits="userSpaceOnUse">
      <feOffset dy="3" input="SourceAlpha"/>
      <feGaussianBlur stdDeviation="3" result="blur"/>
      <feFlood flood-opacity="0.161"/>
      <feComposite operator="in" in2="blur"/>
      <feComposite in="SourceGraphic"/>
    </filter>
    <pattern id="pattern" patternUnits="userSpaceOnUse" width="480" height="480" x="0" y="0" >
        <image xlink:href="https://www.gitpod.io/galaxy.jpg" width="928" height="619"/>
    </pattern>
  </defs>
  <g id="_x32_9_x2C__planet_x2C__space_x2C__moon_x2C__flag_x2C__mars" transform="translate(9 6)">
    <g id="Gruppe_43" data-name="Gruppe 43" transform="translate(0)">
      <g transform="matrix(1, 0, 0, 1, -9, -6)" filter="url(#andy-holmes-rCbdp8VCYhQ-unsplash)">
        <path id="andy-holmes-rCbdp8VCYhQ-unsplash-2" data-name="andy-holmes-rCbdp8VCYhQ-unsplash" d="M184.756,336.123c23.177-11.988,47.686-26.318,71.6-41.724,23.915-15.436,47.289-31.98,68.185-48.4,26.226-20.592,48.6-40.839,63.243-58.237l-3.214-7.4-3.882-7.973-.085-.157c-22.4-43.307-58.428-72.411-98.549-84.4-40.092-12.019-84.28-6.927-123.072,18.032l-.1.063C120.07,130.919,94.03,171.158,83.276,215.95s-6.19,94.172,16.206,137.51l4.322,7.876,4.123,6.8c20.825-5.474,47.729-16.957,76.829-32.015m90.771-4.176c-49.445,31.855-97.657,56.119-138.484,71.018,24.931,22.807,55.292,36.6,86.871,40.174,32.686,3.668,66.7-3.638,97.288-23.345,30.488-19.677,53.1-48.685,66.6-81.931a201.085,201.085,0,0,0,12.423-104.517c-32.017,32.077-75.017,66.589-124.5,98.475Zm-15.682-30.842c-24.114,15.532-48.808,29.957-72.167,42.072C126.2,374.97,73.262,390.344,61.616,367.82c-2.9-5.663-2.466-12.938.935-21.415,3.061-7.656,8.585-16.481,16.222-26.1-1.231-4.3-2.309-8.6-3.244-12.939-18.9,19.993-33.069,38.688-41.34,54.821-8.049,15.659-10.427,28.5-5.952,37.17,8.487,16.418,39.612,16.766,83.036,4.049,44.7-13.1,101.848-40.174,160.811-78.2l.157-.095C331.29,287.06,380.945,245.3,413.472,208.61c31.494-35.524,46.782-65.735,38.453-82.153l-.059-.126c-4.491-8.7-15.683-12.843-31.847-12.875-16.634-.031-38.237,4.3-63.17,12.559q4.331,4.648,8.4,9.617c11.237-2.531,20.8-3.48,28.237-2.657,8.36.949,14.266,4.175,17.2,9.838,11.646,22.523-26.735,66.018-82.144,109.547C307.488,268.9,283.942,285.574,259.844,301.106Z" transform="translate(-17 -75.62)" fill="url(#pattern)"/>
      </g>
    </g>
  </g>
</svg>

