<svg xmlns="http://www.w3.org/2000/svg" xmlns:xlink="http://www.w3.org/1999/xlink" viewBox="0 0 109 31" fill="#fff" fill-rule="evenodd" stroke="#000" stroke-linecap="round" stroke-linejoin="round"><use xlink:href="#A" x=".5" y=".5"/><symbol id="A" overflow="visible"><g stroke="none" fill-rule="nonzero"><path d="M3.57 18.838c-.524-1.354-.8-2.794-.785-4.246.016-3.15 1.282-6.165 3.52-8.382s5.267-3.454 8.416-3.438a12.76 12.76 0 0 1 1.672.117l-1.337 1.36h-.363a10.39 10.39 0 0 0-8.294 4.127 10.38 10.38 0 0 0-1.71 9.095h9.1l-3.868 7.1 9.16-9.276H6.58l14.1-13.987A14.45 14.45 0 0 0 14.635 0C8.08.003 2.325 4.373.548 10.676a14.65 14.65 0 0 0 6.453 16.455l4.362-8.244zm18.7-16.735l-4.373 8.244h7.808c1.4 3.644.914 7.743-1.298 10.96a11.85 11.85 0 0 1-9.767 5.137c-.58-.002-1.156-.04-1.73-.117L14.23 25h.408a10.39 10.39 0 0 0 7.35-3.045c1.948-1.95 3.045-4.594 3.045-7.35a11.38 11.38 0 0 0-.393-2.82h-9.1l3.795-7.168-9.335 9.3h12.533L8.614 27.933c7.03 3.084 15.25.217 18.838-6.57s1.325-15.195-5.185-19.266z" fill="#e1251b"/><path d="M34.093 18.043l.53-.783c.043-.072.116-.12.2-.132s.167.017.226.076a2.52 2.52 0 0 0 1.7.715 1.2 1.2 0 0 0 .86-.326c.232-.22.366-.52.374-.84 0-.616-.408-1-1.178-1.504-.9-.616-1.973-1.368-1.973-2.738s.95-2.848 3.083-2.848a3.76 3.76 0 0 1 2.467.888.39.39 0 0 1 .037.549l-.53.752c-.1.165-.3.18-.48.03-.42-.394-.972-.615-1.547-.616-.615-.024-1.135.452-1.166 1.067 0 .55.37.82 1.2 1.368s2.1 1.357 2.1 2.86c0 1.604-1.234 2.948-3.268 2.948a3.83 3.83 0 0 1-2.633-1.067c-.097-.074-.155-.197 0-.4zm6.733 1.018l5.15-9.25c.043-.1.134-.148.233-.148h.123c.1 0 .17.06.2.148l2.522 9.25c.027.083.013.174-.038.245a.27.27 0 0 1-.22.113h-1.2c-.2 0-.32-.074-.358-.277l-.345-1.516h-3.408l-.795 1.516c-.08.17-.25.276-.437.277H41.02c-.216-.03-.284-.2-.2-.358zm5.63-2.916l-.616-2.984-1.492 2.984zm5.216-6.095c.03-.142.155-.243.292-.247h1.345c.063.002.122.032.16.083s.054.115.042.177l-.82 5.765c-.015.145-.015.292 0 .437-.052.4.076.782.348 1.066a1.29 1.29 0 0 0 1.052.39c1.122 0 1.75-.73 1.917-1.85l.82-5.778a.29.29 0 0 1 .272-.259h1.357c.063.005.12.035.16.084a.23.23 0 0 1 .05.175l-.84 5.864c-.3 2.078-1.75 3.6-3.872 3.6a2.96 2.96 0 0 1-3.126-3.084c.003-.184.017-.367.043-.55zm13.56-.396c1.095-.01 2.138.467 2.848 1.302.085.122.06.3-.055.382l-.74.7a.3.3 0 0 1-.45 0 2.47 2.47 0 0 0-1.696-.684c-1.646 0-3.083 1.7-3.083 3.656 0 1.455.783 2.702 2.096 2.702a2.84 2.84 0 0 0 1.849-.808c.18-.155.327-.123.437 0l.752.907c.058.126.03.272-.068.37-.8.835-1.92 1.314-3.083 1.33-2.367 0-3.903-1.905-3.903-4.26-.013-3.225 2.257-5.605 5.093-5.605zm5.427.405a.29.29 0 0 1 .259-.259h5.068c.063.002.122.032.16.083s.054.115.042.177l-.165 1.122c-.012.144-.126.257-.272.265h-3.5l-.315 2.235h2.904c.062.004.12.035.16.085s.054.113.045.175l-.16 1.134a.3.3 0 0 1-.277.259h-2.892l-.34 2.4h3.52c.136 0 .194.123.2.26l-.155 1.122c-.012.144-.126.257-.272.265h-5.08c-.063-.003-.12-.035-.16-.097s-.05-.117-.032-.18z" fill="#474c55"/><path d="M79.45 10.048a.3.3 0 0 1 .271-.247h.616c.063.005.12.035.16.084a.23.23 0 0 1 .05.175l-1.22 8.383h3.477c.06.006.117.038.154.087s.05.112.04.172l-.055.395a.3.3 0 0 1-.271.265h-4.315c-.067-.004-.127-.04-.162-.097a.25.25 0 0 1-.042-.18zm4.68 9l5.056-9.25c.04-.1.13-.15.228-.148h.123c.1 0 .17.06.2.148l2.467 9.25c.02.083.003.17-.047.24s-.126.113-.212.12h-.58c-.097.005-.183-.06-.194-.155l-.55-2.257h-4.27l-1.166 2.257a.29.29 0 0 1-.259.155h-.616c-.194-.03-.253-.2-.16-.358zm6.165-2.904l-1.055-4.48h-.097l-2.333 4.5zm8.504-1.58a2.08 2.08 0 0 1 1.159 1.849 2.9 2.9 0 0 1-.875 2.164c-.587.566-1.387.855-2.2.795h-2.836c-.067-.004-.127-.04-.162-.097a.25.25 0 0 1-.042-.18l1.302-9.052a.31.31 0 0 1 .277-.259h2.725a2.11 2.11 0 0 1 2.201 2.177 2.74 2.74 0 0 1-1.516 2.546zm-1.726 3.887a1.85 1.85 0 0 0 1.763-1.924 1.44 1.44 0 0 0-1.468-1.473H95.45l-.5 3.398zm.413-4.37c1 0 1.665-.807 1.665-2 0-.795-.408-1.344-1.202-1.344h-1.885l-.48 3.4zm4.162 3.873l.216-.228c.165-.165.277-.222.437-.068a2.67 2.67 0 0 0 2.028.955 1.63 1.63 0 0 0 1.225-.453c.328-.315.5-.752.5-1.206 0-.863-.647-1.368-1.782-2.02s-1.85-1.234-1.85-2.498c0-1.147.72-2.762 2.966-2.762a3.57 3.57 0 0 1 2.138.697c.068.055.2.194 0 .468l-.155.216c-.136.2-.272.247-.45.123a2.79 2.79 0 0 0-1.628-.586 1.77 1.77 0 0 0-1.283.474 1.79 1.79 0 0 0-.566 1.247c0 .77.525 1.276 1.387 1.75 1.312.715 2.313 1.387 2.313 2.8 0 1.516-1.098 2.682-2.996 2.682a3.51 3.51 0 0 1-2.565-1.178c-.05-.1-.105-.222.074-.4z" fill="#e1251b"/></g></symbol></svg>