<svg xmlns="http://www.w3.org/2000/svg" xmlns:xlink="http://www.w3.org/1999/xlink" width="660" height="370" viewBox="0 0 730 370">
    <style>
@font-face {
  font-family: 'Montserrat';
  font-style: normal;
  font-weight: 400;
  font-display: swap;
  src: local('Montserrat'), url(https://fonts.gstatic.com/s/montserrat/v14/JTUSjIg1_i6t8kCHKm459WlhyyTh89Y.woff2) format('woff2');
}
@font-face {
  font-family: 'Montserrat';
  font-style: normal;
  font-weight: 600;
  font-display: swap;
  src: local('Montserrat-Bold'), url(https://fonts.gstatic.com/s/montserrat/v14/JTURjIg1_i6t8kCHKm45_bZF3gnD_vx3rCs.woff2) format('woff2');
}
</style>
  <defs>
    <pattern id="pattern" patternUnits="userSpaceOnUse" preserveAspectRatio="xMidYMin slice" y="0" x="0" width="830" height="470" viewBox="-240 0 830 470">
        <image xlink:href="https://www.gitpod.io/galaxy-big.jpg" y="0" width="300" height="550" />
    </pattern>
    <pattern id="pattern-2" patternUnits="userSpaceOnUse" preserveAspectRatio="xMidYMin slice" y="150" x="-420" width="830" height="470" viewBox="210 20 830 470">
        <image xlink:href="https://www.gitpod.io/galaxy-big.jpg" width="500" height="400" />
    </pattern>
  </defs>
  <g id="Gruppe_695" data-name="Gruppe 695" transform="translate(-847.588 -4358.483)">
    <g id="Komponente_108" data-name="Komponente 108" transform="translate(1288.645 4392.339)">
      <g id="Gruppe_36" data-name="Gruppe 36" transform="translate(0 0)">
        <g id="Gruppe_34" data-name="Gruppe 34">
          <g id="Rechteck_7" data-name="Rechteck 7" fill="#fff" stroke="#dbdbdb" stroke-linecap="round" stroke-width="2">
            <rect width="181.071" height="123.22" rx="2" stroke="none"/>
            <rect x="-1" y="-1" width="183.071" height="125.22" rx="3" fill="none"/>
          </g>
          <path id="Pfad_33" data-name="Pfad 33" d="M4760.205,2378.406l2.093,6.25,5.13,15.31h-24.674s5.66-16.383,7.694-21.56" transform="translate(-4664.975 -2253.606)" fill="#fff" stroke="#dbdbdb" stroke-linecap="round" stroke-width="2"/>
          <path id="Pfad_79" data-name="Pfad 79" d="M0,.508H41.469" transform="translate(68.968 145.852)" fill="none" stroke="#dbdbdb" stroke-linecap="round" stroke-width="2"/>
        </g>
      </g>
      <g id="Schnittmenge_56" data-name="Schnittmenge 56" transform="translate(7.788 6.735)" fill="none" stroke-linejoin="round">
        <path d="M0,95.557V0H165.424V95.557Z" stroke="none"/>
        <path d="M 165.4244689941406 95.55668640136719 L 165.4244689941406 6.106290129537228e-06 L 7.22434288036311e-06 6.106290129537228e-06 L 7.22434288036311e-06 95.55668640136719 L 165.4244689941406 95.55668640136719 M 165.4244689941406 97.55668640136719 L 7.22434288036311e-06 97.55668640136719 C -1.104560971260071 97.55668640136719 -1.999992728233337 96.6612548828125 -1.999992728233337 95.55668640136719 L -1.999992728233337 6.106290129537228e-06 C -1.999992728233337 -1.104562044143677 -1.104560971260071 -1.999993920326233 7.22434288036311e-06 -1.999993920326233 L 165.4244689941406 -1.999993920326233 C 166.5290374755859 -1.999993920326233 167.4244689941406 -1.104562044143677 167.4244689941406 6.106290129537228e-06 L 167.4244689941406 95.55668640136719 C 167.4244689941406 96.6612548828125 166.5290374755859 97.55668640136719 165.4244689941406 97.55668640136719 Z" stroke="none" fill="#dbdbdb"/>
      </g>
    </g>
    <g id="Komponente_107" data-name="Komponente 107" transform="translate(931.876 4393.668)">
      <g id="Gruppe_36-2" data-name="Gruppe 36" transform="translate(0 0)">
        <g id="Gruppe_34-2" data-name="Gruppe 34" transform="translate(0)">
          <g id="Rechteck_7-2" data-name="Rechteck 7" fill="#fff" stroke="#dbdbdb" stroke-linecap="round" stroke-width="2">
            <rect width="181.071" height="123.22" rx="2" stroke="none"/>
            <rect x="-1" y="-1" width="183.071" height="125.22" rx="3" fill="none"/>
          </g>
          <path id="Pfad_33-2" data-name="Pfad 33" d="M4760.205,2378.406l2.093,6.25,5.13,15.31h-24.674s5.66-16.383,7.694-21.56" transform="translate(-4664.975 -2253.606)" fill="#fff" stroke="#dbdbdb" stroke-linecap="round" stroke-width="2"/>
          <path id="Pfad_79-2" data-name="Pfad 79" d="M0,.508H41.469" transform="translate(68.968 145.852)" fill="none" stroke="#dbdbdb" stroke-linecap="round" stroke-width="2"/>
        </g>
      </g>
      <g id="Schnittmenge_56-2" data-name="Schnittmenge 56" transform="translate(7.788 6.735)" fill="none" stroke-linejoin="round">
        <path d="M0,95.557V0H165.424V95.557Z" stroke="none"/>
        <path d="M 165.4244689941406 95.55668640136719 L 165.4244689941406 6.106290129537228e-06 L 7.22434288036311e-06 6.106290129537228e-06 L 7.22434288036311e-06 95.55668640136719 L 165.4244689941406 95.55668640136719 M 165.4244689941406 97.55668640136719 L 7.22434288036311e-06 97.55668640136719 C -1.104560971260071 97.55668640136719 -1.999992728233337 96.6612548828125 -1.999992728233337 95.55668640136719 L -1.999992728233337 6.106290129537228e-06 C -1.999992728233337 -1.104562044143677 -1.104560971260071 -1.999993920326233 7.22434288036311e-06 -1.999993920326233 L 165.4244689941406 -1.999993920326233 C 166.5290374755859 -1.999993920326233 167.4244689941406 -1.104562044143677 167.4244689941406 6.106290129537228e-06 L 167.4244689941406 95.55668640136719 C 167.4244689941406 96.6612548828125 166.5290374755859 97.55668640136719 165.4244689941406 97.55668640136719 Z" stroke="none" fill="#dbdbdb"/>
      </g>
    </g>
    <text id="get_if" data-name="get () {if" transform="translate(996.427 4427.844)" fill="#1aa6e4" font-size="20" font-family="Montserrat-SemiBold, Montserrat" font-weight="600"><tspan x="-40.15" y="0">get () {if</tspan></text>
    <g id="Gruppe_324" data-name="Gruppe 324" transform="matrix(0.999, -0.035, 0.035, 0.999, 842.405, 4364.132)">
      <path id="Pfad_481" data-name="Pfad 481" d="M2182.466,1552.6m-54.215-5.554" transform="translate(-2095.032 -1404.598)" fill="#dbdbdb" stroke="#dbdbdb" stroke-linecap="round" stroke-linejoin="round" stroke-width="2"/>
      <path id="Pfad_482" data-name="Pfad 482" d="M2128.251,1328c20.913,18.31,44.586,8.03,52.323,3.811a14.97,14.97,0,0,1-1.832-1.235c-9.252-7.369-.827-30.607-.827-30.607l-21.057-8.73-13.076,8.73C2141.863,1317.856,2134.521,1325.106,2128.251,1328Z" transform="translate(-2093.139 -1183.814)" fill="#fff" stroke="#dbdbdb" stroke-linecap="round" stroke-linejoin="round" stroke-width="1"/>
      <path id="Pfad_480" data-name="Pfad 480" d="M1781.263,506.46,1742.091,537l-1.934-13.492-17.057-2.193,2.887,21.27-33.081,8.336,14.813,6.308-5.86,20.183,5.86-1.8,2.688,15.168,6.674,5.618-.794,10.369s6.044,18.478,6.858,18.194l14.644-5.1,11.919,8.4,10.324-7.192,10.724,3.891,5.887-20.014,7.182,7.847,4.58-12.937-4.512-37.9,1.641-7.492,6.09,25.463.1-30.664,14.94,3.383-23.574-13.159s44.2-16.028,43.415-15.749-45.246,5.913-45.246,5.913l6.954-8.338-17.5,5.046Z" transform="translate(-1679.491 -506.46)" fill="#dbdbdb" stroke="#dbdbdb" stroke-linecap="round" stroke-linejoin="round" stroke-width="1"/>
      <path id="Pfad_483" data-name="Pfad 483" d="M1740.039,1594.115c-4.68,30.86,94.24,29.59,111.936,30.066s20.455.443,26.566-25.23-17.855-29.6-17.855-29.6-23.917.328-34.46-5.763c-7.736,4.219-31.409,14.5-52.321-3.811a19.18,19.18,0,0,1-9.692,1.805s-12.231-1.42-19.669,4.819S1740.039,1594.115,1740.039,1594.115Z" transform="translate(-1738.792 -1415.595)" fill="#dbdbdb" stroke="#dbdbdb" stroke-linecap="round" stroke-linejoin="round" stroke-width="1"/>
    </g>
    <text id="get_if-2" data-name="get () {if" transform="translate(1343.988 4424.262)" fill="#1aa6e4" font-size="15" font-family="Montserrat-SemiBold, Montserrat" font-weight="600"><tspan x="-30.112" y="0">get () {if</tspan></text>
    <text id="value_200" data-name="value = 200" transform="translate(1371.916 4451.844)" fill="#4d4d4d" font-size="20" font-family="Montserrat-SemiBold, Montserrat" font-weight="600"><tspan x="-58.27" y="0">value = 200</tspan></text>
    <path id="Pfad_484" data-name="Pfad 484" d="M-2014.828,4309.447s69.885,46.749,180.057,0" transform="translate(3104 292)" fill="none" stroke="#9f9f9f" stroke-linecap="round" stroke-width="2"/>
    <text id="Share_a_workspace_-_Work_together" data-name="Share a workspace -
Work together" transform="translate(1070 4631)" fill="#4d4d4d" font-size="20" font-family="Montserrat-Regular, Montserrat"><tspan x="10.85" y="19">Share a workspace -</tspan><tspan font-family="Montserrat-Bold, Montserrat" font-weight="700"><tspan x="33.69" y="43">Work together</tspan></tspan></text>
    <path id="Pfad_481-2" data-name="Pfad 481" d="M2182.466,1552.6m-54.215-5.554" transform="matrix(0.999, -0.035, 0.035, 0.999, -945.37, 3039.506)" fill="#dbdbdb" stroke="#dbdbdb" stroke-linecap="round" stroke-linejoin="round" stroke-width="2"/>
    <path id="Pfad_482-2" data-name="Pfad 482" d="M2128.251,1328c20.913,18.31,44.586,8.03,52.323,3.811a14.97,14.97,0,0,1-1.832-1.235c-9.252-7.369-.827-30.607-.827-30.607l-21.057-8.73-13.076,8.73C2141.863,1317.856,2134.521,1325.106,2128.251,1328Z" transform="matrix(0.999, -0.035, 0.035, 0.999, -912.774, 3266.089)" fill="#fff" stroke="#dbdbdb" stroke-linecap="round" stroke-linejoin="round" stroke-width="1"/>
    <g transform="matrix(1, 0, 0, 1, 847.59, 4358.48)">
      <path id="Vereinigungsmenge_34-2" data-name="Vereinigungsmenge 34" d="M1490.07-4302.416c-11.432-.027-116.617.793-111.936-30.065,0,0-2.933-21.469,4.5-27.708s19.669-4.819,19.669-4.819a19.178,19.178,0,0,0,9.692-1.806c20.912,18.311,44.586,8.03,52.322,3.812,10.543,6.091,34.459,5.763,34.459,5.763s23.967,3.92,17.856,29.6c-5.8,24.366-14.224,25.233-24.839,25.233C1491.228-4302.412,1490.652-4302.414,1490.07-4302.416Zm-54.885-95.178-14.645,5.1c-.814.284-6.858-18.194-6.858-18.194l.795-10.369-6.675-5.619-2.688-15.168-5.861,1.8,5.861-20.182-14.814-6.309,33.082-8.334-2.887-21.27,17.058,2.193,1.934,13.491L1478.658-4511,1468.11-4491.1l17.5-5.045-6.955,8.338s44.461-5.635,45.246-5.914-43.415,15.749-43.415,15.749l23.574,13.16-14.94-3.384-.1,30.666-6.09-25.463-1.642,7.492,4.511,37.9-4.579,12.937-7.182-7.848-5.887,20.015-10.724-3.891-10.324,7.193Z" transform="matrix(1, -0.03, 0.03, 1, -868.8, 4567.96)" stroke="#bcbcbc" stroke-linecap="round" stroke-linejoin="round" stroke-width="1" fill="url(#pattern-2)"/>
    </g>
    <path id="Pfad_481-3" data-name="Pfad 481" d="M60.485,0,0,6.2" transform="translate(1524.077 4510.813) rotate(-173)" fill="#dbdbdb" stroke="#dbdbdb" stroke-linecap="round" stroke-linejoin="round" stroke-width="2"/>
    <path id="Pfad_482-3" data-name="Pfad 482" d="M0,19.668C8.166,12.518,15.246,1.251,24.249.149,38.178-1.585,52.763,12.356,58.372,15.416a16.719,16.719,0,0,0-2.043,1.378c-10.321,8.221-.922,34.146-.922,34.146L31.914,60.679,17.327,50.94C15.185,30.986,6.994,22.9,0,19.668Z" transform="translate(1520.102 4531.173) rotate(-173)" fill="#fff" stroke="#dbdbdb" stroke-linecap="round" stroke-linejoin="round" stroke-width="1"/>
    <g transform="matrix(1, 0, 0, 1, 847.59, 4358.48)">
      <path id="Vereinigungsmenge_33-2" data-name="Vereinigungsmenge 33" d="M1210.182-4337.483l-13.627-15.265-8.3-27.271.61-35.349,7.716,7.538,3.328-33.909,14.9-1.83,8.045,12.387s7.839-14.765,8.747-14.449l5.393,5.583,4.946-6.851,12.1-1.486,2.8,22.8,2.725-23.482,15.013.79,11.674,26.207-3.707,28.005,7.751-20.346,1.731,14.1-4.193,21.983,5.031,10.123s-5.907,13.938-6.783,13.627-6.614,8.588-6.614,8.588l11.8-4.388-26.948,18.118-28.877,3.545ZM1185.35-4458.85s-3.948.679-12.246-6.283-4.259-25.232-4.259-25.232c-4.13-17.458,88.68-27.67,95.2-27.6a44.536,44.536,0,0,0,6.377-.995c10.19-1.875,27.168-3.749,31.654,21.01,5.695,31.423-20.193,31.61-20.193,31.61a47.492,47.492,0,0,0-23.95,6.1c-28.141-15.8-46.128-13.526-58.373,4.251C1193.742-4458.68,1185.35-4458.85,1185.35-4458.85Z" transform="translate(2408.58 -4123.42) rotate(-173)" stroke="#bcbcbc" stroke-linecap="round" stroke-linejoin="round" stroke-width="1" fill="url(#pattern)"/>
    </g>
  </g>
</svg>
