<svg xmlns="http://www.w3.org/2000/svg" xmlns:xlink="http://www.w3.org/1999/xlink" width="49.414" height="48.587" viewBox="0 0 49.414 48.587">
    <defs>
    <pattern id="img1" patternUnits="userSpaceOnUse" preserveAspectRatio="xMidYMin slice" width="82.373" height="82.373" viewBox="140 0 52.373 52.373">
        <image xlink:href="https://www.gitpod.io/galaxy.jpg" y="-30" width="370" height="100" />
    </pattern>
    </defs>
    <path fill="url(#img1)" class="a" d="M48.62,39.739a8.427,8.427,0,0,0-6.126,2.636l-18.01-8.817a7.7,7.7,0,0,0,.005-2.5l17.983-8.721a8.452,8.452,0,1,0-2.314-5.8,8.52,8.52,0,0,0,.1,1.234L22.275,26.491a8.461,8.461,0,1,0-.021,11.627l18.01,8.817a8.456,8.456,0,1,0,8.357-7.2Z" transform="translate(-7.667 -8.075)"/></svg>
