<svg xmlns="http://www.w3.org/2000/svg" width="33.635" height="33.635" viewBox="0 0 33.635 33.635">
  <path id="Ausschluss_26" data-name="Ausschluss 26" d="M-1075.548-827.365a16.708,16.708,0,0,1-11.892-4.926,16.708,16.708,0,0,1-4.926-11.892,16.708,16.708,0,0,1,4.926-11.892A16.708,16.708,0,0,1-1075.548-861a16.708,16.708,0,0,1,11.892,4.926,16.708,16.708,0,0,1,4.926,11.892,16.708,16.708,0,0,1-4.926,11.892A16.708,16.708,0,0,1-1075.548-827.365ZM-1079.73-853a1,1,0,0,0-.7.282.992.992,0,0,0-.3.7.994.994,0,0,0,.282.712l6.881,7.1-6.881,7.084a.993.993,0,0,0-.283.711,1,1,0,0,0,.3.7,1,1,0,0,0,.7.284,1.007,1.007,0,0,0,.717-.3l8.233-8.476-8.232-8.5A.992.992,0,0,0-1079.73-853Z" transform="translate(1092.365 861)" fill="#e6e6e6"/>
</svg>
