<svg xmlns="http://www.w3.org/2000/svg" style="transform: scale(.75)" viewBox="0 0 485 88.291"><defs><linearGradient id="a" x1="1.086" y1=".138" x2=".469" y2=".788" gradientUnits="objectBoundingBox"><stop offset=".18" stop-color="#0052cc"/><stop offset="1" stop-color="#2684ff"/></linearGradient></defs><g data-name="Gruppe 906"><g data-name="Gruppe 186"><path d="M99.629-405.447l-5.562-15.9L83.043-452.849a1.943,1.943,0,0,0-3.6,0L68.415-421.344H31.81L20.786-452.849a1.943,1.943,0,0,0-3.6,0L6.159-421.344.6-405.447a3.382,3.382,0,0,0,1.376,3.934l48.139,32.479,48.139-32.479a3.382,3.382,0,0,0,1.377-3.934" transform="translate(-.411 455.723)" fill="#fc6d26" fill-rule="evenodd"/><path d="M19.619-226.787h0l18.3-52.309H1.316l18.3,52.309Z" transform="translate(30.083 313.475)" fill="#e24329" fill-rule="evenodd"/><path d="M44.845-226.786l-18.3-52.309H.891l43.954,52.309Z" transform="translate(4.857 313.474)" fill="#fc6d26" fill-rule="evenodd"/><path d="M6.6-280h0L1.04-264.1a3.382,3.382,0,0,0,1.377,3.934l48.139,32.479L6.6-280Z" transform="translate(-.855 314.379)" fill="#fca326" fill-rule="evenodd"/><path d="M0-141.863H25.651L14.627-173.368a1.943,1.943,0,0,0-3.6,0L0-141.863Z" transform="translate(5.748 176.242)" fill="#e24329" fill-rule="evenodd"/><path d="M0-226.786l18.3-52.309H43.954L0-226.786Z" transform="translate(49.701 313.474)" fill="#fc6d26" fill-rule="evenodd"/><path d="M44.845-280h0l5.562,15.9a3.382,3.382,0,0,1-1.377,3.934L.891-227.691,44.845-280Z" transform="translate(48.81 314.379)" fill="#fca326" fill-rule="evenodd"/><path d="M26.559-141.863H.908l11.024-31.506a1.943,1.943,0,0,1,3.6,0l11.023,31.506Z" transform="translate(67.096 176.242)" fill="#e24329" fill-rule="evenodd"/></g><g data-name="Layer 2"><path data-name="Pfad 119" d="M3.015,6.26A3.107,3.107,0,0,0,.7,7.227a2.651,2.651,0,0,0-.69,2.267L12.757,81.34A4,4,0,0,0,16.75,84.5H77.891a2.948,2.948,0,0,0,3-2.342L93.638,9.508a2.651,2.651,0,0,0-.69-2.267,3.107,3.107,0,0,0-2.313-.967ZM56.68,58.186H37.166L31.882,32.55H61.409Z" transform="translate(391.323 1.98)" fill="#2684ff"/><path data-name="Pfad 120" d="M84.862,25.12H56.685L51.957,50.755H32.442L9.4,76.154a4.254,4.254,0,0,0,2.627.92H73.183a2.948,2.948,0,0,0,3-2.342Z" transform="translate(396.046 9.411)" fill="url(#a)"/></g><path d="M45.262,0A45.264,45.264,0,0,0,30.948,88.2c2.263.4,3.112-.962,3.112-2.15,0-1.075-.057-4.639-.057-8.43-11.372,2.093-14.314-2.772-15.219-5.318-.509-1.3-2.716-5.318-4.639-6.393-1.584-.849-3.847-2.942-.057-3,3.564-.057,6.11,3.281,6.959,4.639,4.074,6.846,10.58,4.922,13.183,3.734a9.521,9.521,0,0,1,2.885-6.054C27.044,64.1,16.521,60.2,16.521,42.886A17.615,17.615,0,0,1,21.16,30.721c-.453-1.132-2.037-5.771.453-11.994,0,0,3.791-1.188,12.447,4.639a42.673,42.673,0,0,1,22.631,0c8.656-5.884,12.447-4.639,12.447-4.639,2.489,6.223.905,10.863.453,11.994a17.513,17.513,0,0,1,4.639,12.164c0,17.369-10.58,21.216-20.651,22.348,1.641,1.414,3.055,4.13,3.055,8.373,0,6.054-.057,10.919-.057,12.447,0,1.188.849,2.6,3.112,2.15A45.286,45.286,0,0,0,45.262,0Z" transform="translate(200.338 -.001)" fill="#1b1f23" fill-rule="evenodd"/></g></svg>
