<svg xmlns="http://www.w3.org/2000/svg" width="20" height="20" viewBox="0 0 20 20">
  <g id="Page-1" transform="translate(-7 -7)">
    <g id="icon-29-sun" transform="translate(7 7)">
      <path id="sun" d="M17,22.741a5.772,5.772,0,1,0-5.772-5.772A5.772,5.772,0,0,0,17,22.741ZM17,7a.518.518,0,0,0-.525.52V9.628a.528.528,0,0,0,.525.52.518.518,0,0,0,.525-.52V7.52A.528.528,0,0,0,17,7Zm7.071,2.929a.518.518,0,0,0-.739,0l-1.491,1.491a.528.528,0,0,0,0,.739.518.518,0,0,0,.739,0l1.491-1.491a.528.528,0,0,0,0-.739ZM27,17a.518.518,0,0,0-.52-.525H24.372a.528.528,0,0,0-.52.525.518.518,0,0,0,.52.525H26.48A.528.528,0,0,0,27,17Zm-2.929,7.071a.518.518,0,0,0,0-.739l-1.491-1.491a.528.528,0,0,0-.739,0,.518.518,0,0,0,0,.739l1.491,1.491a.528.528,0,0,0,.739,0ZM17,27a.518.518,0,0,0,.525-.52V24.372a.528.528,0,0,0-.525-.52.518.518,0,0,0-.525.52V26.48A.528.528,0,0,0,17,27ZM9.929,24.071a.518.518,0,0,0,.739,0l1.491-1.491a.528.528,0,0,0,0-.739.518.518,0,0,0-.739,0L9.926,23.332a.528.528,0,0,0,0,.739ZM7,17a.518.518,0,0,0,.52.525H9.628a.528.528,0,0,0,.52-.525.518.518,0,0,0-.52-.525H7.52A.528.528,0,0,0,7,17ZM9.929,9.929a.518.518,0,0,0,0,.739l1.491,1.491a.528.528,0,0,0,.739,0,.518.518,0,0,0,0-.739L10.668,9.926a.528.528,0,0,0-.739,0Z" transform="translate(-7 -7)" fill="#9f9f9f" fill-rule="evenodd"/>
    </g>
  </g>
</svg>
