<svg xmlns="http://www.w3.org/2000/svg" width="91" height="91" viewBox="0 0 91 91"><path fill="none" d="M0 0H91V91H0z" data-name="Rechteck 1006"/><path fill="#9f9f9f" stroke="#9f9f9f" stroke-miterlimit="10" stroke-width="3" d="M47.266,21.633a3.633,3.633,0,0,0-7.266,0V48.879a3.633,3.633,0,1,0,7.266,0Z" data-name="Pfad 1328" transform="translate(33.118 14.695)"/><path fill="#9f9f9f" stroke="#9f9f9f" stroke-miterlimit="10" stroke-width="3" d="M33.715,50.266a3.633,3.633,0,1,0,0-7.266H24.633a3.633,3.633,0,1,0,0,7.266Z" data-name="Pfad 1329" transform="translate(17.607 35.105)"/><path fill="none" stroke="#9f9f9f" stroke-miterlimit="10" stroke-width="3" d="M8,32.879a30.879,30.879,0,1,1,61.757,0" data-name="Pfad 1330" transform="translate(6.994 1.633)"/><path fill="#9f9f9f" stroke="#9f9f9f" stroke-miterlimit="10" stroke-width="3" d="M44,20c5.017,0,9.082,6.1,9.082,13.623S49.017,47.246,44,47.246" data-name="Pfad 1331" transform="translate(36.384 16.328)"/><path fill="#9f9f9f" stroke="#9f9f9f" stroke-miterlimit="10" stroke-width="3" d="M6,21.633a3.633,3.633,0,0,1,7.266,0V48.879a3.633,3.633,0,1,1-7.266,0Z" data-name="Pfad 1332" transform="translate(5.361 14.695)"/><path fill="#9f9f9f" stroke="#9f9f9f" stroke-miterlimit="10" stroke-width="3" d="M10.082,20C5.067,20,1,26.1,1,33.623s4.067,13.623,9.082,13.623" data-name="Pfad 1333" transform="translate(1.279 16.328)"/><path fill="none" stroke="#9f9f9f" stroke-miterlimit="10" stroke-width="3" d="M51.8,37c0,9.082-5.449,14.531-14.531,14.531H30" data-name="Pfad 1334" transform="translate(24.954 30.206)"/></svg>