<svg xmlns="http://www.w3.org/2000/svg" width="91" height="91" viewBox="0 0 91 91"><path data-name="Rechteck 1006" fill="none" d="M0 0H91V91H0z"/><path data-name="Pfad 1328" d="M47.266,21.633a3.633,3.633,0,0,0-7.266,0V48.879a3.633,3.633,0,1,0,7.266,0Z" transform="translate(33.118 14.695)" fill="#9f9f9f" stroke="#9f9f9f" stroke-miterlimit="10" stroke-width="3"/><path data-name="Pfad 1329" d="M33.715,50.266a3.633,3.633,0,1,0,0-7.266H24.633a3.633,3.633,0,1,0,0,7.266Z" transform="translate(17.607 35.105)" fill="#9f9f9f" stroke="#9f9f9f" stroke-miterlimit="10" stroke-width="3"/><path data-name="Pfad 1330" d="M8,32.879a30.879,30.879,0,1,1,61.757,0" transform="translate(6.994 1.633)" fill="none" stroke="#9f9f9f" stroke-miterlimit="10" stroke-width="3"/><path data-name="Pfad 1331" d="M44,20c5.017,0,9.082,6.1,9.082,13.623S49.017,47.246,44,47.246" transform="translate(36.384 16.328)" fill="#9f9f9f" stroke="#9f9f9f" stroke-miterlimit="10" stroke-width="3"/><path data-name="Pfad 1332" d="M6,21.633a3.633,3.633,0,0,1,7.266,0V48.879a3.633,3.633,0,1,1-7.266,0Z" transform="translate(5.361 14.695)" fill="#9f9f9f" stroke="#9f9f9f" stroke-miterlimit="10" stroke-width="3"/><path data-name="Pfad 1333" d="M10.082,20C5.067,20,1,26.1,1,33.623s4.067,13.623,9.082,13.623" transform="translate(1.279 16.328)" fill="#9f9f9f" stroke="#9f9f9f" stroke-miterlimit="10" stroke-width="3"/><path data-name="Pfad 1334" d="M51.8,37c0,9.082-5.449,14.531-14.531,14.531H30" transform="translate(24.954 30.206)" fill="none" stroke="#9f9f9f" stroke-miterlimit="10" stroke-width="3"/></svg>
