<svg xmlns="http://www.w3.org/2000/svg" xmlns:xlink="http://www.w3.org/1999/xlink" width="814" height="725" viewBox="0 0 814 725">
  <defs>
    <clipPath id="clip-path">
      <path id="path3446" d="M14.4-371.163c0,7.254,11.18,13.135,24.97,13.135h0c13.79,0,24.97-5.881,24.97-13.135h0c0-7.254-11.18-13.135-24.97-13.135h0c-13.79,0-24.97,5.881-24.97,13.135" transform="translate(-14.4 384.299)" fill="none"/>
    </clipPath>
    <clipPath id="clip-path-2">
      <path id="path3470" d="M0-405H52.021v29.262H0Z" transform="translate(0 405)" fill="#9f9f9f"/>
    </clipPath>
    <clipPath id="clip-path-3">
      <path id="path3482" d="M0-405H52.021v29.262H0Z" transform="translate(0 405)"/>
    </clipPath>
  </defs>
  <g id="Gruppe_689" data-name="Gruppe 689" transform="translate(-789 -6877)">
    <ellipse id="Ellipse_334" data-name="Ellipse 334" cx="137" cy="136.5" rx="137" ry="136.5" transform="translate(1292 7225)" fill="#e6e6e6"/>
    <circle id="Ellipse_335" data-name="Ellipse 335" cx="84.5" cy="84.5" r="84.5" transform="translate(811 7317)" fill="#e6e6e6"/>
    <ellipse id="Ellipse_336" data-name="Ellipse 336" cx="138" cy="138.5" rx="138" ry="138.5" transform="translate(1227 6933)" fill="#e6e6e6"/>
    <circle id="Ellipse_337" data-name="Ellipse 337" cx="109.5" cy="109.5" r="109.5" transform="translate(883 6992)" fill="#e6e6e6"/>
    <ellipse id="Ellipse_340" data-name="Ellipse 340" cx="75.5" cy="75" rx="75.5" ry="75" transform="translate(1035 7452)" fill="#e6e6e6"/>
    <ellipse id="Ellipse_338" data-name="Ellipse 338" cx="102" cy="102.5" rx="102" ry="102.5" transform="translate(900 7163)" fill="#f7f7f7"/>
    <ellipse id="Ellipse_339" data-name="Ellipse 339" cx="65" cy="65.5" rx="65" ry="65.5" transform="translate(953 7388)" fill="#f7f7f7"/>
    <ellipse id="Ellipse_341" data-name="Ellipse 341" cx="78" cy="77.5" rx="78" ry="77.5" transform="translate(1071 7007)" fill="#dbdbdb"/>
    <path id="Swift_logo" d="M47.289,52.292C39.9,56.558,29.75,57,19.534,52.618A43.406,43.406,0,0,1,0,35.9a32.914,32.914,0,0,0,7.215,4.4c10.55,4.945,21.1,4.606,28.52.013a.079.079,0,0,1-.011-.013C25.165,32.2,16.19,21.645,9.5,13.023a30.119,30.119,0,0,1-3.52-4.752c8.1,7.391,20.942,16.718,25.517,19.358A188.031,188.031,0,0,1,13.55,5.1,178.5,178.5,0,0,0,43.116,29.389c.472.266.835.487,1.128.685a23.155,23.155,0,0,0,.807-2.445C47.515,18.654,44.7,8.447,38.54,0c14.254,8.623,22.7,24.813,19.181,38.364q-.138.548-.3,1.081.062.074.123.152c7.038,8.8,5.1,18.126,4.223,16.366-3.818-7.472-10.887-5.187-14.48-3.671Z" transform="translate(1078.866 7478.958)" fill="#9f9f9f"/>
    <text id="Swift" transform="translate(1072 7549)" fill="#9f9f9f" font-size="18" font-family="Montserrat-SemiBold, Montserrat" font-weight="600"><tspan x="14.42" y="17">Swift</tspan></text>
    <circle id="Ellipse_342" data-name="Ellipse 342" cx="102" cy="102" r="102" transform="translate(1135 7125)" fill="#f7f7f7"/>
    <g id="JSON_vector_logo" transform="translate(862.51 7347.387)">
      <path id="path7508" d="M32.7,48.823c14.493,19.758,28.677-5.515,28.656-20.712C61.332,10.142,43.119.1,32.688.1,15.945.1,0,13.937,0,32.869c0,21.044,18.278,32.7,32.688,32.7-3.261-.47-14.128-2.8-14.274-27.829-.1-16.929,5.522-23.693,14.251-20.717.2.072,9.628,3.793,9.628,15.948,0,12.1-9.592,15.852-9.592,15.852Z" transform="translate(0 -0.059)" fill="#dbdbdb" fill-rule="evenodd"/>
      <path id="path7510" d="M49.089,16.951c-9.577-3.3-21.309,4.592-21.309,20.4,0,25.815,19.129,28.158,21.448,28.158,16.743,0,32.688-13.838,32.688-32.77,0-21.044-18.278-32.7-32.688-32.7C53.22-.512,70.741,4.36,70.741,28.307c0,15.617-13.083,24.118-21.592,20.486-.2-.073-9.628-3.793-9.628-15.948,0-12.1,9.568-15.894,9.568-15.894Z" transform="translate(-16.406 0)" fill="#9f9f9f" fill-rule="evenodd"/>
    </g>
    <text id="JSON" transform="translate(852 7429)" fill="#9f9f9f" font-size="18" font-family="Montserrat-SemiBold, Montserrat" font-weight="600"><tspan x="18.728" y="17">JSON</tspan></text>
    <path id="typescriptlang-icon" d="M0,39.448V78.895H78.9V0H0ZM63.58,36.3a9.826,9.826,0,0,1,4.935,2.843,12.962,12.962,0,0,1,1.891,2.53c.025.1-3.406,2.4-5.486,3.694-.074.049-.376-.275-.715-.777A4.466,4.466,0,0,0,60.5,42.366c-2.391-.163-3.945,1.09-3.92,3.18a2.893,2.893,0,0,0,.338,1.479c.526,1.09,1.5,1.741,4.571,3.069,5.648,2.428,8.065,4.031,9.566,6.312a11.456,11.456,0,0,1,.915,9.618c-1.252,3.282-4.358,5.51-8.728,6.25a24.206,24.206,0,0,1-6.011-.062A14.5,14.5,0,0,1,49.2,68.03a13.869,13.869,0,0,1-2.054-3.045,5.991,5.991,0,0,1,.727-.464l2.93-1.689,2.268-1.315.476.7a10.584,10.584,0,0,0,2.993,2.867c2.517,1.328,5.974,1.139,7.676-.388a3.43,3.43,0,0,0,.439-4.37c-.614-.875-1.866-1.615-5.424-3.156-4.07-1.753-5.823-2.843-7.426-4.571a10.41,10.41,0,0,1-2.167-3.945,15.792,15.792,0,0,1-.138-5.034c.838-3.945,3.807-6.675,8.09-7.489a20.008,20.008,0,0,1,5.986.175ZM45.059,39.6l.025,3.23H34.815V72H27.551V42.825H17.283V39.657l.086-3.254c.037-.049,6.287-.074,13.863-.062l13.788.037Z" transform="translate(1197.894 7165.77)" fill="#9f9f9f"/>
    <text id="TypeScript" transform="translate(1184 7259)" fill="#9f9f9f" font-size="18" font-family="Montserrat-SemiBold, Montserrat" font-weight="600"><tspan x="3.689" y="17">TypeScript</tspan></text>
    <circle id="Ellipse_344" data-name="Ellipse 344" cx="72" cy="72" r="72" transform="translate(1242 7421)" fill="#f7f7f7"/>
    <g id="ISO_C__Logo" data-name="ISO_C++_Logo" transform="translate(1280.15 7446.339)">
      <path id="Vereinigungsmenge_61" data-name="Vereinigungsmenge 61" d="M29.834,56.021,2.055,39.983A5.954,5.954,0,0,1,0,37.81L32.744,18.9,65.488,37.81a5.957,5.957,0,0,1-2.055,2.173L35.654,56.021a6.453,6.453,0,0,1-5.819,0ZM32.744,18.9,65.488,0a5.951,5.951,0,0,1,.854,2.866V34.943a5.958,5.958,0,0,1-.855,2.867Z" transform="translate(0.855 18.905)" fill="#9f9f9f"/>
      <path id="Pfad_1109" data-name="Pfad 1109" d="M66.343,18.9a5.956,5.956,0,0,0-2.055-2.173L36.509.693a6.455,6.455,0,0,0-5.819,0L2.91,16.731A6.455,6.455,0,0,0,0,21.771V53.848a5.953,5.953,0,0,0,.855,2.866L33.6,37.81Z" transform="translate(0 0)" fill="#dbdbdb"/>
      <g id="Gruppe_669" data-name="Gruppe 669" transform="translate(11.2 15.411)">
        <path id="Pfad_1110" data-name="Pfad 1110" d="M73.4,114.974A22.4,22.4,0,1,1,92.8,81.368L83.1,86.977a11.2,11.2,0,1,0,0,11.194L92.8,103.78A22.48,22.48,0,0,1,73.4,114.974Z" transform="translate(-51 -70.175)" fill="#fff"/>
      </g>
      <g id="Gruppe_670" data-name="Gruppe 670" transform="translate(48.532 34.077)">
        <path id="Pfad_1111" data-name="Pfad 1111" d="M228.466,157.664h-2.489v-2.489h-2.489v2.489H221v2.489h2.489v2.489h2.489v-2.489h2.489Z" transform="translate(-221 -155.175)" fill="#fff"/>
      </g>
      <g id="Gruppe_671" data-name="Gruppe 671" transform="translate(57.865 34.077)">
        <path id="Pfad_1112" data-name="Pfad 1112" d="M270.966,157.664h-2.489v-2.489h-2.488v2.489H263.5v2.489h2.489v2.489h2.488v-2.489h2.489Z" transform="translate(-263.5 -155.175)" fill="#fff"/>
      </g>
    </g>
    <text id="C_" data-name="C++" transform="translate(1263 7529)" fill="#9f9f9f" font-size="18" font-family="Montserrat-SemiBold, Montserrat" font-weight="600"><tspan x="33.337" y="17">C++</tspan></text>
    <circle id="Ellipse_343" data-name="Ellipse 343" cx="91.5" cy="91.5" r="91.5" transform="translate(1026 7261)" fill="#dbdbdb"/>
    <ellipse id="Ellipse_345" data-name="Ellipse 345" cx="60" cy="60.5" rx="60" ry="60.5" transform="translate(968 6894)" fill="#f7f7f7"/>
    <circle id="Ellipse_346" data-name="Ellipse 346" cx="66.5" cy="66.5" r="66.5" transform="translate(1181 6877)" fill="#dbdbdb"/>
    <ellipse id="Ellipse_347" data-name="Ellipse 347" cx="53" cy="52" rx="53" ry="52" transform="translate(1166 7340)" fill="#f7f7f7"/>
    <g id="golang-official" transform="translate(1256.339 7029.796)">
      <path id="Pfad_1094" data-name="Pfad 1094" d="M13.631,20.432c-.353,0-.44-.176-.264-.44l1.846-2.374a1.259,1.259,0,0,1,.967-.44H47.573c.353,0,.44.264.264.528l-1.5,2.286a1.34,1.34,0,0,1-.879.528l-31.832-.088ZM.353,28.522c-.353,0-.44-.176-.264-.44l1.846-2.374a1.259,1.259,0,0,1,.967-.44H43a.4.4,0,0,1,.44.528l-.7,2.109a.768.768,0,0,1-.792.528Zm21.28,8.09c-.353,0-.44-.264-.264-.528l1.231-2.2a1.167,1.167,0,0,1,.879-.528H41.066c.353,0,.528.264.528.615l-.176,2.109a.66.66,0,0,1-.615.615l-19.17-.088Zm91.278-17.763L98.136,22.718c-1.319.353-1.407.44-2.55-.879A11.68,11.68,0,0,0,91.453,18.5c-5.54-2.726-10.9-1.934-15.916,1.319a18.7,18.7,0,0,0-8.97,16.708A13.788,13.788,0,0,0,78.439,50.331c5.98.792,10.992-1.319,14.95-5.8.792-.967,1.5-2.023,2.374-3.254H78.791c-1.846,0-2.286-1.143-1.671-2.639,1.143-2.726,3.254-7.3,4.485-9.585a2.374,2.374,0,0,1,2.2-1.407h32.009c-.176,2.374-.176,4.748-.528,7.123A37.5,37.5,0,0,1,108.075,52c-6.331,8.353-14.6,13.542-25.062,14.95-8.618,1.143-16.62-.528-23.656-5.8A27.6,27.6,0,0,1,48.189,41.625c-1.143-9.585,1.671-18.2,7.475-25.765A39.021,39.021,0,0,1,80.286.647c8.266-1.5,16.18-.528,23.3,4.309a27.572,27.572,0,0,1,10.2,12.4c.528.792.176,1.231-.879,1.5Z" transform="translate(-0.001 -0.001)" fill="#9f9f9f"/>
      <path id="Pfad_1095" data-name="Pfad 1095" d="M188.192,67.816c-8-.176-15.3-2.469-21.457-7.739a27.575,27.575,0,0,1-9.5-16.972c-1.583-9.937,1.143-18.731,7.123-26.557,6.42-8.442,14.157-12.839,24.622-14.685,8.97-1.583,17.412-.7,25.062,4.485,6.947,4.748,11.256,11.168,12.4,19.61,1.5,11.872-1.935,21.544-10.113,29.81a40.3,40.3,0,0,1-21.1,11.256c-2.374.44-4.748.528-7.034.792ZM209.121,32.29a25.4,25.4,0,0,0-.264-2.9,14.485,14.485,0,0,0-17.939-11.7c-8.178,1.846-13.454,7.034-15.388,15.3a14.481,14.481,0,0,0,8.09,16.62,16.126,16.126,0,0,0,14.334-.528c6.947-3.6,10.728-9.233,11.168-16.8Z" transform="translate(-46.176 -0.34)" fill="#9f9f9f"/>
    </g>
    <text id="Go" transform="translate(1326 7112)" fill="#9f9f9f" font-size="18" font-family="Montserrat-SemiBold, Montserrat" font-weight="600"><tspan x="33.247" y="17">Go</tspan></text>
    <g id="g2303" transform="translate(970.001 7204.872)">
      <path id="path1948" d="M37.632,6.4a44.666,44.666,0,0,0-7.475.638c-6.62,1.169-7.821,3.617-7.821,8.131v5.962H37.978v1.987H16.465a9.767,9.767,0,0,0-9.772,7.931,29.239,29.239,0,0,0,0,15.9c1.112,4.631,3.767,7.931,8.314,7.931h5.378V47.729a9.941,9.941,0,0,1,9.772-9.718H45.781A7.881,7.881,0,0,0,53.6,30.062v-14.9c0-4.239-3.576-7.424-7.821-8.131A48.79,48.79,0,0,0,37.632,6.4Zm-8.46,4.795a2.981,2.981,0,1,1-2.935,2.99A2.968,2.968,0,0,1,29.172,11.193Z" transform="translate(-5.591 -6.397)" fill="#9f9f9f"/>
      <path id="path1950" d="M67.51,35.054V42a10.033,10.033,0,0,1-9.772,9.918H42.113a7.98,7.98,0,0,0-7.821,7.949v14.9c0,4.239,3.686,6.733,7.821,7.949a26.172,26.172,0,0,0,15.625,0c3.938-1.14,7.821-3.435,7.821-7.949V68.8H49.934V66.814H73.38c4.546,0,6.24-3.171,7.821-7.931,1.633-4.9,1.564-9.612,0-15.9-1.124-4.526-3.269-7.931-7.821-7.931ZM58.722,72.776a2.981,2.981,0,1,1-2.935,2.972A2.952,2.952,0,0,1,58.722,72.776Z" transform="translate(-17.547 -18.335)" fill="#dbdbdb"/>
      <path id="path1894" d="M51.153,104.185c0,2.245-9.385,4.065-20.963,4.065s-20.963-1.82-20.963-4.065,9.385-4.065,20.963-4.065,20.963,1.82,20.963,4.065Z" transform="translate(2.374 -29.683)" fill="#dbdbdb" opacity="0.444"/>
    </g>
    <text id="Python" transform="translate(949 7296)" fill="#9f9f9f" font-size="18" font-family="Montserrat-SemiBold, Montserrat" font-weight="600"><tspan x="19.178" y="17">Python</tspan></text>
    <g id="c_logo" data-name="c# logo" transform="translate(1005.294 6919.349)">
      <path id="Pfad_1113" data-name="Pfad 1113" d="M53.886,14.067,33.775,2.491A2.469,2.469,0,0,0,32.484,2.2a2.954,2.954,0,0,0-1.291.291L11.207,14.108A2.861,2.861,0,0,0,10,16.357V39.549a2.446,2.446,0,0,0,.416,1.457L54.885,15.191a2.949,2.949,0,0,0-1-1.124Z" transform="translate(-10 -2.2)" fill="#dbdbdb"/>
      <path id="Pfad_1114" data-name="Pfad 1114" d="M10.7,59.115a2.391,2.391,0,0,0,.791.791L31.56,71.523a2.469,2.469,0,0,0,1.291.291,2.954,2.954,0,0,0,1.291-.291L54.128,59.906a2.861,2.861,0,0,0,1.207-2.248V34.466a2.364,2.364,0,0,0-.25-1.166L10.7,59.115Z" transform="translate(-10.409 -20.351)" fill="#9f9f9f"/>
      <path id="Pfad_1115" data-name="Pfad 1115" d="M49.816,45.985a10.222,10.222,0,1,1,0-10.035l5.413-3.123a16.442,16.442,0,1,0-.042,16.322l-5.371-3.164Zm4.872-4.122.375-1.79H53.313V38.115h2.124l.5-2.582h2.04l-.5,2.54h1.582l.5-2.54h2l-.5,2.54h1v1.957H60.683l-.375,1.79h1.749v1.957H59.933l-.5,2.5h-2.04l.5-2.5H56.311l-.5,2.5h-2l.5-2.5h-1V41.821h1.374Zm2,0h1.582l.375-1.79H57.06Z" transform="translate(-18.463 -15.215)" fill="#fff"/>
    </g>
    <text id="C_2" data-name="C#" transform="translate(992 6977)" fill="#9f9f9f" font-size="18" font-family="Montserrat-SemiBold, Montserrat" font-weight="600"><tspan x="22.058" y="17">C#</tspan></text>
    <g id="Gruppe_687" data-name="Gruppe 687" transform="translate(1383.53 7274.121)">
      <path id="_227268128" d="M38.805,200.629s-4.873,2.966,3.39,3.813c9.957,1.271,15.254,1.059,26.271-1.059a39.733,39.733,0,0,0,6.991,3.39c-24.788,10.593-56.143-.636-36.652-6.144Zm-3.178-13.771s-5.3,4.025,2.966,4.873c10.8,1.059,19.279,1.271,33.9-1.695a12.923,12.923,0,0,0,5.085,3.178c-29.872,8.9-63.346.847-41.948-6.356ZM94.1,211.01s3.6,2.966-4.025,5.3c-14.195,4.237-59.533,5.508-72.244,0-4.449-1.907,4.025-4.661,6.779-5.085a21.118,21.118,0,0,1,4.237-.636c-4.873-3.39-32.414,6.991-13.983,9.957,50.635,8.263,92.371-3.6,79.235-9.534ZM41.136,172.452s-23.093,5.508-8.262,7.415c6.356.847,18.855.636,30.508-.212,9.534-.847,19.067-2.542,19.067-2.542a50.973,50.973,0,0,0-5.72,2.966c-23.516,6.144-68.643,3.39-55.719-2.966,11.017-5.3,20.127-4.661,20.127-4.661Zm41.313,23.093c23.728-12.288,12.712-24.152,5.085-22.669a13.255,13.255,0,0,0-2.754.847,3.634,3.634,0,0,1,2.119-1.695c15.042-5.3,26.906,15.889-4.873,24.152a2.627,2.627,0,0,0,.424-.636ZM43.466,229.018c22.881,1.483,57.838-.847,58.685-11.652,0,0-1.695,4.237-18.855,7.415-19.491,3.6-43.643,3.178-57.838.847,0,0,2.966,2.542,18.008,3.39Z" transform="translate(-8.587 -102.538)" fill="#9f9f9f"/>
      <path id="_230367536" d="M66.451,36.459c-20.55,16.313-4.661,25.635,0,36.228-12.076-10.8-20.762-20.339-14.83-29.237C60.307,30.315,84.247,23.96,78.951,2.985,78.951,2.985,92.086,16.333,66.451,36.459Zm5.72,27.33c6.144,6.991-1.695,13.347-1.695,13.347s15.678-8.051,8.474-18.008C72.383,49.595,67.3,44.934,94.84,29.044c0,0-43.431,10.8-22.669,34.745Z" transform="translate(-19.496 -2.985)" fill="#9f9f9f"/>
    </g>
    <text id="Java" transform="translate(1345 7420)" fill="#9f9f9f" font-size="18" font-family="Montserrat-SemiBold, Montserrat" font-weight="600"><tspan x="64.872" y="17">Java</tspan></text>
    <g id="fsharp" transform="translate(993.779 7420.619)">
      <path id="Pfad_1149" data-name="Pfad 1149" d="M0,23.429,23.429,0V11.715L11.715,23.429,23.429,35.143V46.858Z" fill="#9f9f9f"/>
      <path id="Pfad_1150" data-name="Pfad 1150" d="M78.1,86.47,86.47,78.1V94.837Z" transform="translate(-63.04 -63.04)" fill="#9f9f9f"/>
      <path id="Pfad_1151" data-name="Pfad 1151" d="M154.435,23.429,130.169,0V11.715l11.714,11.715L130.169,35.143V46.858Z" transform="translate(-105.067)" fill="#dbdbdb"/>
    </g>
    <text id="F_" data-name="F#" transform="translate(986 7479)" fill="#9f9f9f" font-size="18" font-family="Montserrat-SemiBold, Montserrat" font-weight="600"><tspan x="19.868" y="17">F#</tspan></text>
    <g id="javascript" transform="translate(1225.048 6908)">
      <path id="Pfad_1096" data-name="Pfad 1096" d="M0,0H47.28V47.28H0Z" fill="#9f9f9f"/>
      <path id="Pfad_1097" data-name="Pfad 1097" d="M67.311,134.212l3.618-2.19c.7,1.238,1.333,2.285,2.856,2.285,1.46,0,2.381-.571,2.381-2.792V116.407h4.443v15.17c0,4.6-2.7,6.7-6.633,6.7a6.9,6.9,0,0,1-6.665-4.062m15.711-.476,3.618-2.095a4.836,4.836,0,0,0,4.38,2.7c1.841,0,3.015-.92,3.015-2.19,0-1.523-1.206-2.063-3.237-2.951l-1.111-.477c-3.206-1.364-5.332-3.078-5.332-6.7,0-3.332,2.539-5.872,6.506-5.872a6.562,6.562,0,0,1,6.316,3.555l-3.46,2.222a3.025,3.025,0,0,0-2.856-1.9,1.933,1.933,0,0,0-2.126,1.9c0,1.333.825,1.873,2.729,2.7l1.111.476c3.777,1.619,5.9,3.269,5.9,6.982,0,4-3.142,6.189-7.363,6.189-4.126,0-6.792-1.968-8.093-4.539" transform="translate(-54.879 -94.701)" fill="#fff"/>
    </g>
    <text id="JavaScript-2" data-name="JavaScript" transform="translate(1196 6961)" fill="#9f9f9f" font-size="18" font-family="Montserrat-SemiBold, Montserrat" font-weight="600"><tspan x="4.656" y="17">JavaScript</tspan></text>
    <g id="layer1" transform="translate(1201.062 7358.339)">
      <g id="g3013" transform="translate(0 0)">
        <path id="polygon2989" d="M111.337,100.62l-3.344,37.459-15.031,4.167-14.989-4.161-3.34-37.465Z" transform="translate(-74.633 -90.439)" fill="#9f9f9f"/>
        <path id="polygon2991" d="M268.145,162.9,271,130.894H256v35.378Z" transform="translate(-237.648 -117.649)" fill="#dbdbdb"/>
        <path id="polygon2993" d="M150.31,268.217l.412,4.595H161v-4.595Z" transform="translate(-142.652 -241.077)" fill="#ebebeb"/>
        <path id="polygon2995" d="M153.654,176.3H142.132l.418,4.6h11.1Z" transform="translate(-135.302 -158.465)" fill="#ebebeb"/>
        <path id="polygon2997" d="M166.486,346.155v-4.781l-.02.005L161.349,340l-.327-3.665h-4.613l.644,7.215,9.412,2.613Z" transform="translate(-148.134 -302.301)" fill="#ebebeb"/>
        <path id="path2999" d="M160,0h5.565V2.327h-3.238V4.655h3.238V6.982H160Z" transform="translate(-151.362)" fill="#9f9f9f"/>
        <path id="path3001" d="M226,0h5.565V2.024h-3.238v.4h3.238V7.083H226V4.958h3.238v-.4H226Z" transform="translate(-210.684)" fill="#9f9f9f"/>
        <path id="path3003" d="M292,0h5.565V2.024h-3.238v.4h3.238V7.083H292V4.958h3.238v-.4H292Z" transform="translate(-270.005)" fill="#9f9f9f"/>
        <path id="polygon3005" d="M261.5,190.2l-.533,5.959-5.125,1.383v4.78l9.42-2.611.069-.776,1.08-12.1.112-1.234.83-9.3h-11.51v4.6h6.475l-.418,4.705h-6.057V190.2Z" transform="translate(-237.507 -158.465)" fill="#fff"/>
      </g>
    </g>
    <text id="CSS" transform="translate(1184 7415)" fill="#9f9f9f" font-size="18" font-family="Montserrat-SemiBold, Montserrat" font-weight="600"><tspan x="17.171" y="17">CSS</tspan></text>
    <g id="HTML5_logo_and_wordmark" transform="translate(1124.944 7033.396)">
      <path id="Pfad_1102" data-name="Pfad 1102" d="M108.4,0h3.061V3.034h2.822V0h3.061V9.183h-3.061V6.122h-2.795V9.183H108.4m12.99-6.122h-2.7V0h8.478V3.061h-2.715V9.183H121.39M128.51,0h3.207l1.97,3.234L135.657,0h3.207V9.183H135.8V4.632l-2.143,3.3-2.143-3.3V9.183H128.51M140.382,0h3.061V6.149h4.339V9.183h-7.4" transform="translate(-103.902)" fill="#9f9f9f"/>
      <path id="Pfad_1103" data-name="Pfad 1103" d="M78.992,149.9,74.6,100.6h48.285l-4.392,49.27L98.7,155.353" transform="translate(-74.6 -87.211)" fill="#9f9f9f"/>
      <path id="Pfad_1104" data-name="Pfad 1104" d="M256,177.515V131h19.737l-3.766,42.057" transform="translate(-231.857 -113.565)" fill="#dbdbdb"/>
      <path id="Pfad_1105" data-name="Pfad 1105" d="M142,176.3h15.172v6.042h-8.544l.559,6.189h7.985v6.029H143.65m.266,3.034h6.069l.426,4.831,6.761,1.81v6.308l-12.4-3.46" transform="translate(-133.03 -152.836)" fill="#ebebeb"/>
      <path id="Pfad_1106" data-name="Pfad 1106" d="M270.946,176.3H255.8v6.042h14.587m-.546,6.189H255.8v6.042h7.453l-.705,7.852-6.748,1.81v6.282l12.377-3.434" transform="translate(-231.684 -152.836)" fill="#fff"/>
    </g>
    <text id="HTML" transform="translate(1104 7108)" fill="#9f9f9f" font-size="18" font-family="Montserrat-SemiBold, Montserrat" font-weight="600"><tspan x="19.306" y="17">HTML</tspan></text>
    <ellipse id="Ellipse_348" data-name="Ellipse 348" cx="65.5" cy="65" rx="65.5" ry="65" transform="translate(789 7032)" fill="#f7f7f7"/>
    <g id="Clojure_logo" transform="translate(955.523 7046.446)">
      <path id="path8" d="M39.312,0A39.313,39.313,0,1,0,78.624,39.312,39.358,39.358,0,0,0,39.312,0" fill="none"/>
      <path id="path10" d="M111.9,130.3c-.353.765-.743,1.625-1.146,2.541a64.478,64.478,0,0,0-3.584,9.685,14.548,14.548,0,0,0-.333,3.243c0,.488.026,1,.068,1.522a18.7,18.7,0,0,0,12.393.187,11.134,11.134,0,0,1-1.236-1.307c-2.525-3.219-3.933-7.937-6.162-15.87" transform="translate(-74.021 -90.284)" fill="#9f9f9f"/>
      <path id="path12" d="M74.948,78.225a18.75,18.75,0,0,0-.216,30.554c1.153-4.8,4.043-9.2,8.377-18.014-.257-.707-.551-1.481-.879-2.294-1.2-3.012-2.933-6.509-4.48-8.093a12.465,12.465,0,0,0-2.8-2.153" transform="translate(-46.394 -54.2)" fill="#9f9f9f"/>
      <path id="path14" d="M64.323,110.4a30.545,30.545,0,0,1-6.337-1.322,22.566,22.566,0,0,1-24.9-37.189,16.567,16.567,0,0,0-3.92-.48c-6.622.062-13.613,3.727-16.523,13.625a18.549,18.549,0,0,0-.207,3.821,35.519,35.519,0,0,0,64.583,20.426,41.382,41.382,0,0,1-9.683,1.29,24.938,24.938,0,0,1-3.013-.171" transform="translate(-8.612 -49.481)" fill="#9f9f9f"/>
      <path id="path16" d="M124.5,100.5a9.911,9.911,0,0,0,1.408.482A18.786,18.786,0,0,0,133.6,85.839h0a18.762,18.762,0,0,0-24.683-17.826c3.814,4.348,5.648,10.561,7.423,17.357l0,.008c0,.006.568,1.887,1.536,4.384a43.341,43.341,0,0,0,3.827,7.829,8.212,8.212,0,0,0,2.8,2.908" transform="translate(-75.465 -46.46)" fill="#9f9f9f"/>
      <path id="path18" d="M62.986,12.541a35.472,35.472,0,0,0-28.872,14.84,18.042,18.042,0,0,1,9.771-2.832,19.088,19.088,0,0,1,8.934,2.168c.376.217.733.45,1.083.69A22.572,22.572,0,0,1,85.559,48.068h0a22.5,22.5,0,0,1-6.715,16.06,27.714,27.714,0,0,0,3.21.179c3.935,0,8.187-.866,11.376-3.548a15.017,15.017,0,0,0,4.787-8.16A35.473,35.473,0,0,0,62.986,12.541" transform="translate(-23.637 -8.689)" fill="#9f9f9f"/>
    </g>
    <text id="Clojure" transform="translate(940 7135)" fill="#9f9f9f" font-size="18" font-family="Montserrat-SemiBold, Montserrat" font-weight="600"><tspan x="19.979" y="17">Clojure</tspan></text>
    <g id="surface1" transform="translate(822.639 7055.016)">
      <path id="Pfad_1098" data-name="Pfad 1098" d="M34.666,3.472a3.748,3.748,0,0,1,3.638,0C43.858,6.592,60.591,15.984,66.151,19.1a3.521,3.521,0,0,1,1.819,3.062V53.431a3.521,3.521,0,0,1-1.819,3.062c-5.56,3.12-22.287,12.512-27.847,15.632a3.748,3.748,0,0,1-3.638,0c-5.56-3.12-22.287-12.512-27.847-15.632A3.521,3.521,0,0,1,5,53.431V22.166A3.521,3.521,0,0,1,6.819,19.1C12.373,15.984,29.112,6.592,34.666,3.472Z" transform="translate(-5 -3.001)" fill="#9f9f9f" fill-rule="evenodd"/>
      <path id="Pfad_1099" data-name="Pfad 1099" d="M5.5,55.036a2.844,2.844,0,0,1-.5-1.9V22.05a3.5,3.5,0,0,1,1.812-3.042c5.541-3.1,22.216-12.441,27.756-15.542a3.99,3.99,0,0,1,3.761.013c5.541,3.1,22.157,12.357,27.7,15.458a3.463,3.463,0,0,1,1.094.958Z" transform="translate(-5 -3.001)" fill="#dbdbdb" fill-rule="evenodd"/>
      <path id="Pfad_1100" data-name="Pfad 1100" d="M33.2,10A23.2,23.2,0,1,1,10,33.2,23.211,23.211,0,0,1,33.2,10Zm0,11.6A11.6,11.6,0,1,1,21.6,33.2,11.605,11.605,0,0,1,33.2,21.6Z" transform="translate(-1.714 1.598)" fill="#fff" fill-rule="evenodd"/>
      <path id="Pfad_1101" data-name="Pfad 1101" d="M54.9,13.2a3.815,3.815,0,0,1,.841,2.958c0,6.292-.052,24.177.013,30.462a3.607,3.607,0,0,1-.537,1.871l-31.621-17.4Z" transform="translate(7.218 3.703)" fill="#9f9f9f" fill-rule="evenodd"/>
    </g>
    <text id="C" transform="translate(805 7129)" fill="#9f9f9f" font-size="18" font-family="Montserrat-SemiBold, Montserrat" font-weight="600"><tspan x="40.957" y="17">C</tspan></text>
    <ellipse id="Ellipse_349" data-name="Ellipse 349" cx="53" cy="53.5" rx="53" ry="53.5" transform="translate(1497 7221)" fill="#f7f7f7"/>
    <ellipse id="Ellipse_350" data-name="Ellipse 350" cx="74" cy="74.5" rx="74" ry="74.5" transform="translate(1449 6902)" fill="#f7f7f7"/>
    <circle id="Ellipse_351" data-name="Ellipse 351" cx="65" cy="65" r="65" transform="translate(1299 7186)" fill="#dbdbdb"/>
    <path id="path3" d="M75.608,47.139l-2.365-1.464q-.03-.345-.067-.689l2.032-1.9a.814.814,0,0,0-.27-1.358l-2.6-.971c-.065-.225-.133-.448-.2-.671l1.62-2.251a.814.814,0,0,0-.53-1.279l-2.739-.446c-.107-.208-.217-.412-.329-.615l1.151-2.527a.814.814,0,0,0-.768-1.151l-2.78.1q-.216-.27-.439-.533l.639-2.708a.814.814,0,0,0-.979-.979l-2.707.638q-.263-.223-.534-.439l.1-2.78a.814.814,0,0,0-1.151-.769L60.163,25.5c-.2-.112-.408-.223-.615-.33l-.447-2.74a.814.814,0,0,0-1.279-.53l-2.252,1.62q-.333-.106-.669-.2l-.971-2.6a.813.813,0,0,0-1.357-.271l-1.9,2.034c-.229-.025-.459-.048-.689-.067l-1.464-2.365a.814.814,0,0,0-1.384,0l-1.464,2.365c-.23.019-.461.042-.689.067l-1.9-2.034a.813.813,0,0,0-1.357.271l-.971,2.6c-.225.065-.448.133-.67.2L37.841,21.9a.814.814,0,0,0-1.279.53l-.447,2.74c-.207.107-.411.217-.615.33L32.974,24.35a.814.814,0,0,0-1.151.769l.1,2.78c-.18.144-.358.291-.534.439L28.679,27.7a.814.814,0,0,0-.979.979l.638,2.708q-.222.263-.438.533l-2.78-.1a.814.814,0,0,0-.769,1.151L25.5,35.5c-.112.2-.223.407-.33.615l-2.739.446a.814.814,0,0,0-.53,1.279l1.62,2.251c-.07.222-.139.446-.2.671l-2.6.971a.814.814,0,0,0-.27,1.358l2.033,1.9c-.025.229-.048.459-.067.689l-2.365,1.464a.814.814,0,0,0,0,1.384l2.365,1.464q.029.346.067.689l-2.033,1.9a.814.814,0,0,0,.27,1.357l2.6.971c.065.225.133.448.2.671L21.9,57.821a.814.814,0,0,0,.53,1.279l2.739.446c.107.208.217.412.33.616L24.35,62.687a.814.814,0,0,0,.769,1.151l2.779-.1c.145.181.291.358.439.534L27.7,66.983a.814.814,0,0,0,.979.977l2.707-.638c.176.15.354.295.534.438l-.1,2.781a.813.813,0,0,0,1.151.768L35.5,70.159c.2.113.408.223.615.33l.447,2.738a.814.814,0,0,0,1.279.531l2.251-1.621c.222.071.446.139.671.2l.971,2.6a.814.814,0,0,0,1.357.27l1.9-2.033c.229.026.459.048.689.069l1.464,2.365a.814.814,0,0,0,1.384,0l1.464-2.365c.23-.02.46-.043.689-.069l1.9,2.033a.814.814,0,0,0,1.357-.27l.971-2.6c.225-.065.448-.133.671-.2l2.251,1.621a.814.814,0,0,0,1.279-.531l.447-2.738c.207-.107.411-.218.615-.33l2.526,1.151a.813.813,0,0,0,1.151-.768l-.1-2.781c.18-.144.358-.288.533-.438l2.707.638a.813.813,0,0,0,.979-.977l-.638-2.709c.149-.176.295-.353.438-.534l2.78.1a.814.814,0,0,0,.768-1.151L70.16,60.162c.112-.2.223-.408.329-.616l2.739-.446a.814.814,0,0,0,.53-1.279l-1.62-2.251c.07-.222.138-.446.2-.671l2.6-.971a.814.814,0,0,0,.27-1.357l-2.032-1.9c.025-.229.047-.459.067-.689l2.365-1.464a.814.814,0,0,0,0-1.384ZM59.782,66.755a1.675,1.675,0,1,1,1.986-1.287A1.676,1.676,0,0,1,59.782,66.755Zm-.8-5.434a1.525,1.525,0,0,0-1.811,1.173l-.84,3.918a20.647,20.647,0,0,1-17.173-.082l-.839-3.918a1.524,1.524,0,0,0-1.81-1.173l-3.459.743a20.52,20.52,0,0,1-1.788-2.108H48.088c.19,0,.318-.034.318-.208V53.713c0-.173-.127-.208-.318-.208H43.166V49.732h5.323a3.346,3.346,0,0,1,3.274,2.839c.211.83.676,3.531.993,4.4.316.97,1.6,2.907,2.978,2.907H64.12a1.719,1.719,0,0,0,.3-.03,20.663,20.663,0,0,1-1.907,2.238l-3.538-.76ZM35.7,66.674a1.675,1.675,0,1,1,1.284-1.989A1.672,1.672,0,0,1,35.7,66.674ZM29.318,40.786a1.673,1.673,0,1,1-2.207-.852A1.676,1.676,0,0,1,29.318,40.786Zm-1.962,4.651,3.6-1.6a1.527,1.527,0,0,0,.775-2.015l-.742-1.678h2.918V53.3H28.023a20.616,20.616,0,0,1-.785-5.648,20.849,20.849,0,0,1,.118-2.212Zm15.811-1.278V40.282h6.95c.359,0,2.535.415,2.535,2.042,0,1.351-1.669,1.835-3.041,1.835H43.167Zm25.257,3.49q0,.772-.057,1.529H66.254c-.212,0-.3.139-.3.346v.97c0,2.284-1.288,2.781-2.416,2.907-1.075.121-2.266-.45-2.413-1.108-.634-3.566-1.69-4.327-3.359-5.643,2.07-1.315,4.225-3.254,4.225-5.85a6.617,6.617,0,0,0-3.232-5.435,9.169,9.169,0,0,0-4.421-1.454H32.491a20.566,20.566,0,0,1,11.521-6.5l2.576,2.7a1.523,1.523,0,0,0,2.156.05l2.882-2.756a20.611,20.611,0,0,1,14.1,10.04L63.749,41.9a1.529,1.529,0,0,0,.776,2.015l3.8,1.687q.1,1.011.1,2.046ZM46.588,25.111a1.673,1.673,0,1,1-.055,2.368,1.671,1.671,0,0,1,.055-2.368ZM66.166,40.867a1.673,1.673,0,1,1,.85,2.211,1.671,1.671,0,0,1-.85-2.211Z" transform="translate(1316.847 7187.825)" fill="#9f9f9f"/>
    <g id="Blind-whale" transform="translate(1484.678 6932.499)">
      <g id="docs" transform="translate(0 0)">
        <path id="Shape" d="M78.105,22.4c-1.75-1.214-5.76-1.669-8.9-1.062-.365-3.035-2.042-5.691-4.958-8.044l-1.677-1.214-1.167,1.745a14.381,14.381,0,0,0-1.969,8.5,10.137,10.137,0,0,0,1.531,4.629,12.156,12.156,0,0,1-5.906,1.366H2.351l-.146.607c-.51,3.035-.51,12.521,5.468,19.806,4.52,5.54,11.228,8.347,20.051,8.347,19.1,0,33.247-9.182,39.882-25.8,2.625.076,8.239,0,11.083-5.691.073-.152.219-.455.729-1.594l.292-.607-1.6-.987ZM44.493,1h-8.02V8.588h8.02V1Zm0,9.106h-8.02v7.588h8.02V10.106Zm-9.478,0h-8.02v7.588h8.02V10.106Zm-9.478,0h-8.02v7.588h8.02V10.106Zm-9.478,9.106H8.038V26.8h8.02V19.212Zm9.478,0h-8.02V26.8h8.02V19.212Zm9.478,0h-8.02V26.8h8.02V19.212Zm9.478,0h-8.02V26.8h8.02V19.212Zm9.478,0h-8.02V26.8h8.02V19.212Z" transform="translate(-2 -1)" fill="#9f9f9f" fill-rule="evenodd"/>
      </g>
    </g>
    <text id="Rust" transform="translate(1326 7273)" fill="#9f9f9f" font-size="18" font-family="Montserrat-SemiBold, Montserrat" font-weight="600"><tspan x="16.841" y="17">Rust</tspan></text>
    <text id="Dockerfile" transform="translate(1483 6999)" fill="#9f9f9f" font-size="18" font-family="Montserrat-SemiBold, Montserrat" font-weight="600"><tspan x="5.173" y="17">Docker</tspan></text>
    <path id="Devicon-ruby-plain" d="M24.285,74.629l53.795,7.343C71.927,71.73,65.932,61.748,59.889,51.685l-35.6,22.944Zm58.883-56.7q-2.384,3.58-4.769,7.159-8.176,12.3-16.346,24.6c-.3.457-.7.819-.269,1.523Q69.677,64.249,77.5,77.325a34.437,34.437,0,0,0,2.729,4.064Q81.815,49.694,83.4,18l-.233-.067ZM11.342,45.021a1.285,1.285,0,0,0,1.147.228c5.047-2.48,10.126-4.906,15.062-7.59,1.61-.875,2.848-2.444,4.235-3.716q6.889-6.318,13.761-12.653a3.412,3.412,0,0,0,.78-.837c1.646-3.218,3.264-6.451,4.939-9.779-2-.751-3.891-1.485-5.808-2.154a1.413,1.413,0,0,0-.951.246c-4.438,2.479-8.959,4.826-13.255,7.53-2.15,1.353-3.9,3.346-5.8,5.082-3.068,2.8-6.132,5.607-9.155,8.455a15.76,15.76,0,0,0-2.158,2.53c-2.068,3.011-4.073,6.065-6.171,9.206,1.172,1.212,2.238,2.371,3.379,3.452ZM29.787,40.9C27.277,51.511,24.781,62.057,22.2,72.95L57.843,49.986,29.787,40.9Zm50.3-22.872L49.794,23.093,60.074,48.1c6.709-10.081,13.285-19.96,20.011-30.066Zm-49.877,20.7,27.5,8.927c-3.446-8.395-6.774-16.5-10.17-24.769ZM11.722,51.206,2.1,74.21l18.329-.542Zm8.922,17.129.227-.05c2.2-9.15,4.433-18.238,6.68-27.746l-14.7,7.643C15.353,54.7,18.026,61.569,20.644,68.334ZM76.387,16.549Q72,15.386,67.606,14.226c-4.209-1.107-8.421-2.2-12.627-3.316-.526-.14-.906-.231-1.215.4-1.487,3.046-3.019,6.068-4.53,9.1a2.007,2.007,0,0,0-.073.451l27.22-4.125.006-.192ZM59.408,9.621l23.854,6.6L79.321,4.99,59.443,9.4l-.035.224ZM22.666,76.387a68.634,68.634,0,0,0-8.984.024c-2.461.041-4.923.135-7.384.212a.978.978,0,0,0-.759.332L66.586,82.6l.041-.272-19.57-2.671c-8.128-1.11-16.243-2.331-24.392-3.27ZM2.5,67.189q3.933-9.127,7.866-18.253a1.151,1.151,0,0,0-.272-1.515c-1.1-1.048-2.125-2.178-3.328-3.43-1.627,8.034-3.214,15.869-4.8,23.7l.178.083a4.617,4.617,0,0,0,.36-.589ZM54.183,8.015C58.6,6.875,63.091,5.983,67.551,4.987c.289-.065.571-.16.855-.242l-.044-.218L49.2,7.106c1.8.786,3.185,1.372,4.982.909Z" transform="translate(1068.282 7291.713)" fill="#9f9f9f" fill-rule="evenodd"/>
    <text id="Ruby" transform="translate(1065 7391)" fill="#9f9f9f" font-size="18" font-family="Montserrat-SemiBold, Montserrat" font-weight="600"><tspan x="29.051" y="17">Ruby</tspan></text>
    <circle id="Ellipse_352" data-name="Ellipse 352" cx="53" cy="53" r="53" transform="translate(1422 7454)" fill="#f7f7f7"/>
    <text id="_" data-name="…" transform="translate(1452 7491)" fill="#9f9f9f" font-size="25" font-family="Montserrat-SemiBold, Montserrat" font-weight="600"><tspan x="14.212" y="24">…</tspan></text>
    <g id="g3438" transform="translate(1524 7250)">
      <g id="g3440" transform="translate(1.04 1.496)">
        <g id="g3442" transform="translate(0 0)" clip-path="url(#clip-path)">
          <g id="g3448">
            <g id="g3450">
              <path id="path3462" d="M14.4-371.163c0,7.254,11.18,13.135,24.97,13.135h0c13.79,0,24.97-5.881,24.97-13.135h0c0-7.254-11.18-13.135-24.97-13.135h0c-13.79,0-24.97,5.881-24.97,13.135" transform="translate(-14.4 384.299)" fill="#9f9f9f"/>
            </g>
          </g>
        </g>
      </g>
      <g id="g3464" transform="translate(0 0)">
        <g id="g3466" clip-path="url(#clip-path-2)">
          <g id="g3472" transform="translate(2.016 2.471)">
            <path id="path3474" d="M-308.105-312.282c13.252,0,23.995-5.444,23.995-12.16s-10.743-12.16-23.995-12.16-23.995,5.444-23.995,12.16,10.743,12.16,23.995,12.16" transform="translate(332.1 336.602)" fill="#9f9f9f"/>
          </g>
        </g>
      </g>
      <g id="g3476" transform="translate(0 0)">
        <g id="g3478" clip-path="url(#clip-path-3)">
          <g id="g3484" transform="translate(8.641 8.552)">
            <path id="path3486" d="M-76.611-97.414a3.982,3.982,0,0,0,2.418-.6,3.231,3.231,0,0,0,1.045-2.019,2.174,2.174,0,0,0-.195-1.838,2.729,2.729,0,0,0-1.977-.514h-1.741l-.965,4.967Zm-5.7,6.119a.271.271,0,0,1-.209-.1.271.271,0,0,1-.057-.224l2.558-13.164a.271.271,0,0,1,.266-.219h5.514a4.852,4.852,0,0,1,3.834,1.4,4.369,4.369,0,0,1,.748,3.876,6.188,6.188,0,0,1-.663,1.843,6.171,6.171,0,0,1-1.22,1.529,5.353,5.353,0,0,1-2.008,1.2,9.1,9.1,0,0,1-2.759.355h-2.233l-.638,3.28a.271.271,0,0,1-.266.219Z" transform="translate(82.578 105)" fill="#9f9f9f"/>
          </g>
          <g id="g3488" transform="translate(8.37 8.281)">
            <path id="path3490" d="M-77.179-40.589h1.518c1.212,0,1.633.266,1.776.424a1.99,1.99,0,0,1,.13,1.6A2.979,2.979,0,0,1-74.7-36.7a3.735,3.735,0,0,1-2.253.541h-1.087Zm2.6-3.161h-5.514a.542.542,0,0,0-.532.438l-2.558,13.164a.542.542,0,0,0,.114.448.542.542,0,0,0,.418.2h2.867a.542.542,0,0,0,.532-.438L-78.653-33h2.009a9.361,9.361,0,0,0,2.843-.368,5.624,5.624,0,0,0,2.109-1.263,6.445,6.445,0,0,0,1.272-1.595,6.458,6.458,0,0,0,.693-1.924,4.623,4.623,0,0,0-.81-4.106,5.106,5.106,0,0,0-4.038-1.491M-78.7-35.622h1.744a4.212,4.212,0,0,0,2.583-.653,3.47,3.47,0,0,0,1.146-2.182,2.39,2.39,0,0,0-.259-2.071,2.934,2.934,0,0,0-2.178-.6h-1.965L-78.7-35.622m4.121-7.586a4.58,4.58,0,0,1,3.63,1.306,4.1,4.1,0,0,1,.686,3.646,5.894,5.894,0,0,1-.634,1.763,5.879,5.879,0,0,1-1.167,1.462,5.065,5.065,0,0,1-1.909,1.145,8.79,8.79,0,0,1-2.675.342H-79.1l-.68,3.5h-2.867l2.558-13.163h5.514" transform="translate(83.189 43.75)" fill="#fff"/>
          </g>
          <g id="g3492" transform="translate(20.848 5.053)">
            <path id="path3494" d="M-93.645-175.982a.27.27,0,0,1-.209-.1.27.27,0,0,1-.057-.224l1.132-5.824c.108-.554.081-.951-.075-1.119-.1-.1-.382-.275-1.229-.275h-2.05l-1.423,7.322a.271.271,0,0,1-.266.219h-2.845a.271.271,0,0,1-.209-.1.271.271,0,0,1-.057-.224l2.558-13.163a.271.271,0,0,1,.266-.219h2.845a.271.271,0,0,1,.209.1.271.271,0,0,1,.057.224l-.617,3.177h2.206a5.121,5.121,0,0,1,3.483.906,3.016,3.016,0,0,1,.627,2.955l-1.19,6.126a.271.271,0,0,1-.266.219Z" transform="translate(100.938 189.688)" fill="#9f9f9f"/>
          </g>
          <g id="g3496" transform="translate(20.577 4.782)">
            <path id="path3498" d="M-76.34,0h-2.845a.542.542,0,0,0-.532.438L-82.275,13.6a.542.542,0,0,0,.114.448.542.542,0,0,0,.418.2H-78.9a.542.542,0,0,0,.532-.438l1.38-7.1h1.827c.846,0,1.023.181,1.03.188.051.055.119.311.007.883L-75.253,13.6a.542.542,0,0,0,.114.448.542.542,0,0,0,.418.2h2.89a.542.542,0,0,0,.532-.438l1.19-6.126a3.263,3.263,0,0,0-.71-3.206A5.356,5.356,0,0,0-74.486,3.5h-1.877l.555-2.854A.542.542,0,0,0-75.922.2.542.542,0,0,0-76.34,0m0,.542-.68,3.5h2.534a4.936,4.936,0,0,1,3.3.834,2.76,2.76,0,0,1,.545,2.7l-1.19,6.126h-2.89l1.132-5.824a1.581,1.581,0,0,0-.142-1.355,2,2,0,0,0-1.427-.362h-2.274L-78.9,13.705h-2.845L-79.185.542h2.845" transform="translate(82.285 0)" fill="#fff"/>
          </g>
          <g id="g3500" transform="translate(31.022 8.552)">
            <path id="path3502" d="M-76.611-97.414a3.982,3.982,0,0,0,2.418-.6,3.231,3.231,0,0,0,1.045-2.019,2.173,2.173,0,0,0-.195-1.838,2.729,2.729,0,0,0-1.977-.514h-1.741l-.965,4.967Zm-5.7,6.119a.271.271,0,0,1-.209-.1.271.271,0,0,1-.057-.224l2.558-13.164a.271.271,0,0,1,.266-.219h5.514a4.852,4.852,0,0,1,3.834,1.4,4.369,4.369,0,0,1,.748,3.876,6.193,6.193,0,0,1-.663,1.843,6.171,6.171,0,0,1-1.22,1.529,5.353,5.353,0,0,1-2.008,1.2,9.1,9.1,0,0,1-2.759.355h-2.233l-.637,3.28a.271.271,0,0,1-.266.219Z" transform="translate(82.578 105)" fill="#9f9f9f"/>
          </g>
          <g id="g3504" transform="translate(30.751 8.281)">
            <path id="path3506" d="M-77.177-40.589h1.518c1.212,0,1.633.266,1.776.424a1.989,1.989,0,0,1,.13,1.6A2.979,2.979,0,0,1-74.7-36.7a3.735,3.735,0,0,1-2.253.541h-1.087Zm2.6-3.161h-5.514a.542.542,0,0,0-.532.438l-2.558,13.164a.542.542,0,0,0,.114.448.542.542,0,0,0,.418.2h2.868a.542.542,0,0,0,.532-.438L-78.652-33h2.009a9.361,9.361,0,0,0,2.843-.368,5.624,5.624,0,0,0,2.109-1.263,6.442,6.442,0,0,0,1.271-1.595,6.458,6.458,0,0,0,.693-1.924,4.623,4.623,0,0,0-.81-4.106,5.106,5.106,0,0,0-4.038-1.491m-4.121,8.128h1.744a4.212,4.212,0,0,0,2.583-.653,3.469,3.469,0,0,0,1.146-2.182,2.389,2.389,0,0,0-.259-2.071,2.934,2.934,0,0,0-2.178-.6h-1.965l-1.071,5.509m4.121-7.586a4.58,4.58,0,0,1,3.63,1.306,4.1,4.1,0,0,1,.686,3.646,5.894,5.894,0,0,1-.634,1.763,5.879,5.879,0,0,1-1.167,1.462,5.065,5.065,0,0,1-1.909,1.145,8.79,8.79,0,0,1-2.675.342H-79.1l-.68,3.5h-2.868l2.558-13.163h5.514" transform="translate(83.188 43.75)" fill="#fff"/>
          </g>
        </g>
      </g>
    </g>
    <text id="PHP" transform="translate(1527 7285)" fill="#9f9f9f" font-size="18" font-family="Montserrat-SemiBold, Montserrat" font-weight="600"><tspan x="3.232" y="17">PHP</tspan></text>
  </g>
</svg>
