<svg width="38" height="15" viewBox="0 0 38 15" fill="none" xmlns="http://www.w3.org/2000/svg">
<path d="M1.59961 13.8066C1.54102 13.7832 1.40039 13.7188 1.17773 13.6133C0.966797 13.5078 0.767578 13.3848 0.580078 13.2441C0.392578 13.1035 0.257812 12.957 0.175781 12.8047C0.105469 12.6523 0.181641 12.5234 0.404297 12.418C0.533203 12.5352 0.708984 12.6758 0.931641 12.8398C1.16602 13.0039 1.38867 13.127 1.59961 13.209C2.24414 13.2441 2.87109 13.25 3.48047 13.2266C4.08984 13.1914 4.68164 13.1152 5.25586 12.998C5.8418 12.8691 6.4043 12.6816 6.94336 12.4355C7.49414 12.1777 8.02734 11.8438 8.54297 11.4336C9.11719 10.9531 9.49219 10.5137 9.66797 10.1152C9.85547 9.70508 9.89062 9.33008 9.77344 8.99023C9.66797 8.63867 9.43945 8.31641 9.08789 8.02344C8.74805 7.71875 8.33789 7.4375 7.85742 7.17969C7.38867 6.91016 6.88477 6.66406 6.3457 6.44141C5.80664 6.20703 5.29102 5.98438 4.79883 5.77344C4.30664 5.55078 3.86133 5.33398 3.46289 5.12305C3.06445 4.91211 2.77148 4.69531 2.58398 4.47266C2.53711 4.27344 2.63672 4.03906 2.88281 3.76953C3.12891 3.5 3.46875 3.22461 3.90234 2.94336C4.33594 2.65039 4.83398 2.36328 5.39648 2.08203C5.95898 1.78906 6.5332 1.52539 7.11914 1.29102C7.7168 1.05664 8.29102 0.857422 8.8418 0.693359C9.4043 0.529297 9.89648 0.429688 10.3184 0.394531C10.7402 0.347656 11.0625 0.376953 11.2852 0.482422C11.5078 0.587891 11.584 0.787109 11.5137 1.08008C11.4316 1.0918 11.2207 1.14453 10.8809 1.23828C10.541 1.33203 10.125 1.44922 9.63281 1.58984C9.15234 1.73047 8.625 1.89453 8.05078 2.08203C7.48828 2.26953 6.93164 2.46875 6.38086 2.67969C5.83008 2.87891 5.32031 3.08398 4.85156 3.29492C4.38281 3.50586 4.01367 3.71094 3.74414 3.91016C3.47461 4.10938 3.32227 4.29102 3.28711 4.45508C3.26367 4.61914 3.42188 4.75977 3.76172 4.87695C5.47266 5.39258 6.81445 5.94336 7.78711 6.5293C8.77148 7.10352 9.46289 7.68945 9.86133 8.28711C10.2598 8.87305 10.4121 9.45312 10.3184 10.0273C10.2246 10.6016 9.9668 11.1348 9.54492 11.627C9.13477 12.1191 8.5957 12.5586 7.92773 12.9453C7.25977 13.3203 6.55078 13.6133 5.80078 13.8242C5.0625 14.0352 4.31836 14.1465 3.56836 14.1582C2.83008 14.1699 2.17383 14.0527 1.59961 13.8066ZM11.7949 13.5957C11.5488 13.4551 11.373 13.2324 11.2676 12.9277C11.1621 12.623 11.1035 12.2773 11.0918 11.8906C11.0801 11.5039 11.1035 11.0996 11.1621 10.6777C11.2207 10.2559 11.291 9.8457 11.373 9.44727C11.4551 9.04883 11.5371 8.69141 11.6191 8.375C11.7012 8.05859 11.7598 7.8125 11.7949 7.63672C11.8535 7.60156 11.9121 7.60156 11.9707 7.63672C12.041 7.67188 12.1055 7.72461 12.1641 7.79492C12.2344 7.85352 12.2871 7.91211 12.3223 7.9707C12.3691 8.01758 12.3926 8.04102 12.3926 8.04102C12.4277 8.45117 12.4277 8.85547 12.3926 9.25391C12.3691 9.64062 12.334 10.0273 12.2871 10.4141C12.252 10.8008 12.2168 11.1934 12.1816 11.5918C12.1582 11.9902 12.1582 12.3945 12.1816 12.8047C12.2754 12.9805 12.4688 12.9863 12.7617 12.8223C13.0547 12.6465 13.4121 12.3711 13.834 11.9961C14.2559 11.6094 14.7129 11.1582 15.2051 10.6426C15.709 10.1152 16.2012 9.59375 16.6816 9.07812C17.1738 8.5625 17.6367 8.08203 18.0703 7.63672C18.5039 7.17969 18.8672 6.83398 19.1602 6.59961C19.4648 6.35352 19.6758 6.25391 19.793 6.30078C19.9102 6.33594 19.8926 6.58203 19.7402 7.03906C19.459 7.28516 19.125 7.6543 18.7383 8.14648C18.3516 8.63867 17.9297 9.17188 17.4727 9.74609C17.0156 10.3086 16.541 10.8711 16.0488 11.4336C15.5566 11.9961 15.0586 12.4824 14.5547 12.8926C14.0625 13.291 13.582 13.5723 13.1133 13.7363C12.6445 13.8887 12.2051 13.8418 11.7949 13.5957ZM21.6211 13.8066C21.2695 13.6895 21 13.5137 20.8125 13.2793C20.6367 13.0332 20.5195 12.7637 20.4609 12.4707C20.4023 12.1777 20.3906 11.873 20.4258 11.5566C20.4727 11.2285 20.543 10.918 20.6367 10.625C20.9883 10.25 21.3809 9.82227 21.8145 9.3418C22.2598 8.84961 22.7285 8.36914 23.2207 7.90039C23.7129 7.43164 24.2227 6.99805 24.75 6.59961C25.2891 6.18945 25.834 5.87891 26.3848 5.66797C26.5723 5.58594 26.7188 5.5918 26.8242 5.68555C26.9414 5.76758 27.0234 5.90234 27.0703 6.08984C27.1172 6.27734 27.1348 6.49414 27.123 6.74023C27.123 6.98633 27.1055 7.22656 27.0703 7.46094C27.0352 7.69531 26.9883 7.90625 26.9297 8.09375C26.8711 8.28125 26.8125 8.41016 26.7539 8.48047C26.6133 8.64453 26.3379 8.83789 25.9277 9.06055C25.5293 9.2832 25.084 9.5293 24.5918 9.79883C24.0996 10.0566 23.6074 10.3262 23.1152 10.6074C22.623 10.8887 22.2188 11.1699 21.9023 11.4512C21.5859 11.7207 21.3984 11.9902 21.3398 12.2598C21.2812 12.5293 21.4453 12.7754 21.832 12.998C22.2305 13.0449 22.7109 13.0273 23.2734 12.9453C23.8477 12.8516 24.4277 12.7344 25.0137 12.5938C25.6113 12.4414 26.1855 12.2891 26.7363 12.1367C27.2871 11.9727 27.7383 11.8438 28.0898 11.75L28.3008 11.9434C28.043 12.2832 27.6211 12.5938 27.0352 12.875C26.4492 13.1562 25.8164 13.3906 25.1367 13.5781C24.457 13.7539 23.7949 13.8711 23.1504 13.9297C22.5059 13.9766 21.9961 13.9355 21.6211 13.8066ZM25.8223 7.0918C25.8105 7.08008 25.7227 7.13281 25.5586 7.25C25.3945 7.35547 25.1895 7.50195 24.9434 7.68945C24.709 7.86523 24.4512 8.06445 24.1699 8.28711C23.9004 8.49805 23.6484 8.69727 23.4141 8.88477C23.1914 9.07227 23.0039 9.23633 22.8516 9.37695C22.6992 9.50586 22.6348 9.57031 22.6582 9.57031C22.8457 9.60547 23.0859 9.58203 23.3789 9.5C23.6836 9.40625 23.9941 9.27734 24.3105 9.11328C24.6387 8.94922 24.9492 8.76758 25.2422 8.56836C25.5352 8.35742 25.7637 8.15234 25.9277 7.95312C26.1035 7.75391 26.1914 7.57812 26.1914 7.42578C26.2031 7.27344 26.0801 7.16211 25.8223 7.0918ZM34.6289 13.8066C34.5938 13.4199 34.623 13.0391 34.7168 12.6641C34.8223 12.2773 34.957 11.9023 35.1211 11.5391C35.2969 11.1641 35.4785 10.7949 35.666 10.4316C35.8652 10.0566 36.0352 9.69336 36.1758 9.3418C36.3164 8.97852 36.416 8.62695 36.4746 8.28711C36.5332 7.93555 36.5098 7.58984 36.4043 7.25C36.1113 7.14453 35.7715 7.16797 35.3848 7.32031C35.0098 7.47266 34.6113 7.70703 34.1895 8.02344C33.7676 8.32812 33.3281 8.69141 32.8711 9.11328C32.4258 9.52344 31.9863 9.94531 31.5527 10.3789C31.1309 10.8008 30.7266 11.2051 30.3398 11.5918C29.9531 11.9785 29.6016 12.3008 29.2852 12.5586C28.9805 12.8047 28.7227 12.9629 28.5117 13.0332C28.3008 13.0918 28.1602 13.0156 28.0898 12.8047C28.0781 12.793 28.1426 12.6465 28.2832 12.3652C28.4355 12.0723 28.6172 11.709 28.8281 11.2754C29.0508 10.8418 29.291 10.373 29.5488 9.86914C29.8184 9.36523 30.0703 8.89648 30.3047 8.46289C30.5391 8.01758 30.7441 7.64258 30.9199 7.33789C31.0957 7.0332 31.207 6.86914 31.2539 6.8457C31.5 7.00977 31.623 7.19141 31.623 7.39062C31.6348 7.57812 31.6055 7.77734 31.5352 7.98828C31.4648 8.1875 31.3828 8.39258 31.2891 8.60352C31.207 8.81445 31.1953 9.02539 31.2539 9.23633C31.4414 9.10742 31.6992 8.93164 32.0273 8.70898C32.3672 8.47461 32.7305 8.23438 33.1172 7.98828C33.5156 7.74219 33.9258 7.50195 34.3477 7.26758C34.7812 7.0332 35.1855 6.85156 35.5605 6.72266C35.9355 6.58203 36.2695 6.50586 36.5625 6.49414C36.8672 6.48242 37.0898 6.57031 37.2305 6.75781C37.3711 6.94531 37.4121 7.25586 37.3535 7.68945C37.3066 8.11133 37.125 8.69141 36.8086 9.42969C36.7734 9.51172 36.6855 9.71094 36.5449 10.0273C36.416 10.332 36.2695 10.666 36.1055 11.0293C35.9531 11.3809 35.8066 11.7148 35.666 12.0312C35.5371 12.3359 35.4551 12.5293 35.4199 12.6113C35.4082 12.6582 35.3906 12.7461 35.3672 12.875C35.3555 12.9922 35.3379 13.127 35.3145 13.2793C35.291 13.4199 35.2559 13.5605 35.209 13.7012C35.1621 13.8301 35.1035 13.9297 35.0332 14C34.9629 14.0703 34.8809 14.0645 34.7871 13.9824C34.6934 13.8887 34.6406 13.8301 34.6289 13.8066Z" fill="#4D4D4D"/>
</svg>
