<svg xmlns="http://www.w3.org/2000/svg" width="1662" height="592" viewBox="0 0 1662 592">
  <g id="Group_61" data-name="Group 61" transform="translate(-150 -2044)">
    <text id="Syntax_Coloring_Code_Completion_Diagnostics_Hovers_Navigation_Refactorings" data-name="Syntax Coloring          Code Completion             Diagnostics                      Hovers                       Navigation                   Refactorings" transform="translate(489 2044)" fill="#fff" font-size="20" font-family="OpenSans, Open Sans"><tspan x="0" y="21" xml:space="preserve">Syntax Coloring          Code Completion             Diagnostics                      Hovers                       Navigation                   Refactorings</tspan></text>
    <text id="JavaScript_TypeScript_Java_Python_Go_PHP_Ruby_Rust_C_C_JSON_Docker_CSS_HTML_" data-name="JavaScript / TypeScript						
Java						
Python						
Go						
PHP						
Ruby						
Rust						
C / C++						
JSON						
Docker						
CSS						
HTML						
" transform="translate(152 2087)" fill="#fff" font-size="20" font-family="OpenSans, Open Sans"><tspan x="0" y="21" xml:space="preserve">JavaScript / TypeScript						</tspan><tspan x="0" y="61" xml:space="preserve">Java						</tspan><tspan x="0" y="101" xml:space="preserve">Python						</tspan><tspan x="0" y="141" xml:space="preserve">Go						</tspan><tspan x="0" y="181" xml:space="preserve">PHP						</tspan><tspan x="0" y="221" xml:space="preserve">Ruby						</tspan><tspan x="0" y="261" xml:space="preserve">Rust						</tspan><tspan x="0" y="301" xml:space="preserve">C / C++						</tspan><tspan x="0" y="341" xml:space="preserve">JSON						</tspan><tspan x="0" y="381" xml:space="preserve">Docker						</tspan><tspan x="0" y="421" xml:space="preserve">CSS						</tspan><tspan x="0" y="461" xml:space="preserve">HTML						</tspan></text>
    <text id="Clojure_Swift_C_Groovy_Less_Lua_Objective-C_Perl_and_many_more" data-name="Clojure, Swift, C#, Groovy, Less, Lua, Objective-C, Perl and many more" transform="translate(152 2572)" fill="#fff" font-size="20" font-family="SegoeUI, Segoe UI"><tspan x="0" y="22">Clojure, Swift, C#, Groovy, Less, Lua, </tspan><tspan x="0" y="49">Objective-C, Perl and many more</tspan></text>
    <line id="Line_1" data-name="Line 1" x2="1612" transform="translate(151 2121)" fill="none" stroke="#707070" stroke-width="1"/>
    <line id="Line_2" data-name="Line 2" x2="1612" transform="translate(152 2161.273)" fill="none" stroke="#707070" stroke-width="1"/>
    <line id="Line_3" data-name="Line 3" x2="1612" transform="translate(152 2201.545)" fill="none" stroke="#707070" stroke-width="1"/>
    <line id="Line_4" data-name="Line 4" x2="1612" transform="translate(152 2241.818)" fill="none" stroke="#707070" stroke-width="1"/>
    <line id="Line_5" data-name="Line 5" x2="1612" transform="translate(152 2282.091)" fill="none" stroke="#707070" stroke-width="1"/>
    <line id="Line_6" data-name="Line 6" x2="1612" transform="translate(152 2322.364)" fill="none" stroke="#707070" stroke-width="1"/>
    <line id="Line_7" data-name="Line 7" x2="1612" transform="translate(152 2362.636)" fill="none" stroke="#707070" stroke-width="1"/>
    <line id="Line_8" data-name="Line 8" x2="1612" transform="translate(153 2402.909)" fill="none" stroke="#707070" stroke-width="1"/>
    <line id="Line_9" data-name="Line 9" x2="1612" transform="translate(153 2443.182)" fill="none" stroke="#707070" stroke-width="1"/>
    <line id="Line_10" data-name="Line 10" x2="1612" transform="translate(153 2483.455)" fill="none" stroke="#707070" stroke-width="1"/>
    <line id="Line_11" data-name="Line 11" x2="1612" transform="translate(153 2523.727)" fill="none" stroke="#707070" stroke-width="1"/>
    <line id="Line_12" data-name="Line 12" x2="1612" transform="translate(153 2564)" fill="none" stroke="#707070" stroke-width="1"/>
    <line id="Line_13" data-name="Line 13" x2="1612" transform="translate(154 2080)" fill="none" stroke="#707070" stroke-width="1"/>
    <path id="Path_10" data-name="Path 10" d="M4353,2382.943l5.814,4.948L4373,2375.82" transform="translate(-3817 -280.82)" fill="none" stroke="#26a4dd" stroke-width="3"/>
    <path id="Path_11" data-name="Path 11" d="M4353,2382.943l5.814,4.948L4373,2375.82" transform="translate(-3608 -280.82)" fill="none" stroke="#26a4dd" stroke-width="3"/>
    <path id="Path_12" data-name="Path 12" d="M4353,2382.943l5.814,4.948L4373,2375.82" transform="translate(-3402 -280.82)" fill="none" stroke="#26a4dd" stroke-width="3"/>
    <path id="Path_13" data-name="Path 13" d="M4353,2382.943l5.814,4.948L4373,2375.82" transform="translate(-3191 -279.82)" fill="none" stroke="#26a4dd" stroke-width="3"/>
    <path id="Path_14" data-name="Path 14" d="M4353,2382.943l5.814,4.948L4373,2375.82" transform="translate(-2985 -279.82)" fill="none" stroke="#26a4dd" stroke-width="3"/>
    <path id="Path_15" data-name="Path 15" d="M4353,2382.943l5.814,4.948L4373,2375.82" transform="translate(-2780 -283.82)" fill="none" stroke="#26a4dd" stroke-width="3"/>
    <path id="Path_16" data-name="Path 16" d="M4353,2382.943l5.814,4.948L4373,2375.82" transform="translate(-3817 -240.82)" fill="none" stroke="#26a4dd" stroke-width="3"/>
    <path id="Path_17" data-name="Path 17" d="M4353,2382.943l5.814,4.948L4373,2375.82" transform="translate(-3608 -240.82)" fill="none" stroke="#26a4dd" stroke-width="3"/>
    <path id="Path_18" data-name="Path 18" d="M4353,2382.943l5.814,4.948L4373,2375.82" transform="translate(-3402 -240.82)" fill="none" stroke="#26a4dd" stroke-width="3"/>
    <path id="Path_19" data-name="Path 19" d="M4353,2382.943l5.814,4.948L4373,2375.82" transform="translate(-3191 -239.82)" fill="none" stroke="#26a4dd" stroke-width="3"/>
    <path id="Path_20" data-name="Path 20" d="M4353,2382.943l5.814,4.948L4373,2375.82" transform="translate(-2985 -239.82)" fill="none" stroke="#26a4dd" stroke-width="3"/>
    <path id="Path_21" data-name="Path 21" d="M4353,2382.943l5.814,4.948L4373,2375.82" transform="translate(-2780 -243.82)" fill="none" stroke="#26a4dd" stroke-width="3"/>
    <path id="Path_22" data-name="Path 22" d="M4353,2382.943l5.814,4.948L4373,2375.82" transform="translate(-3817 -200.82)" fill="none" stroke="#26a4dd" stroke-width="3"/>
    <path id="Path_23" data-name="Path 23" d="M4353,2382.943l5.814,4.948L4373,2375.82" transform="translate(-3608 -200.82)" fill="none" stroke="#26a4dd" stroke-width="3"/>
    <path id="Path_24" data-name="Path 24" d="M4353,2382.943l5.814,4.948L4373,2375.82" transform="translate(-3402 -200.82)" fill="none" stroke="#26a4dd" stroke-width="3"/>
    <path id="Path_25" data-name="Path 25" d="M4353,2382.943l5.814,4.948L4373,2375.82" transform="translate(-3191 -199.82)" fill="none" stroke="#26a4dd" stroke-width="3"/>
    <path id="Path_26" data-name="Path 26" d="M4353,2382.943l5.814,4.948L4373,2375.82" transform="translate(-2985 -199.82)" fill="none" stroke="#26a4dd" stroke-width="3"/>
    <path id="Path_27" data-name="Path 27" d="M4353,2382.943l5.814,4.948L4373,2375.82" transform="translate(-2780 -203.82)" fill="none" stroke="#26a4dd" stroke-width="3"/>
    <path id="Path_28" data-name="Path 28" d="M4353,2382.943l5.814,4.948L4373,2375.82" transform="translate(-3817 -160.82)" fill="none" stroke="#26a4dd" stroke-width="3"/>
    <path id="Path_29" data-name="Path 29" d="M4353,2382.943l5.814,4.948L4373,2375.82" transform="translate(-3608 -160.82)" fill="none" stroke="#26a4dd" stroke-width="3"/>
    <path id="Path_30" data-name="Path 30" d="M4353,2382.943l5.814,4.948L4373,2375.82" transform="translate(-3402 -160.82)" fill="none" stroke="#26a4dd" stroke-width="3"/>
    <path id="Path_31" data-name="Path 31" d="M4353,2382.943l5.814,4.948L4373,2375.82" transform="translate(-3191 -159.82)" fill="none" stroke="#26a4dd" stroke-width="3"/>
    <path id="Path_32" data-name="Path 32" d="M4353,2382.943l5.814,4.948L4373,2375.82" transform="translate(-2985 -159.82)" fill="none" stroke="#26a4dd" stroke-width="3"/>
    <path id="Path_33" data-name="Path 33" d="M4353,2382.943l5.814,4.948L4373,2375.82" transform="translate(-2780 -163.82)" fill="none" stroke="#26a4dd" stroke-width="3"/>
    <path id="Path_34" data-name="Path 34" d="M4353,2382.943l5.814,4.948L4373,2375.82" transform="translate(-3817 -120.82)" fill="none" stroke="#26a4dd" stroke-width="3"/>
    <path id="Path_35" data-name="Path 35" d="M4353,2382.943l5.814,4.948L4373,2375.82" transform="translate(-3608 -120.82)" fill="none" stroke="#26a4dd" stroke-width="3"/>
    <path id="Path_36" data-name="Path 36" d="M4353,2382.943l5.814,4.948L4373,2375.82" transform="translate(-3402 -120.82)" fill="none" stroke="#26a4dd" stroke-width="3"/>
    <path id="Path_37" data-name="Path 37" d="M4353,2382.943l5.814,4.948L4373,2375.82" transform="translate(-3191 -119.82)" fill="none" stroke="#26a4dd" stroke-width="3"/>
    <path id="Path_38" data-name="Path 38" d="M4353,2382.943l5.814,4.948L4373,2375.82" transform="translate(-2985 -119.82)" fill="none" stroke="#26a4dd" stroke-width="3"/>
    <path id="Path_40" data-name="Path 40" d="M4353,2382.943l5.814,4.948L4373,2375.82" transform="translate(-3817 -78.82)" fill="none" stroke="#26a4dd" stroke-width="3"/>
    <path id="Path_41" data-name="Path 41" d="M4353,2382.943l5.814,4.948L4373,2375.82" transform="translate(-3608 -78.82)" fill="none" stroke="#26a4dd" stroke-width="3"/>
    <path id="Path_42" data-name="Path 42" d="M4353,2382.943l5.814,4.948L4373,2375.82" transform="translate(-3402 -78.82)" fill="none" stroke="#26a4dd" stroke-width="3"/>
    <path id="Path_43" data-name="Path 43" d="M4353,2382.943l5.814,4.948L4373,2375.82" transform="translate(-3191 -77.82)" fill="none" stroke="#26a4dd" stroke-width="3"/>
    <path id="Path_44" data-name="Path 44" d="M4353,2382.943l5.814,4.948L4373,2375.82" transform="translate(-2985 -77.82)" fill="none" stroke="#26a4dd" stroke-width="3"/>
    <path id="Path_46" data-name="Path 46" d="M4353,2382.943l5.814,4.948L4373,2375.82" transform="translate(-3817 -38.82)" fill="none" stroke="#26a4dd" stroke-width="3"/>
    <path id="Path_47" data-name="Path 47" d="M4353,2382.943l5.814,4.948L4373,2375.82" transform="translate(-3608 -38.82)" fill="none" stroke="#26a4dd" stroke-width="3"/>
    <path id="Path_48" data-name="Path 48" d="M4353,2382.943l5.814,4.948L4373,2375.82" transform="translate(-3402 -38.82)" fill="none" stroke="#26a4dd" stroke-width="3"/>
    <path id="Path_49" data-name="Path 49" d="M4353,2382.943l5.814,4.948L4373,2375.82" transform="translate(-3191 -37.82)" fill="none" stroke="#26a4dd" stroke-width="3"/>
    <path id="Path_50" data-name="Path 50" d="M4353,2382.943l5.814,4.948L4373,2375.82" transform="translate(-2985 -37.82)" fill="none" stroke="#26a4dd" stroke-width="3"/>
    <path id="Path_52" data-name="Path 52" d="M4353,2382.943l5.814,4.948L4373,2375.82" transform="translate(-3817 1.18)" fill="none" stroke="#26a4dd" stroke-width="3"/>
    <path id="Path_53" data-name="Path 53" d="M4353,2382.943l5.814,4.948L4373,2375.82" transform="translate(-3608 1.18)" fill="none" stroke="#26a4dd" stroke-width="3"/>
    <path id="Path_54" data-name="Path 54" d="M4353,2382.943l5.814,4.948L4373,2375.82" transform="translate(-3402 1.18)" fill="none" stroke="#26a4dd" stroke-width="3"/>
    <path id="Path_55" data-name="Path 55" d="M4353,2382.943l5.814,4.948L4373,2375.82" transform="translate(-3191 2.18)" fill="none" stroke="#26a4dd" stroke-width="3"/>
    <path id="Path_56" data-name="Path 56" d="M4353,2382.943l5.814,4.948L4373,2375.82" transform="translate(-2985 2.18)" fill="none" stroke="#26a4dd" stroke-width="3"/>
    <path id="Path_58" data-name="Path 58" d="M4353,2382.943l5.814,4.948L4373,2375.82" transform="translate(-3817 41.18)" fill="none" stroke="#26a4dd" stroke-width="3"/>
    <path id="Path_59" data-name="Path 59" d="M4353,2382.943l5.814,4.948L4373,2375.82" transform="translate(-3608 41.18)" fill="none" stroke="#26a4dd" stroke-width="3"/>
    <path id="Path_60" data-name="Path 60" d="M4353,2382.943l5.814,4.948L4373,2375.82" transform="translate(-3402 41.18)" fill="none" stroke="#26a4dd" stroke-width="3"/>
    <path id="Path_61" data-name="Path 61" d="M4353,2382.943l5.814,4.948L4373,2375.82" transform="translate(-3191 42.18)" fill="none" stroke="#26a4dd" stroke-width="3"/>
    <path id="Path_64" data-name="Path 64" d="M4353,2382.943l5.814,4.948L4373,2375.82" transform="translate(-3817 81.18)" fill="none" stroke="#26a4dd" stroke-width="3"/>
    <path id="Path_65" data-name="Path 65" d="M4353,2382.943l5.814,4.948L4373,2375.82" transform="translate(-3608 81.18)" fill="none" stroke="#26a4dd" stroke-width="3"/>
    <path id="Path_66" data-name="Path 66" d="M4353,2382.943l5.814,4.948L4373,2375.82" transform="translate(-3402 81.18)" fill="none" stroke="#26a4dd" stroke-width="3"/>
    <path id="Path_67" data-name="Path 67" d="M4353,2382.943l5.814,4.948L4373,2375.82" transform="translate(-3191 82.18)" fill="none" stroke="#26a4dd" stroke-width="3"/>
    <path id="Path_70" data-name="Path 70" d="M4353,2382.943l5.814,4.948L4373,2375.82" transform="translate(-3817 121.18)" fill="none" stroke="#26a4dd" stroke-width="3"/>
    <path id="Path_71" data-name="Path 71" d="M4353,2382.943l5.814,4.948L4373,2375.82" transform="translate(-3608 121.18)" fill="none" stroke="#26a4dd" stroke-width="3"/>
    <path id="Path_72" data-name="Path 72" d="M4353,2382.943l5.814,4.948L4373,2375.82" transform="translate(-3402 121.18)" fill="none" stroke="#26a4dd" stroke-width="3"/>
    <path id="Path_73" data-name="Path 73" d="M4353,2382.943l5.814,4.948L4373,2375.82" transform="translate(-3191 122.18)" fill="none" stroke="#26a4dd" stroke-width="3"/>
    <path id="Path_76" data-name="Path 76" d="M4353,2382.943l5.814,4.948L4373,2375.82" transform="translate(-3817 161.18)" fill="none" stroke="#26a4dd" stroke-width="3"/>
    <path id="Path_77" data-name="Path 77" d="M4353,2382.943l5.814,4.948L4373,2375.82" transform="translate(-3608 161.18)" fill="none" stroke="#26a4dd" stroke-width="3"/>
    <path id="Path_82" data-name="Path 82" d="M4353,2382.943l5.814,4.948L4373,2375.82" transform="translate(-3817 201.18)" fill="none" stroke="#26a4dd" stroke-width="3"/>
    <g id="Group_11" data-name="Group 11" transform="translate(32 -341)">
      <path id="Path_85" data-name="Path 85" d="M4562,2860l13,13" transform="translate(-3845 60)" fill="none" stroke="#707070" stroke-width="3"/>
      <path id="Path_86" data-name="Path 86" d="M0,0,13,13" transform="translate(730 2920) rotate(90)" fill="none" stroke="#707070" stroke-width="3"/>
    </g>
    <g id="Group_12" data-name="Group 12" transform="translate(238 -341)">
      <path id="Path_85-2" data-name="Path 85" d="M4562,2860l13,13" transform="translate(-3845 60)" fill="none" stroke="#707070" stroke-width="3"/>
      <path id="Path_86-2" data-name="Path 86" d="M0,0,13,13" transform="translate(730 2920) rotate(90)" fill="none" stroke="#707070" stroke-width="3"/>
    </g>
    <g id="Group_13" data-name="Group 13" transform="translate(449 -339)">
      <path id="Path_85-3" data-name="Path 85" d="M4562,2860l13,13" transform="translate(-3845 60)" fill="none" stroke="#707070" stroke-width="3"/>
      <path id="Path_86-3" data-name="Path 86" d="M0,0,13,13" transform="translate(730 2920) rotate(90)" fill="none" stroke="#707070" stroke-width="3"/>
    </g>
    <g id="Group_14" data-name="Group 14" transform="translate(654 -339)">
      <path id="Path_85-4" data-name="Path 85" d="M4562,2860l13,13" transform="translate(-3845 60)" fill="none" stroke="#707070" stroke-width="3"/>
      <path id="Path_86-4" data-name="Path 86" d="M0,0,13,13" transform="translate(730 2920) rotate(90)" fill="none" stroke="#707070" stroke-width="3"/>
    </g>
    <g id="Group_15" data-name="Group 15" transform="translate(859 -346)">
      <path id="Path_85-5" data-name="Path 85" d="M4562,2860l13,13" transform="translate(-3845 60)" fill="none" stroke="#707070" stroke-width="3"/>
      <path id="Path_86-5" data-name="Path 86" d="M0,0,13,13" transform="translate(730 2920) rotate(90)" fill="none" stroke="#707070" stroke-width="3"/>
    </g>
    <g id="Group_16" data-name="Group 16" transform="translate(654 -379)">
      <path id="Path_85-6" data-name="Path 85" d="M4562,2860l13,13" transform="translate(-3845 60)" fill="none" stroke="#707070" stroke-width="3"/>
      <path id="Path_86-6" data-name="Path 86" d="M0,0,13,13" transform="translate(730 2920) rotate(90)" fill="none" stroke="#707070" stroke-width="3"/>
    </g>
    <g id="Group_17" data-name="Group 17" transform="translate(859 -386)">
      <path id="Path_85-7" data-name="Path 85" d="M4562,2860l13,13" transform="translate(-3845 60)" fill="none" stroke="#707070" stroke-width="3"/>
      <path id="Path_86-7" data-name="Path 86" d="M0,0,13,13" transform="translate(730 2920) rotate(90)" fill="none" stroke="#707070" stroke-width="3"/>
    </g>
    <g id="Group_18" data-name="Group 18" transform="translate(654 -422)">
      <path id="Path_85-8" data-name="Path 85" d="M4562,2860l13,13" transform="translate(-3845 60)" fill="none" stroke="#707070" stroke-width="3"/>
      <path id="Path_86-8" data-name="Path 86" d="M0,0,13,13" transform="translate(730 2920) rotate(90)" fill="none" stroke="#707070" stroke-width="3"/>
    </g>
    <g id="Group_19" data-name="Group 19" transform="translate(859 -429)">
      <path id="Path_85-9" data-name="Path 85" d="M4562,2860l13,13" transform="translate(-3845 60)" fill="none" stroke="#707070" stroke-width="3"/>
      <path id="Path_86-9" data-name="Path 86" d="M0,0,13,13" transform="translate(730 2920) rotate(90)" fill="none" stroke="#707070" stroke-width="3"/>
    </g>
    <g id="Group_20" data-name="Group 20" transform="translate(654 -462)">
      <path id="Path_85-10" data-name="Path 85" d="M4562,2860l13,13" transform="translate(-3845 60)" fill="none" stroke="#707070" stroke-width="3"/>
      <path id="Path_86-10" data-name="Path 86" d="M0,0,13,13" transform="translate(730 2920) rotate(90)" fill="none" stroke="#707070" stroke-width="3"/>
    </g>
    <g id="Group_21" data-name="Group 21" transform="translate(859 -469)">
      <path id="Path_85-11" data-name="Path 85" d="M4562,2860l13,13" transform="translate(-3845 60)" fill="none" stroke="#707070" stroke-width="3"/>
      <path id="Path_86-11" data-name="Path 86" d="M0,0,13,13" transform="translate(730 2920) rotate(90)" fill="none" stroke="#707070" stroke-width="3"/>
    </g>
    <g id="Group_22" data-name="Group 22" transform="translate(654 -502)">
      <path id="Path_85-12" data-name="Path 85" d="M4562,2860l13,13" transform="translate(-3845 60)" fill="none" stroke="#707070" stroke-width="3"/>
      <path id="Path_86-12" data-name="Path 86" d="M0,0,13,13" transform="translate(730 2920) rotate(90)" fill="none" stroke="#707070" stroke-width="3"/>
    </g>
    <g id="Group_23" data-name="Group 23" transform="translate(859 -509)">
      <path id="Path_85-13" data-name="Path 85" d="M4562,2860l13,13" transform="translate(-3845 60)" fill="none" stroke="#707070" stroke-width="3"/>
      <path id="Path_86-13" data-name="Path 86" d="M0,0,13,13" transform="translate(730 2920) rotate(90)" fill="none" stroke="#707070" stroke-width="3"/>
    </g>
    <g id="Group_24" data-name="Group 24" transform="translate(859 -542)">
      <path id="Path_85-14" data-name="Path 85" d="M4562,2860l13,13" transform="translate(-3845 60)" fill="none" stroke="#707070" stroke-width="3"/>
      <path id="Path_86-14" data-name="Path 86" d="M0,0,13,13" transform="translate(730 2920) rotate(90)" fill="none" stroke="#707070" stroke-width="3"/>
    </g>
    <g id="Group_25" data-name="Group 25" transform="translate(859 -582)">
      <path id="Path_85-15" data-name="Path 85" d="M4562,2860l13,13" transform="translate(-3845 60)" fill="none" stroke="#707070" stroke-width="3"/>
      <path id="Path_86-15" data-name="Path 86" d="M0,0,13,13" transform="translate(730 2920) rotate(90)" fill="none" stroke="#707070" stroke-width="3"/>
    </g>
    <g id="Group_26" data-name="Group 26" transform="translate(859 -625)">
      <path id="Path_85-16" data-name="Path 85" d="M4562,2860l13,13" transform="translate(-3845 60)" fill="none" stroke="#707070" stroke-width="3"/>
      <path id="Path_86-16" data-name="Path 86" d="M0,0,13,13" transform="translate(730 2920) rotate(90)" fill="none" stroke="#707070" stroke-width="3"/>
    </g>
    <g id="Group_27" data-name="Group 27" transform="translate(859 -665)">
      <path id="Path_85-17" data-name="Path 85" d="M4562,2860l13,13" transform="translate(-3845 60)" fill="none" stroke="#707070" stroke-width="3"/>
      <path id="Path_86-17" data-name="Path 86" d="M0,0,13,13" transform="translate(730 2920) rotate(90)" fill="none" stroke="#707070" stroke-width="3"/>
    </g>
    <g id="Group_28" data-name="Group 28" transform="translate(238 -383)">
      <path id="Path_85-18" data-name="Path 85" d="M4562,2860l13,13" transform="translate(-3845 60)" fill="none" stroke="#707070" stroke-width="3"/>
      <path id="Path_86-18" data-name="Path 86" d="M0,0,13,13" transform="translate(730 2920) rotate(90)" fill="none" stroke="#707070" stroke-width="3"/>
    </g>
    <g id="Group_29" data-name="Group 29" transform="translate(449 -381)">
      <path id="Path_85-19" data-name="Path 85" d="M4562,2860l13,13" transform="translate(-3845 60)" fill="none" stroke="#707070" stroke-width="3"/>
      <path id="Path_86-19" data-name="Path 86" d="M0,0,13,13" transform="translate(730 2920) rotate(90)" fill="none" stroke="#707070" stroke-width="3"/>
    </g>
  </g>
</svg>
