<svg xmlns="http://www.w3.org/2000/svg" className="team-svg" width="153.811" height="106.443" viewBox="0 0 153.811 106.443"><g data-name="Gruppe 169" fill="#1e1e1e" stroke="#26a4dd" strokeWidth="2"><g data-name="Gruppe 101"><path data-name="Pfad 192" d="M17203.295,14557.4s-8.16-54.97,19.141-55.882,17.674,55.882,17.674,55.882" transform="translate(-17139.307 -14463.209)"/><g data-name="Ellipse 190" transform="translate(68.279 10.818)"><ellipse cx="14.398" cy="13.934" rx="14.398" ry="13.934" stroke="none"/><ellipse cx="14.398" cy="13.934" rx="13.398" ry="12.934" fill="none"/></g></g><g data-name="Gruppe 103"><path data-name="Pfad 191" d="M17203.607,14572.578s-10.385-69.9,24.33-71.056,22.479,71.056,22.479,71.056" transform="translate(-17099.769 -14466.757)"/><g data-name="Ellipse 189" transform="translate(109.292)"><ellipse cx="18.306" cy="17.716" rx="18.306" ry="17.716" stroke="none"/><ellipse cx="18.306" cy="17.716" rx="17.306" ry="16.716" fill="none"/></g></g><g data-name="Gruppe 104"><path data-name="Pfad 191" d="M17203.293,14557.1s-8.125-54.669,19.031-55.578,17.58,55.578,17.58,55.578" transform="translate(-17113.462 -14450.824)"/><g data-name="Ellipse 189" transform="translate(94.096 23.349)"><ellipse cx="14.32" cy="13.858" rx="14.32" ry="13.858" stroke="none"/><ellipse cx="14.32" cy="13.858" rx="13.32" ry="12.858" fill="none"/></g></g><g data-name="Gruppe 105"><path data-name="Pfad 191" d="M17203.3,14557.4s-8.17-54.968,19.135-55.877,17.674,55.877,17.674,55.877" transform="translate(-17201.078 -14463.049)"/><g data-name="Ellipse 189" transform="translate(6.514 10.978)"><ellipse cx="14.398" cy="13.934" rx="14.398" ry="13.934" stroke="none"/><ellipse cx="14.398" cy="13.934" rx="13.398" ry="12.934" fill="none"/></g></g><g data-name="Gruppe 102"><path data-name="Pfad 191" d="M17203.607,14572.578s-10.385-69.9,24.33-71.056,22.479,71.056,22.479,71.056" transform="translate(-17170.633 -14466.757)"/><g data-name="Ellipse 189" transform="translate(38.428)"><ellipse cx="18.306" cy="17.716" rx="18.306" ry="17.716" stroke="none"/><ellipse cx="18.306" cy="17.716" rx="17.306" ry="16.716" fill="none"/></g></g></g></svg>
