<svg xmlns="http://www.w3.org/2000/svg" width="213.476" height="29.722" viewBox="0 0 213.476 29.722"><defs><style>.a{fill:#9f9f9f}</style></defs><path class="a" d="M3403.13,3.912a4.134,4.134,0,0,1,1.848.4,3.424,3.424,0,0,1,.968,1.617l9.115,26.6a.992.992,0,0,1,.022.61s-.1.272-.569.272h-3.863a2.6,2.6,0,0,1-.734-.1.909.909,0,0,1-.443-.566l-1.848-5.755h-10.672l-1.848,5.711a1.288,1.288,0,0,1-.358.547,1.316,1.316,0,0,1-.734.168h-3.866s-.461,0-.588-.272a.867.867,0,0,1,0-.61l9.074-26.6a7.609,7.609,0,0,1,.421-1.006,1.944,1.944,0,0,1,.525-.588,2.594,2.594,0,0,1,.737-.316,4.572,4.572,0,0,1,1.006-.1Zm-.8,5.673h-.209L3400.4,15.42l-2.184,7.177h8.065l-2.183-7.053Z" transform="translate(-3201.648 -3.795)"/><path class="a" d="M2000.463,5.35a1.963,1.963,0,0,1,.8.148s.209.146.209.734V17.127h13.067V6.233s0-.547.234-.715a1.318,1.318,0,0,1,.734-.168h3.2a1.841,1.841,0,0,1,.778.148s.19.146.19.734V33.881s0,.588-.19.737a1.387,1.387,0,0,1-.778.146h-3.2a1.6,1.6,0,0,1-.734-.168s-.234-.168-.234-.715V21.535h-13.067V33.881s0,.588-.209.737a1.511,1.511,0,0,1-.8.146h-3.189a1.567,1.567,0,0,1-.712-.168s-.253-.168-.253-.715V6.233s0-.547.253-.715a1.357,1.357,0,0,1,.712-.168Z" transform="translate(-1885.736 -5.153)"/><path class="a" d="M1470.484,5.35s.462,0,.61.168a1.021,1.021,0,0,1,.146.632V9.057a1.16,1.16,0,0,1-.146.588.828.828,0,0,1-.61.168h-7.98V33.881s0,.588-.19.737a1.388,1.388,0,0,1-.778.146h-3.283a1.6,1.6,0,0,1-.734-.168s-.231-.168-.231-.715V9.813h-7.815s-.462,0-.588-.168a1.034,1.034,0,0,1-.127-.588V6.15a1.472,1.472,0,0,1,.127-.632s.126-.168.588-.168Z" transform="translate(-1368.559 -5.153)"/><path class="a" d="M172.137,1.822a14.85,14.85,0,1,1,0,29.7H139.4a2.119,2.119,0,1,1,0-4.238h7.627a2.119,2.119,0,0,0,0-4.238h-1.7a2.119,2.119,0,0,1,0-4.238h5.087a2.145,2.145,0,0,0,2.119-2.119,2.119,2.119,0,0,0-2.119-2.119h-17.8a2.119,2.119,0,1,1,0-4.238h13.136a2.145,2.145,0,0,0,2.119-2.119,2.119,2.119,0,0,0-2.119-2.119h-2.962a2.119,2.119,0,0,1-2.119-2.119A2.167,2.167,0,0,1,142.793,1.8ZM169.763,6.77h0a8.247,8.247,0,0,0-8.249,8.249v3.3a8.249,8.249,0,1,0,16.5,0v-3.3a8.25,8.25,0,0,0-8.249-8.249Zm2.818,7.8a1.993,1.993,0,0,1,1.991,1.991v.255a1.993,1.993,0,0,1-1.991,1.991H166.39a1.993,1.993,0,0,1-1.991-1.991v-.255a1.993,1.993,0,0,1,1.991-1.991Z" transform="translate(-123.427 -1.8)"/><path class="a" d="M12.319,461.2a1.986,1.986,0,0,1,1.991,1.991v.255a1.99,1.99,0,0,1-1.991,1.991H4.991A1.993,1.993,0,0,1,3,463.447v-.255A1.99,1.99,0,0,1,4.991,461.2Z" transform="translate(-3 -435.716)"/><path class="a" d="M2625.818,4.854s.545,0,.693.234a1.474,1.474,0,0,1,.145.734V8.473a1.717,1.717,0,0,1-.145.737s-.148.19-.693.19h-11.175a3.678,3.678,0,0,0-2.249.712,3.19,3.19,0,0,0-.65,2.057v4.408h12.685s.547,0,.7.212a1.506,1.506,0,0,1,.146.795V19.89a1.785,1.785,0,0,1-.146.731s-.148.231-.7.231h-12.685v6.14a3.328,3.328,0,0,0,.693,2.038,3.192,3.192,0,0,0,2.205.7h11.425s.588,0,.737.209a1.512,1.512,0,0,1,.146.8v2.6a1.566,1.566,0,0,1-.168.712s-.168.253-.715.253H2614.1a11.093,11.093,0,0,1-3.657-.63,7.106,7.106,0,0,1-2.293-1.68,6.855,6.855,0,0,1-1.2-2.4,12.98,12.98,0,0,1-.339-2.813V12.416a11.57,11.57,0,0,1,.4-2.835,7.4,7.4,0,0,1,1.306-2.417,7.287,7.287,0,0,1,2.335-1.68,9.37,9.37,0,0,1,3.448-.63Z" transform="translate(-2462.18 -4.685)"/><path class="a" d="M3148.583,5.35a1.969,1.969,0,0,1,.8.148s.209.146.209.734V33.881s0,.588-.209.737a1.522,1.522,0,0,1-.8.146h-3.19a1.6,1.6,0,0,1-.734-.168s-.231-.168-.231-.715V6.233s0-.547.231-.715a1.32,1.32,0,0,1,.734-.168Z" transform="translate(-2970.166 -5.153)"/><path class="a" d="M58.974,2.8a1.989,1.989,0,0,1,1.986,1.991v.261a1.984,1.984,0,0,1-1.986,1.986H50.791A1.989,1.989,0,0,1,48.8,5.052V4.791A1.993,1.993,0,0,1,50.791,2.8Z" transform="translate(-46.259 -2.745)"/><path class="a" d="M167.585,308.4a1.993,1.993,0,0,1,1.991,1.991v.255a1.993,1.993,0,0,1-1.991,1.991h-4.493a1.993,1.993,0,0,1-1.991-1.991v-.255a1.993,1.993,0,0,1,1.991-1.991Z" transform="translate(-152.33 -291.392)"/></svg>
