<svg xmlns="http://www.w3.org/2000/svg" width="607" height="254.087" viewBox="0 0 607 254.087"><defs><filter id="a" width="60.417" height="91.528" x="259.362" y="162.559" filterUnits="userSpaceOnUse"><feOffset dy="3"/><feGaussianBlur result="blur" stdDeviation="3"/><feFlood flood-opacity=".161"/><feComposite in2="blur" operator="in"/><feComposite in="SourceGraphic"/></filter><filter id="b" width="102.881" height="47.402" x="259.362" y="138.05" filterUnits="userSpaceOnUse"><feOffset dy="3"/><feGaussianBlur result="blur-2" stdDeviation="3"/><feFlood flood-opacity=".161"/><feComposite in2="blur-2" operator="in"/><feComposite in="SourceGraphic"/></filter><filter id="c" width="68.919" height="47.402" x="276.367" y="157.667" filterUnits="userSpaceOnUse"><feOffset dy="3"/><feGaussianBlur result="blur-3" stdDeviation="3"/><feFlood flood-opacity=".161"/><feComposite in2="blur-3" operator="in"/><feComposite in="SourceGraphic"/></filter><filter id="d" width="60.464" height="91.528" x="301.779" y="162.559" filterUnits="userSpaceOnUse"><feOffset dy="3"/><feGaussianBlur result="blur-4" stdDeviation="3"/><feFlood flood-opacity=".161"/><feComposite in2="blur-4" operator="in"/><feComposite in="SourceGraphic"/></filter><filter id="e" width="80.438" height="78.898" x="426.226" y="0" filterUnits="userSpaceOnUse"><feOffset dy="3"/><feGaussianBlur result="blur-5" stdDeviation="3"/><feFlood flood-opacity=".161"/><feComposite in2="blur-5" operator="in"/><feComposite in="SourceGraphic"/></filter></defs><g data-name="Gruppe 591" transform="translate(-973 -3872.406)"><g data-name="Gruppe 186"><path fill="#fc6d26" fill-rule="evenodd" d="M66.116-419.394,62.433-430.73l-7.3-22.468a1.255,1.255,0,0,0-2.387,0l-7.3,22.468H21.2L13.9-453.2a1.255,1.255,0,0,0-2.387,0l-7.3,22.468L.534-419.394a2.509,2.509,0,0,0,.912,2.806l31.879,23.162L65.2-416.588a2.51,2.51,0,0,0,.912-2.806" transform="translate(1104.386 3878.326) translate(0 0) translate(0 0) translate(0 0) translate(-0.411 454.065)"/><g data-name="Gruppe 557"><path fill="#e24329" fill-rule="evenodd" d="M13.437-241.793h0l12.121-37.3H1.316l12.121,37.3Z" transform="translate(1104.386 3878.326) translate(0 0) translate(0 0) translate(19.477 302.43)"/><path fill="#fc6d26" fill-rule="evenodd" d="M30-241.791l-12.121-37.3H.891L30-241.791Z" transform="translate(1104.386 3878.326) translate(0 0) translate(0 0) translate(3.806 23.335) translate(-0.891 279.095)"/><path fill="#fca326" fill-rule="evenodd" d="M4.661-280h0L.978-268.664a2.509,2.509,0,0,0,.912,2.806L33.769-242.7,4.661-280Z" transform="translate(1104.386 3878.326) translate(0 0) translate(0 0) translate(0 23.335) translate(-0.855 280)"/><path fill="#e24329" fill-rule="evenodd" d="M0-151.25H16.987l-7.3-22.468a1.255,1.255,0,0,0-2.387,0L0-151.25Z" transform="translate(1104.386 3878.326) translate(0 0) translate(0 0) translate(3.806) translate(0 174.584)"/><path fill="#fc6d26" fill-rule="evenodd" d="M0-241.791l12.121-37.3H29.108L0-241.791Z" transform="translate(1104.386 3878.326) translate(0 0) translate(0 0) translate(32.914 23.335) translate(0 279.095)"/><path fill="#fca326" fill-rule="evenodd" d="M30-280h0l3.683,11.336a2.509,2.509,0,0,1-.912,2.806L.891-242.7,30-280Z" transform="translate(1104.386 3878.326) translate(0 0) translate(0 0) translate(32.914 23.335) translate(-0.891 280)"/><path fill="#e24329" fill-rule="evenodd" d="M17.895-151.25H.908l7.3-22.468a1.255,1.255,0,0,1,2.387,0l7.3,22.468Z" transform="translate(1104.386 3878.326) translate(0 0) translate(0 0) translate(45.035) translate(-0.908 174.584)"/></g></g><path fill="#bcbcbc" d="M30.709,7.235a2.491,2.491,0,0,0-1.231-1.424L17.74.192A2.153,2.153,0,0,0,16.778,0a4.062,4.062,0,0,0-.962.077L4.078,5.734A2.068,2.068,0,0,0,2.924,7.158L.037,19.819a2.428,2.428,0,0,0,.423,1.847L8.581,31.71a2.8,2.8,0,0,0,1.77.808h12.93a1.918,1.918,0,0,0,1.77-.808l8.12-10.044a2.628,2.628,0,0,0,.462-1.847L30.709,7.235Z" transform="translate(1477.348 4051.325) translate(0 0)"/><path fill="#fff" d="M35.337,25.889h0c-.038,0-.077,0-.077-.038s-.077-.038-.154-.038a1.873,1.873,0,0,0-.462-.038.488.488,0,0,1-.231-.038h-.038a7.777,7.777,0,0,1-1.308-.231.465.465,0,0,1-.269-.269h0l-.308-.077a10.036,10.036,0,0,0-.154-3.387,10.425,10.425,0,0,0-1.347-3.156l.231-.231h0v-.038A.537.537,0,0,1,31.334,18a6.892,6.892,0,0,1,1.078-.77h0l.231-.115c.154-.077.269-.154.423-.231.038-.038.077-.038.115-.077s0-.038,0-.077h0a.753.753,0,0,0,.154-1.078.735.735,0,0,0-.539-.269.92.92,0,0,0-.539.192h0l-.038.038c-.038.038-.077.077-.115.077a2.49,2.49,0,0,0-.308.346c-.038.077-.115.115-.154.154h0a5.06,5.06,0,0,1-.962.847.547.547,0,0,1-.231.077.231.231,0,0,1-.154-.038h-.038l-.308.192c-.308-.308-.654-.616-.962-.924a9.861,9.861,0,0,0-5-2l-.038-.308h0v.038a.529.529,0,0,1-.192-.308,7.688,7.688,0,0,1,.077-1.308V12.42c0-.077.038-.154.038-.231.038-.154.038-.308.077-.462V11.5h0a.761.761,0,0,0-.654-.808.772.772,0,0,0-.654.269.76.76,0,0,0-.231.539h0v.192a1.931,1.931,0,0,0,.077.462.488.488,0,0,1,.038.231v.038a7.252,7.252,0,0,1,.077,1.308.529.529,0,0,1-.192.308v.077h0l-.038.308c-.423.038-.847.115-1.308.192a9.174,9.174,0,0,0-4.733,2.694l-.231-.154h-.038c-.038,0-.077.038-.154.038a.547.547,0,0,1-.231-.077,7.1,7.1,0,0,1-.962-.885h0c-.038-.077-.115-.115-.154-.154-.115-.115-.192-.231-.308-.346-.038-.038-.077-.038-.115-.077l-.038-.038h0a.92.92,0,0,0-.539-.192.582.582,0,0,0-.539.269.828.828,0,0,0,.154,1.078h0a.038.038,0,0,1,.038.038s.077.077.115.077a4.2,4.2,0,0,0,.423.231l.231.115h0a5.463,5.463,0,0,1,1.078.77.388.388,0,0,1,.115.346v-.038h0l.231.231c-.038.077-.077.115-.115.192a9.138,9.138,0,0,0-1.347,6.311l-.308.077h0a.038.038,0,0,1-.038.038.606.606,0,0,1-.269.269,7.148,7.148,0,0,1-1.308.231h0a.488.488,0,0,0-.231.038c-.154,0-.308.038-.462.038-.038,0-.077.038-.154.038-.038,0-.038,0-.077.038h0a.751.751,0,0,0-.616.885h0a.714.714,0,0,0,.77.539.347.347,0,0,0,.192-.038h0c.038,0,.038,0,.038-.038s.115,0,.154,0c.154-.038.308-.115.423-.154a.547.547,0,0,1,.231-.077h.038a6.86,6.86,0,0,1,1.27-.346h.038a.437.437,0,0,1,.308.115.038.038,0,0,1,.038.038h0l.346-.038a9.289,9.289,0,0,0,3.156,4.5,6.1,6.1,0,0,0,1.039.693l-.192.269h0a.038.038,0,0,0,.038.038.455.455,0,0,1,.038.385,6.315,6.315,0,0,1-.616,1.116v.038a.676.676,0,0,1-.154.192c-.077.077-.154.231-.269.385-.038.038-.038.077-.077.115a.038.038,0,0,1-.038.038h0a.792.792,0,0,0,.308,1.039.714.714,0,0,0,.269.077.862.862,0,0,0,.731-.462h0a.038.038,0,0,1,.038-.038c0-.038.038-.077.077-.115.038-.154.115-.269.154-.423l.077-.231h0a6.513,6.513,0,0,1,.5-1.193.6.6,0,0,1,.308-.231c.038,0,.038,0,.038-.038h0l.154-.308a9.059,9.059,0,0,0,3.348.616,7.706,7.706,0,0,0,2.078-.269,11.5,11.5,0,0,0,1.231-.346l.154.269h0c.038,0,.038,0,.038.038a.6.6,0,0,1,.308.231,6.513,6.513,0,0,1,.5,1.193v.038l.077.231a1.378,1.378,0,0,0,.154.423c.038.038.038.077.077.115a.038.038,0,0,0,.038.038h0a.862.862,0,0,0,.731.462.906.906,0,0,0,.308-.077.644.644,0,0,0,.346-.423.99.99,0,0,0-.038-.577h0a.038.038,0,0,0-.038-.038c0-.038-.038-.077-.077-.115a1.382,1.382,0,0,0-.269-.385.676.676,0,0,0-.154-.192V33.7a4.547,4.547,0,0,1-.616-1.116.455.455,0,0,1,.038-.385.038.038,0,0,1,.038-.038h0l-.115-.308A9.512,9.512,0,0,0,32.22,26.62l.308.038h0a.038.038,0,0,0,.038-.038.437.437,0,0,1,.308-.115h.038a6.47,6.47,0,0,1,1.231.346h.038a.547.547,0,0,0,.231.077,2.063,2.063,0,0,0,.423.192c.038,0,.077.038.154.038.038,0,.038,0,.077.038h0a.347.347,0,0,0,.192.038.837.837,0,0,0,.77-.539.907.907,0,0,0-.693-.808ZM24.215,24.7l-1.039.5-1.039-.5-.269-1.116.731-.924h1.154l.731.924Zm6.273-2.5a7.368,7.368,0,0,1,.154,2.424L26.986,23.58h0a.629.629,0,0,1-.462-.77.62.62,0,0,1,.154-.269l2.886-2.617A7.829,7.829,0,0,1,30.488,22.195ZM28.41,18.5l-3.156,2.232a.654.654,0,0,1-.847-.154.349.349,0,0,1-.115-.269l-.231-3.887A7.242,7.242,0,0,1,28.41,18.5Zm-6.965-1.963.77-.154-.192,3.848h0a.641.641,0,0,1-.654.616.906.906,0,0,1-.308-.077L17.865,18.5a7.642,7.642,0,0,1,3.579-1.963Zm-4.695,3.387,2.848,2.54h0a.618.618,0,0,1,.077.885.433.433,0,0,1-.308.192l-3.733,1.078a8.1,8.1,0,0,1,1.116-4.695Zm-.654,6.5,3.81-.654a.63.63,0,0,1,.654.5.455.455,0,0,1-.038.385h0L19.058,30.2A7.57,7.57,0,0,1,16.1,26.428ZM24.831,31.2a7.787,7.787,0,0,1-1.655.192,8.625,8.625,0,0,1-2.424-.385l1.886-3.425a.6.6,0,0,1,.77-.154,1.928,1.928,0,0,1,.308.269h0l1.847,3.348A6.252,6.252,0,0,0,24.831,31.2Zm4.695-3.348a7.348,7.348,0,0,1-2.309,2.309l-1.5-3.617a.626.626,0,0,1,.346-.731,1.124,1.124,0,0,1,.346-.077l3.848.654A5.778,5.778,0,0,1,29.526,27.852Z" transform="translate(1477.348 4051.325) translate(-6.437 -6.57)"/><line x2="76.548" y1="76.548" fill="none" stroke="#dbdbdb" stroke-linecap="round" stroke-width="3" data-name="Linie 50" transform="translate(1321.592 3943.647)"/><line x1="76.548" y1="76.548" fill="none" stroke="#dbdbdb" stroke-linecap="round" stroke-width="3" data-name="Linie 51" transform="translate(1170.781 3943.647)"/><g filter="url(#a)" transform="translate(1241.362 4016.456) matrix(1, 0, 0, 1, -268.36, -144.05)"><path fill="#0087be" d="M42.417,115.249,8.407,95.774V56.492h.047L0,51.6v49.019H0l42.417,24.509h0Z" data-name="Pfad 88" transform="translate(268.36 116.96)"/></g><path fill="#0087be" d="M61.159,86.977h0L35.748,72.3H35.7v29.4l25.459,14.582Z" data-name="Pfad 89" transform="translate(1241.362 4016.456) translate(-18.743 -37.958)"/><g filter="url(#b)" transform="translate(1241.362 4016.456) matrix(1, 0, 0, 1, -268.36, -144.05)"><path fill="#1aa6e4" d="M84.881,24.509,42.417,0,0,24.509H0L8.455,29.4,42.417,9.785l34.057,19.57,8.407-4.845Z" data-name="Pfad 90" transform="translate(268.36 144.05)"/></g><g filter="url(#c)" transform="translate(1241.362 4016.456) matrix(1, 0, 0, 1, -268.36, -144.05)"><path fill="#1aa6e4" d="M86.719,55.977,61.259,41.3,35.8,56.025,61.212,70.7Z" data-name="Pfad 91" transform="translate(249.57 122.37)"/></g><path fill="#0092cf" d="M89.3,86.925h0L114.807,72.2h0Z" data-name="Pfad 93" transform="translate(1241.362 4016.456) translate(-46.883 -37.906)"/><path fill="#0092cf" d="M161,56.445h0l8.407-4.845h0Z" data-name="Pfad 94" transform="translate(1241.362 4016.456) translate(-84.527 -27.091)"/><g filter="url(#d)" transform="translate(1241.362 4016.456) matrix(1, 0, 0, 1, -268.36, -144.05)"><path fill="#0092cf" d="M131.764,51.6l-8.407,4.845-8.55,4.94L89.3,76.109h0v4.37h0V92.117h0v13.3h0l25.507-14.63V81.1l-17.1,9.737v-9.88l25.649-14.582v29.4L89.3,115.249v9.88l42.464-24.509h0Z" data-name="Pfad 95" transform="translate(221.48 116.96)"/></g><g filter="url(#e)" transform="matrix(1, 0, 0, 1, 973, 3872.41)"><path fill="#1b1f23" fill-rule="evenodd" d="M31.219,0a31.22,31.22,0,0,0-9.873,60.838c1.561.273,2.146-.663,2.146-1.483,0-.741-.039-3.2-.039-5.815-7.844,1.444-9.873-1.912-10.5-3.668-.351-.9-1.873-3.668-3.2-4.41-1.093-.585-2.654-2.029-.039-2.068,2.458-.039,4.215,2.263,4.8,3.2,2.81,4.722,7.3,3.4,9.093,2.576a6.567,6.567,0,0,1,1.99-4.176c-6.946-.78-14.2-3.473-14.2-15.414a12.15,12.15,0,0,1,3.2-8.39,11.218,11.218,0,0,1,.312-8.273s2.615-.819,8.585,3.2a29.433,29.433,0,0,1,15.609,0c5.971-4.058,8.585-3.2,8.585-3.2A11.218,11.218,0,0,1,48,21.19a12.079,12.079,0,0,1,3.2,8.39c0,11.98-7.3,14.634-14.244,15.414,1.132.976,2.107,2.849,2.107,5.776,0,4.176-.039,7.532-.039,8.585,0,.819.585,1.8,2.146,1.483A31.236,31.236,0,0,0,31.219,0Z" data-name="Octicons-mark-github" transform="translate(435.23 6)"/></g><path fill="#bcbcbc" d="M11.959,16.3a3.873,3.873,0,1,1,3.873,3.873A3.874,3.874,0,0,1,11.959,16.3ZM15.832,0A16.291,16.291,0,0,0,.031,12.269c0,.062-.031.093-.031.155a.767.767,0,0,0,.775.775H7.343a.783.783,0,0,0,.713-.465h0a8.551,8.551,0,1,1,0,7.126h0a.783.783,0,0,0-.713-.465H.775A.767.767,0,0,0,0,20.17a.279.279,0,0,0,.031.155A16.315,16.315,0,1,0,15.832,0Z" transform="translate(1048.529 4051.261)"/><g data-name="g10"><g fill="#bcbcbc"><path d="M8.137,41.594c-.068.023-.135.048-.2.073l.119.71v.013l.04-.017.046-.308Zm-3.346,1.8A12.075,12.075,0,0,0,3.5,44.538a12.425,12.425,0,0,0,0,17.292,12.114,12.114,0,0,0,.925.852l-.09-1.044c-.108-.1-.214-.205-.318-.312a11.7,11.7,0,0,1,0-16.284c.231-.237.475-.461.726-.676l-.053-.444Zm15.037.574.06,1.048.027.027a11.717,11.717,0,0,1,1.3,14.689l.222-.07.63.083a12.447,12.447,0,0,0-1.638-15.206C20.235,44.341,20.034,44.152,19.828,43.968ZM17.67,63.106l-.063.036.076.786c.028-.016.055-.034.083-.05Z" transform="translate(1556.07 4050.766) translate(0 -37.196)"/><path fill-rule="evenodd" d="M99.192-274.194c-1.2-.281-1.8.5-2.169,1.318-.326-.079-.2-.523-.114-.749a2.047,2.047,0,0,1,1.8-1.276c.306.046.719.325.488.706" transform="translate(1556.07 4050.766) translate(-86.54 278.83)"/><path fill-rule="evenodd" d="M167.738-255.233l.057,0a12.463,12.463,0,0,0,.851,1.664c-.23.536-1.742,1.01-1.719.048.327-.143.892-.029,1.182-.212a3.28,3.28,0,0,1-.371-1.5" transform="translate(1556.07 4050.766) translate(-149.216 261.24)"/><path fill-rule="evenodd" d="M116.791-255.094a5.053,5.053,0,0,0,.71,1.329c.165.161.487.358.328.806a1.022,1.022,0,0,1-.467.388c-.574.169-1.912.035-1.459-.681.475.022,1.113.308,1.468-.036-.273-.436-.758-1.3-.58-1.806" transform="translate(1556.07 4050.766) translate(-103.522 261.116)"/><path fill-rule="evenodd" d="M142.718-246.345a4.786,4.786,0,0,1-3.245,1.019.961.961,0,0,1-.124-1.235c.153.263.057.747.483.82.8.138,1.739-.492,2.317-.712.359-.6-.031-.827-.354-1.216a4.815,4.815,0,0,1-1.516-2.978c.267-.194.29.3.329.385a10.9,10.9,0,0,0,1.848,2.533c.156.17.412.334.441.446.082.327-.214.72-.18.938" transform="translate(1556.07 4050.766) translate(-124.411 257.181)"/><path fill-rule="evenodd" d="M50.924-228.117c-.271-.155-.335-.836-.654-.855-.455-.028-.372.884-.37,1.417a1.665,1.665,0,0,1-.138-1.608c-.262-.129-.379.142-.524.237.187-1.357,1.985-.629,1.686.809" transform="translate(1556.07 4050.766) translate(-44.014 238.368)"/><path fill-rule="evenodd" d="M159.379-204.4a2.489,2.489,0,0,1-2.152,1.634,2.916,2.916,0,0,1,0-.773,6.2,6.2,0,0,0,2.151-.861" transform="translate(1556.07 4050.766) translate(-140.522 215.803)"/><path fill-rule="evenodd" d="M124.408-199.721a7.474,7.474,0,0,0,3.161.409,3.586,3.586,0,0,1,.056.775c-1.316.066-2.872-.26-3.217-1.183" transform="translate(1556.07 4050.766) translate(-111.208 211.619)"/><path fill-rule="evenodd" d="M120.365-192.761c.521,1.308,2.311,1.157,3.82,1.121a.808.808,0,0,1-.39.443,3.829,3.829,0,0,1-2.489-.01,3.406,3.406,0,0,1-.933-1.038c-.113-.145-.674-.515-.009-.516" transform="translate(1556.07 4050.766) translate(-107.308 205.398)"/><path fill-rule="evenodd" d="M187.5-89.326c-.684.137-1.165.8-1.833.759a2.186,2.186,0,0,1,1.833-.759" transform="translate(1556.07 4050.766) translate(-165.968 112.937)"/><path fill-rule="evenodd" d="M190.8-80.618a10.028,10.028,0,0,1-1.778.1c.268-.409,1.3-.268,1.778-.1" transform="translate(1556.07 4050.766) translate(-168.967 105.3)"/><path fill-rule="evenodd" d="M190.743-72.638c-.627.014-1.406,0-2-.049.352-.379,1.6-.14,2,.049" transform="translate(1556.07 4050.766) translate(-168.715 98.243)"/><path fill-rule="evenodd" d="M37.3-283.609c-.029.7.069,1.818.1,2.551a2.562,2.562,0,0,0,1.01-.218,14.734,14.734,0,0,0-.363-2.447C37.865-283.772,37.528-283.594,37.3-283.609Zm-7.23-3.972a36.509,36.509,0,0,0,1.563,7.674,10.171,10.171,0,0,0,5.577.1c-.293-1.407-.165-3.12-.336-4.621-.129-1.128-.063-2.264-.24-3.415A19.119,19.119,0,0,0,30.069-287.581Zm7.021-.243c-.016,1.209.054,2.4.146,3.612.464-.07.779-.116,1.211-.211a26.019,26.019,0,0,0-.408-3.507A2.875,2.875,0,0,0,37.09-287.825Zm2.355-.195a2.891,2.891,0,0,0-.687,0c.1.985.339,2.073.423,3.107a2.877,2.877,0,0,0,.781-.2,6.255,6.255,0,0,0-.517-2.911Zm3.566,3.258a1.532,1.532,0,0,0,.931-1.882,8.9,8.9,0,0,0-.607-2.056c-.182-.276-.677-.638-1.072-.385-.643.412-1.775.531-2.244,1.029a16.607,16.607,0,0,1,.4,2.849,8.4,8.4,0,0,1,2.459.067,9.347,9.347,0,0,0-1.474.372,3.075,3.075,0,0,0,1.6,0Zm-6.42-4.2a14.111,14.111,0,0,0-1.649-3.241c-.7.47-1.474.913-1.671,1.767A16.9,16.9,0,0,0,36.591-288.96Zm1.2-3.531a14.668,14.668,0,0,1-.48,3.53,26.67,26.67,0,0,0,1.921-3.045A1.112,1.112,0,0,0,37.786-292.491Zm-1.355-.481c-.275-.03-.508.316-.865.167-.082.09-.156.188-.24.277a20.9,20.9,0,0,1,1.757,3.417,14.993,14.993,0,0,0,.361-3.42C37-292.5,36.746-292.939,36.431-292.973Zm-.871-1.15a2.531,2.531,0,0,0,.112.805C36.743-292.983,36.556-294.786,35.56-294.123Zm-1.187-.39a6.6,6.6,0,0,0-1.75-.64c-.738-.141-.669,1.007-.638,1.692a5.439,5.439,0,0,0,.429,1.477c.058.168.07.347.214.38a3.514,3.514,0,0,0,1.332-.406,15.251,15.251,0,0,0,1.327-1.007q.008-.214.017-.429a2.259,2.259,0,0,0-.935-.236c.257-.129.635-.127.869-.281,0-.057,0-.114.007-.171a1.805,1.805,0,0,1-.872-.377Zm-4.405-.8c-.383.389,1.074.918,1.537.947,0-.246.14-.478.111-.654A4.9,4.9,0,0,1,29.968-295.312Zm4.715.182c0,.038-.051.024-.059.055a1.949,1.949,0,0,0,1.529.431c.3-.219.57-.476.885-.681C36.313-295.26,35.4-294.81,34.683-295.13Zm4.328,1.312c-.021-.432-.134-1.32-.4-1.475-.56-.327-1.556.66-1.978.811a1.231,1.231,0,0,1,.127.406,1.2,1.2,0,0,1,.769.087,1.58,1.58,0,0,0-.693.145,6.261,6.261,0,0,0-.025.657,8.4,8.4,0,0,0,2.021.279A1.505,1.505,0,0,0,39.011-293.818Zm-9.688-1.119c-.12-.086-.933-1.144-1.045-1.1A17.5,17.5,0,0,0,24.2-293.5a22.213,22.213,0,0,1,1.729,8.567c1.343.628,2.522,1.533,4.344,1.628-.211-1.492-.4-2.823-.523-4.227-.458-.193-1.115.009-1.543-.06,0-.516.654-.226.709-.573.041-.263-.362-.283-.231-.7.335.122.511.391.868.492.326-.714,0-1.978.042-2.574.009-.112.056-.621.307-.532.222.079-.013,1.353.012,1.918a2.964,2.964,0,0,0,.148,1.351,50.325,50.325,0,0,1,5.455-.447,13.2,13.2,0,0,1-1.463-.658c-.3-.167-1.229-.514-1.314-.795-.136-.448.357-.686.442-1.07-.889.485-1.062-.465-1.272-1.137a8.839,8.839,0,0,1-.346-1.416,15.317,15.317,0,0,1-2.243-1.2Zm8.91-.972c1.226-.594,1.447,2.222.966,3.129.074.271.33.374.434.617-.684,1.225-1.444,2.369-2.142,3.58.519-.323,1.261-.058,1.872-.3.223-.088.385-.6.554-1.009a21.937,21.937,0,0,0,1.171-3.618,4.578,4.578,0,0,0,.153-1c-.053-.39-.583-.679-.852-.92-.5-.445-.808-.837-1.325-1.254-.21.31-.66.517-.831.769ZM26.52-306.78c-.584.643-.462,1.847-.391,2.7a1.57,1.57,0,0,1,2.444,1.182c.5-.013.188-.63.1-1.027-.3-1.3.5-2.705.036-3.891A3.2,3.2,0,0,0,26.52-306.78Zm4.18-3.73a5.9,5.9,0,0,0-3.561,2.524c.421-.061.713-.273,1.128-.3a2.777,2.777,0,0,0,.543.021c.359-.089.663-.895.934-1.194s.582-.418.8-.685c.14-.067.346-.063.354-.272C30.836-310.481,30.772-310.531,30.7-310.51Zm6.884.353c-1.373-.774-3.7-1.357-5.156-.629-1.178.587-2.771,1.559-3.314,2.791.507,1.189-.15,2.278-.192,3.484-.022.642.3,1.2.327,1.9-.174.286-.7.322-1.071.3-.124-.618-.34-1.313-.977-1.383a1.478,1.478,0,0,0-1.6,1.426c-.048.916.7,2.435,1.77,2.33.412-.041.513-.454.962-.449.243.485-.375.638-.439.985a2.788,2.788,0,0,0,.091.6,8.247,8.247,0,0,0,1.05,2.445c.539.773,1.6.889,2.739.965.2-.439.954-.4,1.442-.288a4.832,4.832,0,0,1-1.581-1.292,3.245,3.245,0,0,1-1.07-1.93c.98,1.359,1.789,2.546,3.57,3.143a4.748,4.748,0,0,0,3.957-.934,4.546,4.546,0,0,0,.992-1.221,10.349,10.349,0,0,0,1.559-6.265,6.952,6.952,0,0,0-.361-2.5c-.329-.66-1.441-1.25-2.093-.653-.121-.642.542-1.038,1.319-.808a7.357,7.357,0,0,0-1.925-2.021Zm2.557,21.163c1.073-.533,3.077-1.435,3.749,0a12.186,12.186,0,0,1,.668,1.972c.182.771-.2,2.393-.99,2.652a4.707,4.707,0,0,1-2.361.045,1.287,1.287,0,0,1-.287-.377,3.258,3.258,0,0,0-1.642.28c.045.445-.256.517-.539.609-.209.83.419,1.915.269,2.672-.107.539-.771.623-1.259.724a4.145,4.145,0,0,0,.055.8,1.217,1.217,0,0,1-1.086.7,13.639,13.639,0,0,1-5.428-.268c-.419-1.027-.748-2.276-1.1-3.448-1.463.156-2.646-.631-3.762-1.147-.386-.179-.921-.278-1.065-.585a5.265,5.265,0,0,1-.117-1.407,21.378,21.378,0,0,0-.527-4.113c-.163-.632-.448-1.19-.646-1.8a12.983,12.983,0,0,1-.587-1.826c-.124-.835.662-.881,1.165-1.243.777-.559,1.387-.869,2.228-1.373a5.075,5.075,0,0,0,1.086-.7c.17-.345-.292-.833-.415-1.1a3.319,3.319,0,0,1-.325-1.215,2.343,2.343,0,0,1-1.564-1.005,3.853,3.853,0,0,1-.443-3.337c.036-.087.217-.258.244-.391a4.52,4.52,0,0,0-.108-.892c-.049-1.434.243-2.669,1.208-3.1.392-1.561,1.794-2.08,3.116-2.856a9.8,9.8,0,0,1,1.6-.682c2.017-.742,5.112-.6,6.786.664a9.112,9.112,0,0,1,2.25,2.491c1.072,2.167,1,5.788.246,8.424a8.48,8.48,0,0,1-.451,1.3c-.142.3-.585.891-.531,1.153s1.009.995,1.213,1.192c.368.355,1.067.826,1.124,1.274a4.511,4.511,0,0,1-.347,1.589c-.459,1.535-.907,2.955-1.427,4.324" transform="translate(1556.07 4050.766) translate(-20.983 311.855)"/><path fill-rule="evenodd" d="M145.549-126.967a.243.243,0,0,1-.243.243.243.243,0,0,1-.243-.243.243.243,0,0,1,.243-.243.243.243,0,0,1,.243.243" transform="translate(1556.07 4050.766) translate(-129.671 146.802)"/><path fill-rule="evenodd" d="M147.84-116.342a.243.243,0,0,1-.243.243.243.243,0,0,1-.243-.243.243.243,0,0,1,.243-.243.243.243,0,0,1,.243.243" transform="translate(1556.07 4050.766) translate(-131.719 137.304)"/></g></g><g fill="#bcbcbc"><path d="M93.153,46.506c.04,1.1.631,1.1,1.334,1.071.947-.017,1.466-.307,1.941-.079-.007-.026-.156-.47-.811-.393a1.394,1.394,0,0,0,.085-.691c-.086-1.1-.729-1.981-1.433-1.956S93.114,45.4,93.153,46.506ZM94.2,45.159a.359.359,0,1,1-.252.109A.358.358,0,0,1,94.2,45.159ZM83.5,47.775c.073,0,.149,0,.227,0s.136,0,.207,0c.705-.007,1.29.06,1.281-1.046s-.5-2-1.208-1.993-1.385.913-1.344,2.018a1.771,1.771,0,0,0,.123.646,1.119,1.119,0,0,0-.793.558,3.152,3.152,0,0,1,1.508-.176Zm.606-2.35a.358.358,0,1,1-.252.112.36.36,0,0,1,.252-.112Zm1.655-11.781h1.977v-.816h.445V36.6h-.672V38.7h3.462V36.6H90.3V32.829h.446v.816H92.73V30.852H85.766Z" data-name="Pfad 693" transform="translate(973 4051.325) translate(-71.528 -26.889)"/><path d="M33.622,12.266q-.019-.358-.068-.714c-.017-.119-.034-.239-.059-.356a3.628,3.628,0,0,0-.085-.365l-.025-.093-.065-.052a6.366,6.366,0,0,0-1.194-.716c-.341-.161-.686-.3-1.035-.429a14.752,14.752,0,0,0-4.853-6.774,12.671,12.671,0,0,0-15.487,0A14.347,14.347,0,0,0,6.614,7.861h0a16.03,16.03,0,0,0-.718,1.681c-.35.128-.7.269-1.036.429a6.352,6.352,0,0,0-1.194.716l-.066.052-.025.093q-.052.18-.086.365c-.023.117-.042.236-.058.356-.024.17-.04.342-.054.515h.006q-.009.1-.014.2a9.161,9.161,0,0,0,.307,2.844q.1.349.231.688c.044.114.092.226.146.34.027.056.056.112.085.169l.047.084c.018.031.031.054.058.094l.047.075.076.039c.08.041.148.072.221.107l.212.1.118.049a17.614,17.614,0,0,0-2.927,3.49L.835,22.151l1.612-1.415a26.675,26.675,0,0,1,3.634-2.52l.031.259.082.654.413,3.354a.227.227,0,0,0,.1.158l.846.594c.015.047.029.095.043.143.02.067.038.133.059.2l.193.583A13.251,13.251,0,0,0,9.6,27.709l-.105.031c-.44-.2-1.977-.917-2.494-1.15l-1.08-.485.639,1c.046.072,1.149,1.791,2.048,2.95a4.936,4.936,0,0,0,4.17,2.186,7.822,7.822,0,0,0,.818-.046c.649-.075,1.136-.133,1.507-.181A10.2,10.2,0,0,0,22.29,32a10.451,10.451,0,0,0,1.8-.887c.012,0,.022-.005.032-.007.889-.214,1.9-.455,2.4-.594.079-.022.18-.046.283-.07a3.282,3.282,0,0,0,2.471-1.665c.622-1.248,1.639-3.159,1.649-3.178l.476-.889-.924.4c-.051.022-1.222.533-1.832.852-.021.012-.047.023-.071.035a13.1,13.1,0,0,0,.831-2.124l.334-1.378.962-2.152s.27-2.353.276-2.351l.094-.9c.084-.036.6-.071.7-.111.143-.057.287-.112.43-.174l.211-.1c.075-.035.141-.066.221-.107l.076-.039.048-.075a1.03,1.03,0,0,0,.057-.095l.046-.084c.032-.057.06-.113.085-.169q.079-.168.148-.34.13-.339.23-.688a9.123,9.123,0,0,0,.306-2.843ZM11.663,18.074a22.576,22.576,0,0,1,2.3-1.271q2.307-.175,4.623-.175c.4,0,.8.006,1.193.013a7.673,7.673,0,0,1-.862.608l-1,.6a8.52,8.52,0,0,0-1.2.241.211.211,0,0,0-.052.022.225.225,0,0,0-.1.129L15.539,21.6,10.1,22.811l-1.715-1.2-.5-4.039c.973-.18,2.276-.386,3.839-.561q-.257.3-.484.632l-.931,1.336Zm7.343,14.051a8.177,8.177,0,0,1-2.7-.29c.075-.015.128-.023.195-.031a3.735,3.735,0,0,0,2.4-1.291l.068,0,.179,0c.119,0,.226-.01.341-.015a6.867,6.867,0,0,0,.8-.115c.028.027.055.055.084.084a3.052,3.052,0,0,0,1.952.9A10.739,10.739,0,0,1,19.007,32.125Zm.081-1.964c.135-.3.237-.535.314-.712q.288.321.587.632c-.177.027-.351.049-.522.063-.113,0-.23.017-.338.017h-.041Zm-2.67-6.93.486-.109a.226.226,0,0,0,.167-.156l1.016-3.343a3.016,3.016,0,0,1,.924,0l1.046,3.442a.228.228,0,0,0,.191.162l.388.044.1.011,6.682.76A.227.227,0,0,0,27.575,24l.671-.469.621-.434.23-.161c-.037.16-.079.319-.122.476q-.1.3-.2.6a16.093,16.093,0,0,1-.917,2.129q-.147.01-.293.01c-.325,0-.655-.026-1.02-.061-.635-.059-1.64-.174-1.957-.21-.276-.22-1.213-.963-1.992-1.577-.03-.023-.056-.048-.084-.07a.84.84,0,0,0-.608-.247,7.23,7.23,0,0,0-1.721.41,1.234,1.234,0,0,0,.532-.9,3.8,3.8,0,0,1-1.963.854,3.176,3.176,0,0,1-2.159-.588,1.29,1.29,0,0,0,.37.67,8.982,8.982,0,0,0-1.036-.064c-.131,0-.265,0-.394.01-.744.04-1.792,1.164-2.527,2.3-.361.114-1.491.473-2.8.857a14.914,14.914,0,0,1-1.59-2.848c-.172-.406-.269-.682-.29-.748v0c-.024-.066-.05-.137-.072-.207l.313.219v0l.775.544.259.18a.231.231,0,0,0,.131.041.265.265,0,0,0,.051,0l6.633-1.479Zm4.122-4.986a.23.23,0,0,0-.156-.153,8.171,8.171,0,0,0-1.42-.263l.131-.01a21.507,21.507,0,0,0,4.225-1.009,57.878,57.878,0,0,1,5.887.746l-.49,3.436L26.989,22.2l-5.435-.617Zm11.931-4.629c-.061.443-.261,1.3-.261,1.3l-.157.026c-.082-.022-.846-.221-2.162-.464l.123-.027a6.064,6.064,0,0,0,.8-.257,3.73,3.73,0,0,0,.38-.184,1.308,1.308,0,0,0,.332-.254c-1.318.431-4.041.235-6.462-.015a66.181,66.181,0,0,0-6.664-.381,66.485,66.485,0,0,0-6.663.381c-2.421.25-5.144.446-6.461.015a1.321,1.321,0,0,0,.334.254,3.8,3.8,0,0,0,.379.184,6.159,6.159,0,0,0,.8.257c.1.022.194.044.292.061-1.2.228-1.9.409-1.974.43,0,0-.277.045-.337-.167a7.653,7.653,0,0,1-.261-1.163,9.763,9.763,0,0,1-.083-1.329c0-.073,0-.219,0-.219,0-.149.011-.3.025-.448.008-.11.414-.463.762-.664.376-.219.772-.416,1.174-.6a15.563,15.563,0,0,1,2.47-.6c.779-.143,3.565-.512,3.774-.59s1.412-1.008,1.623-1.085c-.442.073-6.557,1.007-6.833,1.094,1.985-5.191,5.881-7.719,11.067-7.719S27.574,3.84,29.56,9.032a54.79,54.79,0,0,0-6.7-1.1c.211.077,1.4.915,1.623.943a49.486,49.486,0,0,1,4.88.951c.411.167.823.338,1.222.526a13.117,13.117,0,0,1,1.174.6,2.132,2.132,0,0,1,.762.664c.019.222.027.443.03.666a9.775,9.775,0,0,1-.084,1.33Z" data-name="Pfad 694" transform="translate(973 4051.325) translate(-0.835 -0.127)"/></g><g><path fill="#bcbcbc" fill-rule="evenodd" d="M45.721,13.294a7.933,7.933,0,0,0-5.11-.61,7.006,7.006,0,0,0-2.848-4.621l-.963-.7-.67,1A8.262,8.262,0,0,0,35,13.25a5.823,5.823,0,0,0,.88,2.659,6.984,6.984,0,0,1-3.393.785H2.2l-.084.349A15.667,15.667,0,0,0,5.259,28.421c2.6,3.182,6.451,4.8,11.519,4.8,10.974,0,19.1-5.275,22.912-14.822,1.508.044,4.733,0,6.367-3.27.042-.087.126-.262.419-.915l.168-.349-.922-.567ZM26.412,1H21.8V5.359h4.608V1Zm0,5.231H21.8v4.359h4.608V6.231Zm-5.445,0H16.359v4.359h4.608V6.231Zm-5.445,0H10.914v4.359h4.608V6.231Zm-5.445,5.231H5.469v4.359h4.608V11.463Zm5.445,0H10.914v4.359h4.608V11.463Zm5.445,0H16.359v4.359h4.608V11.463Zm5.445,0H21.8v4.359h4.608V11.463Zm5.445,0H27.25v4.359h4.608V11.463Z" transform="translate(1126.021 4051.638) translate(-2 -1)"/></g><g><path fill="#bcbcbc" d="M32.316,15.09,17.935.711a2.121,2.121,0,0,0-3,0L11.949,3.7l3.788,3.788a2.519,2.519,0,0,1,3.19,3.211l3.651,3.651a2.521,2.521,0,1,1-1.512,1.423l-3.4-3.4v8.96a2.519,2.519,0,1,1-2.075-.073V12.209a2.49,2.49,0,0,1-.827-.551A2.523,2.523,0,0,1,14.216,8.9L10.482,5.164l-9.86,9.86a2.122,2.122,0,0,0,0,3L15,32.4a2.121,2.121,0,0,0,3,0L32.316,18.092a2.122,2.122,0,0,0,0-3" data-name="Pfad 698" transform="translate(1397.386 4050.919) translate(0 -0.09)"/></g></g></svg>