<svg xmlns="http://www.w3.org/2000/svg" xmlns:xlink="http://www.w3.org/1999/xlink" width="94.136" height="94.137" viewBox="0 0 94.136 94.137">
  <defs>
    <pattern id="pattern" patternUnits="userSpaceOnUse" preserveAspectRatio="xMidYMin slice" width="94.137" height="94.137" viewBox="150 0 94.137 94.137">
        <image xlink:href="https://user-images.githubusercontent.com/46004116/70911894-9fd2c500-2034-11ea-98ae-828306d5a181.jpg" height="100" width="370" />
    </pattern>
  </defs>
  <g transform="matrix(1, 0, 0, 1, 0, 0)">
    <path id="andy-holmes-rCbdp8VCYhQ-unsplash-2" data-name="andy-holmes-rCbdp8VCYhQ-unsplash" d="M0,38.068V76.135H76.137V0H0Zm61.356-3.033a9.482,9.482,0,0,1,4.762,2.743,12.509,12.509,0,0,1,1.825,2.441c.024.1-3.287,2.32-5.294,3.565-.071.048-.363-.265-.69-.749a4.31,4.31,0,0,0-3.577-2.151c-2.308-.157-3.807,1.052-3.783,3.069a2.792,2.792,0,0,0,.326,1.428c.508,1.052,1.451,1.68,4.411,2.962,5.451,2.344,7.782,3.89,9.231,6.091a11.055,11.055,0,0,1,.883,9.281c-1.209,3.167-4.205,5.318-8.422,6.031a23.359,23.359,0,0,1-5.8-.059A13.992,13.992,0,0,1,47.48,65.65,13.384,13.384,0,0,1,45.5,62.711a5.78,5.78,0,0,1,.7-.447l2.828-1.63,2.189-1.269.459.678a10.214,10.214,0,0,0,2.888,2.767c2.429,1.281,5.765,1.1,7.408-.375a3.31,3.31,0,0,0,.423-4.217c-.592-.845-1.8-1.558-5.234-3.045-3.928-1.692-5.62-2.743-7.166-4.411A10.046,10.046,0,0,1,47.9,46.955a15.24,15.24,0,0,1-.133-4.858c.809-3.807,3.673-6.442,7.807-7.227a19.309,19.309,0,0,1,5.777.169ZM43.482,38.21l.024,3.117H33.6V69.485H26.587V41.327H16.678V38.27l.083-3.141c.036-.048,6.067-.071,13.378-.059l13.306.036Z" transform="translate(9 6)" fill="url(#pattern)"/>
  </g>
</svg>
