<svg xmlns="http://www.w3.org/2000/svg" width="28.724" height="23.348" viewBox="0 0 28.724 23.348"><path fill="#b5b5b5" d="M28.724,5.012a11.766,11.766,0,0,1-3.385.928,5.9,5.9,0,0,0,2.591-3.26,11.806,11.806,0,0,1-3.743,1.427A5.9,5.9,0,0,0,14.146,9.48,16.73,16.73,0,0,1,2,3.327,5.9,5.9,0,0,0,3.823,11.2a5.865,5.865,0,0,1-2.668-.737,5.9,5.9,0,0,0,4.726,5.856,5.906,5.906,0,0,1-2.662.1A5.9,5.9,0,0,0,8.725,20.5,11.849,11.849,0,0,1,0,22.945a16.683,16.683,0,0,0,9.034,2.647A16.666,16.666,0,0,0,25.784,8.063a12,12,0,0,0,2.941-3.051Z" transform="translate(0 -2.245)"/></svg>
