<svg xmlns="http://www.w3.org/2000/svg" width="116.521" height="71.526" viewBox="0 0 116.521 71.526"><path d="M305.72,115.889c-4.938-9.669-5.116-18.31-2.1-25.9,3.512-8.832,11.353-16.187,21.04-22.062l1.347-.816L326,68.68l-.061,11.188a65.709,65.709,0,0,1,14.454,2.323c6.924,1.664,12.7,3.394,19.457,2.39,5.8-.857-7.061,11.352-24.958,15.017-11.483,2.353-17.435,8.9-19.165,15.722a17.212,17.212,0,0,0,.784,10.969,13.714,13.714,0,0,0,7.14,7.339c4.2,1.8,9.791,1.557,16.331-2.106a46.985,46.985,0,0,0,7.408-.873q.543-.106,1.085-.223l-.561.447c-10.278,8.2-19.28,9.173-25.785,6.27a17.877,17.877,0,0,1-9.022-9.357A21.373,21.373,0,0,1,312,114.268c1.983-8.114,8.831-15.8,22.105-18.519a71.547,71.547,0,0,0,11.447-3.166,29.222,29.222,0,0,0,7.729-4.278c-3.163-.024-6.81-.9-10.879-1.876-5.752-1.382-12.377-2.972-19.479-2.554l-.938.056,0-.941.05-8.777c-7.266,4.952-12.685,11-15.084,17.942a25.991,25.991,0,0,0,.475,17.894A21.62,21.62,0,0,0,306,116.431Z" transform="translate(-301.626 -67.107)" fill="#fff" fill-rule="evenodd"/><path d="M377.508,125.328l2.929-3.1,4.139,3.483Z" transform="translate(-352.724 -104.225)" fill="#fff" fill-rule="evenodd"/><path d="M348.5,138.516c10.388,4.863,19.877,3.947,28.8.227,9.031-3.765,17.537-10.409,25.813-16.876,2.564-2,5.108-3.991,7.645-5.879l-13.224,4.161,6.5-15.435-.992.3a40.718,40.718,0,0,0-6.177,6.772,74.89,74.89,0,0,0-8.686,16.048c-1.816,1.2-3.651,2.33-5.5,3.365a87.207,87.207,0,0,1,10.579-21.121c4.424-6.181,9.429-10.552,15.026-13.066,5.723-2.57,11.873-2.944,18.588-1.324,3.661.726,27.2,12.4,20.866,12.006-13.7-5.038-27.194,5.527-40.838,16.208l-1.365,1.067c-8.468,6.617-17.167,13.413-26.564,17.389-9.495,4.017-19.646,5.141-30.868.3l-.423-.183-.092-.456c-.087-.429-.159-.867-.215-1.31s-.1-.9-.125-1.337l-.084-1.473Z" transform="translate(-332.287 -85.694)" fill="#fff" fill-rule="evenodd"/></svg>
