<svg xmlns="http://www.w3.org/2000/svg" width="72.432" height="23.442" viewBox="0 0 72.432 23.442"><defs><style>.a{fill:#00579f;}.b{fill:#faa61a;}</style></defs><g transform="translate(-81.166 -105.048)"><path class="a" d="M439.374,133.419h-5.867l3.67-22.692h5.867Z" transform="translate(-326.822 -5.268)"/><path class="a" d="M582.779,106.014a14.46,14.46,0,0,0-5.263-.966c-5.794,0-9.875,3.09-9.9,7.507-.048,3.259,2.921,5.07,5.142,6.156,2.27,1.11,3.042,1.835,3.042,2.825-.023,1.52-1.834,2.221-3.524,2.221a11.678,11.678,0,0,1-5.505-1.207l-.773-.363-.821,5.094a17.857,17.857,0,0,0,6.544,1.208c6.157,0,10.165-3.042,10.212-7.75.023-2.583-1.545-4.563-4.925-6.18-2.052-1.038-3.309-1.738-3.309-2.8.024-.966,1.063-1.955,3.38-1.955a9.969,9.969,0,0,1,4.371.869l.531.241.8-4.9Z" transform="translate(-448.957 0)"/><path class="a" d="M799.6,125.38c.483-1.3,2.343-6.349,2.343-6.349-.024.048.482-1.328.772-2.173l.41,1.955s1.111,5.432,1.352,6.566Zm7.243-14.653H802.3a2.9,2.9,0,0,0-3.067,1.883l-8.715,20.809h6.157l1.231-3.4h7.533c.168.8.7,3.4.7,3.4h5.433l-4.734-22.692Z" transform="translate(-657.978 -5.268)"/><path class="a" d="M180.322,110.727,174.576,126.2l-.628-3.138a17.369,17.369,0,0,0-8.112-9.512l5.263,19.844h6.2l9.223-22.668Z" transform="translate(-78.537 -5.268)"/><path class="b" d="M90.7,110.727h-9.44l-.1.458c7.364,1.883,12.241,6.422,14.245,11.878l-2.052-10.429c-.338-1.449-1.376-1.86-2.656-1.907Z" transform="translate(0 -5.268)"/></g></svg>