<svg xmlns="http://www.w3.org/2000/svg" xmlns:xlink="http://www.w3.org/1999/xlink" viewBox="20 0 1900 150">
  <defs>
    <pattern id="img1" patternUnits="userSpaceOnUse" width="2200" height="350" viewBox="140 0 1900 350">
        <image xlink:href="https://user-images.githubusercontent.com/46004116/70911894-9fd2c500-2034-11ea-98ae-828306d5a181.jpg" y="-900" width="2000" />
    </pattern>
  </defs>
  <g id="Gruppe_667" data-name="Gruppe 667" transform="translate(46.694 -309.281)">
    <g id="Gruppe_536" data-name="Gruppe 536" transform="translate(-46.694 309.281)">
        <path id="Pfad_657" data-name="Pfad 657" d="M401.873,664.294a11.731,11.731,0,0,1-7.558-2.548l-21.784-18.716a7.791,7.791,0,0,1-1.065-1.114L335.041,594.97a251.326,251.326,0,0,1-20.558,15.713c-24.421,16.663-45.789,23.938-63.508,21.631-16.271-2.121-27.994-11.746-34.847-28.609C196.64,555.756,159,550.887,153.285,549.546c-36.009,33.085-71.431,60.3-84.593,68.6-4.133,2.6-10.385,2.279-13.967-.726s-3.135-7.55,1-10.154c1.316-5.64,77.72-64.543,77.975-64.777,1.45-1.33,8.818-5.684,17.254-7.169a29.527,29.527,0,0,1,12.3,2.227c28.737,8.524,57.495,26.724,71.864,62.083,4.554,11.2,11.062,17.434,19.344,18.516,20.978,2.731,56.609-23.218,74.132-40.227a11.71,11.71,0,0,1,8.566-2.869,10.758,10.758,0,0,1,7.986,3.646l43.107,55.555L398.441,643l33.744-66.851c1.222-2.419,4.129-4.18,7.622-4.615a12.116,12.116,0,0,1,9.3,2.505l41.942,36.845,66.883-31.12c4.4-2.044,10.221-1.259,13.313,1.8.141.139,14.2,14.006,30.322,28.144,18.348,16.089,28.778,23.277,34.332,26.481,4.594-18.788,13.764-43.061,15.552-45.659.584-.85,3.905-5.028,11.927-3.815.958.145,2.1.371,3.593.714,2.311.529,5.447,1.331,9.589,2.454,6.691,1.812,15.917,4.439,27.423,7.806,18.861,5.519,37.844,11.274,39.27,11.707,30.149,8.687,43.616,13.879,49.9,17.19,13.22-4.463,48.517-18.307,80.154-31.2a12.791,12.791,0,0,1,11.9,1.232l54.815,40.527,1107.431-80.071c5.4-.648,10.493,2,11.386,5.926s-2.755,7.628-8.15,8.278l-1112.5,80.682a12.381,12.381,0,0,1-8.678-2.054l-53.129-39.28c-8.047,3.254-22.343,9.005-36.65,14.622-12.7,4.985-22.94,8.9-30.441,11.626-13.675,4.979-19.916,7.251-25.774,3.513a7.919,7.919,0,0,1-2.559-2.542c-6.075-3.02-27.227-9.946-45.08-15.089l-.168-.05c-26.154-7.943-54.97-16.4-68.759-20.065-3.608,9.444-9.912,27.5-12.686,41.113-.947,4.647-4.811,8.018-10.339,9.016-7.35,1.324-15.367-1.563-27.671-9.978a316.2,316.2,0,0,1-27-21.347c-11.411-9.874-22.145-19.973-28.381-25.949l-66.521,30.951c-4.213,1.96-9.776,1.329-12.966-1.474l-36.541-32.1-33.67,66.7c-1.215,2.406-4.1,4.161-7.569,4.609A13.549,13.549,0,0,1,401.873,664.294ZM780.8,632.15l-.006.01Zm.024-.045-.016.029Z" transform="translate(-52.306 -535.281)" fill="url(#img1)"/>
    </g>
  </g>
</svg>
