<svg xmlns="http://www.w3.org/2000/svg" viewBox="0 0 144.6 47.2"><defs><style>.cls-1{fill:#0091ce;}.cls-2{fill:#0086bd;}.cls-3{fill:#18a5e3;}.cls-4{fill:#fff;}</style></defs><title>Asset 1</title><g id="Layer_2" data-name="Layer 2"><g id="GOOD_DESIGN_IS_GOOD_BUSINESS_copy" data-name="GOOD   DESIGN   IS   GOOD   BUSINESS copy"><polygon class="cls-1" points="20.44 23.6 20.44 23.6 20.44 23.6 20.44 23.6 20.44 23.6 20.44 23.6 20.44 23.6"/><polygon class="cls-1" points="36.82 14.14 32.7 16.52 20.44 23.6 20.44 23.6 20.44 23.6 20.44 23.6 20.44 25.71 20.43 25.71 20.43 31.31 20.44 31.31 20.44 37.71 20.44 37.71 32.71 30.68 32.71 26 24.48 30.68 24.48 25.95 36.83 18.92 36.83 33.07 20.44 42.45 20.44 47.2 40.87 35.4 40.87 35.4 40.87 35.4 40.87 11.81 40.87 11.8 36.82 14.14"/><polygon class="cls-2" points="20.44 42.45 4.06 33.07 4.06 14.15 4.06 14.15 0 11.8 0 35.4 0 35.4 20.44 47.2 20.44 47.2 20.44 42.45 20.44 42.45"/><polygon class="cls-2" points="20.44 23.6 20.44 23.6 8.18 16.52 8.17 16.53 8.17 30.68 20.44 37.71 20.44 23.6 20.44 23.6 20.44 23.6"/><polygon class="cls-3" points="40.87 11.8 20.44 0 0 11.8 0 11.8 4.06 14.15 20.44 4.7 36.82 14.14 40.87 11.8 40.87 11.81 40.87 11.81 40.87 11.8"/><polygon class="cls-3" points="32.7 16.52 20.44 9.45 8.18 16.52 20.44 23.6 32.7 16.52"/><path class="cls-4" d="M68.35,30.9a8.52,8.52,0,0,1-6.22,2.32c-4.92,0-8.64-3.87-8.64-9s3.67-9,8.75-9a10.4,10.4,0,0,1,6.44,2.21l.23.17V15.65l-.05-.05a10.9,10.9,0,0,0-6.73-2.12,10.32,10.32,0,0,0-10.39,10.7,10.31,10.31,0,0,0,10.4,10.68A10.55,10.55,0,0,0,70,31.6l0,0v-9H68.34Z"/><rect class="cls-4" x="75.37" y="20.29" width="1.7" height="14.21"/><path class="cls-4" d="M76.2,14.23a1.31,1.31,0,1,0,1.3,1.3A1.3,1.3,0,0,0,76.2,14.23Z"/><path class="cls-4" d="M85.84,15.83h-1.7v4.46H80.62v1.56h3.52v8.82c0,2.7,1.35,4.18,3.78,4.18a5.49,5.49,0,0,0,2.79-.67l.06,0V32.46l-.2.11a4.56,4.56,0,0,1-2.27.63c-1.81,0-2.45-.77-2.46-2.92V21.84H91V20.28H85.85Z"/><path class="cls-4" d="M102,19.92a7,7,0,0,0-5.57,2.51V20.28h-1.7v20h1.7v-8A7,7,0,0,0,102,34.83a7.18,7.18,0,0,0,7.21-7.46A7.18,7.18,0,0,0,102,19.92Zm5.5,7.45a5.71,5.71,0,0,1-5.78,5.88,5.91,5.91,0,0,1-5.28-3.33v-5.1a5.88,5.88,0,0,1,5.28-3.31A5.7,5.7,0,0,1,107.5,27.37Z"/><path class="cls-4" d="M119.64,19.91a7.46,7.46,0,1,0,7.58,7.48A7.34,7.34,0,0,0,119.64,19.91Zm0,1.59a5.87,5.87,0,1,1-5.8,5.9A5.75,5.75,0,0,1,119.64,21.5Z"/><path class="cls-4" d="M142.88,13.77v8.66a7,7,0,0,0-5.58-2.53,7.19,7.19,0,0,0-7.22,7.49,7.17,7.17,0,0,0,7.23,7.42,7,7,0,0,0,5.57-2.51v2.15h1.71l0-20.68Zm0,11v5.1a5.93,5.93,0,0,1-5.28,3.31,5.68,5.68,0,0,1-5.78-5.83,5.71,5.71,0,0,1,5.77-5.91A6.05,6.05,0,0,1,142.89,24.81Z"/></g></g></svg>